<?xml version="1.0" encoding="utf-8"?>
<!-- Created with Majerus.net InkPaint (http://www.majerus.net/InkPaint/) -->
<!DOCTYPE svg PUBLIC "-//W3C//DTD SVG 1.1//EN" "http://www.w3.org/Graphics/SVG/1.1/DTD/svg11.dtd">
<svg xmlns="http://www.w3.org/2000/svg" version="1.1" width="361.55mm" height="164.75mm" viewBox="0 0 7231 3295" preserveAspectRatio="xMidYMid meet"><!-- Generator: Majerus.net InkPaint UWP 1.1.14.0 --><g fill="none" stroke-linecap="round" stroke-linejoin="round"><g stroke="#000000"><path stroke-width="0" fill="#000000" d="M549 681l-24 2-23 5-21 8-20 11-18 16-16 20-13 22-11 25-8 27-6 29-2 28-1 28 2 27 4 19 6 19 9 17 10 15 12 11 13 7 14 3 19-1 12-3 11-4 23-15 19-21 16-25 13-30 11-32 8-33 6-31 9-55 5-56 2-28-10-2-26-2-25-1zm53-619c16 0 28 10 31 25l1 3 1 12 4 24 6 27 11 52 1 2 6 53 1 1v1l4 53v1l2 53 5 115v1l1 116v1l-1 36h1l1 1c8 6 14 16 14 26 0 12-7 23-17 28l-1 1-2 24v2l-5 57-1 1-8 57v1 1l-7 33v1l-9 35-1 2-11 34v1l-1 2v1l-15 32v1l-1 2-1 2-19 30-1 1c0 0-1 1-1 2l-2 1-23 26h-1c-1 2-3 3-5 4l-28 19-3 2c-1 0-1 1-2 1h-1l-16 7-3 1h-2l-18 5h-1c-1 0-2 0-3 0h-2l-25 1-2 1c-2 0-4-1-6-1h-1l-23-6h-2c-2-1-4-2-6-3l-19-11h-1l-2-1c-1-1-2-1-2-2l-2-1-17-16-1-1c0 0-1-1-2-2l-1-1-14-19v-1c-1-1-1-2-2-3v-1l-11-21-1-2-1-2v-1l-8-22v-1c0-1 0-2-1-3v-1l-4-23-1-3v-1l-2-29v-3-31-3l4-31v-3-1l6-30v-1l1-2v-1l9-30c0-1 1-2 1-3l13-28v-1l1-2 1-1 15-27 1-1 2-3 19-23c1-1 1-2 2-2l2-2 22-19 1-1c0 0 1-1 2-2l2-1 24-14h1c1-1 2-1 3-2h1l26-10 2-1h2 1l26-6h1c1 0 2-1 3-1l28-2h3 29 2l28 3 2 1h3l1-21-2-115-4-114-2-53-4-52-7-50-11-51-6-26v-1-2l-5-26v-2l-1-12c0-2 0-3 0-4 0-17 14-31 31-31z" /><path stroke-width="0" fill="#000000" d="M895 1191c18 0 32 14 32 32 0 16-13 30-29 31h-2l-13 1-15 1-44 2-46 4-181 14-181 18-73 10-74 11h-1l-73 8h-1-1l-37 2h-2-36-1-2-1-3l-1-1h-3-1c-1 0-2 0-3 0l-2-1h-1-1c-13-4-23-16-23-31 0-17 15-31 32-31 2 0 4 0 6 0h1 2 1 36l35-1 72-8 73-11 74-10h1l182-18h1l181-15h1l46-3 44-3h1 15l14-1h1z" /><path stroke-width="0" fill="#000000" d="M405 1776l-7 1-8 4-11 8-11 8-31 26-27 31-12 16-10 16-7 17-5 16-2 9 1 9 3 8 4 8 5 6 6 5 8 3 8 2 6-1 6-2 6-4 7-7 14-22 12-24 20-48 16-49 9-36zm74-351c10 0 18 4 24 12h1l1 2 1 1c1 1 1 2 2 3v1l3 5v1l3 6v1l2 5 1 3 16 51v1 2l12 53v1l10 54v1l9 54 17 108 11 52 13 50 8 23 9 21 6 13 1 2c2 3 2 8 2 12 0 17-14 32-31 32-12 0-23-7-28-17l-1-1-6-14-1-1-10-23v-2l-9-25v-1l-1-1-14-52v-2l-11-53v-1l-1-1-17-109-8-54-1-2-3 29v1l-8 54v1h-1v1l-10 53v1l-13 53-1 1v1l-16 51-1 2v1l-20 49h-1v2l-14 27v1l-2 2v1l-17 26c-1 1-2 2-2 2l-2 2-11 11v1c-1 0-1 1-2 2l-2 1-12 9h-1c-1 1-3 2-5 3h-1l-14 5-1 1c-2 0-5 1-7 1h-1l-15 1h-2c-1 0-2 0-3 0h-3-1l-15-3v-1c-2 0-4-1-6-1l-1-1-14-6-2-1c-1-1-2-1-3-2l-1-1-12-9-1-1c-1 0-2-1-2-2l-2-2-10-11c-1-2-2-4-3-5l-8-13v-1c-1-1-1-3-2-5l-4-15-1-3c0-1 0-2-1-3l-1-16v-2c0-2 0-3 0-4l2-16 1-2c0-1 0-2 0-3v-1l7-20c0-1 0-2 1-3v-1l9-20 1-2 1-1 11-19h1v-1l1-1 13-19 2-1 1-1 30-34 1-1 1-1 33-28 1-1v-1l13-9 1-1 14-10c1 0 2-1 3-1l1-1 15-7h1c2-1 4-2 6-2h1l15-3 2-1c1 0 2 0 3 0 5 0 9 1 13 3h1l1-5 8-53 6-53 10-107 2-22v-2l3-21 1-2c3-14 15-25 31-25z" /><path stroke-width="0" fill="#000000" d="M1705 726c1 0 2 0 3 0l17 2c2 0 4 0 6 1h1l15 5 2 1c2 1 3 2 5 3h1l13 10 1 1c1 1 2 1 3 2l1 2 2 1v1l3 3 2 3 2 2v1l1 1 1 2c2 5 4 10 4 15 0 18-14 32-32 32-11 0-20-6-26-14v-1l-2-1v-1l-6-4-7-3-10-1-13 1-13 3-14 4-14 5-11 5-23 14-20 17-17 19-14 21-11 23-7 25-5 27-2 28 1 29 3 31 6 63v1l4 64v2l-1 32v3l-3 32v2 1h-1l-4 25v1l-1 1-6 26-1 1v1l-17 51-1 2-21 49v1l-22 47v1l-7 14-1 1c-5 10-16 17-28 17-17 0-31-14-31-32 0-4 1-9 2-12l1-2 6-13 22-47 20-48 17-48 6-24 4-23 3-30 1-29-4-61-6-63v-1l-3-32v-1l-1-32v-1-1l2-32v-1-3l6-30v-1c0-1 0-2 1-3l9-29c0-1 0-2 1-3v-1l13-27 1-2 1-2 16-25h1c0-1 1-2 1-3h1l20-23 1-1 2-2h1l23-20c1-1 2-1 2-2l2-1 27-16 1-1h2v-1l13-6h1l1-1 16-6h2l16-5h1l3-1 17-4h3 1l17-1h2z" /><path stroke-width="0" fill="#000000" d="M1298 1049c3 0 6 1 9 2h3l1 1h3l2 1 62 11 62 8 62 4 62-1h11l12-1 2-1c18 0 32 15 32 32 0 17-13 30-28 32h-1l-12 1-13 1h-2l-63 1h-1l-2-1-64-4h-1-1l-64-9h-1l-62-11h-6l-3-1c-1 0-2 0-3-1h-2l-6-3c-12-5-20-16-20-29 0-18 14-32 32-32z" /><path stroke-width="0" fill="#000000" d="M2198 648c17 0 31 15 31 32 0 9-3 17-9 23l-1 1-2 1-1 1-1 1-14 16-14 19-26 43-24 47-21 46-34 79-31 81-27 83-21 83-7 38-6 40-4 40 1 40 4 38 10 36 15 32 10 14 11 12 14 12 15 10 17 7 19 7 15 4h1c13 4 22 16 22 30 0 18-14 32-31 32-3 0-5 0-7-1h-2l-16-4h1l-2-1-21-7h-1l-2-1-20-9h-1l-2-1-2-1-19-12-1-1c-1 0-2-1-2-2h-1l-17-15-2-2-2-1-13-16-1-1-2-2-11-17-1-1c0 0-1-1-1-2l-1-2-18-37v-1c-1-1-1-2-1-3l-1-1-10-40-1-2v-3l-5-42-1-4v-43-2l4-43v-1-1l6-42v-2l8-39v-1-1l22-85v-2h1l27-84v-2l32-82v-1-1l35-80v-1l22-46v-1l25-48v-1l1-1 28-46v-1l1-2 16-20 1-2 17-20v1l1-2c1-1 2-2 3-2l2-2 1-1 1-1c6-5 13-8 21-8z" /><path stroke-width="0" fill="#000000" d="M2562 943c2 0 5 0 7 1h1l6 2h1c13 4 23 16 23 30 0 18-14 32-32 32-2 0-4 0-6-1h-2l-4 2-9 5-9 6-17 13-17 14-33 35-14 17-12 19-9 19-6 17-2 8 1 1 3 2 7 2 8 2 21-1 20-6 21-11 20-14 18-18 15-19 12-19 7-16 5-17 4-19 2-20c0-3 0-5 1-7l1-2 1-2v-1c4-10 14-18 26-19h2 3c5 0 10 1 15 4l2 1 5 3 1 1c1 0 2 1 2 2l2 1 6 6 2 2 3 4 1 1 1 2 14 18v1l1 2 1 1 11 20c1 1 1 2 2 3l18 44c0 1 1 2 1 3v1l14 46v2l11 46v1 1l9 52v2 1l4 52v3 1l-2 52v2 1l-7 51v2 2l-13 50v2l-1 1-18 49-1 1-1 2v1l-24 45c-1 1-1 2-2 3l-1 1-30 43-2 2-22 26-1 1-24 25-2 2-25 22-1 1-2 2-27 19h-1l-2 2-9 5c-1 0-2 1-3 1l-1 1-9 3v-1l-1 1c-1 0-2 0-3 1h-2l-4 1h-1c-1 0-2 0-4 0-17 0-31-14-31-32 0-15 11-28 25-31h2 1l3-1 5-3 24-17 23-21 23-23 20-24 29-40 22-43 17-44 12-47 6-48 2-49-4-49-8-50-10-44-13-44-13-31-1 2v1l-9 19v1l-1 2-1 2-14 22-1 1-1 2-18 23c-1 1-2 1-3 2l-21 21-2 1-1 1-24 18-1 1c-1 0-2 1-3 1v1l-26 13-2 1c-1 0-2 1-3 1h-1l-26 8h-3c-1 1-2 1-3 1h-2l-27 1h-2c-1 0-2 0-3 0h-2l-14-3h-1c-1 0-2 0-3-1l-13-4h-1l-2-1c-1-1-2-1-3-1l-2-2-13-8c-4-2-7-5-9-9l-7-11-1-2c-2-3-3-6-4-9v-1l-2-14v-1c0-1 0-2 0-3 0-1 0-3 0-4v-1l2-15 1-2c0-1 0-2 0-3l1-1 8-22v-2l1-2 11-22 1-1 1-2 14-21v-1l1-1 16-21h1l1-2 36-37 2-2 19-16 1-1 19-14h1v-1l10-7h1l1-1 13-8h1c1-1 2-1 3-1l1-1 14-5h1c2-1 4-1 6-1h2v-1h6 1z" /><path stroke-width="0" fill="#000000" d="M2931 852c18 0 32 15 32 32 0 6-1 11-4 15l-1 3-2 3-1 2-2 6-2 8-7 30-6 32-2 31v31l5 29 9 26 13 23 20 21 16 12 18 10 20 9 21 8 46 10 45 4h23l3 1c16 1 28 15 28 31 0 18-14 32-32 32l-24-1h-2-1l-48-4c-1 0-2-1-3-1h-1l-49-11-3-1h-1l-24-8-1-1h-1l-22-10-1-1-2-1h-1l-21-12-2-2h-2l-19-15-2-1c-1-1-1-1-2-2l-1-1-24-25-1-2c-1-1-1-1-2-2l-1-2-17-29v-1c-1-1-1-2-1-3l-1-2-1-1-10-31c0-1-1-2-1-3v-2l-5-34-1-1v-3l-1-34v-1l1-3 2-34 1-1v-2l6-33v-1-2l8-31 2-7v-1l2-8v-1l1-2 2-8 1-1c0-1 1-2 1-3l2-2v-1l4-6c6-8 15-14 26-14z" /><path stroke-width="0" fill="#000000" d="M3692 690c2 0 4 0 6 0h1l6 2h1l2 1c2 0 4 1 6 2l7 4h1l28 17 1 1 2 1 26 21h1l2 2 23 23c1 1 2 2 2 3h1l21 26 1 2 19 28v1l1 2 16 29v1l1 2 13 31c1 1 1 2 1 3l10 30v1l1 2v1l6 28v1l1 2 4 29v2l2 30v2l1 30v1 2l-4 60v1l-1 1-8 58-1 2-3 15-3 14v3c-4 13-16 22-31 22-17 0-31-14-31-32 0-2 0-4 0-6l3-14 3-14 9-56 3-57v-28l-2-28-4-27-6-27-9-28-11-28-15-27-17-25-19-24-21-21-22-18-26-15-2-1-2-1h-1-2c-13-4-23-16-23-31 0-17 15-31 32-31z" /><path stroke-width="0" fill="#000000" d="M4177 379c7 0 13 2 18 5l2 2 17 13 17 13 2 1v1l40 34 1 1 38 36v1l1 1 35 39v1h1l32 41 1 2 28 44 1 2h1l24 46 1 3 21 48 1 2v1l16 50 1 2 9 39v1 1l7 39v2l5 39v1 1l2 39v2 1l-1 79v3l-7 79-1 2-12 79-1 1-16 78h-1v1l-20 76v1 1l-21 73v1l-11 35-10 32c-4 13-16 23-30 23-18 0-32-14-32-32 0-3 0-6 1-9v-1l10-32h1l10-35 21-73 20-75 16-76 13-77 7-77 1-77-2-37-5-38-6-37-9-37-15-48-19-45-24-44-26-41-30-39-33-37-36-35-38-32-17-13-2-1-17-14c-7-6-12-15-12-25 0-17 15-31 32-31z" /><path stroke-width="0" fill="#000000" d="M5370 867c18 0 32 14 32 32 0 16-13 30-29 31l-12 1-12 1-70 7-71 10-69 14-68 20h-1l-3 2c-4 2-9 4-15 4-17 0-31-15-31-32 0-8 2-15 7-20l2-2 1-1v-1c2-2 5-4 8-5l2-1v-1l3-1 3-1 3-1h1l2-1h1l69-20h2 1l71-15h2l71-10h2l71-8 13-1 12-1h2z" /><path stroke-width="0" fill="#000000" d="M5395 1054c18 0 32 14 32 32 0 16-13 29-29 31l-25 2-26 2h-1l-42 3-44 2-44 2-42 2-40 2-18 2-17 3c-4 2-8 2-12 2-18 0-32-14-32-31 0-12 7-23 17-28l3-2 2-1c1 0 2 0 3-1h2l3-1h1 1l19-4h3l20-2h1l41-2 42-2 43-2 44-2 42-3 26-2 25-2h2z" /><path stroke-width="0" fill="#000000" d="M2206 2232c2 0 4 1 7 1h1l20 6h1c3 1 6 2 8 4h1l15 11 1 1c2 2 3 3 5 5l12 14 1 3 1 1 10 17 1 1v1l2 2 1 3c4 5 7 12 7 20 0 18-14 32-32 32-8 0-16-4-22-10l-2-1-2-2c0-1-1-2-1-3l-2-2-2-3v-1l-1-1-1-4-1-1-8-13-8-10-6-5-10-2h-15l-17 3-17 6-16 9-15 12-13 12-10 15-7 15-6 22-4 24-1 25v26l7 55 10 53 9 42 11 43 11 44v1l9 44 1 1 7 44v2 1l3 44v3 1l-1 44v2l-1 2-7 45v1l-1 2-8 30-1 2-10 29h-1v1 1l-13 28-1 2h-1l-14 27h-1l-1 2-17 26-2 2-19 24-2 2-20 22h-1l-2 2h1l-23 20h-1l-1 1-14 11-1 1c-1 0-2 1-3 1l-1 1-15 7-2 1c-1 1-2 1-3 1l-1 1-5 1h-1c-2 1-4 1-7 1-17 0-31-14-31-32 0-14 9-26 22-30l2-1h1l9-5 11-8 20-18 20-20 17-22 16-23 14-25 12-26 9-26 8-26 6-41 2-41-3-41-7-42-9-43-10-43-11-43v-1l-10-43v-1l-11-54v-3l-7-57v-2l-1-29v-1-2l2-28v-2-1l4-28v-1l1-2 7-27h1c0-1 0-2 1-3v-1-1l10-20 1-1c0-1 1-2 1-3l1-1 13-18 1-2 2-2 17-17c0-1 1-1 2-2l1-1 19-14 1-1c1 0 2-1 3-1l20-11c1-1 2-1 3-2h1l22-8 1-1c1 0 2 0 3 0h1l21-5h1 3 2l23-1z" /><path stroke-width="0" fill="#000000" d="M1931 2686h1l51 2 50 2 50 2 48 2h19l17 1h2c16 2 28 15 28 31 0 18-14 32-32 32h-1-16l-19-1-48-2-50-1v-1 1l-50-3-51-2-50 1-50 4h-3c-17 0-32-14-32-31 0-17 13-30 29-32l51-4h1l3-1h51 1z" /><path stroke-width="0" fill="#000000" d="M2539 2208c16 0 30 12 32 28v2l1 23 3 21 3 22 5 23v1l7 43 7 41 1 2c0 1 0 2 0 3 0 18-15 32-32 32-15 0-28-11-31-26l-7-41-8-44-4-23-4-22v-2l-3-23v-2l-2-25v-2c0-17 15-31 32-31z" /><path stroke-width="0" fill="#000000" d="M3034 2314c17 0 31 15 31 32 0 15-10 28-25 31l-9 2-8 4-9 7-9 8-20 23-19 24-16 27-15 28-13 30-10 31-10 31-7 31-7 41-6 41-5 85 2 85 10 83 7 37 12 34 8 13 9 12 10 11 14 9 10 6c10 5 16 15 16 27 0 18-14 32-31 32-6 0-11-1-16-4l-11-6c-1 0-2-1-3-1v-1l-17-12-2-1-2-2-15-14c0-1-1-2-2-3l-1-1-12-16v-1c-1-1-2-2-2-3l-9-17h-1c0-1 0-2-1-3v-2h-1l-13-38-1-1c0-1 0-2 0-3l-9-41v-3l-10-85v-1-2l-3-88v-1l1-2 5-87v-1-1l6-43v-2l8-42v-1-1l8-32v-2h1l9-33 1-1 11-33 1-1v-1l13-31 1-2 16-31v-1l1-1 18-29 1-2 1-1 20-27 1-1 1-1 22-25 1 1v-1l1-1 11-10 2-1v-1l13-10 2-1c0-1 1-1 2-2l14-7 2-1c2-1 4-2 6-2h1l13-3c2 0 5-1 7-1z" /><path stroke-width="0" fill="#000000" d="M3325 2684h-9l-11 3-19 7-20 10-18 12-18 15-16 17-14 17-12 19-8 18-4 15-1 14 1 3 1 3 2 2 3 2 11 4 12 1 14-1 15-4 16-7 15-8 15-10 13-10 21-22 21-24 16-25 11-26 1-2v-1-1-1l1-3c0-3 1-6 3-8v-1l-3 1c-2 1-4 1-6 1-3 0-6-1-9-2l-3-1-13-5-8-2zm3-63c2 0 4 0 6 1l15 3h3l3 1v1l15 6c12 5 20 16 20 29 0 6-2 11-4 15h2c2-1 4-1 7-1 17 0 31 14 31 32v2l1 4 8 98v1l5 100v1l2 99v1 1l-2 98v1l-2 31v1 1l-3 31v3l-6 30v1c0 1-1 2-1 3v2l-11 27v2c-1 2-2 3-3 5l-1 2-10 13-1 1c-2 2-4 4-7 6l-13 9-2 1c-2 1-4 2-6 2l-15 4v1h-3l-2 1-16 2h-3-13-1c-18 0-32-14-32-31 0-17 13-30 29-32h2 12l11-2 8-2 5-3 3-5 8-21 5-26 3-30 1-29 3-98-2-98-6-99v-2l-9 11-2 2v1l-24 23-2 2-15 12-2 1v1h-1l-16 11-3 1v1l-18 10c-1 0-2 1-3 1l-19 8c-1 1-2 1-3 1h-1v1l-20 5h-2c-1 1-2 1-3 1l-20 2h-3c-1 0-2 0-3 0l-20-2v-1h-3c-1 0-2 0-3-1h-1l-19-7-1-1c-2-1-4-2-6-3l-10-7-2-1c0-1-1-2-2-2l-2-2-7-8v-1c-1-1-2-3-3-5l-1-1-4-9-1-2c0-1-1-2-1-3l-1-2-2-10v-1c-1-2-1-4-1-6v-1l1-22v-2c0-1 0-2 0-3l1-2 5-21 1-2c0-1 0-2 1-3l10-23 1-2 1-2 14-21v-1l2-2 16-21 2-2 19-19v-1l2-2 20-17c1 0 2-1 3-1v-1l22-14 2-2h1l22-11v-1l3-1h1l23-9h2c1 0 2-1 3-1l16-3c1-1 2-1 3-1h3 15 1z" /><path stroke-width="0" fill="#000000" d="M3765 2468c18 0 32 14 32 31 0 8-3 15-7 21l-2 1-20 21-17 23-15 25-14 26-17 33-15 35-12 37-11 37-8 38-5 37-1 37 2 36 3 19 5 19 6 18 9 15 9 12 11 9 11 5 15 1 14-1 16-4 34-13 35-16 1-1c4-1 8-2 12-2 18 0 32 14 32 32 0 12-7 22-17 27l-1 1-36 17-1 1h-1l-37 14h-2l-2 1-20 5h-1-2-1l-19 3c-1 0-2 0-3 0-2 0-3 0-4 0l-23-3h-3c-2-1-4-1-6-2l-20-9c-2-1-4-1-6-3l-2-1-16-14h-1c-1-1-3-3-4-4v-1l-14-17-1-2c-1-1-1-1-2-2v-1l-10-19h-1l-1-3v-1l-8-22-1-1v-2l-6-22v-1-2h-1l-3-21v-2-1l-3-40v-2-1l2-40v-2-1l5-40 1-2 8-40 1-2 11-40 1-1h-1l14-39 1-2 15-36 1-2 17-35 1-1 14-27h1v-2l17-27 1-1v-1l19-25 1-2 2-1 21-23h1c5-6 13-9 22-9z" /><path stroke-width="0" fill="#000000" d="M4304 2334c5 0 10 2 15 4l1 1 9 5 1 1c1 0 2 1 3 2l1 1 7 7 2 1 1 1 14 16 1 1 19 24h1l1 2v1l18 25 1 3 15 26v1l1 2 13 28v2h1l10 29 1 1v1l8 29 1 3 12 61v3l7 63v2l1 63v1 1l-2 61v2l-4 59v1l-1 21h-1 1-1v1l-1 18v1c-2 16-15 28-32 28-17 0-32-14-32-32l1-3 1-19 2-20 4-59 2-60-2-61-5-60-12-58-8-28-10-26-11-26-14-25-15-23-19-23-12-14-4-3-7-4-1-1c-8-6-14-15-14-26 0-18 14-32 32-32z" /><path stroke-width="0" fill="#000000" d="M4562 2201c1 0 2 0 4 0h1l5 1h6 2c2 0 4 1 6 1l25 8 3 1c1 1 2 1 3 2h1l22 13 1 1c1 1 2 1 3 2l1 1 19 17 2 1 2 2 16 20v1c1 0 2 1 2 2l1 1 14 22 1 2 1 1 12 24 1 2 10 24 1 2 8 24 1 1v2l17 63v2 2l10 65v1 1l5 67v2l-1 67v2l-5 66v1 1l-8 66-1 2-10 65h-1v1l-13 64v1l-18 78v1l-17 78-3 11v1l-2 11-1 3c-4 13-16 22-30 22-18 0-32-14-32-32 0-2 0-4 1-6l2-11v-1l3-12 18-78 17-79 13-63 11-64 8-65 5-65v-65l-4-63-9-62-16-61-7-22-10-22-11-22-13-19-14-17-15-14-16-9-18-6h-3-2-1l-7-1-2-1c-15-3-25-15-25-31 0-17 14-31 31-31z" /><path stroke-width="0" fill="#000000" d="M5177 2635c17 0 32 14 32 32 0 5-2 10-4 15l-1 1v1l-1 1c-5 10-16 17-28 17-17 0-31-15-31-32 0-5 1-9 2-12l1-2v-1l1-2 1-1v-1l2-2c5-8 15-14 26-14z" /><path stroke-width="0" fill="#000000" d="M5808 2490l-13 8-20 13-41 32-17 17-16 18-15 20-12 19-6 14-6 17-5 17-1 15 1 12 3 8 5 5 2 1 5 2 16 2 16-3 16-6 18-10 17-13 15-15 14-16 12-16 16-26 13-29-4-15-1-2-9-44-1-2-1-9v-1-2l-1-10v-1zm26-74c2 0 4 0 6 0l3 1h1l9 3h1c5 2 9 4 13 8l3 3 1 1 2 2 1 1c4 6 7 13 7 21 0 1 0 2 0 3v2l1 1c1 2 2 3 3 5l2 2v1l5 9 1 1c1 2 2 3 2 5l1 3v1l2 11v1c1 1 1 2 1 3v1l1 12v2c0 1 0 2 0 3h-1 1l-4 34-1 3v2 1l-5 15 4 13 11 45v2l9 45v3 1l4 60v2 2l-3 60v2l-1 2v1l-11 59c0 1 0 2-1 3v1l-18 56-1 1v2l-1 2-27 53v1c-1 1-1 2-2 3v1l-35 48-1 2-1 1-20 22-1 1-1 1-22 21-2 1h-1l-24 19-1 1-1 1-26 16-2 1h-1l-40 21v-1l-2 1-1 1-45 16-1 1h-2l-23 6h-1l-2 1-23 3h-1-2v1l-23 1h-1l-3-1-22-1c-1-1-2-1-3-1h-1l-11-3h-2l-3-1-7-3c-12-5-20-16-20-29 0-18 15-32 32-32 3 0 6 1 9 1l3 1 5 2 6 2 18 1 18-1 20-3 20-5 41-15 37-19 24-14 22-17 20-18 18-20 32-45 24-49 17-53 11-55 3-57-4-56-4-23-12 17-1 1-1 1-16 18-1 2h-1l-18 17-2 2-1 1-20 15-1 1-2 1-21 12-1 1c-1 0-2 1-3 1h-1v1l-23 8h-1c-1 1-2 1-3 1h-2l-23 4h-1c-1 0-3 0-4 0-1 0-2 0-3 0l-23-2v-1h-3c-1 0-2 0-3-1h-1l-11-4h-2c-1-1-2-1-3-2l-9-5-2-1c-2-2-4-3-5-4l-1-1-12-14-2-1c-2-2-3-5-5-8v-1l-7-17v-2c-1-2-1-4-2-6v-1l-1-19-1-3c0-1 0-2 1-3l2-21v-3l1-1h-1l6-21v-2l1-1 7-20v-1l1-2 8-16 1-2v-1l14-23 1-1 1-1 16-21 1-2 18-21 2-1v-1l19-19 2-1 1-1 42-34 2-1h1v-1l22-14 2-1 22-12 1-1h1l10-5 2-1h1l11-5h2c1-1 2-1 3-1l2-1 12-1h1c1 0 2 0 3 0z" /><path stroke-width="0" fill="#000000" d="M5988 2145c18 0 32 14 32 31v3l-2 21v1l-2 19 1 38 4 40 3 22v1c0 1 1 2 1 3 0 17-15 32-32 32-15 0-28-11-31-26v-2l-4-22v-1l-4-41v-3l-1-42c0-1 0-2 0-4l2-20 2-21v-1c2-16 15-28 31-28z" /><path stroke-width="0" fill="#000000" d="M6457 2196c17 0 31 14 31 31 0 4 0 7-1 10l-1 2v1l-1 2v1c-1 1-2 3-3 5l-1 1-3 3v2l-3 3-15 34-12 37-10 41-9 41-22 98-8 49-7 49-4 49-2 49 2 48 6 47 8 37 12 34 8 13 9 11 10 10 13 8 7 3 8 3 1 1c12 4 20 16 20 29 0 17-14 32-32 32-3 0-6-1-9-2h-2l-9-4h-2v-1l-10-4-2-1-2-1-17-11-1-1c-1 0-2-1-2-2l-2-1-14-13-1-1c-1-1-1-1-2-2l-1-1-12-15-1-2-1-2-10-17v-1c-1-1-1-2-2-3v-1l-14-38-1-1-1-3v-1l-8-40-1-3-6-49v-1-2l-2-50v-2l1-51 1-2 4-51v-1l7-51v-2l9-50v-1l22-99 9-42h1l10-42v-2l13-40c0-1 1-2 1-3v-1l17-38 1-2c1-1 2-2 2-3l3-3 1-2 2-3h1l1-3c5-10 16-16 28-16z" /><path stroke-width="0" fill="#000000" d="M6969 2215c1 0 2 0 3 0l2 1v-1l8 2h1c2 0 4 1 6 2l1 1 9 4h1l1 1 31 17 3 2 30 22 2 1 1 1 28 26 1 1 1 1 26 28 1 1 1 1 23 31 1 1v1l20 33 1 1 1 1 17 34 1 2v1l13 34 1 2v1l12 42v2 1l7 42v2 1h1l2 42v2l-1 42v3l-4 41v2l-7 42v1l-9 41-1 1-10 40v1 1h-1l-10 34v1l-11 32v1l-1 2c-4 12-16 20-29 20-17 0-31-15-31-32 0-3 0-7 1-10l10-32h1l10-34 10-39 9-40 6-39 4-39 1-40-3-39-6-38-10-38-13-32-15-31-19-30-21-28-24-26-25-24-27-19-30-17-4-2h-3-1c-14-3-25-16-25-31 0-18 14-32 32-32z" /><path stroke-width="0" fill="#000000" d="M3537 882c12 0 22 7 27 17l1 1 1 1v1 1c2 3 2 6 3 9v2 3 4 1 1l-2 52v2 2l-9 54v1l-1 2-14 53h-1v3l-10 24v1l-1 1-11 23-1 1v1l-6 9-1 2c0 1-1 1-1 2l-2 2-5 6h-1c-5 5-12 9-19 10h-1-6-2c-7 0-13-2-18-5l-2-1-3-3-1-1c-1-1-3-2-4-4l-1-1-4-5-1-1c0-1-1-2-1-3l-15-27-1-3-13-29v-1l-1-2-4 20c0 1 0 2-1 3l-11 33v1l-1 2v1l-3 8h-1l-1 3-5 9-1 3c-1 0-2 1-2 2l-2 2-7 7c-3 3-6 5-10 7h-1l-3 2h-1l-2 1c-3 1-6 1-10 1h-5-3c-2 0-4-1-6-1l-1-1-7-2h-1l-2-1c-1-1-2-1-3-2h-1l-8-5-1-1c-1 0-2-1-3-2l-1-1-15-13-1-1c0-1-1-2-2-2v-1l-13-16-1-2-10-15-2-3-24-44-1-2v-1l-21-46-20-45-10-20-13-20-1-1v-1h-1c-1-1-1-1-2-2-2-1-3-3-4-4-4-4-6-9-7-14 0-1 0-2-1-3 0-1 0-2 0-3 0-15 10-27 23-31h2 1c2-1 4-1 6-1 4 0 8 1 12 2l2 1 3 2h1c3 2 5 4 7 6h1l3 4 1 1 1 2 3 3 1 1 2 3 1 1 13 21 1 2 11 22h1l1 2v1l20 45v1h1l19 45 23 42 9 13 10 13 3 3 9-28 7-33 7-35c0-1 1-2 1-3l10-33v-1c1-3 2-5 4-8l1-1 2-3 1-1c6-7 15-12 25-12h1 3l1 1c7 0 12 3 17 7l1 1 3 2 1 1c1 2 3 3 4 5l3 4c0 1 1 2 1 2l1 1 5 10v2l2 4 1 3h1l11 29 1 1 11 29 7 17 5-13 14-49 8-50 2-49-1-1c0-3 0-5 0-7 0-8 2-15 7-20l2-2v-1c6-5 14-9 23-9z" /><path stroke-width="0" fill="#000000" d="M4202 2496c17 0 31 14 31 32 0 3 0 6-1 9v2l-5 12-6 19-5 18-12 64-9 66-10 66v2l-14 64v1l-1 5-1 2-1 6c-1 3-3 6-4 9l-3 3c-5 8-15 14-26 14-1 0-2 0-3 0l-3-1h-1-1c-7-1-13-5-18-11l-1-2-1-2h-1c-1-1-1-2-2-3l-18-35-20-32-22-29-11-10v3l-3 28-2 30-2 29v1l-1 4v6 1l-2 13v2l-1 1-1 6v1c-1 1-1 2-1 3l-1 2-2 4-1 1c-2 5-7 10-12 12l-3 2-2 1c-4 1-8 2-13 2-6 0-12-2-17-5l-3-2-3-2c-1-2-3-3-4-5l-1-1-37-49-1-1-35-52-1-1-16-27v-1l-1-1-14-27-1-2-12-28v-1l-1-2-9-29-1-1v-1-1l-1-4-1-1v-1-2-1c-1-2-1-4-1-6v-2-2-1c2-16 16-28 32-28 16 0 30 12 31 28v1l1 1v2l9 27 11 26 13 25 15 26 28 40 1-14v-1-1l3-29v-1-2-1l6-28v-1c0-2 1-4 2-6v-1l5-11 1-1c3-5 6-9 10-12l2-1 7-4h1c5-3 10-4 15-4 1 0 2 0 4 0h2l9 2h1c3 1 6 2 8 3l2 1 10 6 1 1c1 0 2 1 3 2l1 1 29 27 1 1c1 0 1 1 2 2v1l25 32 2 1v1l3 5h1l9-65 9-67 1-1v-1l12-65 1-2 5-20 1-2 6-19v-2l5-13 1-1c4-12 16-20 29-20z" /><path stroke-width="0" fill="#000000" d="M6939 2459c18 0 32 14 32 32 0 4-1 8-3 12l-6 15-19 48v1h-1l-19 49h-1v1l-23 48-1 2v1l-28 45v1l-1 1-6 7v1l-2 2-7 6v1c-2 2-6 5-10 6l-2 1-6 2-1 1c-3 1-6 1-9 1-5 0-9-1-13-2l-1-1-3-1-1-1c-4-2-7-5-10-8v-1l-3-3-1-2c-1-1-1-2-2-3l-1-2-12-26v-1l-1-1-9-27-10-22-3 6-9 19-16 43v1l-16 43-1 1v2l-10 20-1 2-1 1-11 19-1 2c-1 1-1 1-2 2l-4 5-2 2c-1 2-3 3-5 4l-4 3-2 1c-3 2-7 3-12 4h-1-3-2c-5 0-9-1-12-3l-3-1-3-1c-4-2-7-5-9-8l-1-1-5-6-1-2c-1-1-2-2-2-3l-5-8-32-60-33-61-1-1-30-62-1-2-25-63-1-3-1-3v-1l-1-2-1-3c-2-4-3-8-3-12 0-18 15-32 32-32 11 0 21 6 26 14l1 1 1 1v1l1 1c1 1 1 2 1 3l1 3 2 3v1 1l1 4v1l24 60 30 60 32 60h1v1l18 34 2-3 16-42 16-43 1-2 9-21 1-3h1l10-20c1-1 1-2 2-2v-1l6-8v-1l2-2c1-1 1-1 2-2l1-1 8-7 1-1c2-2 3-3 5-4l2-1h1l4-2c3-1 6-2 9-2h2l4-1h2c3 0 6 1 9 2h2l5 2 1 1c3 1 5 2 8 4v1l5 4 2 2c1 0 1 1 2 2l2 2 16 24c1 1 1 2 2 2l1 3 11 27 1 2 4 12 11-17 21-46 20-49 19-48 1-1 6-15c5-11 16-19 29-19z" /><path stroke-width="0" fill="#000000" d="M1112 1583h2 1c16 2 29 15 29 31 0 4-1 7-2 10l-1 3-22 156-5 41-1 1h1l-7 41v2l-9 41-1 3-12 39-1 2-2 6-1 2v1l-4 7v1c-2 3-4 5-6 8h-1 1l-5 4-2 2c-5 4-12 7-20 7h-3-2c-6-1-11-3-15-5l-1-1-2-2-2-1c-2-2-3-3-5-5l-23-29-2-2-1-2-20-33h1l-1-1-1-1-17-35v-2l-14-34v-1h-1v-2l-12-33v-1l-11-33-13-30v-1l-3 11-11 46v1l-11 46-1 1v1l-8 22-1 2v1l-10 22-1 2-3 6-2 2v1l-5 7c-1 2-2 4-4 5l-1 1-6 6h-1c-4 4-9 6-14 7h-2l-3 1h-1c-1 0-2 0-3 0-7 0-13-2-18-5v-1l-2-1h-1l-2-2c-2-2-4-4-6-7v-1l-14-21-1-2c0-1-1-2-1-3l-10-24v-1h-1l-1-3-8-25v-1l-7-25v-1l-10-37-10-37-14-32-7-13-9-10-3-3h-1l-1-1-3-2-1-2c-1-1-3-3-4-4v-1l-1-1v-1l-2-2c-2-4-4-10-4-15 0-17 15-32 32-32 10 0 19 5 25 12v1l2 1 1 1 2 1v1c1 0 1 1 2 2l2 1 12 15h1c0 1 1 2 2 3v1l11 16v2c1 1 1 2 2 3l15 37 1 3 11 39 1 1 9 37 7 24 6 19 3-8 11-44 10-46 1-2 6-23v-1-1l8-22 1-2c0-1 1-2 1-3l2-2 5-8v-1c4-6 10-10 17-12l7-2 3-1c2-1 4-1 6-1 4 0 7 1 10 2l2 1v-1l1 1 6 2 1 1c3 1 6 2 8 4v1l8 6 2 2 2 2 11 13v1c1 0 1 1 2 2v1l10 15 1 2 1 2v1l15 33 1 2v1l11 35h1l10 32 14 33 16 33 11 19 1-5 9-38 6-41 6-41 22-161 1-2c0-1 0-2 0-3l1-1 1-3 1-2c4-11 16-19 29-19z" /></g></g></svg>