<?xml version="1.0" encoding="utf-8"?>
<!-- Created with Majerus.net InkPaint (http://www.majerus.net/InkPaint/) -->
<!DOCTYPE svg PUBLIC "-//W3C//DTD SVG 1.1//EN" "http://www.w3.org/Graphics/SVG/1.1/DTD/svg11.dtd">
<svg xmlns="http://www.w3.org/2000/svg" version="1.1" width="303.4mm" height="192.55mm" viewBox="0 0 6068 3851" preserveAspectRatio="xMidYMid meet"><!-- Generator: Majerus.net InkPaint UWP 1.1.14.0 --><g fill="none" stroke-linecap="round" stroke-linejoin="round"><g stroke="#000000"><path stroke-width="0" fill="#000000" d="M662 187h-10l-11 2-10 3-13 5h-1c-2 1-4 1-7 1l-2 1-4 5-15 31-12 34-3 17-2 16 1 16 1 14 1 1 3-1 9-6 21-16 19-20 18-21 15-20 14-22 4-9 3-9 2-8-1-5-1-4-1-2-3-1-6-2h-9zm-41-72c1 0 2 1 3 1l9 1c3 0 6 1 9 2l1 1 5 2 1 1h1l2 1 1 1 6-1h3 2l14 1h1c1 0 2 0 3 1h1l13 3 2 1c2 0 4 1 5 2h1l10 6h1v1l2 1c2 1 3 2 5 4l1 1 9 10v1c2 2 4 5 5 7v2l5 14 1 1c1 2 1 4 1 6v1l1 14v2c0 1 0 2 0 3v1l-2 14v1c-1 1-1 2-1 3v1l-5 13-1 3v1l-7 13v1l-2 2h1l-16 25-1 1-1 1-16 21-1 1-19 23-1 1-22 23c-1 1-2 1-2 2h-1l-24 20-2 1-1 1-13 8h-1l-3 1v1l-13 5c-1 1-2 1-3 1l-2 1h-1l-7 2c-2 0-4 0-6 0h-2-6-2c-3 0-6-1-9-2l-2-1-10-6h-1c-3-2-6-4-9-8l-1-1-7-10-1-1c-1-2-2-3-3-5l-1-3-4-12v-1c0-1-1-2-1-3v-2l-3-19v-1-3-19c0-1 0-2 0-3l2-20 1-3 4-20c0-1 0-2 0-3h1l12-38v-1l1-2 1-2 17-34v-1l2-2 9-14v-1l2-2 12-15c1-1 1-2 2-2l1-2 7-6 1-1c1 0 2-1 3-2h1l8-5 1-1c2-1 4-1 6-2h1l8-2 2-1c2 0 4-1 6-1z" /><path stroke-width="0" fill="#000000" d="M715 728l-2 1-16 4-17 10-17 11-13 10-5 10-16 49-10 50-3 25v23 2l1-1 10-10 10-11 14-17 13-19 23-42 17-44 6-21 4-21 1-9zm3-62c1 0 2 0 3 0h1l11 1 2 1c3 0 6 1 9 3h1l11 6 2 2c4 3 7 6 10 11v1l6 10-1 1 1 1c1 3 2 6 3 9v1l1 13v2 3l-2 13v3l-5 24v2l-7 24v1l-1 2-19 48v1c-1 1-1 2-1 3h-1l-24 45-2 2-14 21-1 2-15 19h-1l-1 1-11 13-1 1-1 1-13 12-2 2c0 0-1 1-2 1v1l-14 9c-3 2-6 3-9 4l-15 5h-1l-2 1c-2 0-5 0-7 0h-2-7-1c-3-1-6-1-9-3l-2-1-5-2-1-1c-4-2-8-6-11-10l-7-10h1l-2-2c-1-3-2-6-3-9l-2-13-1-3v-2l-1-13v-1-1l1-26v-2-1l3-26v-3-1l7-31c-18 0-32-14-32-31 0-9 4-17 9-22h1l21-22 1-1 29-26 1-1h1l5-4 11-23 1-1c0-1 1-2 1-3l1-2 4-4 3-5c6-9 15-14 26-14 6 0 12 2 17 5l3 2 3-2 3-1c1-1 2-1 3-1l22-7c2-1 4-1 6-1h1l11-1h2z" /><path stroke-width="0" fill="#000000" d="M757 1248c5 0 9 1 13 3l8 4h1l2 1c3 2 6 5 9 8l7 8v1l2 2c1 2 2 3 3 5l1 2 8 23 1 2c0 2 1 4 1 6l2 26 1 3-1 2-1 27v2l-1 2-4 25v1 1l-6 22v2l-8 22-1 3-9 21v1l-2 2-11 21-2 3v1l-14 19-1 1-2 2-16 17h-1c0 1-1 1-2 2l-2 1-18 14h-1c-1 1-2 1-3 2l-2 1-21 9c-1 0-2 1-3 1l-3 1-11 2c-1 1-2 1-4 1h-1-11-1c-2 0-4 0-6 0l-2-1-17-4h-2c-3-1-5-3-8-4l-1-1-14-11-1-1c-2-1-3-2-4-4l-2-2-10-15h-1c-1-2-2-4-2-6h-1l-7-18c0-1-1-2-1-3l-1-1-5-20h1l-1-1v-3l-3-19v-1-2l-1-19v-1-1l2-33v-2-1l5-34v-2-1l9-33v-2c0-1 1-2 1-3l13-30c1-2 2-4 3-6v-1l2-2 2-2 1-2c5-9 15-14 26-14 17 0 31 14 31 31 0 6-2 11-4 15v1l-2 3-2 2v1l-1 1-10 25-7 29-5 31-1 31v15l2 16 4 16 6 13 6 8 5 4 6 2h3l6-1 15-7 14-10 13-13 11-16 10-18 8-19 7-19 5-20 4-22 1-23-2-20-3-9-2 1-6 5-14 12-22 21-2 2c-5 5-12 7-19 7-18 0-32-14-32-31 0-9 4-16 10-22l22-22 1-1 15-13 1-1 1-1 9-7 2-1 1-1 10-5 1-1c1 0 1-1 2-1l2-1 10-3 1-1c2 0 4-1 6-1h2l9-1v1l1-1z" /><path stroke-width="0" fill="#000000" d="M730 1844l-1 1-15 15-14 15 1 1c7 6 11 15 11 24 0 9-3 17-9 22v1l-1 1-2 2h-1l-3 2v1l-10 18-8 24-6 28-5 27-2 21-1 22 1 14h1l11-18 10-20 18-44 13-48 9-47 2-20 2-20v-18l-1-4zm8-70c1 0 2 0 3 0h2l9 1 2 1c5 1 9 3 13 6l1 1 7 7 1 1c3 3 5 6 7 10l5 11 1 3c0 1 0 2 0 3l1 1 3 22v1 3 22 3l-1 22h-1v1l-3 22v2l-9 49v1l-1 2h1l-14 50v1l-1 2-19 48v1l-1 2h-1l-11 22v1l-1 1-13 21-1 1c0 1-1 1-2 2l-11 13-2 3-1 1-6 6h-1c-1 1-2 2-3 2l-7 5-2 1c-1 1-2 1-3 2h-2l-7 3h-1c-3 1-6 1-9 1h-2-7-1c-4-1-8-2-12-4l-1-1-6-4h-1c-4-2-7-5-9-9l-5-8c-2-2-3-5-4-8l-7-21v-1c0-2-1-4-1-6l-2-24v-3-1l1-24v-2-1l2-22h1v-1l4-29v-2l7-30v-1l1-3 10-30v1l1-3c0-1 0-1 1-2v-1l15-25 1-2c1-2 2-3 4-5h1-1l3-2 1-2 4-2 1-1-2-1c-7-6-11-15-11-24 0-8 2-15 7-20l1-1 14-16 1-1 1-1 17-16 1-1 1-1 9-7 2-1 1-1 9-6 2-1c0 0 1-1 2-1l3-1 11-4h1c3-1 6-1 9-1z" /><path stroke-width="0" fill="#000000" d="M784 2387c13 0 24 7 28 19l1 1c0 1 1 2 1 3v1l1 3 1 1 1 4v2l1 4 1 3c0 2 1 4 1 6 0 17-14 31-32 31-14 0-25-9-29-22h-1l-1-5v-1l-1-2-1-4v-1c-2-4-3-8-3-12 0-17 14-31 32-31z" /><path stroke-width="0" fill="#000000" d="M800 2646c12 0 23 7 28 17v1l1 2 1 1 1 2c1 3 2 7 2 12 0 17-14 31-31 31-12 0-22-7-27-16l-1-1v-1l-1-2-1-2c-2-4-3-8-3-12 0-18 14-32 31-32z" /><path stroke-width="0" fill="#000000" d="M786 2858c4 0 8 1 12 2v1h2l1 1 3 1c9 5 16 16 16 27 0 18-14 32-31 32-4 0-9-1-12-3h-1-1l-1-1h-1l-2-1c-10-6-16-16-16-28 0-17 14-31 31-31z" /><path stroke-width="0" fill="#000000" d="M824 3289l-17 2-16 4h-1c-2 1-4 1-6 1-1 0-2 0-3 0l-2-1v5l5 22 10 38 14 38 18 35 10 13 7 7 7-21 7-33 2-34-1-33-3-18-5-13-6-9-2-1-3-1-15-1zm-65-101c17 0 31 14 31 31 0 4-1 9-2 12v1l6-2h1l3-1 21-2h1c1-1 2-1 3-1l2 1 22 1h1c2 0 4 1 6 1l1 1 11 3 2 1c1 1 2 1 3 1l2 2h1l8 6h1c2 2 4 4 6 6l1 1 13 17 1 1c1 2 2 4 3 6l1 2 7 21v1c1 1 1 2 1 3v1l4 23v1 2l2 36h-1l1 2-1 2-2 38v1l-1 2v1l-7 36v1c0 1 0 2-1 3v1l-12 34-1 1c-1 2-2 4-3 5v1l-8 12h-1l-1 2c-3 3-6 6-9 8h-1l-9 5h-1l-2 1c-4 2-8 3-12 3-1 0-2 0-3 0l-2-1-11-1-2-1c-4 0-7-2-11-4l-12-8v-1l-2-1c-1-1-2-2-2-2l-1-1-14-15-2-2-1-1-12-17-1-1c-1-1-1-2-2-3l-20-38c-1-1-1-2-2-3v-1l-16-42h1l-1-1v-1l-11-41v-2l-5-24-1-2-3-26v-1c0-1 0-2 0-3v-26l1-2c0-2 0-3 0-4v-1l6-23 1-2c1-3 2-6 4-8v-1l4-5 2-4 1-1c6-9 15-14 26-14z" /></g><g stroke="#F39B11"><path stroke-width="0" fill="#F39B11" d="M1739 615l-21 3-20 4-44 15-8 3 1 25 6 44 5 19 7 19 6 12 8 10 8 8 9 6 8 3 9 1 9-1 11-5 12-8 11-11 11-13 9-16 7-16 6-18 4-18 2-16v-19l-4-15-2-3-3-4-5-3-7-2-17-3-18-1zm-117-79c17 0 31 14 31 31 0 1 0 2 0 3v2l26-9 1-1h3v-1l24-5h3l24-3c1 0 2 0 3 0h1 23 3l2 1 22 4h1c1 0 2 0 3 0l2 1 13 5h1c1 1 1 1 2 2l3 1 10 7c2 1 3 2 5 4l8 9 2 2c1 0 1 1 2 2l1 1 6 10v1c1 2 2 4 3 6v1l6 23 1 2c0 1 0 2 0 3l1 3v26c0 1 0 2 0 3v1l-3 20-1 2v1l-4 20-1 3-7 20v1l-1 2-9 20-1 2v1l-11 19-1 2-1 1-13 17-1 1c-1 1-1 1-2 2l-15 15-2 2-2 1h-1l-16 12h-1c-1 1-3 2-5 3l-18 7-3 1c-1 1-2 1-3 1h-2l-17 3h-1c-1 0-2 0-3 0-1 0-2 0-3 0h-1l-16-2h-3c-1-1-2-1-3-1l-2-1-15-6h-1c-1-1-2-1-3-1l-2-2-14-9c-1-1-2-1-3-2l-1-2-13-12c-1-1-1-2-2-2l-1-2-11-14v-1c-1-1-1-2-2-3l-8-16h-1l-1-2v-2l-8-21-1-2v-1l-6-23-1-1v-2l-6-47-8 5-2 1c-4 2-10 4-15 4-17 0-31-14-31-31 0-11 5-21 14-26v-1l8-5h1l9-6h1l10-7h1l13-7 4-30v-2-1l1-3v-2-1c3-14 16-25 31-25z" /><path stroke-width="0" fill="#F39B11" d="M1710 1279l-2 2-17 24-12 28-4 13-1 12v17l4 14 7 13 10 10 11 9 14 5 15 3 17-1 15-3 15-7 15-10 15-12 13-14 12-15 9-16 7-15 5-19v-8l-1-7-1-4-1-2-2-1-4-2h-15l-19 4-21 7-20 8-24 10-1 1c-4 1-8 2-12 2-17 0-31-14-31-31 0-6 1-11 4-15zm10-78c17 0 31 14 31 32 0 11-7 22-16 27h-1l-1 1h-1l-3 2-3 1-1 1 25-11h1l21-9h2l1-1 22-7h1c1 0 2-1 3-1l23-4v-1h3 3 23c2 0 4 0 7 0l2 1h1l13 4c3 1 6 3 9 4v1h1l10 7 1 1c2 2 3 3 4 5l2 2 7 10c1 2 2 4 3 5l1 3 4 12c0 1 1 2 1 3v3l2 13c0 1 0 2 0 3v2l-1 14v1c0 1 0 2-1 3v1l-6 25-1 2c0 1 0 2-1 3v1l-9 19-1 2-1 1-11 19-1 1-1 2-13 18h-1l-2 2-15 17h-1l-2 2-17 15h-1c0 0-1 1-2 1l-1 1-18 12-2 1-3 1-20 9c-1 0-2 1-3 1l-2 1-20 5h-2c-1 0-2 0-3 0l-2 1-23 1v-1l-1 1c-1 0-2-1-3-1h-3l-22-4c-3 0-4-1-6-2l-20-8c-2-1-4-2-6-3v-1l-18-12-1-1c-1-1-2-2-3-2l-1-2-14-16h-1c-1-2-2-4-3-5l-10-19c-1-2-2-4-3-6v-1l-6-21v-2c0-1-1-2-1-3v-2l-1-24v-1c0-1 0-2 0-3l1-1 2-17v-2l1-1 4-17v-1c1-1 1-2 1-3l15-33 1-3c0-1 1-2 1-2l1-1 20-29 2-2 1-2 12-13h1c0 0 1-1 2-2h1l13-11 1-1c1 0 2-1 3-1l2-1v-1h1l4-2 3-1 1-1c4-2 9-4 15-4z" /><path stroke-width="0" fill="#F39B11" d="M1857 1792h-1l-11 4-12 6-12 10h-1c-4 2-7 4-11 5h-2v2l-1 1-2 19v1l-1 1-2 15-1 25 4 26 8 24 5 7 5 6 5 3 4 1h4l6-2 7-4 8-7 6-7 5-8 7-15 6-17 3-18 1-19-2-17-4-16-7-13-9-11-2-1-1-1h-2zm1-63c1 0 2 0 3 1h2l8 1h2c1 0 2 1 3 1l3 1 8 3 1 1c1 0 3 1 5 2l1 1 8 6 2 1c0 1 1 2 2 2l2 2 13 17h1c1 2 2 3 3 5v1h1l9 19 1 2c0 1 1 2 1 3v1l6 21 1 2c0 1 0 2 0 3l2 22v1 3 1l-1 23v1 3l-4 22v1c0 1-1 2-1 3l-7 20v1c0 1 0 2-1 2v2l-9 18-1 2-1 2v1l-8 11c-1 1-1 2-2 3l-10 11-1 2-2 1-11 10h-1c0 1-1 1-2 2l-1 1-13 7-1 1c-1 0-2 1-3 1l-2 1-12 4-1 1c-2 0-4 1-6 1h-1l-14 1h-2c-2 0-4 0-6-1h-2l-13-3-1-1c-2 0-4-1-6-2l-2-1-13-9c-2-1-4-2-5-4l-1-1-10-11-1-1c-1-1-1-2-2-2l-1-2v1l-8-13v-2c-1-1-1-2-2-3v-1l-11-30v-1c-1-1-1-2-1-3v-2l-5-32v-1c0-1 0-2 0-3v-30-3l1-3 3-18 3-18v-2c2-12 12-22 24-24h2v-2c1-8 5-16 11-21l2-1 14-10 1-1 2-1 16-9h1c1-1 1-1 2-2l3-1 17-5v-1c2 0 4-1 6-1h1 9l2-1z" /><path stroke-width="0" fill="#F39B11" d="M1878 2199c17 0 31 14 31 32 0 12-6 22-16 27l-2 1-1 1c-5 3-11 5-18 5-17 0-31-14-31-31 0-8 4-16 9-22l1-1 1-1 1-1 3-2c3-2 6-4 10-5l1-1h2l3-1c2 0 4-1 6-1z" /><path stroke-width="0" fill="#F39B11" d="M1883 2450c13 0 24 8 29 19v1l3 7v1 1l1 2v1c1 2 2 6 2 9 0 17-14 31-32 31-12 0-24-8-28-19l-1-2v-1l-1-2-2-6-1-2c-1-3-1-6-1-9 0-17 14-31 31-31z" /><path stroke-width="0" fill="#F39B11" d="M1904 2784l-1 2c-3 11-12 19-23 22h-1l-8 1-3 2-4 4-5 6-11 20-7 19-4 17-2 18v19l2 18 4 16 6 13 8 10 12 8 12 5 13 2 13 2 13-1 13-3 12-4 24-13 20-18 16-23 5-11 4-13 2-13v-14l-2-11-2-9-10-19-15-16-19-14-22-11-25-9-15-2zm-34-66h2l28 1v1h1 3l29 6h1c1 0 2 0 2 0l1 1 28 9h1l2 1 2 1 27 13 1 1c0 0 1 1 2 1l1 1 24 18 1 1c1 0 2 1 2 2l2 1 19 21 1 1c1 2 2 3 3 5v1l13 25 1 2c1 1 1 2 2 3v1l4 14v2l1 2 2 16v1c0 1 0 2 0 3v18 3 1l-3 18v2l-1 2v1l-5 16v1c0 1 0 1-1 2v1l-7 15v1l-1 2c-1 1-1 2-2 3l-19 28-2 2c-1 1-1 2-2 3l-1 1-26 23-1 1c-1 1-3 2-5 3l-30 16v1c-1 0-2 0-3 1l-2 1h-1l-15 5h-1c-1 1-2 1-3 1l-17 3-3 1h-1l-17 1h-2-3l-17-1-1-1c-1 0-2 0-3 0h-1l-16-4h-1l-2-1h-2l-18-7c-1-1-2-1-3-2l-3-1-18-12c-2-1-3-3-5-4l-1-2-14-16v-1c-2-1-3-3-4-5v-1l-10-19v-1c-1-1-1-2-1-3l-1-2-5-21-1-2v-3l-3-22c0-1 0-2 0-3v-1l1-23v-2-1l3-22v-2-1l5-20 1-2v-1l8-23 1-2 1-2v-1l5-9-3 1c-1 0-2 0-3 0-17 0-31-14-31-31 0-11 5-21 14-26l1-1 11-7 2-1 1-1 16-7 1-1 3-1 16-5c1 0 2-1 3-1h1l17-3 3-1h1l18-1h2z" /><path stroke-width="0" fill="#F39B11" d="M3022 517h14 2l15 1h1c1 0 2 0 3 1h1l15 3 2 1c2 1 4 1 5 2l1 1 12 7 2 1c8 5 14 15 14 26 0 17-14 31-31 31-6 0-11-1-15-4h-1l-8-5-8-2-12-1h-12l-23 1-22 4-20 6-19 9-17 12-15 14-14 16-13 19-8 18-7 20-5 21-2 20 1 20 5 16 8 14 12 12 5 4 5 2 15 2 17-2 18-6 18-11 18-13 16-14 12-14 14-22 10-23 6-25 1-11-1-9-1-4v-1-1h-1l-11-2h-14l-25 2c-1 0-2 0-3 0-17 0-31-14-31-31 0-15 10-28 25-30l3-1 26-3c1 0 2 0 3 0h20 3c1 1 2 1 3 1h1l19 4 2 1c2 1 4 1 5 2l1 1 7 4h1l2 1c1 1 2 1 2 2l2 2 7 6c1 2 3 3 4 5l1 2v1l5 8c1 2 2 4 2 6l1 2 3 11v1c0 1 0 2 0 3v1l1 15v2 2l-1 15v1c0 1 0 2 0 3l-1 1-7 30v2c-1 1-1 2-1 3h-1l-12 28v1l-1 2-1 2-17 25v1c-1 1-1 1-2 2v1l-15 17-2 2h-1l-18 17-1 1-2 2-20 15-1 1-3 1-22 13h-1c0 0-1 1-2 1l-2 1-24 8h-1c-1 1-2 1-3 1l-2 1-24 3h-1c-1 0-2 0-3 0-1 0-2 0-3 0l-2-1-23-3h-2c-2-1-4-1-5-2h-1l-10-5h-1c0 0-1-1-2-1l-2-1-11-7-1-1c-1-1-3-2-4-3l-18-18-2-2c0-1-1-2-2-3l-1-2-12-21c-1-2-1-4-2-6v-1l-7-23v-2c0-1-1-2-1-3v-1l-1-25-1-2 1-3 2-25c0-1 0-2 0-3v-1l6-24v-1l1-2v-1l8-23 1-2 1-2 10-21v-1l2-2 14-23h1c0-1 1-2 1-2l1-1 16-20 2-1 2-2h-1l19-16 1-1c1-1 2-1 3-2l20-14h1l2-1 1-1 23-11 1-1h3v-1l24-7c1-1 2-1 3-1h1l26-5h2 2l26-1h2z" /><path stroke-width="0" fill="#F39B11" d="M3003 1133l-13 7-14 9c-5 4-11 6-17 6-10 0-19-5-24-12h-1l-1 1-12 17-9 18-5 19-3 20 1 20 4 18 8 15 12 14 3 2v1h5l4-1 8-5 9-8 9-11 8-12 6-11 11-26 8-29 4-28-1-24zm5-65c1 0 2 0 3 0l12 1 2 1c4 0 8 2 11 4l2 2 8 6c3 3 6 6 8 9v1l5 9 1 2c0 1 1 2 1 3l1 2 2 11v1c1 1 1 2 1 3v2l1 32v2c0 1 0 2 0 3v1l-4 33h-1v2 2l-9 32-1 1-1 3-12 30c-1 1-1 2-1 3h-1l-7 13-1 3-10 14c-1 1-1 2-2 3l-11 13v1l-2 2-1 1-13 11-2 2c0 0-1 1-2 1l-1 1-14 9-2 1c-2 0-3 1-5 2h-2l-15 4-1 1c-2 0-4 0-7 0-1 0-2 0-3 0h-1l-15-2-2-1c-2 0-4-1-6-2h-2l-8-4-1-1c0 0-1-1-2-1l-2-1-7-6-1-1c-1 0-2-1-2-2l-2-2-17-19v-1c-1-1-3-3-4-4v-1l-11-23-1-1c0-1-1-2-1-3l-1-2-6-24h1l-1-1c0-1 0-3 0-4v-1l-2-25v-2c0-1 0-2 1-3v-1l3-25v-2l1-3v-1l7-23v-1c1-1 1-2 1-3l1-1 11-23 1-1c0-1 1-2 1-2l1-1 14-20 1-2h1l4-5 1-1 6-7h1c0-1 1-2 2-2v-1l6-5 3-2c1-1 3-2 5-2l2-1 6-2 1-1c3-1 6-1 9-1 10 0 19 4 25 11v1l2-1h1l16-9c1-1 2-1 3-1l1-1 8-3h1l2-1 2-1 9-2c2 0 4 0 7 0z" /><path stroke-width="0" fill="#F39B11" d="M2941 1670l-4 3-18 17-16 18-29 42-22 43-8 19-5 21-4 20-1 20 3 17 5 13 9 11 5 4 8 4 9 3 7 1h18l18-5 19-9 19-13 18-15 16-18 14-17 23-37 20-41 7-20 6-21 4-20 1-19-1-8-1-3-2-1h-10l-13 3-15 5-16 7-19 10-2 1c-4 1-8 2-12 2-17 0-31-14-31-31 0-2 0-4 0-6zm19-82c18 0 32 14 32 31 0 4-1 8-3 12l-1 2 8-3 1-1h1l19-7h1c1 0 2-1 3-1l19-4c2 0 4-1 6-1l1 1v-1l18 1h3c2 0 4 1 6 1l2 1 14 5 1 1c4 1 7 3 10 6v1h1l8 10 2 1c2 2 3 5 4 8l1 1 5 13v1c1 2 1 4 1 7l2 15v3 1l-1 23v2l-1 2-4 23v1 2l-7 24v1l-1 1-8 23-1 2v1l-22 44v1l-2 2h1l-26 40-1 2-16 20-1 2-18 19-1 1-2 1-20 18-1 1-2 2-22 15c-1 1-2 1-3 2h-1l-24 12h-2c0 1-1 1-2 2h-2l-25 6-1 1c-1 0-2 0-3 0h-3l-25 1h-1c-1 0-2 0-3 0l-3-1-13-2c-1-1-2-1-3-1h-1l-13-5-2-1-2-1-12-6c-1-1-2-1-3-2l-1-1-10-7-1-1c-1-1-2-1-2-2l-2-2-15-18c-2-2-4-5-5-8l-8-21h-1l-1-3c0-1 0-2 0-3l-1-2-3-23v-1c0-1 0-2 0-3v-2l1-24v-2-2l4-25v-1l1-2v-1l7-23 1-2 8-22 1-1 1-2v-1l24-46c0-1 1-2 2-3v-1l31-44 2-2v-1l19-21 1-1v-1l20-18 2-2 22-17 1-1 2-1h-1l23-14 2-1c4-2 9-3 14-3z" /><path stroke-width="0" fill="#F39B11" d="M2948 2153c18 0 32 14 32 32v8 7 6c0 17-14 31-32 31-17 0-31-14-31-31v-6-7-8c0-18 14-32 31-32z" /><path stroke-width="0" fill="#F39B11" d="M2936 2443c4 0 9 0 12 2l2 1 2 1h1l1 1c10 5 16 15 16 27 0 18-14 31-31 31-4 0-8 0-12-2l-2-1h-1l-2-1-1-1c-10-5-16-15-16-27 0-18 14-31 31-31z" /><path stroke-width="0" fill="#F39B11" d="M3103 2700l-3 1-10 5-9 6-8 5-15 13-15 13-10 10v2c0 15-11 28-25 31l-4 2-4 3-12 13-10 16-9 16-11 25-9 27-5 27v12 8l8-3 9-4 9-6 8-5 18-17 18-18 33-43 27-48 11-24 9-23 8-28 1-11v-5zm9-65c2 0 4 0 6 1h2l10 3h1c5 2 10 4 13 8h1l7 8 2 2c2 3 4 7 6 11l4 14 1 3c0 1 0 2 0 3v2l1 15v1c0 1 0 2 0 3l-1 1-2 16v2 2l-9 32-1 1v2l-10 25v1l-1 1-12 26-1 2v1l-29 51-1 1-1 2-36 46v1l-2 2-19 20-1 1-1 1-21 19v-1l-1 1-1 1-10 7-1 1-1 1-12 7-1 1h-2l-12 6-2 1-2 1h-1l-12 4h-1c-2 1-4 1-6 2l-12 1h-3c-3 0-5 0-7-1h-1l-11-3h-2c-3-2-7-4-10-6l-2-2v1l-8-8-1-1c-2-3-5-6-6-10l-1-2-5-14v-1c-1-2-1-4-1-6l-2-15v-3-1l1-15v-2-3l6-31v-1c0-1 0-2 1-3l10-30v-1l1-2v-1l12-27 1-2v-1l10-18 2-3 12-19h1c0-1 1-2 1-2l1-2 16-16 1-1c0-1 1-2 2-2l1-1 2-2v-1c2-5 5-9 8-12v-1l30-29 1-1 15-14h1l1-1 16-13v-1l2-1 9-7h1l1-1 11-7 2-1h1l12-7 2-1h2l13-5h1c1 0 2-1 3-1h2l12-2h1c1 0 2 0 3 0z" /><path stroke-width="0" fill="#F39B11" d="M4394 524h1 2 3 2 1 1c17 0 31 14 31 31 0 16-12 29-28 31h-3-1-1-3-3-1l-30 2-24 6-23 13-9 7-10 10-14 18-10 20-8 20-4 21-1 20 4 17 8 17 14 15 8 6 8 5 9 3 9 2h22l23-4 24-8 24-11 23-14 20-14 24-20 23-23 19-25 7-12 4-10v-2l-2-1-19 1-23 5-24 8-24 9-14 6h-1l-13 6h-1c-3 2-7 3-12 3-17 0-31-14-31-31 0-12 7-22 16-28l2-1h1l13-6h1l15-7h1l25-10h1 1v-1l26-8 3-1h1l26-6h1c1 0 2 0 3 0h2l26-1h1c2 0 4 0 6 0l2 1 16 4h2c4 2 7 4 10 6h1l10 9 2 2c3 3 5 6 7 10l1 2v1l4 12v1c1 3 2 6 2 9 0 1 0 2-1 3v1l-2 16v2c-1 1-1 2-1 3l-1 3-6 15v1c-1 1-1 2-2 3l-8 15-2 2-1 2-21 28-1 1c-1 1-1 1-2 2l-26 26-2 2-26 22-2 1-22 16h-1l-1 1-25 15-1 1h-2l-27 13-1 1h-2l-28 10h-1c-1 1-2 1-3 1h-1l-28 5-3 1c-1 0-2 0-3 0h-1l-28-1h-2c-1 0-2 0-3-1l-14-2v-1h-3l-1-1-13-4-2-1c-1 0-2-1-2-1h-1l-12-7c-1-1-2-1-3-2l-1-1-12-9-1-1c-1 0-2-1-2-2l-2-1-18-21-1-1c-1-1-2-3-3-5l-1-1-12-23h1l-1-2c-1-1-1-2-1-3l-1-3-5-25c-1-2-1-4-1-6v-1-26-3c1-1 1-2 1-3l5-26c0-1 1-2 1-3l1-1 9-26v-1c1-1 1-2 2-2v-1l13-23 1-2 1-2 16-21 1-1 2-2 12-13c1 0 2-1 3-2l13-10v-1l2-1 3-2 28-15c2-1 4-2 6-3h1l31-8 2-1c1 0 2 0 3 0h1l35-2h1z" /><path stroke-width="0" fill="#F39B11" d="M4402 1083c1 0 2 0 3 0h2l23 4h1c3 0 4 1 6 2l23 9c2 1 3 2 5 3l2 2h1l16 14h1c1 1 2 2 4 4l1 2h1l11 18c2 2 3 3 3 5l1 2 7 20 1 1c0 1 0 2 0 3l1 2 3 22v1 1c0 1 0 2 0 3v1l-1 23v2 2l-4 23v1c-1 1-1 2-1 3l-7 21v1l-1 2-1 1-7 15-1 2v1l-9 15v1l-1 2-11 16-2 2v1l-13 15-2 2-1 1-14 12-1 1c-1 1-2 1-2 2l-2 1-15 9-2 1c-1 1-1 1-2 2h-3v1l-17 5c-2 1-4 1-6 1h-3v1h-18c-3 0-5 0-7-1h-2-1l-18-6h-1c-2-1-4-1-5-2l-3-2-16-10c-2-1-3-3-5-4v-1l-14-14-1-2c-1 0-1-1-2-2v-1l-11-17-1-2-1-1-9-19v-1l-1-2-7-19v-1-1l-6-19v-1l-4-18v-1l-1-3v-1l-1-3v-1c0-1-1-2-1-3v-1-1-2c0-17 14-31 31-31 15 0 28 10 31 25v2l1 3v2l1 1 4 16 5 18 6 17 7 15 8 13 9 10 9 6 10 2h8l9-3 10-6 11-9 10-12 9-14 8-14 6-13 6-17 3-19 1-18-3-16-4-13-8-11-10-8-14-6-17-3-16 1-17 4-17 7-12 7h-1c-4 3-9 4-15 4-17 0-31-14-31-31 0-11 6-21 14-26l2-1 13-8 1-1c1 0 2-1 3-1l21-9c1 0 2-1 3-1h2v-1l22-5h1c1 0 2 0 3 0h2l23-1h1z" /><path stroke-width="0" fill="#F39B11" d="M4401 1647l-20 3-16 6-16 10-14 13-9 11c-6 7-14 11-24 11h-3l2 16 5 13 6 9 1 1 4 2 11 2 13 1 15-2 15-4 32-11 28-16 9-6 11-8 10-9 7-9 5-7 1-4v-2l-2-4-4-3-5-3-19-7-22-3h-21zm-3-62h26 3 1l27 4h2c1 0 2 1 3 1h1l26 9 1 1c1 0 2 1 3 1l2 1 11 7h1c1 1 1 2 2 2l2 1 9 9v1c2 1 3 3 4 4l1 2 8 14 1 1c2 3 3 7 3 11v1l1 13h1v3c0 3-1 5-1 7l-1 2-3 14h-1c0 2-1 4-2 6l-1 1-7 13-1 2c-1 1-2 2-2 2l-1 1-10 12-2 2-1 1-12 11-1 1-1 1-12 9-2 2-11 7c-1 1-2 1-3 2l-31 17c-1 0-2 1-3 1h-1l-36 14h-2l-2 1-19 4-3 1-19 2c-1 0-2 0-3 0h-1-18v-1h-3-3l-17-4c-2 0-4-1-6-1v-1l-10-4-3-1c-1-1-1-1-2-2l-2-1-8-6-1-1c-2-1-3-3-4-4l-2-2-11-17h-1c-1-2-2-4-3-5v-3h-1l-6-20c0-1-1-2-1-3v-2l-3-21v-1-2l-1-4v-2-4-1c0-1 0-3 0-4v-2-1l1-1v-1c3-14 15-25 30-25 1 0 3 1 4 1h1c1-3 2-6 4-8l2-3 10-12c1-1 2-2 2-3l1-1 18-16 2-1c0-1 1-2 2-2l1-1 20-13h2c1-1 2-1 3-2h1l23-9h1c1 0 2-1 3-1h2l25-4h1c1 0 2 0 3 0z" /><path stroke-width="0" fill="#F39B11" d="M4389 2236c12 0 22 7 28 16v1 1h1v1l1 3c2 4 3 8 3 12 0 17-14 31-31 31-12 0-23-6-28-16v-1l-1-2-2-3c-1-3-2-7-2-12 0-17 14-31 31-31z" /><path stroke-width="0" fill="#F39B11" d="M4379 2503c18 0 32 14 32 31 0 18-14 32-32 32-17 0-31-14-31-32 0-17 14-31 31-31z" /><path stroke-width="0" fill="#F39B11" d="M4448 2675c1 0 2 0 3 1h1l18 2h2l3 1h1l17 5c1 1 2 1 3 1l2 1 17 9h1c1 1 1 1 2 2l3 2 18 15c1 1 3 3 4 4l1 2 13 18h1c1 2 2 4 3 6l8 20 1 3c0 1 1 2 1 3v1l4 22h-1l1 1c0 1 0 2 0 4l-1 23v2 3l-5 22c0 1 0 2-1 3v2l-8 21v1c-1 1-1 2-2 3l-11 20-1 2-1 2-15 19-1 1c-1 1-1 2-2 3l-18 18-2 1-1 1-21 16-2 1-2 1-23 13v1c-1 0-2 1-3 1l-24 10h-1l-2 1-2 1-25 6h-1c-1 0-2 0-3 0h-2l-25 2h-2c-1 0-2 0-3 0h-1l-25-4h-2c-1 0-2 0-3-1h-2l-15-6h-1c-1-1-3-2-5-3v-1l-12-8-2-1c-1-1-2-2-2-2l-2-2-9-11h-1c-1-2-2-4-3-5l-7-13c0-1-1-2-1-3l-1-2v-1l-5-13c0-1 0-2-1-3v-2l-2-14v-2l-1-3v-15c0-1 0-2 0-3v-1l2-14 1-3v-2l1-3v-1l1-4h1v-2-1c3-14 16-25 31-25 17 0 31 14 31 31 0 1 0 2 0 3v2l-1 2v1 3h-1l-1 4v1l-1 3-1 11v10l1 10 3 9 4 7 5 5 5 4 8 3 18 3 20-2 20-5 20-8 20-11 17-13 16-15 12-16 8-16 7-17 3-17v-16l-2-16-5-13-9-11-12-11-12-6-12-3-13-2h-14l-15 2-14 4-30 13-12 6-11 7h-1c-5 3-10 4-15 4-17 0-31-14-31-31 0-11 5-21 13-26l2-1 12-7 1-1 13-7c1 0 2-1 3-1l34-14 3-1 1-1 18-4 2-1h1l18-3h2 2l19-1z" /></g><g stroke="#ED331F"><path stroke-width="0" fill="#ED331F" d="M5826 1108h-17l-17 4-16 5-14 7-24 16-24 19-18 16-1 2c-6 4-13 7-20 7-1 0-2 0-3 0l-2-1-1 6-1 19 3 18 5 15 11 15 5 5 6 4 7 3 5 2h17l17-4 19-7 19-11 17-13 14-13 19-23 17-26 5-13 3-12 1-10-1-9-4-10-6-6-8-3-13-2zm1-63c1 0 2 0 3 0h2l20 3 2 1c2 0 4 1 6 2l17 7 1 1 2 1c2 1 3 2 5 3l2 2 14 13v1c2 2 4 4 6 7l1 2 8 20h1c0 2 1 4 1 6l1 3 2 16v1c0 1 0 2 0 3v3l-2 17c0 1 0 2 0 3l-1 2-4 17v1c-1 1-1 2-1 3h-1l-6 16c-1 1-1 2-2 3l-1 2-19 30v1c-1 1-1 2-2 2v1l-22 25-2 2-1 1-17 16-1 1-1 1-20 15-1 1-2 1-22 13h-1c-1 1-2 1-3 2l-23 9h-1l-2 1c-1 0-2 1-3 1l-24 5c-2 0-4 1-7 1h-1l-23-1h-2c-1 0-3-1-4-1h-1l-11-3h-2c-1-1-2-1-3-2l-11-4v-1l-3-1-2-1-10-7h-1c0-1-1-1-2-2l-1-1-10-9-1-1c-1-1-1-2-2-2l-1-2-15-21c-1-2-2-4-3-6l-1-1-8-22-1-2c0-1 0-2 0-3l-1-2-3-24v-1c0-1 0-2 0-3v-2l1-24v-2-3l5-24v-1c0-1 1-2 1-3l7-24h1l1-2v-1l9-22h1l1-3 11-20v-1l1-2h1l1-4h1l1-2 2-3v-1c1-2 3-3 4-4l1-2 2-1 1-1c5-4 12-7 20-7 17 0 31 14 31 31v1l20-13 2-1 2-1 17-8 1-1h2l1-1 19-6h1c1-1 2-1 3-1l21-4h1l2-1h2l22-1h1z" /><path stroke-width="0" fill="#ED331F" d="M5825 1558l-11 2-12 5-13 7-11 8-1 1c-5 3-11 5-17 5-10 0-18-4-24-11l-1-1-2 8-3 17v17l4 14 6 12 11 10 12 8 14 6 14 3h14l13-3 12-4 10-8 10-11 6-11 4-13 2-14-1-13-4-11-5-10-8-7-10-5-9-1zm-36-104c17 0 31 14 31 31 0 3-1 7-1 10l-1 1h2l1-1c1 0 2 0 3 0 1 0 3 0 4 0l1 1 19 2 2 1c2 0 4 1 6 1l1 1 19 9 1 1c2 1 3 2 5 3l1 1 14 14h1c2 2 3 3 4 5l1 1 10 17v1c1 2 2 4 3 5v1l5 18c1 2 1 4 2 6v1l1 19v3c0 1 0 2 0 3l-2 20v3c-1 1-1 2-1 3l-6 19c-1 2-2 4-3 5v1l-9 16v1l-2 2c0 1-1 1-1 2l-1 1-14 16h-1l-1 1c0 1-1 2-2 2l-2 2-16 11-1 1c-1 1-3 2-5 3l-18 7-3 1c-1 1-2 1-3 1h-1l-19 4h-2c-1 0-3 0-4 0h-20-2c-2 0-3 0-4-1l-19-4c-1 0-2 0-3-1h-3v-1l-19-7c-1-1-2-1-3-2l-2-1v1l-17-12h-1c-2-1-4-3-5-4l-16-16-2-2c-1-2-2-4-3-5v-1l-11-19c-1-2-2-3-2-5l-1-2-5-22v-1c0-1-1-2-1-3v-2l-1-23h1l-1-1c0-1 1-2 1-3v-2l3-22 1-2c0-1 0-2 0-3h1l7-22 1-3 1-2 10-20v-1c1-1 1-2 2-2l1-2 13-17 1-1c0-1 1-2 2-2l1-1 12-12 1-1c1 0 2-1 3-2h1l13-8 1-1c1-1 2-1 3-1l1-1 14-5 2-1h1l16-5h2c2-1 5-1 7-1z" /><path stroke-width="0" fill="#ED331F" d="M5825 1828c1 0 2 0 3 0 3 0 5 1 7 1 0 1 1 1 2 1 2 1 4 2 6 3 1 1 1 1 2 2 2 1 3 3 4 4 1 1 2 2 2 3 1 1 2 3 3 5 0 1 1 2 1 3 1 3 1 6 1 9 0 1 0 2 0 3 0 1 0 2 0 3 0 1-1 2-1 3 0 1-1 2-1 3 0 1-1 2-1 3-1 1-1 2-2 3 0 0-1 1-2 2 0 1-1 1-2 2 0 1-1 2-2 2-1 1-1 1-2 2-1 1-2 1-3 2-1 0-2 0-3 1-1 0-2 1-2 1-1 0-2 0-3 1-3 0-5 0-7 0-1 0-2 0-3 0-1 0-2 0-3 0-1-1-2-1-3-1-1 0-2-1-3-1-1-1-2-1-3-1-1-1-1-1-2-2-1-1-2-1-3-2 0 0-1-1-2-2-1-1-1-1-2-2 0-1-1-2-2-2 0-1-1-2-1-3-1-1-1-2-2-3 0-1 0-2-1-3 0-1 0-2 0-3-1-1-1-2-1-3 0-1 0-2 0-3 0-17 14-31 31-31z" /><path stroke-width="0" fill="#ED331F" d="M5814 2078c18 0 32 14 32 31 0 18-14 32-32 32h-1c-17 0-31-14-31-32 0-16 12-29 28-31h3 1z" /><path stroke-width="0" fill="#ED331F" d="M5940 2318c1 0 2 0 3 1l18 1c2 1 4 1 6 2l13 4 3 1c1 0 2 1 3 1v1l12 6 2 1c1 2 3 3 4 4l1 1 18 19 1 1c1 2 2 4 3 5l1 2 11 24 1 1c0 1 0 2 1 3v2 1l6 26v1c1 1 1 2 1 3v1l2 38v2 2l-2 39v1 2l-6 38v2l-1 1-9 37v2 1l-13 39-1 3-1 1-19 40v1l-2 3-12 18c-1 1-1 2-2 2l-1 1-14 16-1 2c-1 0-1 1-2 2h-1l-16 13-2 1c-1 1-1 1-2 2h-1l-19 9-1 1c-1 1-2 1-3 1l-3 1-16 4h-1c-2 0-4 0-6 0h-1-16-2c-1 0-2 0-3-1h-2l-15-4h-1c-1 0-2-1-3-1l-2-1-14-7-1-1c-1 0-2-1-2-1l-2-1-13-10c-1-1-2-2-2-3l-1-1-11-11-1-1c-1-1-2-2-2-3l-9-13v-1l-1-2-1-2-7-14-1-1c0-1 0-2-1-3v-1l-6-20v-1l-1-2v-2l-3-23v-2l-1-2v-24-1-2-1l2-24c0-1 0-2 1-3l5-23v-1l1-2v-2l8-22 1-1c0-1 1-2 1-3v-1l11-19 1-1 1-2c0-1 1-1 2-2l14-17v-1l2-2c1 0 2-1 2-2l2-1 4-3h1l1-1v-1 1l2-1c5-4 11-6 17-6 17 0 31 14 31 31 0 10-4 19-11 25h-1l-1 1-1 1-2 1-10 12-9 16-7 18-4 19-2 20 1 21 3 19 5 17 4 10 7 9 7 8 8 6 8 5 8 2h9l9-2 12-6 11-9 11-12 10-15 17-36 12-37 8-35 6-35 2-36-2-34-5-21-8-16-10-12-5-3-7-2-12-1-12 1-13 4-13 5-28 17-26 21-20 18-18 19-17 20-16 19-2 2c-6 6-13 9-22 9-17 0-31-14-31-31 0-7 3-14 7-20l16-19v-1h1l17-20 1-1 20-21 1-1 22-20 1-1 1-1 28-22 2-1 1-1 32-20h1c1-1 2-1 3-2l17-7c1 0 2 0 3-1h1l18-5h2c1 0 2-1 3-1l17-1h1l3-1z" /></g><g stroke="#000000"><path stroke-width="0" fill="#000000" d="M302 181c7 0 12 5 12 12 0 1 0 2 0 2l-1 3-1 2v1l-2 3-15 31-1 1-17 30-17 30-16 31h-1 1l-5 8-1 1-1 2-1 1c-2 2-5 4-9 4-7 0-12-6-12-13 0-2 1-4 2-6v-1h1l4-8 16-31 18-30 17-30 15-31 1-3 1-2c2-4 7-7 12-7z" /><path stroke-width="0" fill="#000000" d="M176 195h2l5 1h1 1l9 3h1l31 14 2 1h1l24 20 1 1 2 2v-1l19 26v1l1 1 14 30v1 1h1l4 14v1h1l3 12v1c0 0 0 1 0 2 0 7-5 13-12 13-5 0-9-4-11-8l-1-1-3-12-5-14-13-28-17-23-22-18-29-13-7-2h-2-2c-1 0-2 1-3 1-7 0-12-6-12-13 0-6 4-11 10-12l4-1c1 0 2 0 2 0z" /><path stroke-width="0" fill="#000000" d="M366 328c5 0 8 2 11 6l1 2 1 2c0 1 0 2 1 3v4 1l1 4v3l8 38 3 11v1c0 0 0 1 0 2 0 7-5 12-12 12-5 0-9-3-11-7l-1-2-3-12-8-39v-1l-1-3v-1-3-2l-1-2c-1-1-1-3-1-4 0-7 6-13 12-13z" /><path stroke-width="0" fill="#000000" d="M257 753c7 0 13 5 13 12 0 2-1 3-1 5l-1 2-3 3v1l-1 1-2 3-45 68-45 68-16 22-14 22-2 5h-1c-2 4-6 6-10 6-7 0-12-6-12-13 0-1 0-3 1-4v-2l3-4v-1l15-22 15-23 46-68 44-68 1-1 3-3 2-3v-1c2-3 6-5 10-5z" /><path stroke-width="0" fill="#000000" d="M147 783c3 0 6 2 8 4l1 1 8 9v1h1l6 11 1 1 10 22v1l21 48 20 48 5 12h1c0 2 1 3 1 5 0 7-6 12-13 12-4 0-8-2-10-5l-1-2-5-12h-1l-20-48v-1l-20-48-10-21-6-9-7-9-1-1c-1-2-2-4-2-7 0-6 6-12 13-12z" /><path stroke-width="0" fill="#000000" d="M353 901c3 0 5 1 7 2h1l3 3 1 1c2 2 4 5 4 9l-1 6v1 2l-2 6v1l-2 4v1l-19 42-17 40 8-2 17-6 17-9 16-8 16-9h1c2-1 3-1 5-1 7 0 12 5 12 12 0 4-2 8-5 10l-1 1-16 8-17 9-18 9h-1l-19 8h-1-1l-18 4h-2-2-1l-5-1h-1c-3-1-6-3-7-6l-1-1-2-4-1-1c0-1-1-3-1-4l1-2v-6l1-2 2-6v-1l19-42 17-41-5 2v1h-1l-7 2h-1c0 0-1 1-2 1-7 0-12-6-12-13 0-5 3-9 7-11l1-1 7-2 6-2 2-1 7-2h1 1l8-1h1z" /><path stroke-width="0" fill="#000000" d="M278 1275c7 0 12 6 12 13 0 2 0 3-1 5v1l-10 18-10 17-31 72-33 72v1l-1 1v1c-2 2-3 3-6 4-2 1-3 1-5 1-7 0-12-5-12-12v-1-2c1-3 2-5 3-7l31-68 32-72v-1l10-18 10-18 1-1c2-3 6-6 10-6z" /><path stroke-width="0" fill="#000000" d="M169 1331c4 0 8 3 10 6l1 1 18 34 20 34 39 66 6 11v1c1 2 1 3 1 5 0 7-5 12-12 12-4 0-8-2-10-5l-1-1-6-11-39-66-19-33-1-1-18-34-1-1c0-2-1-4-1-5 0-7 6-13 13-13z" /><path stroke-width="0" fill="#000000" d="M367 1424h1 7 1c3 1 6 3 8 6l3 4 1 2c0 1 1 3 1 5l-1 7v2l-1 7-1 1-1 4-1 9 1 6 6 18v1l2 6h-1l1 1c0 0 0 1 0 2v1l-1 7v1c0 1 0 2-1 3l-5 13-1 2h-1l-9 13-1 1-8 9-1 1-4 4c-2 3-6 4-9 4-7 0-12-6-12-12 0-3 1-5 2-7l1-2 5-5 8-8 8-11 4-10v-3l-1-4-6-18-1-2v-1-10-1-1l1-10v-2l1-5 1-1-4 2-5 3-2 2-1 1-3 2-2 1c-2 1-3 1-5 1-4 0-8-2-10-5l-1-2h-1c0-2 0-4 0-5 0-5 2-8 5-11l2-1 3-2 1-1 6-4h1l7-4 1-1h1l7-3h2c0 0 1 0 2 0z" /><path stroke-width="0" fill="#000000" d="M292 1866c6 0 12 6 12 13 0 1 0 3-1 4l-1 2-7 11v1l-8 10-18 28v1h-1l-19 28-20 29-18 28-6 14-1 1v2c-2 4-6 7-12 7-6 0-12-5-12-12 0-1 0-2 0-3h1v-2l1-2 7-16 1-1 18-29 1-1 19-29 20-28 19-29 7-10 7-11c3-4 6-6 11-6z" /><path stroke-width="0" fill="#000000" d="M176 1839c6 0 11 4 12 10v1 1 3l1 2v2l14 54 19 53 23 52 24 51 5 10v1c1 1 1 3 1 5 0 6-5 12-12 12-4 0-8-2-10-6l-1-1-5-11-24-51h-1v-1l-22-52h-1v-1l-19-53v-1l-1-1-14-55v-1-1-1l-1-3v-2-1l-1-1h1l-1-2c0-6 6-12 13-12z" /><path stroke-width="0" fill="#000000" d="M404 1983c7 0 12 6 12 13 0 1 0 1 0 2l-3 12v12 60l2 30 5 29 1 6c0 1 0 2 0 3 0 7-5 12-12 12-5 0-10-3-11-7l-1-3-2-6v-1l-4-30-3-31v-1-61l1-13v-3l3-13 1-2c1-4 6-8 11-8z" /><path stroke-width="0" fill="#000000" d="M412 1961c7 0 13 6 13 13 0 1-1 3-1 4l-1 2-2 3-2 2-29 55-25 48c1 0 2 0 3 0 6 0 12 6 12 12 0 5-3 10-8 12l-8 3-4 2h-1l-6 2h-1-1-5-1c-4 0-8-2-10-5v-1l-2-3-1-1c0-1-1-3-1-5 0-1 0-1 1-2v-2l3-7v-1l1-1 3-7 29-56 30-55 1-1 2-3 1-2c2-4 6-6 10-6z" /><path stroke-width="0" fill="#000000" d="M438 3262c7 0 12 5 12 12 0 3-1 5-2 7l-3 5h-1l-1 1-4 4-34 42-35 45-69 90-17 22-18 21-17 22-14 22-3 4-1 1c-2 4-6 6-10 6-7 0-12-6-12-12 0-2 0-4 1-5v-1l3-5 1-1 14-23h1v-1l17-22h1v-1l18-21 17-21 69-90 34-45h1-1l36-43 1-1v-1l3-3 3-3 1-2c2-2 5-3 9-3z" /><path stroke-width="0" fill="#000000" d="M243 3340c2 0 5 1 7 2l1 1 1 1 1 1 1 1 1 2 28 38h1l25 40 48 80 9 16v1c1 2 1 3 1 5 0 7-5 12-12 12-4 0-8-2-10-5l-1-1-9-15-47-80-25-39-27-37-1-1-1-1h1-1c-2-2-4-5-4-9 0-7 6-12 13-12z" /><path stroke-width="0" fill="#000000" d="M492 3436c1 0 2 0 3 0 0 0 1 0 2 1 1 0 1 0 2 1 1 0 1 1 2 1 0 1 1 2 1 2 1 1 1 2 1 2 1 1 1 2 1 3 0 0 0 1 0 2v1 3 48h-1 1l-1 21 16-19 1-1 13-12 1-1h1l13-9h1l2-1h1l7-3h2c0 0 1 0 2 0h1 7 1c1 0 2 1 3 1l6 3 2 1 1 1 5 4v1c1 0 1 1 2 2l8 12 1 2 6 12v1l5 12c1 2 1 3 1 5 0 7-5 12-12 12-4 0-8-2-10-5l-1-2-6-13-5-11-7-10-2-3-2-1h-2l-4 2-12 7-11 11-22 25-4 5-6 6-1 1-1 1-5 4c-2 2-4 2-7 2-2 0-3 0-5-1h-1l-2-1c-3-2-5-5-6-8v-3-2-1l1-48 1-47v-3-1c0-1 0-2 0-2 0-1 0-2 1-3 0 0 0-1 1-2 0 0 1-1 1-2 1 0 2-1 2-1 1-1 2-1 2-1 1-1 2-1 3-1 0 0 1 0 2 0z" /></g><g stroke="#F1C30F"><path stroke-width="0" fill="#F1C30F" d="M1873 3376c5 0 9 3 11 7l1 1 10 28v2l7 30 9 58v1l4 59h-1l1 1v59l-1 31 13-16 19-26 39-53v-1l5-6 1-1 6-5 2-2c0 0 1 0 2-1l7-2 2-1c0 0 1 0 2 0 1 0 2 0 2 0l2 1 8 3c1 0 3 1 4 2l1 1 9 11 1 1v2h1l6 14v1l1 1 5 15v1l4 14 14 57 8 28 10 26 6 11h-1 1c0 2 1 3 1 5 0 7-6 12-13 12-4 0-8-2-10-5l-1-2-5-11v-1l-11-27v-1l-9-28-14-58-4-14-4-14-6-12-6-7-3 3-5 5-38 52-19 27h-1l-20 25v1l-4 4-5 6-2 1-4 3-1 1c-2 1-4 2-7 2-1 0-3-1-5-1l-2-1v-1l-1-1h-1c-3-2-5-6-5-10l1-59v-59l-4-57-8-58-7-28-10-28v-2c0 0 0-1 0-2 0-7 5-12 12-12z" /><path stroke-width="0" fill="#F1C30F" d="M2237 3688c6 0 11 5 12 10v2l1 30 2 28 2 15v2c0 6-5 12-12 12-6 0-11-4-12-10v-1l-2-16-3-29v-30c0-7 5-13 12-13z" /><path stroke-width="0" fill="#F1C30F" d="M2961 3308c5 0 9 3 11 7v1l2 4v1 1l1 4 21 88v1l17 90 12 91v1l1 8 2-14 1-1 7-24v-1l9-24v-1l6-12 1-2h1l8-11 1-1 2-2 5-3c1-1 1-1 2-1l2-1 5-1 1-1c1 0 2 0 3 0h1l7 1c1 1 2 1 3 1l1 1 7 3v1h1l1 1 10 9 1 2v-1l8 11 1 1v1l13 25 1 1 10 27v1l8 25 16 57 18 56 4 11v2c0 0 0 1 0 2 0 7-5 12-12 12-5 0-9-3-11-7v-1l-5-11 1-1h-1l-17-56-17-57-7-25-10-25-12-24-7-9-7-7-4-2h-2-1l-2 2-6 8-5 11-9 22-7 23-9 50-6 50-3 47v2c-2 5-7 10-13 10-6 0-12-6-12-13v-26l-1-27-8-90-11-90-17-89-21-88v-1l-1-4-1-3v-2c-1 0-1-1-1-2 0-7 6-12 13-12z" /><path stroke-width="0" fill="#F1C30F" d="M3307 3648h1 2 3 1 1l10 1h2l1 1 9 3h1c1 0 1 1 2 1l1 1 7 5 1 1c0 1 1 1 1 2l1 2 5 9v1c0 1 0 1 1 2v1l1 12 1 2h-1 1l-1 13v2l-6 24v1l-8 24-6 22 9-1 11-3 24-9 25-9 2-1c1 0 1 0 2 0 7 0 13 5 13 12 0 5-3 10-8 11v1l-25 9h-1l-25 9-12 4v-1l-1 1h-1l-12 2h-2-2l-5-1h-1c-1 0-2 0-3-1h-1l-4-3h-1c-1-1-2-2-3-4l-1-1-2-4v-1c-1-2-1-3-1-5v-7-2-1l7-24 8-24 5-22 1-11-1-9-3-5-3-3-5-1-9-1h-1-2-3-1c-6 0-12-6-12-13 0-6 4-11 10-12h2 1z" /><path stroke-width="0" fill="#F1C30F" d="M4330 3187c7 0 12 6 12 13v16l-1 15-1 14-1 15-3 148v1l-4 74-7 74v1l-1 9 6-4 1-1c0 0 1-1 2-1l2-1 17-3v-1c1 0 2 0 3 0h1l8 1h2l1 1 9 3 2 1 8 5c1 0 1 1 2 1v1l7 7 1 1 1 1 13 25 1 1v2l9 29h-1l1 1v1l5 30v1l3 29 4 36 1 11v1c0 7-6 12-13 12-6 0-11-4-12-9v-2l-1-11-4-36-3-28-4-30-8-27-12-23-5-4-5-4-5-1-6-1-12 3-11 8-10 17-3 6-1 14-5 36v1l-7 34-1 2-1 3c-2 5-6 8-11 8-3 0-5-1-7-2l-1-1h-1l-1-1c-1-2-3-4-3-6v-2l-1-3v-1-4-1l1-11v-5l1-4v-1l3-22v-1l6-24 1-2h-1l5-12 6-55 6-74 4-73 4-149v-15-1l1-14 1-14v-16l1-2c1-5 6-10 12-10z" /><path stroke-width="0" fill="#F1C30F" d="M4584 3628h4 2c2 0 3 1 5 2v1h1l2 2 1 1c1 1 2 2 3 3v2l2 8 1 1c0 1 0 2 0 2v10 1l-1 7v15l2 13 4 10 8 12 6 7 1 1 5 7v1c1 0 1 1 1 2l1 1 2 8v1h1c0 1 0 2 0 3 0 1 0 2 0 2l-1 1-2 10-1 2-1 2-12 19h-1l-1 1-17 18-1 1-19 16-19 14-10 8h-1l-7 5-2 1c-1 0-3 1-5 1-6 0-12-6-12-13 0-4 2-8 5-10h1l7-5 9-7 19-13 18-16 16-16 11-16 1-5-1-3-4-5-6-7-1-1-9-14c-1 0-1-1-1-2l-6-14v-2-1l-3-14h1l-1-2 1-16v-1-7-5l-4 3-12 12-4 6-5 8v-1l-1 2c-3 2-6 4-9 4-7 0-12-6-12-13 0-2 0-5 2-7l5-7 5-7c0-1 1-1 1-2l13-13 2-1 8-6c0 0 1-1 2-1l8-3 2-1c1 0 2 0 3 0z" /></g><g stroke="#ED331F"><path stroke-width="0" fill="#ED331F" d="M5603 3315l-8 2-10 4-11 7-10 10-8 9-8 9-16 21-1 1c-2 3-5 4-8 4-7 0-13-5-13-12 0-3 1-5 2-7l1-1 7-10-2 2-10 14-8 16-7 17-3 19-2 19 1 18 4 16 9 21 7 8 7 8 9 5 8 4h9l11-2 10-5 10-7 19-21 15-24 11-25 9-29 5-30v-15l-3-13-4-13-7-11-8-7-7-2zm1-25c1 0 1 1 2 1h1l12 3 2 1c1 0 1 1 2 1l1 1 12 10h-1 1c1 1 1 2 2 2v1l8 13 1 2h1l5 15v2l3 16v2l1 16v1l-1 1-4 33v1l-1 1-10 30v1 1l-12 26-1 1-16 26v1l-1 1-21 22v1l-1 1-12 9h-1l-1 1-13 6h-1l-2 1-13 3c-1 0-2 0-3 0h-1l-12-1h-2l-2-1-11-4h-1l-2-1-10-7-2-2-9-9h-1l-1-1-8-11-1-2-10-23-1-1c0 0 0-1 0-2l-4-18v-2l-1-20v-1l1-21v-1l4-20 1-2 7-19v-1-1l9-18 1-1h1l11-16 1-1 1-1 14-12 1-1h1l12-8h1l7-3c1-1 1-1 2-1h1l6-1h2c3 0 5 0 7 2h1l2-2 2-1 11-9h1l1-1 13-6c1 0 2 0 3-1l13-1 2-1z" /><path stroke-width="0" fill="#ED331F" d="M5757 3316c7 0 12 5 12 12 0 1 0 2 0 2v2l-1 3v3l2 6 2 5 9 20 11 19 13 17 14 13h1l1-1 3-4 6-14 1-6 2-6 4-14 3-14 2-13v-13-1c0-7 5-12 12-12 5 0 10 3 12 7v3l3 12 5 14 10 27 13 31 14 29 8 14v1c1 1 1 3 1 5 0 6-5 12-12 12-4 0-8-2-10-6l-1-1-8-14-14-30h-1l-13-31-2-7-2 7-2 6-2 8v1l-7 16-1 2-4 6c-1 1-1 2-2 2l-1 1h1l-6 4-1 1c-1 1-2 2-4 2l-6 1h-3c0 0-1 0-2 0l-2-1-7-2c-1-1-2-1-3-2l-1-1-16-14-1-1-1-1-14-19h-1v-1l-12-20v-1l-1-1-9-20v-1l-2-5-1-1-2-8v-1-1l-1-7v-2c0 0 0-1 0-2v-1l2-6 1-1c1-4 6-7 11-7z" /><path stroke-width="0" fill="#ED331F" d="M6008 3095c7 0 13 6 13 13 0 0 0 1 0 2h-1l-1 7v1l-2 5-3 25-1 25 3 53 7 53 9 53h-1 1l5 38 6 37 2 15v2c0 7-5 12-12 12-6 0-11-4-12-10l-3-15h1-1l-5-38-6-38-8-52-8-54v-1l-3-54v-1l1-27v-1l4-26v-1-1l2-6 1-6 1-2c2-5 6-8 11-8z" /><path stroke-width="0" fill="#ED331F" d="M6054 3282c7 0 13 6 13 12 0 6-5 11-10 12l-1 1-27 4h-1l-37 5h-1l-39 2h-1c-7 0-12-5-12-12 0-6 4-11 10-12h1l39-3 37-5 27-4h2z" /></g><g stroke="#000000"><path stroke-width="0" fill="#000000" d="M713 317c1 0 3 0 4 1l448 215 448 216 4 2 1 1c2 1 4 4 4 7 0 5-4 9-9 9-1 0-3-1-4-1l-4-2-448-216-448-215-1-1c-2-2-4-4-4-7 0-5 4-9 9-9z" /><path stroke-width="0" fill="#000000" d="M841 929c1 0 2 0 3 0l1 1 306 147 306 147 8 4 1 1c2 2 4 4 4 7 0 5-4 9-9 9-1 0-2 0-3-1h-1l-8-4-306-147-306-147-1-1c-2-2-4-4-4-7 0-5 4-9 9-9z" /><path stroke-width="0" fill="#000000" d="M866 1444c2 0 3 1 5 2l5 3 6 3 7 3 7 3 392 188 391 189 7 3 1 1c2 1 4 4 4 7 0 5-4 9-9 9-1 0-2 0-4-1l-6-3-392-189-391-188-6-3-8-3-7-3-2-1-5-4-1-1c-2-1-3-4-3-6 0-5 4-9 9-9z" /><path stroke-width="0" fill="#000000" d="M1548 3071c4 0 8 4 8 9 0 3-1 5-4 7l-1 1-4 1-266 120-266 119v1c-1 0-3 0-4 0-5 0-9-4-9-9 0-3 2-5 4-7l2-1 266-119 266-120 4-2c1 0 2 0 4 0z" /><path stroke-width="0" fill="#000000" d="M727 356c3 0 5 1 7 3l344 370 344 370 2 2 1 1c1 2 1 3 1 5 0 5-4 9-9 9-2 0-4-1-6-2v-1l-2-2-344-370-344-370-1-1c-1-1-1-3-1-5 0-5 4-9 8-9z" /><path stroke-width="0" fill="#000000" d="M802 489c3 0 6 2 8 5v1 2l2 1 4 6 449 702 448 702 2 3v1c1 1 1 2 1 3 0 5-4 9-9 9-3 0-6-1-7-4l-2-2-448-702-448-702-4-5h-1v-1l-2-3-1-1v-1l-1-2v-1c0-1 0-1 0-2 0-5 4-9 9-9z" /><path stroke-width="0" fill="#000000" d="M772 375c4 0 7 2 8 5l397 941 396 942 2 4c0 1 0 2 0 3 0 5-4 9-9 9-3 0-6-2-8-6l-1-4-397-941-396-941c-1-1-1-2-1-4 0-5 4-8 9-8z" /><path stroke-width="0" fill="#000000" d="M1433 744c5 0 9 4 9 9 0 4-3 8-7 9h-1l-7 1-581 101h-1c-5 0-9-4-9-9 0-4 3-8 7-8l581-102 7-1h2z" /><path stroke-width="0" fill="#000000" d="M840 1026c2 0 3 0 5 1l1 1 729 645 2 2c2 2 3 4 3 6 0 5-4 9-9 9-2 0-4 0-5-1l-1-1-2-2-729-645c-2-2-3-4-3-6 0-5 4-9 9-9z" /><path stroke-width="0" fill="#000000" d="M805 1046c2 0 4 1 6 3l2 2 1 1v1l2 3 1 1 2 4 1 3 877 1519 1 1c0 2 0 3 0 4 0 5-3 9-8 9-3 0-6-2-8-4v-1l-878-1520-1-3-2-4-2-3-1-1-1-1c-1-2-1-3-1-5 0-5 4-9 9-9z" /><path stroke-width="0" fill="#000000" d="M1550 930c5 0 9 4 9 9 0 1-1 3-1 4l-3 6-1 1-4 5-1 1-8 9-304 384-303 385-2 2h-1c-1 2-3 3-6 3-5 0-9-4-9-9 0-2 1-3 2-5l2-2 304-385 303-384 1-1h-1l9-9 4-4 2-5 1-1c1-2 4-4 7-4z" /><path stroke-width="0" fill="#000000" d="M1564 1510h1c4 1 7 4 7 8 0 3-1 6-3 8h-1l-1 1-3 1-265 143-265 144-4 2h-1c-1 1-2 1-3 1-5 0-9-4-9-9 0-3 2-6 4-7l1-1 4-2 265-143 264-143 3-2h1 1v-1c1 0 2 0 4 0z" /><path stroke-width="0" fill="#000000" d="M1567 1911c4 0 8 4 8 9 0 5-3 8-7 9h-1-5l-524 33-71 6h-1l-36 2-36 1c-5 0-9-4-9-8 0-5 3-8 7-9h1l36-1 36-3 72-5 524-33 5-1v1l1-1z" /><path stroke-width="0" fill="#000000" d="M-163 2920c5 0 9 4 9 9v2 2 2 1 2c-1 4-4 7-9 7-4 0-8-4-8-9v-1-2-2-2c0-5 4-9 8-9z" /><path stroke-width="0" fill="#000000" d="M840 2089c1 0 2 0 2 1h1 1c0 0 1 1 1 1h1l1 1 3 3 373 306 373 307 3 2 1 1c2 1 3 4 3 6 0 5-4 9-9 9-2 0-4-1-5-2h-1l-3-3-373-306-373-307-3-2-1-1-1-1c-1-1-2-3-2-6 0-5 3-9 8-9z" /><path stroke-width="0" fill="#000000" d="M1667 924c4 0 8 4 8 9 0 0 0 1 0 2l-3 11v2l-5 11-151 465-152 467-304 934-2 3v1c-1 3-4 6-8 6-5 0-9-4-9-9 0-1 0-1 0-2l1-1 1-4 304-933 152-467 152-466v-1l4-10 3-11v-2c2-3 5-5 9-5z" /><path stroke-width="0" fill="#000000" d="M1670 1599c5 0 9 4 9 9 0 1 0 2-1 3v1l-5 8-4 10-348 717-348 716-3 8-1 1c-2 2-4 4-7 4-5 0-9-4-9-9 0-2 0-3 1-4l3-8 348-716 348-716 4-10v-1l5-9h1c1-3 4-4 7-4z" /><path stroke-width="0" fill="#000000" d="M1682 2106c5 0 9 3 9 8 0 2 0 3-1 4v1l-342 510-340 509c-2 2-5 4-8 4-4 0-8-4-8-9 0-1 0-2 0-3l1-2 341-509 341-510c2-2 4-3 7-3z" /><path stroke-width="0" fill="#000000" d="M2549 721c5 0 9 4 9 9 0 4-3 8-7 8l-2 1h-3l-289 5-290 6h-4-1c-5 0-9-4-9-9 0-1 0-2 1-3 0-1 1-2 1-3 1-1 1-1 2-1 0-1 1-1 1-1 1 0 1-1 2-1h1 2 4l289-5 290-6h3z" /><path stroke-width="0" fill="#000000" d="M4020 693c5 0 9 4 9 8 0 5-3 8-7 9h-1-4l-386 8-386 7h-1c-4 0-8-4-8-9 0-4 3-7 7-8h1l387-8 386-7h3z" /><path stroke-width="0" fill="#000000" d="M2625 1268c4 0 8 4 8 9 0 5-3 8-7 9h-1-1l-208 13-207 12-49 4-50 3v1l-48 3h-22l-19 1h-1c-4 0-8-4-8-9 0-4 3-8 7-9h1 20l21-1 48-3 50-4 49-3 207-13 208-12 1-1v1l1-1z" /><path stroke-width="0" fill="#000000" d="M2639 1798c5 0 9 4 9 8 0 5-3 8-7 9h-2l-4 1v-1 1l-557 26h-6-8-1l-17 1h-8-3l-1 1c0 0-1 0-2 0h-2-1c-4-1-7-5-7-9 0-4 3-8 7-9h1 2 6l7-1h18l8-1h7l556-26h4 1z" /><path stroke-width="0" fill="#000000" d="M2717 2908c4 0 8 4 8 8 0 5-3 8-7 9h-1-3l-64 2-222 6-111 3-111 1c-5 0-9-4-9-9 0-4 3-8 7-9h2l111-1 111-3 221-6 65-1h2 1z" /><path stroke-width="0" fill="#000000" d="M2710 2077c5 0 9 4 9 9 0 2 0 4-1 5h-1l-2 4-1 1-4 4-500 586h-1c-2 2-4 3-6 3-5 0-9-4-9-9 0-2 1-4 2-5v-1l501-586 4-4 2-3 1-1c2-2 4-3 6-3z" /><path stroke-width="0" fill="#000000" d="M2791 1473c5 0 9 4 9 9 0 1 0 2-1 3v1l-2 4-1 1v1l-3 4-158 262-160 264-159 262-78 129-51 84-1 2-1 2-24 39v1c-2 2-5 4-8 4-5 0-8-4-8-9 0-1 0-2 0-4l1-1 77-127 78-129 159-262 160-264 158-263h1l3-4 1-4 1-1c2-2 4-4 7-4z" /><path stroke-width="0" fill="#000000" d="M2815 880c5 0 9 4 9 9 0 1 0 1-1 2v4h-1v2l-2 5-5 9-373 864h-1l-373 866-1 2c-2 2-4 3-7 3-5 0-9-3-9-8 0-2 0-3 0-4h1l373-865v-1l374-865 5-9 1-4 1-3 1-1c1-4 4-6 8-6z" /><path stroke-width="0" fill="#000000" d="M2764 1326c4 0 8 4 8 9 0 3-1 5-4 7l-5 4-389 245-388 245-3 2-1 1-1 1c-1 0-2 0-4 0-4 0-8-4-8-8 0-2 0-4 1-5l1-2c1 0 1 0 2-1l1-1 3-2v1-1l388-245 388-245 6-4h1c1-1 2-1 4-1z" /><path stroke-width="0" fill="#000000" d="M2814 866c5 0 8 4 8 9 0 2-1 5-2 6v1l-370 369-369 369-3 3-2 3-1-1v1c-2 2-4 3-6 3-5 0-9-4-9-9 0-2 1-4 1-5l1-1 3-3v-1h1l3-3 369-369 369-369 2-1c1-1 3-2 5-2z" /><path stroke-width="0" fill="#000000" d="M2002 1999c1 0 2 0 3 0l2 1 6 4 1 1 6 6h1l11 11 381 338 382 338 1 1c2 1 3 4 3 6 0 5-4 9-9 9-2 0-3-1-5-2h-1v-1l-382-338-382-338-12-11-5-5-6-4c-3-2-4-5-4-8 0-4 4-8 9-8z" /><path stroke-width="0" fill="#000000" d="M1900 1503c1 0 3 1 4 2h1l2 2 1 1 1 1v-1l3 4v1-1l3 4 2 3 936 1076 1 1v1c1 1 2 3 2 5 0 5-4 8-9 8-3 0-5 0-6-2l-1-1-936-1077h-1l-2-3-3-4-2-2-2-2-1-1c-1-1-2-3-2-6 0-5 4-9 9-9z" /><path stroke-width="0" fill="#000000" d="M2016 1491c0 0 1 0 1 0h2l379 149 378 150 3 1c3 1 5 4 5 8 0 5-4 9-9 9 0 0-1 0-1-1h-2l-2-1-379-149-379-149v-1c-3-1-5-4-5-8 0-5 4-8 9-8z" /><path stroke-width="0" fill="#000000" d="M2764 848c5 0 9 4 9 9 0 3-1 5-4 7l-4 2-359 188-359 188h-1c-1 0-2 1-3 1-5 0-9-4-9-9 0-3 2-6 4-7l1-1 359-188 358-187h1-1l4-2h1c1-1 2-1 3-1z" /><path stroke-width="0" fill="#000000" d="M2057 843c1 0 2 0 3 0l703 325 8 4 1 1c3 1 4 4 4 7 0 5-4 9-9 9-1 0-2-1-3-1l-8-4-703-325h-1c-3-2-4-5-4-8 0-4 4-8 9-8z" /><path stroke-width="0" fill="#000000" d="M2070 997c2 0 3 1 5 2l1 1 775 690 2 2c2 2 3 4 3 6 0 5-4 9-9 9-2 0-4 0-5-1l-1-1-2-2-775-690v-1c-2-1-3-3-3-6 0-5 4-9 9-9z" /><path stroke-width="0" fill="#000000" d="M1946 1086c3 0 6 2 7 4l1 1 12 22 14 23 29 44 375 602 375 602 3 4v2c1 1 1 2 1 3 0 5-4 9-9 9-3 0-6-2-7-4l-3-5-375-602-375-602-28-44h-1l-14-22v-1l-13-23v-1c-1-1-1-2-1-3 0-5 4-9 9-9z" /><path stroke-width="0" fill="#000000" d="M3272 825c1 0 1 0 2 0l1 1h2l2 1 426 162 426 162 3 1c4 1 6 4 6 8 0 5-4 9-9 9-1 0-1 0-2 0l-1-1-3-1-426-162-426-161-3-2h-1c-3-1-6-5-6-8 0-5 3-8 7-9h2z" /><path stroke-width="0" fill="#000000" d="M3376 1027c1 0 2 0 3 0l1 1h1v1h2l3 3 684 514h1l1 1c1 2 2 4 2 6 0 5-4 9-8 9-2 0-4 0-5-1l-1-1h-1l-684-514-3-2-1-1-1-1c-2-2-3-4-3-6 0-5 4-9 9-9z" /><path stroke-width="0" fill="#000000" d="M3256 1185c4 0 7 3 8 6l1 2 2 3 6 7v1l418 638 418 639 2 3 1 2c0 1 0 2 0 3 0 5-4 9-8 9-4 0-6-1-8-4l-2-3-418-639-418-638-5-7v-1l-3-4c0 0-1-1-1-1v-1l-1-3-1-1c0-1 0-1 0-2 0-5 4-9 9-9z" /><path stroke-width="0" fill="#000000" d="M3164 1236h2 4 449 450c5 0 9 4 9 9 0 5-4 9-9 9h-450-449-4-2c-5 0-9-4-9-9 0-5 4-9 9-9z" /><path stroke-width="0" fill="#000000" d="M4038 844c5 0 9 4 9 9 0 4-2 7-5 8h-1v1h-2l-370 142-369 142-10 5h-1l-5 2h-1l-1 1-5 1h-1-1c-5 0-9-4-9-9 0-4 3-8 7-8l5-1 4-2 11-5h1l369-142 370-142 2-1h1c1 0 2-1 2-1z" /><path stroke-width="0" fill="#000000" d="M3180 1429c2 0 5 1 6 3h1l1 2 3 4 865 970 1 1 1 1c1 2 1 3 1 5 0 5-4 9-8 9-3 0-5-1-7-3l-1-1-865-971-3-3-2-2h1l-1-1c-1-2-2-3-2-5v-2c1-4 5-7 9-7z" /><path stroke-width="0" fill="#000000" d="M4105 946c5 0 9 4 9 9 0 2-1 4-3 6l-1 1-1 1-410 303-409 303-18 15h-1l-9 7h-1l-10 6-1 1c-1 0-2 1-3 1-5 0-9-4-9-9 0-3 2-6 4-8l10-5 9-7 18-15 409-303 410-303 2-1v-1c2-1 3-1 5-1z" /><path stroke-width="0" fill="#000000" d="M4139 1360c5 0 8 4 8 9 0 3-2 7-5 8l-2 1-467 176-466 176-1 1c-1 0-1 0-2 0-5 0-9-4-9-9 0-4 2-7 6-8l466-176 466-177h3l1-1c0 0 1 0 2 0z" /><path stroke-width="0" fill="#000000" d="M4128 1713c4 0 8 4 8 9 0 4-3 7-7 8h-1l-5 1-477 29-477 29h-5-1-1-2c-4-1-7-5-7-9 0-4 3-8 7-8l2-1h1 5l477-29 477-29h5 1z" /><path stroke-width="0" fill="#000000" d="M3120 1920c2 0 3 1 5 2l916 762 1 1c2 1 3 3 3 6 0 5-4 9-9 9-2 0-4-1-5-2h-1v-1l-916-761-1-1c-1-1-2-4-2-6 0-5 4-9 9-9z" /><path stroke-width="0" fill="#000000" d="M3218 2827h2 5 420 420 2c5 0 9 4 9 9 0 5-4 9-9 9h-2-420-420-5-2c-1 0-2 0-2 0-1 0-1 0-2-1 0 0-1 0-1-1-1 0-1 0-2-1 0 0 0 0-1-1 0 0 0-1-1-1 0-1 0-1 0-2 0-1 0-1 0-2 0-2 0-3 1-5 1 0 1-1 1-1 1 0 1-1 2-1 1-1 2-1 3-1 0-1 1-1 2-1z" /><path stroke-width="0" fill="#000000" d="M4155 1908c4 0 8 4 8 9 0 2-1 4-2 6h-1v1l-214 178-1-1 1 1-215 178-215 178-211 176h-1c-2 1-3 2-5 2-5 0-9-4-9-9 0-2 1-5 3-6v-1l212-176 214-178 215-178 215-178 1-1c1-1 3-1 5-1z" /><path stroke-width="0" fill="#000000" d="M4223 1420c5 0 9 3 9 8 0 2-1 4-2 5v1l-455 589-456 590v1c-2 1-4 2-7 2-5 0-8-4-8-8 0-2 0-4 1-5v-1l456-589 455-590 1-1c1-1 3-2 6-2z" /><path stroke-width="0" fill="#000000" d="M4122 1024c5 0 9 3 9 8 0 2 0 3 0 4l-1 1-200 353-202 355-202 355-201 354-8 16-1 1-9 15c-2 3-5 4-8 4-5 0-9-4-9-9 0-1 1-2 1-3l1-1 9-15 8-16h1l201-354 202-356 201-354 201-354v-1c2-2 4-3 7-3z" /><path stroke-width="0" fill="#000000" d="M4643 779c1 0 1 0 2 0h1l675 239 1 1h1c3 1 5 4 5 8 0 5-4 9-9 9 0 0-1 0-2 0l-1-1h-1l-675-239c-4-2-6-5-6-8 0-5 4-9 9-9z" /><path stroke-width="0" fill="#000000" d="M4671 858c2 0 4 1 6 2l1 1 2 2 3 2 2 1h1l390 264 389 263 4 3c3 1 4 4 4 7 0 5-4 9-8 9-2 0-4-1-5-2l-4-2-390-264-390-263-2-1-3-2h-1v-1l-3-2c0 0-1 0-1-1l-2-1-1-2c-1-1-1-3-1-4 0-5 4-9 9-9z" /><path stroke-width="0" fill="#000000" d="M4718 1025c2 0 4 1 6 2l1 1 20 26h1l18 27 443 591h-1 1l442 593c1 1 1 3 1 5 0 5-4 9-8 9-3 0-5-1-7-3l-1-1-442-592-442-592-19-27-20-25v-1c-1-1-2-3-2-5 0-4 4-8 9-8z" /><path stroke-width="0" fill="#000000" d="M5480 1194c5 0 9 4 9 9 0 4-3 7-7 8h-1-1l-270 13-269 12-104 6-51 3h-1l-51 1c-5 0-9-4-9-9 0-4 3-8 7-9h1l52-1 51-2 104-6 269-13 270-12h1z" /><path stroke-width="0" fill="#000000" d="M4657 1317h1l9 1h1 1l9 3 17 6 355 96 356 97 8 2h1c3 2 6 5 6 8 0 5-4 9-9 9-1 0-1 0-2 0l-9-2-355-97-356-96v-1l-17-5-9-3-8-1c-4-1-7-4-7-9 0-4 4-8 8-8z" /><path stroke-width="0" fill="#000000" d="M4669 1510c2 0 4 1 6 3l1 1 1 1 4 3v1-1l849 725v1h1c2 2 3 4 3 6 0 5-4 9-9 9-2 0-4 0-5-1l-1-1-849-725-4-3-2-2h-1l-1-1-1-2c-1-1-1-3-1-5 0-5 4-9 9-9z" /><path stroke-width="0" fill="#000000" d="M5419 1341c4 0 8 4 8 9 0 4-2 7-5 8h-1l-1 1-349 124-348 123h-1l-31 10-31 12h-1c-1 1-1 1-2 1-5 0-9-4-9-9 0-4 2-7 6-8l31-12v-1l32-10 348-123 349-124h2l1-1c0 0 1 0 2 0z" /><path stroke-width="0" fill="#000000" d="M5550 1647c5 0 9 4 9 9 0 4-3 8-7 8l-1 1h-11l-285 9-285 9-154 6-76 2-77 1c-5 0-9-3-9-8 0-5 3-8 7-9h2l76-1 77-3 153-6 285-9 286-9h10z" /><path stroke-width="0" fill="#000000" d="M4701 1842c2 0 4 1 5 2l1 1 2 1 2 1 2 1 466 278 466 279 3 2c2 1 4 4 4 7 0 5-4 9-9 9-1 0-2 0-3-1h-1l-3-2-466-278-466-279-1-1-3-1-2-1-1-1-1-1v1l-1-1v-1c-2-1-3-3-3-6 0-5 4-9 9-9z" /><path stroke-width="0" fill="#000000" d="M5474 2647c4 0 8 4 8 9 0 4-3 8-7 9h-1l-388 69-387 69-4 1h-2-1-2c-1 0-2-1-3-1-1-1-1-1-1-1-1-1-2-2-2-3-1-1-1-1-1-2 0 0 0-1 0-2 0 0 0-1 0-1 0-2 1-3 2-4 0 0 0 0 1-1 1-1 2-2 4-2l2-1h4l387-69 388-69 1-1h2z" /><path stroke-width="0" fill="#000000" d="M5535 1862c4 0 8 4 8 9 0 3-1 5-2 6l-1 1-2 2-25 22-408 369-408 369-2 2-3 2-2 1v1h-1c-1 3-4 4-7 4-5 0-9-4-9-9 0-1 1-2 1-3l1-2 1-1c0-1 1-1 1-2h1l2-3h1l3-2 2-2 407-368 408-369 26-23 2-1 1-1c1-1 3-2 5-2z" /><path stroke-width="0" fill="#000000" d="M5589 1414c5 0 9 4 9 9 0 2 0 4-1 5l-1 1-1 1-459 554-458 554h-1c-1 2-4 3-6 3-5 0-9-4-9-9 0-2 1-4 2-5v-1l459-553 458-554 2-2c2-2 4-3 6-3z" /></g></g></svg>