<?xml version="1.0" encoding="utf-8"?>
<!-- Created with Majerus.net InkPaint (http://www.majerus.net/InkPaint/) -->
<!DOCTYPE svg PUBLIC "-//W3C//DTD SVG 1.1//EN" "http://www.w3.org/Graphics/SVG/1.1/DTD/svg11.dtd">
<svg xmlns="http://www.w3.org/2000/svg" version="1.1" width="391.8mm" height="172.4mm" viewBox="0 0 7836 3448" preserveAspectRatio="xMidYMid meet"><!-- Generator: Majerus.net InkPaint UWP 1.1.14.0 --><g fill="none" stroke-linecap="round" stroke-linejoin="round"><g stroke="#000000"><path stroke-width="0" fill="#000000" d="M398 270c17 0 30 14 30 30 0 14-9 25-21 29h-3l-29 7h-1l-30 4h-1v1l-58 6-57 9-26 7-25 8-9 5-8 6-5 6-5 6-8 19-4 24-2 53 3 54 5 55 5 56 17 158 20 158 21 158 20 159 9 89v1l7 89 15 179 10 123 7 124v1l4 124v1 124 1l-4 102v1l-8 102v1l-11 102v1l-13 101v1l-11 74-11 74-6 55-1 27 1 27 3 27 5 26 8 24 9 23 13 19 15 16 20 13 23 12 25 10 27 9 27 9h1-1 1l26 9 2 1 60 24h1v1l59 26 37 18h1c10 5 16 15 16 27 0 16-13 29-30 29-4 0-8 0-12-2h-1l-36-18-58-26-59-23-25-9-27-9h-1l-28-10h-2l-27-11-2-1-26-14h-1c-1 0-1-1-2-1v-1l-23-16h-1l-2-1-2-2-20-20c-1-1-2-3-4-4v-1l-16-24h1l-2-2c0-1-1-2-1-3l-11-26c0-1-1-2-1-3l-8-27-1-3-6-28v-1-2l-3-29v-2l-2-30v-1l1-30v-2l6-57 1-1 11-74 10-75 14-101 11-101 7-101 4-101v-123l-4-123-7-123-10-122-15-179-7-89-9-88-19-158-22-158v-1l-20-158v-1l-16-158-6-56-5-56v-1-1l-3-56v-1-2l3-55v-2-2l5-29v-1c0-1 1-2 1-3l1-2v-1l10-24v-1c1-2 2-3 3-5l7-11 2-2 2-2 9-10c1-1 2-1 3-2l1-1 11-8 1-1c1-1 2-1 3-2l14-7 2-1 2-1 28-9 1-1h1l29-7 1-1h2l58-9h1l59-7 28-4 28-6c2-1 4-1 6-1z" /><path stroke-width="0" fill="#000000" d="M769 491c16 0 30 13 30 30 0 4-1 8-3 12v1h-1v1 1l-25 75v1l-24 76v1l-26 76v2h-1l-14 37v1h-1l-16 37h-1v2l-20 36-1 1-6 10v1c-6 8-15 13-25 13-17 0-30-13-30-30 0-5 1-10 4-14v-1l6-9 18-35 16-35 15-36 25-75 24-76v-1l25-75v-1l1-3 1-2 1-2 1-2v-1c6-10 15-16 27-16z" /><path stroke-width="0" fill="#000000" d="M591 501c8 0 16 3 21 9l1 1 1 1 1 1c1 1 2 3 3 5l1 2v1h1l1 3 53 83 1 1 25 43 1 1 24 44v1l44 86 23 40 26 37 8 12 1 1c4 5 5 11 5 17 0 17-13 30-30 30-9 0-17-4-23-11v-1l-10-12-1-1-26-40-1-2-24-41-1-1-44-86-23-44-26-42-53-84-1-2v-1l-2-4h-1c-3-5-5-11-5-17 0-17 13-30 30-30z" /><path stroke-width="0" fill="#000000" d="M993 744c17 0 30 13 30 30v2 1 1l1 37 3 37 6 74 2 24 1 2c0 17-14 30-30 30-16 0-29-12-30-27l-2-23-7-75v-1l-3-38v-1l-1-37v-3-1-2-2-1c2-15 15-27 30-27z" /><path stroke-width="0" fill="#000000" d="M783 1210c17 0 30 14 30 30 0 7-2 14-6 19l-2 1-1 2-36 56-29 61-25 65-20 65-7 29-7 28-2 9c-3 14-15 24-29 24-17 0-30-13-30-30 0-2 0-4 0-6l2-9v-1l7-30v1l1-1 8-30v-2l20-66 1-2 25-66 1-1v-1l31-64 1-1 1-2 37-59 1-1 1-2 2-3h1l1-1 1-2 1-1c6-5 13-9 21-9z" /><path stroke-width="0" fill="#000000" d="M586 1242c10 0 19 5 25 13v1l2 3 1 1 33 59h1v2l30 60v2l27 62v1l25 63 18 45 20 43 8 17 1 1c2 4 3 8 3 12 0 17-14 30-30 30-12 0-21-6-27-16l-9-18v-1l-20-44-1-1-18-46h-1l-25-63-26-61-28-59-33-58-1-2-1-2c-3-4-4-9-4-14 0-17 13-30 30-30z" /><path stroke-width="0" fill="#000000" d="M953 1369h2 7v1h1c3 0 6 1 9 2h1l6 3 1 1c3 1 5 3 7 5l1 1 6 6v1c2 2 4 5 5 7v1l4 8v1l1 2c0 1 0 2 0 3l1 1 2 15 1 2v2l1 15v2l-1 2v1l-3 32c0 1 0 2 0 3l-7 32v1 1l-8 30-1 1v1l-7 22v1l-8 23-6 21-1 4 7-2 8-3 7-3 22-9 20-8c4-2 8-3 12-3 16 0 30 14 30 30 0 11-6 21-16 26l-2 2-20 8v1h-1l-23 9h-1l-7 3h-1l-9 4h-1l-2 1-22 5h-1c-1 0-2 1-3 1h-2-10-1c-2 0-4 0-6-1h-3l-8-3c-5-1-9-4-13-7l-1-1-5-6-1-2c-3-3-5-8-6-13l-1-1-1-10-1-2c0-1 0-2 0-3 0-1 0-2 0-3l1-1 3-23v-2l1-2v-1l7-23v-1-1l8-23 7-22 8-29 6-29 3-29-1-11-1-4-7 4-1 1-1 2c-5 6-14 11-23 11-16 0-30-14-30-30 0-4 1-8 3-12v-2l2-2v-1c1-2 3-5 5-7h1l3-3 1-1 1-1 5-4h1l1-1 14-9v1l2-1c1-1 3-2 5-2l1-1 15-4 2-1c2 0 4 0 6 0z" /><path stroke-width="0" fill="#000000" d="M859 1820c9 0 18 4 23 11l1 1 1 2 2 1v1l1 2 1 1c3 5 5 11 5 17 0 16-13 30-30 30-9 0-17-5-23-11l-1-1-1-2-1-2-1-1-1-2h-1c-3-5-5-11-5-17 0-17 13-30 30-30z" /><path stroke-width="0" fill="#000000" d="M890 2088c1 0 2 0 3 0h2l2 1h1c5 1 9 3 13 6v1l2 1 1 1c6 5 9 13 9 21 0 17-13 30-30 30-3 0-6 0-9-1h-1c-13-3-24-15-24-30 0-10 6-19 13-25l2-1h1 1c4-3 9-4 14-4z" /><path stroke-width="0" fill="#000000" d="M888 2327h2 1c17 0 30 14 30 30 0 17-13 30-30 30h-1-2-3c-15-2-27-14-27-30 0-16 14-30 30-30z" /><path stroke-width="0" fill="#000000" d="M786 2592c16 0 30 14 30 30 0 6-2 12-5 17h-1l-8 12-1 2-8 10-14 25-13 27-23 60-17 62-14 63-1 8v1c-3 13-15 24-30 24-16 0-30-14-30-30 0-1 0-2 0-3l1-3 1-9h1v-1l13-63 1-2 18-64v-1l1-2 23-62v-1l1-1 14-30 1-1v-1l16-27 1-2 1-2 9-11 8-12 2-2c5-7 14-11 23-11z" /><path stroke-width="0" fill="#000000" d="M557 2599c3 0 6 1 9 2l4 1 3 1c0 0 1 1 2 1l2 2h1l4 3h1l1 1 5 4 3 2 27 19 2 1 27 21 1 1 52 46 1 1 49 48 1 1 46 48 21 22 1 1c5 6 7 12 7 19 0 17-13 30-30 30-8 0-16-3-21-8l-1-1-20-21-46-48-48-48-51-44-25-20-27-19h-1l-4-3v-1h-1l-4-3h-1l-2-1c-11-5-18-15-18-28 0-16 13-30 30-30z" /><path stroke-width="0" fill="#000000" d="M998 2762c16 0 30 13 30 30 0 3-1 6-2 9v1 2l-1 2 8-4h1l2-1c1 0 2 0 3 0h1l11-3h2c1 0 2 0 3 0h2l12 1h1c2 0 4 0 6 1h1l12 5h1c2 1 4 2 5 3h1l11 8 2 2c1 0 1 1 2 1l1 2h1l14 17 1 1c1 1 1 1 2 2l1 2v1l11 19 1 1c0 1 0 2 1 2v1l9 21v2l8 21v1l6 18c1 3 1 6 1 9 0 16-13 30-30 30-12 0-23-8-27-18l-1-3-6-17-7-21-8-19-9-16-10-12-5-3-4-2h-4l-5 1-5 2-6 4-14 13-3 4-6 8-1 1c0 0-1 1-2 2l-1 1-5 5h-1c-5 5-12 7-19 7-2 0-4 0-6 0l-1-1h-1-2c-11-4-19-12-21-23v-1l-1-3h1l-1-2c0-1 0-2 0-3v-2l2-34v-1-2l5-34 1-1v-2-1l1-4 1-4v-1l1-2v-2c4-12 15-21 29-21z" /><path stroke-width="0" fill="#000000" d="M1320 267h1l21 1h2c1 0 2 0 3 1h1l20 4 2 1c1 0 2 0 3 1h2l18 9 1 1c2 1 3 2 5 3l1 1 16 14 1 1c0 1 1 2 2 3l1 2 11 16h1c0 1 1 2 1 3l1 1 9 18v2c1 0 1 1 1 2l13 40c0 1 0 2 0 3v1h1l7 42v1l6 40 43 324 42 326 19 161v1l16 162v1l11 162v1l5 163v1l1 201 3 200 8 200 5 99 8 100 9 114 6 57 7 56 6 46v1l2 24v2 23 3 1l-2 22c0 1 0 2-1 3v1l-5 22-1 2c0 1 0 2-1 3l-8 21c-1 2-2 3-3 5l-14 19v1l-1 2-2 1-25 27-1 1-1 1-29 25v1h-1l-29 23-29 23-11 10c-5 4-12 7-19 7-17 0-30-14-30-30 0-8 3-16 9-21l2-2 12-10 28-23 29-23 27-24 23-24 11-15 6-16 5-18 1-19v-20l-2-22-6-45-7-57v-1l-5-57v-1l-9-114-8-100v-1l-6-100v-1l-7-200v-1l-4-201-1-201-5-161-10-162-16-161-20-161-41-325-44-324-5-39-7-40-11-36-7-14-8-12-10-9-11-5-15-3-16-1-19 2-20 3-19 5-18 5h-1-2l-2 1h-2c-2 1-5 2-9 2-16 0-29-14-29-30 0-12 6-21 15-26l3-2h1c1-1 2-1 3-1h1v-1h2 1l2-1h1l19-5h1l20-5h1l1-1 22-3 2-1 22-2h3z" /><path stroke-width="0" fill="#000000" d="M2853 229c17 0 30 13 30 30 0 14-10 26-24 29l-15 3-14 5-30 11-13 8-7 7-5 9-3 15-4 46v47l3 49 3 49 6 51 7 51 20 103h1l21 103v1l10 51v1 1l8 52v1l9 78h1l7 78v1 1l9 157v1l3 158v1l-3 157v1l-7 129v2l-12 128v1l-15 128-16 127-9 85-7 84-6 86-6 84-3 44-1 43 2 86 5 87 7 87v2l2 48v1 1l-2 49v1l-3 49v1l-5 48v2l-5 28v1 1l-5 27-3 26v22l3 7 4 6 7 5 11 5 29 9 15 2 13 2 38 2 37 1h17 3c15 1 27 14 27 30 0 16-14 30-30 30h-17v-1 1l-39-1h-1l-39-2h-2v-1l-15-1-2-1-16-2-1-1h-3l-34-10c-1 0-2-1-3-1l-2-1-15-8h-1c-1 0-2-1-2-2l-2-1-13-10h-1c-1-1-2-3-4-4v-1l-10-13-1-1c-1-2-2-3-3-5v-3h-1l-5-15v-1c0-2-1-3-1-5v-2l-1-29v-1c0-1 0-2 0-3v-1l3-29 1-2 5-29 4-27 5-47 4-47 1-48-2-47-7-87h1-1l-5-88v-1l-2-88v-1l1-44v-1l3-45 7-85 5-85h1-1l7-85v-1l9-85v-1l16-128 16-127 11-127 7-128 3-156-3-157-9-156-7-78-9-77-8-51-9-51h-1l-21-103-20-104-1-1-8-52h1l-1-2-5-52v-1l-4-49v-1l-3-50v-2-50-2l4-49v-1c0-1 0-2 1-3l5-21v-2c1-1 1-2 1-3l2-2h-1l1-1 8-16c2-3 4-5 6-7v-1l13-13 2-1c1-1 1-2 2-2l2-1 1-1 18-10c1 0 2-1 3-1l32-13 3-1 16-5h1c1-1 1-1 2-1h1l16-3 3-1c1 0 2 0 3 0z" /><path stroke-width="0" fill="#000000" d="M3503 320c16 0 30 14 30 30l-1 14v38 1l-2 39-3 50-1 1-5 52-1 2v1l-4 25h-1v2l-7 25v1 1l-9 24-1 1-1 2-11 22v1c-1 1-1 2-2 2v1l-7 9-1 2c-1 1-1 1-2 2l-8 8-2 2c-1 0-1 1-2 1l-1 1-8 5-2 1c-1 1-2 1-2 1l-2 1-9 3h-1c-2 1-4 1-6 2h-1-9-2c-2 0-4 0-6 0h-1l-8-2h-1l-2-1c-2-1-4-1-6-2l-9-5c-1-1-3-2-5-3v-1l-9-8-2-1c0-1-1-2-1-2l-1-1-16-20-1-2-1-1-13-23-1-1-21-39-13 35v1 1l-8 18h-1l-1 2v1l-9 17-2 2-1 1-12 16v1c-1 1-2 2-2 2l-1 1-15 14-1 1c-1 0-2 1-2 2l-2 1h-1l-6 4h-1c-2 1-5 2-8 3h-2l-6 1h-1c-1 0-2 0-3 0-3 0-6 0-9-1l-5-2c-3-1-5-2-8-3l-1-2-5-3v-1c-3-1-4-4-6-6l-7-11-2-2c0-1 0-2-1-3v-1l-5-12-1-2v-1l-11-42v-2l-1-1-6-44v-1-1l-3-43v-2l-1-43v-1-3-4-2c0-1 0-2 0-3 0-17 13-30 30-30 14 0 27 10 29 24l1 3v1 1c0 1 0 2 0 3v4 5 2l1 41 2 42 6 40 10 36 7-10 8-14 8-17 14-37v-1l16-36 1-1 1-2c0-2 2-3 3-5l1-1 4-5v1l1-1c5-5 11-8 18-9h2 5 1c5 0 10 1 14 4l2 1 5 3c2 1 3 3 5 4l1 1 5 6 1 1c0 0 1 1 1 2l1 1 9 14 1 1 3 7 2 4h1l24 45 12 20 13 17 4 4 2 1h1 1 2l2-2 4-4 4-5 9-19 8-20 6-23 4-23 6-50 3-48 2-38 1-38v-13-3c1-15 14-27 30-27z" /><path stroke-width="0" fill="#000000" d="M3723 690c11 0 20 6 25 14h1l7 12 1 1 1 3 5 12 8 15 8 16 7 14 1 2c1 4 2 7 2 12 0 16-13 30-30 30-11 0-21-7-26-16l-1-1-7-14-8-16-8-16h1l-1-2-5-10-6-10-1-1c-2-5-4-10-4-15 0-16 14-30 30-30z" /><path stroke-width="0" fill="#000000" d="M3516 988c16 0 29 12 30 27v1l1 5v1 11l1 13 3 51v1l2 53v1 1l-2 53v2l-4 26v2l-5 25-1 2v1l-2 6c0 1 0 2-1 3v1l-3 6-1 1c-2 5-7 9-12 12l-3 2c-4 2-9 4-14 4-6 0-10-2-15-4l-2-1-2-2c-3-2-6-5-8-8l-2-3h-1l-1-3-1-2-15-35-1-1-13-35-16-32-1-1-11 35-14 54-1 1v1l-15 54h-1v1l-10 27v1l-1 1-11 25-1 2-2 4v1l-1 1-3 5-1 1c-1 2-2 3-4 5l-2 1-3 3c-5 5-12 7-19 7-6 0-12-2-17-5v-1l-3-2-2-1c-4-3-7-7-9-11v-2l-1-1-5-17c-1-1-1-2-1-3v-1l-4-18v-2l-5-37-19-100-22-101v-2-3l-1-3v-2c0-1 0-2 0-3 0-16 13-30 30-30 14 0 26 11 29 24v1l1 3v1 3l22 99v1l16 84 8-27 14-55 1-1 17-54v-3l5-10v-1c0-1 1-1 1-2l1-2 5-8 1-1c2-3 5-6 8-8l3-2c3-2 7-4 11-5h2 4l1-1c1 0 2 0 3 0 3 0 6 1 9 2l4 1h1l2 1c2 1 3 2 5 3l1 1 5 4 2 1c0 0 1 1 2 2h1l12 14 2 1 1 3 11 15c0 1 1 2 1 3l1 1 11 23 1-16-2-52-3-51v-12l-1-12v-5-2c0-17 13-30 29-30z" /><path stroke-width="0" fill="#000000" d="M3807 1182l1 1v-1l11 1h2c4 0 8 2 11 4h2l7 5h1c4 3 7 7 9 11l1 1 4 7v2c1 3 2 5 2 8v1h1v9 3c0 1 0 2 0 3l-1 10v1 2 1l-3 11v2h-1l-2 9v1h-1l-2 8v1l-1 1v1l-12 29v1 1l-14 29-13 29-10 27v1h2l8 3h1c12 4 21 15 21 28 0 17-13 30-30 30-2 0-4 0-6 0l-2-1-10-3h-1c-1 0-2-1-3-1h-1l-12-6-1-1c-3-1-5-3-7-5h-1l-7-8-2-2c-2-3-4-6-5-10h-1l-2-10-1-1h1l-1-2c0-2-1-4-1-6 0-1 0-2 0-3l1-1 2-14v-2c0-1 0-2 1-3v-1l11-30 1-2 13-30v-1l14-29 11-28 2-7 3-9v-1h-1l-16 8-16 10-16 13-1 1c-5 4-11 6-19 6-16 0-30-13-30-29 0-9 4-16 9-22l2-1 17-15h1c0-1 1-1 2-2l19-12 1-1 2-1 1-1 21-9 1-1c1 0 2-1 3-1h1l22-6h1c2 0 4-1 6-1z" /><path stroke-width="0" fill="#000000" d="M3446 1871c8 0 15 3 21 9l2 2 2 3c1 1 3 3 3 5h1l1 3 1 2h1c2 5 3 9 3 15 0 16-13 30-30 30-10 0-19-6-25-14l-1-2-1-2-1-1v-1c-5-5-7-12-7-19 0-17 13-30 30-30z" /><path stroke-width="0" fill="#000000" d="M3499 2136c7 0 12 1 17 5 8 5 13 14 13 24 0 12-6 22-15 27h-1l-2 1c-4 2-8 2-12 2-8 0-15-3-21-8-5-6-9-13-9-22 0-11 7-21 16-26h1l2-1c3-2 7-2 11-2z" /><path stroke-width="0" fill="#000000" d="M3497 2327h2 1c15 2 27 15 27 30 0 17-14 30-30 30h-2-1c-15-2-27-14-27-30 0-16 13-30 30-30z" /><path stroke-width="0" fill="#000000" d="M3530 2537c17 0 30 13 30 30v1 12l-1 14v17l-1 18v1l-3 55v1 1l-5 56v3l-10 56v1l-1 2-8 27v1 1l-10 27-1 1-5 12-1 2-1 2-8 12v1c-1 2-3 3-4 5l-5 4-2 2c-1 1-3 2-4 3l-3 1-5 2v1c-4 1-8 2-12 2-1 0-2 0-3 0h-1l-5-1h-2c-4-1-8-3-11-5l-1-1-6-4-1-1c-1-1-3-3-4-4l-17-21-2-2v-1l-15-22h-1l-9 34v1l-1 1-11 33-1 1v1l-9 23v1l-1 1-12 25-1 1c0 1-1 2-1 3l-1 1-15 22-2 2c0 0-1 1-2 2l-10 9-1 2c-1 0-2 1-3 1v1l-11 7-2 1c-2 1-3 2-5 2l-15 5c-2 0-5 1-9 1-1 0-2 0-3 0h-1l-12-2h-2c-3-1-6-2-8-3l-2-1-10-7h-1c-1-1-3-3-4-4l-2-2-9-10c-1-1-1-2-2-3l-1-1-7-13-1-2-6-14h-1v-1l-5-13v-1l-4-11-1-1v-2l-1-3-1-1c-2-4-4-9-4-14 0-17 14-30 30-30 9 0 18 4 23 11l2 1 1 2v1c1 1 2 3 3 5l1 3 1 2 1 3 1 2 4 11 5 12 5 12 5 8 4 5 4-1 5-3 5-5 13-18 11-22 9-22 10-32 10-32 7-33 5-34v-1c3-13 13-23 26-24h2 3c9 0 16 3 21 8l1 1 4 4 1 2 1 1 4 6 1 1 3 4v1h1l28 46 14 21 8-22 7-25 10-54 4-54 3-55 1-19 1-15v-14-13-2c2-15 15-27 30-27z" /><path stroke-width="0" fill="#000000" d="M3762 2860c2 0 4 0 6 0l2 1 11 3h1c3 1 5 2 8 4l9 6 1 1 2 1c0 1 1 1 2 2l1 1 8 9 1 1c1 1 1 2 2 3l1 1 13 23 1 1 1 2v1l5 11 1 1 3 10 1 1v2l8 32 1 1 6 31v1 3c0 1 1 2 1 3 0 16-14 30-30 30-15 0-27-11-30-24v-1l-6-30-8-30-2-8-4-8-11-19-4-4-3-2h-1l-3 1-4 4-13 13-13 18-13 16-1 1-4 6-2 1-6 7h-1c0 1-1 2-2 2l-1 2-3 2h-1c-3 2-5 3-8 4h-1l-2 1-3 1c-2 0-4 0-6 0-5 0-10-1-14-3l-2-2-3-1c-4-3-8-8-10-13l-1-2-1-4-1-1c0-2-1-4-1-6l-3-29v-1-2-1-29-2-2-1l1-3v-1-1-3l1-3c0-2 1-3 1-5l1-2 1-2c5-10 15-16 27-16 16 0 29 13 29 30v1l14-14c1-1 1-1 2-2l2-1 8-7h1c1-1 2-1 3-2h1l9-5h2c1-1 3-2 5-2l2-1 12-1h1c1 0 2 0 3 0z" /><path stroke-width="0" fill="#000000" d="M3996 161c3 0 5 0 6 1h2l12 3h1c2 1 4 2 6 3h1l11 7 2 1c1 1 3 2 4 4l1 1 10 11 1 1c1 2 3 3 3 5h1l14 27 1 3c1 1 1 2 1 3l10 30c0 1 1 2 1 3v1l6 31v1 1l5 32v1l8 89v1l5 90 5 89 8 89 22 170v1l9 85v1l7 87v1l3 111v1 111 1l-2 112-3 111-3 112-2 111 2 110 4 111 12 155 14 154v1l14 155h-1l1 1 9 156 5 89 8 88 12 87 9 43 10 44 12 49 1 1 10 50v1l17 99 1 2 2 18v3 18c0 1 0 2 0 3v1l-5 36v2l-1 1-9 35v1l-1 1-12 33v1 1l-5 11v1c-4 11-15 18-27 18-17 0-30-13-30-30 0-3 0-6 1-9l1-2v-1l4-10 12-32 8-31 4-32v-14l-2-15-17-99-10-48-12-49-10-44-1-1-8-44h-1v-1-1l-13-89v-1l-8-89v-1-1l-5-90-9-155-13-155-14-155v-1l-12-155v-1l-5-111v-2l-1-111v-1l1-111v-1l3-111 3-112 2-111v-111l-3-110-6-85-10-84-21-171-1-1-8-90v-1l-4-90-5-89-9-87-4-31-6-29-8-27-11-21-5-6-4-2-4-1h-6l-8 1-9 4-22 11-44 26-21 13-16 13-1 1-1 1-2 2-1 2c-6 5-13 8-22 8-16 0-29-13-29-29 0-8 2-14 6-19l1-1 2-3 2-2 1-1c1-1 2-2 4-4l20-16 2-1 1-1 22-14 1-1 46-26v-1h1l25-13 2-1h1l13-5h1c1 0 2-1 3-1l13-2c1-1 2-1 3-1h3 12z" /><path stroke-width="0" fill="#000000" d="M4916 1652c16 0 30 13 30 30 0 15-12 28-27 30h-2-3l-21 4-23 5v1l-96 23-48 11h-1v1l-48 10h-1l-50 9h-1l-52 8h-1-1l-51 4h-3l-51-1h-2c-1-1-2-1-3-1h-1l-9-2-9-2c-14-3-24-15-24-29 0-17 13-30 30-30 2 0 4 0 6 0l9 2h1l7 2 46 1 49-4 50-7 48-9 48-10 48-11 96-24 24-6h1 1l24-4 2-1h1 5 2z" /><path stroke-width="0" fill="#000000" d="M4899 1548c12 0 23 7 27 18l2 2 5 2 19 7 21 7h1c0 0 1 0 2 1h1l11 5 1 1c1 0 2 1 3 1v1l10 7 1 1c2 1 3 2 4 4l1 1 8 10v1c2 3 3 5 4 8l1 2 2 12 1 1c0 2 0 4 0 6v2 13h-1v1c0 1 0 2 0 3v2l-4 13v2c-1 1-1 1-1 2l-1 1-11 26-1 2-1 1-6 11-6 10-13 23h-1l-11 18v1c-6 8-15 13-25 13-17 0-30-13-30-30 0-5 1-10 3-14l1-2 12-17 13-22 5-9 6-10 10-23 2-9v-5-2l-1-2-3-2-6-3-20-6h-1l-22-8-2-1c-1 0-2 0-3-1l-9-5h-1v-1l-2-1c-1 0-2-1-2-2h-1l-8-8-2-1c-1-1-3-3-4-4v-1-1h-1l-1-2-1-2v-1l-1-1-1-2-1-2c-1-1-1-3-2-5v-3-1c0-1 0-2 0-3 0-17 13-30 30-30z" /><path stroke-width="0" fill="#000000" d="M5313 127c17 0 30 13 30 30 0 15-12 28-27 30h-1l-20 1-13 4-3 2-2 3-2 5-2 6-1 29 2 31 5 33 5 32 18 120 24 118 12 57v1l10 58v1l16 115v1l10 116v1l8 116v1l7 168 4 168-1 168-1 1h1l-8 167v1l-7 118-5 118-7 118v1l-10 117v1l-10 102-9 101-7 101-2 102-1 100v1l-3 100-9 200-2 49v1l-2 49-1 48 3 47 3 22 3 24c0 1 0 2 0 3v1 23 2l-1 3-2 11v1c0 1 0 1-1 2v2l-2 5h21l44-1h14 1c16 0 30 13 30 30 0 15-12 28-27 29l-2 1h-14l-45 1h-1-1-23l-2-1h-1l-22-3h-3c-1 0-2 0-2-1h-1l-5-2h-1c-2 0-5-2-7-3l-1-1-4-3-2-1c-4-3-7-8-9-14l-2-7c-1-3-2-6-2-9 0-2 0-4 1-6v-2l3-9v-1c0-1 1-2 1-3v-1l4-8 3-8 1-7v-18l-2-21-4-23v-1-2l-3-49v-1-1l1-50v-1l2-49 3-49 8-200 3-100 1-100 2-103v-1l7-102v-1l9-102h1-1 1l10-102 9-117 7-118 6-117v-1l6-118 8-166 1-167-4-166-7-167-7-116-11-115-15-114-10-56-12-57-24-119v-1l-19-121-5-33-4-34-1-1v-1l-2-34v-2-2l1-33h1v-1c0-1 0-2 0-3v-1l3-13 1-2c0-1 0-2 1-2l1-2 5-11v-1c1-1 2-3 4-4v-1l7-8 2-2c0-1 1-1 2-2l1-1 9-6 1-1c1-1 3-2 5-3h1l22-8h1c2-1 4-1 6-2h1l25-1h1z" /><path stroke-width="0" fill="#000000" d="M5641 246c15 0 28 12 29 27l1 2v7 1 2l-3 50v1l-1 3-9 49v1l-1 2-7 25v1h-1l-9 27v-1 2l-1 2-12 24v1c-1 1-1 2-2 3l-1 2-16 20c-2 2-3 3-5 5l-2 1-9 7c-3 2-7 3-11 4h-1l-9 2h-1c-1 0-2 0-3 0-4 0-7 0-9-1h-1l-7-3h-1l-2-1c-2 0-3-1-5-2l-2-2-7-6c-2-1-3-2-4-4h-1l-6-8-1-2-1-1-2-3-4 4-2 1c-3 3-7 5-10 6l-3 1h-2c-2 1-4 1-7 1-8 0-15-4-21-9l-1-2-2-2c-3-3-4-6-6-10v-2-1l-3-13v-1c-1-1-1-2-1-3l-1-15v-2-29-1l2-46 2-47v-1c1-15 14-27 30-27 16 0 29 13 29 30v1l-2 46-1 25h3c1-1 2-1 3-1 15 0 27 11 29 24v1l1 3 2 4 3 7 3 7 8 15 1 3 7-8 9-20 9-23 6-23 9-47 3-46v-6-1c0-17 13-30 30-30z" /><path stroke-width="0" fill="#000000" d="M5806 392c16 0 30 13 30 30v1 3l1 66 4 66 1 7c0 1 0 2 0 3 0 16-14 30-30 30-15 0-27-10-29-24l-1-3-1-8v-1l-4-67v-1l-1-67v-1-3-1c0-17 13-30 30-30z" /><path stroke-width="0" fill="#000000" d="M6125 251c17 0 30 13 30 30 0 1 0 2 0 3v1l-1 1v2l-1 3v1 3l-1 1v2l-1 2v1l-8 22v2l-1 1-9 21-1 2-23 41-1 1-25 40-23 39-1 3v1c-5 10-15 18-28 18-16 0-30-14-30-30 0-3 1-6 2-9v-2l1-1v-1l1-1 2-5 1-1v-1l24-41v-1l25-39 22-39 8-19 7-19v-1l1-3v-2l1-2c2-14 15-24 29-24z" /><path stroke-width="0" fill="#000000" d="M5979 256c7 0 13 2 19 6v1l2 1 1 2c1 0 2 1 2 2l2 2 2 3 1 1 2 3 1 2 24 36v1l25 37 24 37 26 34 5 6h1c4 5 7 12 7 19 0 17-14 30-30 30-9 0-16-3-22-9l-1-2-6-6-1-1-27-36-1-1-25-37v-1l-25-37-24-37-1-1-1-2-2-3-1-2c-5-5-7-11-7-19 0-16 13-29 30-29z" /><path stroke-width="0" fill="#000000" d="M6305 387c16 0 29 12 30 27v2 1 1 2 3 25 25 12c0 16-13 30-30 30-16 0-30-14-30-30v-12-25-25l1-3v-2h-1 1l-1-1c0-17 14-30 30-30z" /><path stroke-width="0" fill="#000000" d="M5793 929c10 0 19 6 25 14l2 3 1 1c0 1 1 2 1 3l1 2v1l3 10c1 2 1 4 2 6v1l1 11v2 3l-2 23-1 2-8 46v1 2 1l-14 44v1c0 1 0 2-1 3l-18 43c-1 1-1 2-2 2v2l-24 39-1 1v1l-6 7-1 2-2 2-6 6c-2 2-3 3-5 4l-2 1v1l-3 1-1 1c-2 1-5 2-8 3h-3-3c-1 0-2 1-3 1-4 0-8-1-12-3l-2-1h-1l-3-2c-4-2-8-5-10-9l-1-1-2-4-2-2c0-1 0-2-1-3v-1l-6-15-7 20v1 1l-2 3v1l-2 5-1 1v1l-6 12v1c-1 1-1 2-2 2l-3 5-2 2c0 1-1 2-2 3l-1 1-4 3c-5 5-12 7-19 7h-1-3-2c-9-1-17-6-22-13l-3-4-1-3c-1 0-1-1-1-2l-1-2v-1h-1l-13-39v-1-1l-12-40-12-43v-1l-12-45v-1-1l-9-44v-1-2l-1-1-3-46v-2c0-17 13-30 30-30 15 0 28 12 30 27v1l3 44 8 42 11 43 13 43 3 12 3-10 12-55 1-3c3-12 15-21 28-21 1 0 2 0 3 1h1 2 2c7 2 13 5 17 11l1 1 3 4 1 1 1 1 3 5h-1l1 1v1l2 3 1 2 1 2 8 22 1 2v1l7 23v3l7-11 17-40 13-42 7-43 2-19-1-5-1-4c-3-5-4-9-4-15 0-16 14-30 30-30z" /><path stroke-width="0" fill="#000000" d="M5964 1080h1 12 1c1 0 2 1 3 1h1l11 2c4 1 7 2 11 5l9 6 1 1c4 3 7 7 9 12l2 5c1 3 2 6 2 9v1l1 7v1c0 1 0 2-1 3v2l-3 18v1 1l-5 18v1l-1 2-12 34-1 1v1l-15 33-6 12 10-1 14-4h1c2 0 4-1 6-1 17 0 30 14 30 30 0 14-9 25-21 29h-2l-15 4h-1-1l-17 3-3 1-17 1-3 1c-1 0-2-1-3-1h-1l-11-1-2-1c-3 0-6-1-8-3l-2-1h-1l-7-5c-5-4-10-9-12-16l-2-7v-1c-1-2-1-5-1-8 0-3 0-5 0-6l1-2 2-11 1-1c0-1 0-2 1-3v-1l15-32 15-32 12-32 4-14v-2l-1-1-7 1h-1l-1 1h-10-1c-17 0-30-13-30-30 0-15 11-28 27-30h1 8l9-1h1c1 0 2 0 3 0z" /><path stroke-width="0" fill="#000000" d="M6334 919c17 0 30 13 30 30 0 1 0 2 0 3v2 1 1h-1v2 1l-1 2-15 52v1 1l-20 52v1l-22 50v1l-1 1-23 49-11 23-1 1v1l-12 23v1l-1 1-14 23-1 1-1 2-16 20-1 1c0 1-1 1-2 2l-1 1-2 2c-5 4-12 7-19 7-17 0-30-14-30-30 0-7 3-14 7-19l2-2 14-18 12-21 12-22 11-23 23-48 21-50 19-50 15-49v-1-1-1c3-14 15-24 29-24z" /><path stroke-width="0" fill="#000000" d="M6201 972c11 0 21 7 26 16l1 2v1l1 1v1l1 2 13 37v1l12 36 13 36 16 33 3 5 1 1c2 4 3 9 3 14 0 17-13 30-29 30-11 0-20-5-25-13l-1-2-4-6v-1l-1-1-17-36-1-1v-1l-14-37v-1l-1-1-12-36-13-37v-1c-2-4-2-8-2-12 0-16 13-30 30-30z" /><path stroke-width="0" fill="#000000" d="M6418 1113h3l11 1h1c4 1 8 2 11 4l3 1 7 5c4 3 8 7 10 11v1l4 8 1 1c1 2 2 4 2 6v3l2 10c0 1 0 2 0 3v3l-1 11v1l-1 2v1l-2 11v2l-3 11h-1v1 2l18-2 26-5 2-1c1 0 2 0 3 0 17 0 30 14 30 30 0 15-10 27-24 30h-1l-26 5v-1l-1 1-23 3h-1-3l-22 1h-1c-2 0-4-1-6-1h-1l-6-2h-2c-3-1-6-2-8-4l-4-3c-5-3-9-8-11-13l-1-2-3-8v-1c-1-3-1-6-1-9 0-1 0-2 0-3v-2-1l2-10c0-1 1-2 1-3v-1l4-10 2-8 3-9 1-5c-1 0-2 0-3 0l-5 1c-2 1-4 1-6 1-16 0-30-13-30-30 0-14 10-26 24-29l2-1 2-1 5-2h1c1 0 1-1 2-1h1l5-2h1 1c2-1 4-1 6-1z" /><path stroke-width="0" fill="#000000" d="M6096 1761c15 0 28 12 29 27 1 1 1 2 1 3v2 2 2l-1 3c-1 15-14 27-29 27-17 0-30-13-30-30v-2-2-2c0-16 13-30 30-30z" /><path stroke-width="0" fill="#000000" d="M6076 2068c17 0 30 13 30 30 0 16-13 29-30 29-16 0-30-13-30-29 0-17 14-30 30-30z" /><path stroke-width="0" fill="#000000" d="M6088 2310c3 0 5 1 6 1h2l1 1c12 3 20 13 21 25 0 1 0 2 0 3 0 12-6 22-15 27-2 1-4 1-6 2-1 0-2 0-3 1 0 0-1 0-2 0-1 0-2 0-4 0-2 0-4 0-6 0l-1-1h-1c-1 0-2-1-3-1-11-5-18-15-18-28 0-16 13-30 29-30z" /><path stroke-width="0" fill="#000000" d="M5898 2839c6 0 12 2 17 5v1c4 2 7 6 10 10v1l1 2 1 2v1l2 4 1 2c0 0 0 1 0 2v1l4 17v3l2 18v1 2 1l-1 37v3l-4 37-1 2-6 36-7 40v1 1l-10 42-1 2-14 41v2c-1 1-1 1-2 2l-19 36c-1 2-2 4-3 5l-1 1-7 7-1 2c-2 2-6 5-9 6h-1l-6 3-2 1c-3 0-6 1-9 1-4 0-8-1-12-2v-1l-6-2-3-1c-3-2-6-5-9-8l-1-1-5-8-1-1c-1-1-1-2-2-2v-2l-15-31v-1l-1-1-11-29-4 8-1 2v1l-3 5-1 1-4 7-1 2-1 1-11 14v1c-1 1-2 2-2 2l-2 2-6 5c-3 2-5 4-8 5l-7 3v-1l-2 1c-3 1-6 2-9 2-1 0-2 0-3-1h-1l-7-1h-2c-3-1-7-2-10-4l-2-2h-1l-6-5c-2-2-4-4-6-7l-8-12-1-3-2-2-6-14c0-1-1-2-1-3v-2l-8-30v-1c0-1 0-2 0-3l-3-32v-2l-2-29-2-37-4-38-3-38v-2l-2-38v-1c0-16 14-30 30-30 16 0 29 12 30 27v2l2 37 3 38 4 37v1l2 38v1l1 29 3 29 6 25 2-5 9-20 8-21 5-22 1-22v-1c2-15 15-26 30-26 14 0 25 8 29 21v2l1 1 1 3 5 10 1 1v2l12 32 12 33 12 31v1l4-6 12-36 9-40 7-40 6-34 4-35 1-35-1-15-3-11-1-2c-2-4-3-9-3-14 0-2 0-4 0-6l1-1h-1 1v-3c4-12 15-21 29-21z" /><path stroke-width="0" fill="#000000" d="M6107 3081c4 0 8 1 12 2l1 1 4 1 1 1c3 2 6 4 9 7v1l3 4 2 1c1 2 2 4 2 5v1l5 10c0 1 1 2 1 3l3 11v1l17 58 17 59 2 8c1 3 2 6 2 9 0 17-14 30-30 30-13 0-23-8-28-18l-1-3-2-8-1-1-17-59v-1l-9-31-1 3-22 47-1 4-2 5v1l-5 10-1 3-1 1-2 4-1 1c-2 3-4 5-6 7h-1l-2 2-1 1c-5 3-11 5-17 5-6 0-12-2-17-5l-1-1-2-2h-1c-4-4-8-9-9-14l-1-2-1-5v-1l-1-1v-1l-9-57v-1l-3-29v-1-1l-2-29v-2c0-16 14-30 30-30 16 0 28 12 30 27v2l1 24 7-13 1-2 14-22 1-1c0-1 1-2 2-2l1-2 5-5c4-4 8-6 12-8h1l3-1h1l2-1c2 0 4 0 6 0z" /><path stroke-width="0" fill="#000000" d="M6432 2813c17 0 30 13 30 30 0 3 0 6-1 9l-1 2-1 2v1l-15 64v1l-17 62-1 1-19 61-1 2-23 61-1 1-20 49-19 48-1 2-1 3c-4 11-15 18-27 18-17 0-30-13-30-30 0-3 0-6 1-9l1-3v-1l1-1 19-49v-1l21-49 23-60 19-60 17-61 15-62 1-4v-2l1-2v-1c1-2 1-4 2-5l1-2 1-1v-1c6-8 15-13 25-13z" /><path stroke-width="0" fill="#000000" d="M6318 2835c15 0 28 12 29 27v1l1 16 3 14 10 31 14 31 15 31 29 55 31 53 5 7 1 2c2 4 3 9 3 14 0 17-13 30-29 30-11 0-20-5-25-13h-1l-4-8-1-1-32-54v-1-1l-30-55v-1l-16-31v-2h-1l-14-33-1-1-1-2-11-35c0-1 0-2 0-3h-1l-3-18v-2-1l-1-18v-2c0-17 13-30 30-30z" /><path stroke-width="0" fill="#000000" d="M6508 3102c8 0 15 3 21 9l1 1 2-1c1 0 2 0 4 0 3 0 6 1 8 2h1l7 2 2 1c2 1 4 2 5 3l2 1 6 5 1 1c1 0 2 1 2 1l2 2 6 7c1 1 1 2 2 3v1l10 16 1 1v1l4 7 3 6 9 17v1l7 14 1 2c1 3 2 7 2 11 0 17-13 30-30 30-11 0-21-6-26-16l-1-1-6-14-9-16v-1l-3-6-3-6-8-12-2 2c-2 1-4 1-6 2h-1l-7 2h-1c-2 1-4 1-6 1-5 0-10-1-14-4l-2-1-2-1h-1c-6-5-11-11-13-19v-1-3l-1-2c0-1 0-3 0-4v-1-3l1-1h-1l1-4v-1-2l1-5v-1c1-3 2-6 3-8l1-1 1-2 1-2c5-8 14-13 25-13z" /><path stroke-width="0" fill="#000000" d="M6479 81h3l22 2h1c1 0 2 1 3 1h1l22 5 2 1c0 0 1 0 2 1h1l19 9h1l2 1c1 0 2 1 3 1v1l18 13 2 1c1 0 1 1 2 2l1 1 15 17 1 1c0 1 1 1 1 2l1 2 11 18 1 3 9 19c0 1 1 2 1 3l12 40v1l1 2v1l8 42v1l6 42 14 108 15 108 17 93 18 94v1l16 94 1 1 6 47v1l5 48v1l11 158 10 158 11 157 14 158 5 64v1l3 65v1l3 130v130 129l3 68 5 68 8 67 11 68 16 93v1l12 94v1l11 95 8 95v1l3 78v77l3 76 4 36 6 37 12 57 11 59v2l7 58v1 2l1 29v1 1l-1 29v2 2l-5 26v1c0 2-1 4-2 6v1l-10 21-1 2c0 1-1 2-1 3l-1 1-15 19-1 1c0 1-1 1-2 2l-1 1-19 18-1 1h-1l-41 33-2 1-43 30-2 1-11 7h-1c-5 3-9 4-15 4-16 0-29-13-29-30 0-10 5-19 13-25l1-1 11-6 42-29 39-31 17-15 11-15 7-15 4-20v-26l-1-27-6-56-11-57-12-57v-2l-6-38v-2l-4-38-1-2-3-77v-1-77l-3-76-8-93-10-94-13-94-15-93-11-68v-1l-8-69v-1l-6-69v-1l-2-69v-1l-1-130v-130l-3-129-3-63-5-64-14-158-11-158h1-1l-10-158-11-157-4-47-7-47-16-93-18-93v-1l-17-94v-1l-15-109-14-108-6-40-8-41-11-37-7-16-8-13-10-13-13-9-15-6-17-4-19-2-18 1-19 3-18 5-1 1h-2v1c-5 2-10 3-15 3-16 0-30-13-30-30 0-9 5-17 11-23l2-1h1v-1h1c1-1 3-2 5-3l2-1h1l1-1 3-1h1 1l1-1 20-6h1 2l1-1 22-3 2-1h2l23-1h1z" /></g><g stroke="#ED331F"><path stroke-width="0" fill="#ED331F" d="M2135 502c13 0 23 7 28 18v1l1 3 1 1c1 3 1 6 1 9 0 15-10 27-24 30h-1l-4 3-5 6-29 42-26 46-22 49-18 50-1 3c-3 13-15 21-28 21-17 0-30-13-30-30 0-3 0-6 1-8v-1l1-3 1-1 18-52 1-2 23-51 1-3 27-48v-1l1-2 1-1 31-44 2-2v-1l7-7 1-1 9-10 2-2h1l4-3 2-2 2-1 4-2 1-1c3-2 7-3 11-3h2 2 1z" /><path stroke-width="0" fill="#ED331F" d="M1984 474c10 0 19 5 25 13v1l1 1 1 1c0 1 1 2 1 3l1 2v1l2 4 24 51 28 51 30 47 35 44 13 13 1 2c5 5 7 12 7 19 0 16-13 30-30 30-8 0-16-3-21-9l-14-15-2-2-37-45-1-2-1-1-31-50-2-2-27-52h-1v-1l-26-53v-2h-1l-1-5c-3-4-4-9-4-14 0-17 13-30 30-30z" /><path stroke-width="0" fill="#ED331F" d="M2153 1144c17 0 30 14 30 30 0 13-8 23-18 28h-1l-3 4-3 5-16 24-13 25-12 27-10 28-19 60-18 60-1 2-2 4v2c-5 11-15 18-28 18-16 0-30-13-30-29 0-4 1-7 2-9v-1l2-5 18-59v-1l19-60v-2l11-29 1-2 12-28v-1l1-2 15-27v-1l1-2 17-26 1-1 4-5 1-1 5-7c1-1 1-1 2-2v-1l6-5 2-1c2-2 4-4 7-5l5-2c4-2 8-3 12-3z" /><path stroke-width="0" fill="#ED331F" d="M2017 1172c8 0 16 4 21 9l1 1 2 2 1 1c1 1 2 3 3 5l2 2v1l26 51 27 50 24 39 25 38h1l10 16 10 14c3 5 5 11 5 17 0 16-13 30-30 30-9 0-18-4-23-11l-2-2-9-14v-1h-1l-10-15-26-39v-1h-1l-24-40-1-1v-1l-28-51-26-51-2-2c-3-5-5-11-5-17 0-16 14-30 30-30z" /><path stroke-width="0" fill="#ED331F" d="M2297 2544c17 0 30 13 30 30 0 9-4 17-11 23l-2 2-13 8-11 11-11 14-12 15-36 48-35 50-33 51-27 51-9 24-2 6-1 3c-5 10-15 18-28 18-16 0-30-14-30-30 0-3 1-6 2-9l2-7v-1l1-2 11-26 1-2v-1l28-53v-1l1-1 33-53 1-1 36-51 1-1 37-48 11-15 1-1 13-15v-1l2-2 13-14h1c0 0 1-1 2-2l2-1 15-11c5-3 11-5 17-5z" /><path stroke-width="0" fill="#ED331F" d="M2098 2671c3 0 6 0 9 1l5 2 3 1c2 1 3 2 5 3l6 4 2 2 6 5h1l4 4 33 25v1h1l32 27v1-1l32 28 31 28 20 17 2 2c6 5 9 13 9 21 0 17-13 30-30 30-7 0-14-3-19-7l-21-18h-1l-31-28-31-28-32-26-32-26-5-4h-1l-5-4-1-1-1-1-3-1c-11-4-18-15-18-27 0-17 13-30 30-30z" /><path stroke-width="0" fill="#ED331F" d="M1671 639c2 0 4 1 6 1h1l2 1c1 0 2 0 3 1l2 1 5 1 61 19 1 1 30 10 2 1 30 13h1l8 4 1 1c10 5 16 14 16 26 0 16-13 30-30 30-4 0-8-1-12-3h-1l-7-4-28-11-29-11-62-19h-2l-5-2-2-1-2-1h-1c-10-5-18-15-18-28 0-16 13-30 30-30z" /><path stroke-width="0" fill="#ED331F" d="M2333 592c5 0 10 2 14 4l1 1 3 1 5 3 14 8 14 5 15 3 16 2 35 2 37 1h1 12l2 1c15 1 27 14 27 29 0 17-13 30-30 30h-1-12l-37-1h-1l-37-2h-2-1l-18-3h-2-1l-18-5h-2-1l-18-7h-1l-2-1-17-9h-1l-1-1-5-3-3-2-2-1c-8-5-13-14-13-25 0-16 13-30 30-30z" /><path stroke-width="0" fill="#ED331F" d="M2505 526c3 0 6 1 9 2h2l1 1 2 1c2 1 4 1 5 3h1l3 2 2 1 2 2 15 7 18 7h1 1l18 8v1l2 1 2 1 17 10 1 1c2 1 4 3 6 6l9 10 1 3c2 2 3 5 4 7v1l4 12v1l1 2c0 2 0 4 0 6v15 2c0 2 0 2 0 3v1l-3 14v1c-1 1-1 1-1 2v1l-6 15v2 1l-7 13v1 1l-7 13v1l-6 10v1l-14 24-1 1-12 20-1 1c-5 8-14 13-25 13-16 0-30-13-30-29 0-6 2-11 4-15l1-1 12-20 14-23 5-10 6-12 5-12 4-12 2-11v-7-2l-2-3-11-6-16-7-18-8h-1-1l-17-8h-1l-2-1c-1-1-1-1-2-2l-3-2-2-1-3-2c-10-5-18-15-18-28 0-16 13-30 30-30z" /><path stroke-width="0" fill="#ED331F" d="M1734 1266c5 0 9 1 12 2l1 1h3 2l27 3 27 1 56-2 15-1h2c16 0 30 13 30 30 0 15-12 28-27 30h-2l-15 1h-1l-57 2h-1-1l-29-1h-2l-28-3h-1-1l-3-1h-5v-1h-1-1l-4-1h-2c-2-1-4-2-6-3l-2-1c-9-5-15-15-15-26 0-17 13-30 29-30z" /><path stroke-width="0" fill="#ED331F" d="M2355 1280c2 0 4 0 6 1h2l4 1h3l7 1h1 7 1l58 6 58 2h15 3c15 2 27 15 27 30 0 17-14 30-30 30h-1-15-1l-59-2h-2l-59-6-6-1h-7-2l-7-1c-1 0-2 0-3 0l-2-1-6-1-1-1c-12-3-21-15-21-28 0-17 14-30 30-30z" /><path stroke-width="0" fill="#ED331F" d="M2566 1197h3 1l3 1 28 1 30 3h1c1 0 2 0 3 0l28 6c2 0 4 1 6 2l13 5c2 1 4 2 5 3l12 8 2 2c1 0 1 1 2 2l1 1 8 8v1c2 2 3 3 4 5v1l5 10 1 2c0 0 1 1 1 2v2l3 11v1c1 1 1 2 1 3v1l1 11v3 2l-2 24v1c0 1 0 2-1 3l-4 22-1 2-10 37v1l-11 35h-1v3c-5 11-16 18-28 18-17 0-30-13-30-30 0-3 1-6 1-9l12-34 9-36 4-20 2-19v-7l-2-5-2-4-2-3-6-4-8-3-23-5-28-2-28-2h-1-4-1c-15-2-27-15-27-30 0-17 13-30 30-30z" /><path stroke-width="0" fill="#ED331F" d="M1959 2683c17 0 30 13 30 30 0 14-10 26-24 29h-1l-18 3h-1l-35 4h-1l-35 3h-2l-71 1h-1-1-5-5-1c-4 2-8 3-12 3-16 0-30-14-30-30 0-13 8-23 19-28l4-2c3-1 6-2 9-2l7-1h3 7 5l70-1 34-2 34-4 17-3h1c1 0 2 0 3 0z" /><path stroke-width="0" fill="#ED331F" d="M2506 2653c17 0 30 14 30 30 0 16-12 28-27 30h-2-15l-43 3-43 8h-3l-2 1h-1-1-1-1c-17 0-30-13-30-30 0-15 12-28 27-30h2l45-8h2 1l45-3h1l16-1z" /><path stroke-width="0" fill="#ED331F" d="M2558 2582h1 16 3l16 2c1 0 2 0 3 0l1 1 16 3v1h2c0 0 1 1 2 1l2 1 13 6 1 1c2 1 4 2 5 3l2 1 11 11c2 2 4 5 5 7l1 1 7 15 1 1c1 2 1 4 2 6v1l3 21 1 2c0 1 0 2 0 3v1l-1 21v2 1l-4 21v2l-4 20v1l-8 32v2c-4 13-15 22-29 22-16 0-30-14-30-30 0-2 0-4 1-6v-1l7-33 4-19 3-18 1-16-3-14-2-6-4-3-7-3-10-3-13-1h-15-15-15-3-1c-16 0-30-13-30-30 0-16 14-30 30-30h1 2 14 16 1z" /><path stroke-width="0" fill="#ED331F" d="M6986 157l2 1 19 1h1c1 0 2 0 3 0l2 1 18 5h1c2 0 3 1 5 2l16 9c2 1 4 2 5 3l1 1 14 12 1 2c1 0 2 1 2 2l2 2 11 16c1 2 2 3 3 5v1l8 19 1 3c0 1 0 1 0 2v1l4 18v3 1l2 19v2 2l-4 39v1 2 1l-7 38-1 1-7 36v1l-19 79v1l-20 77-18 77-7 38-4 39-12 185-3 83-2 83v1l-2 46-3 45v43l1 21 3 22 14 76v1l12 76 10 39 15 34 21 31 28 31 90 93 10 9 11 10 2 1 11 11h1c1 2 2 3 3 5l8 12 2 2c1 2 1 4 2 6l1 2v1l2 8c0 2 0 4 0 6 0 1 0 2 0 3v2l-2 8v1c0 2-1 4-2 6l-4 9-1 2-1 2-6 9c0 0-1 1-1 2l-1 1-13 15-1 1-10 10-5 9-4 9-3 10-1 12-1 29v30l1 26 1 26 8 53 10 54v1l10 54 10 48 12 45 16 45 19 46 21 52 1 1 19 53 19 53 20 52 12 32 1 2 10 32v2l16 65 1 1v1l12 66v1l12 66v1l9 65v1 1l4 64v1 1l-1 64v1l-2 64v1l-3 43v1l-5 44v1l-7 43v2l-9 42v1l-1 2-13 41c0 1 0 2-1 3l-16 39c-1 1-1 2-2 3l-21 38-1 2-1 1-26 36-1 1-1 1-34 37-1 1h-1l-35 34-2 1-10 8c-5 4-12 7-19 7-16 0-30-13-30-30 0-8 4-16 9-21l2-2 9-8 35-32 32-34 24-33 19-34 16-37 12-39 8-40 7-41 4-42 3-43 2-63 1-63-4-62-8-62-11-66-13-65-16-64-9-31-12-30-20-53v-1l-19-53-19-52-21-51-20-46v-2l-17-47v-1-1l-13-47-1-2-10-49v-1l-10-54-10-55v-1l-8-56v-1l-2-28v-2l-1-27v-1-30-1l1-31v-2-1l2-15 1-2v-1l3-15h1v-2c0-1 1-1 1-2l6-14c0-1 1-2 1-3l1-2 9-13c0-1 1-1 2-2l1-1 11-13 12-13 3-5v-1l-2-2-7-8-12-9-1-1-11-10-1-1-91-95-1-1-30-33v-1c-1 0-2-1-2-2l-24-35c0-1-1-2-1-2l-1-2-18-38v-1c0-1-1-2-1-3v-2h-1l-10-43v-1l-1-1-12-77-14-77v-1l-3-23v-2l-2-23v-3-45-2l3-45 2-46 2-83 3-84v-1l13-185v-2l4-40v-2l7-40v-1l18-79 1-1 20-77 18-78 8-37 7-36 3-36-1-14-3-14-5-14-8-10-8-8-10-6-12-3-12-1-13 2-14 5-1 1-2 2-1 1c-3 1-5 3-8 3-3 1-6 2-9 2h-2-1c-3-1-6-1-9-3-1 0-3-1-5-2-4-3-7-7-9-11-3-4-4-9-4-14 0-8 3-16 9-21 1-1 1-2 2-2l1-1 3-2 1-1h1l5-4 2-1c1 0 1-1 2-1l2-1 19-7h1c1 0 2-1 3-1h2l19-3h1c1 0 2-1 3-1z" /><path stroke-width="0" fill="#ED331F" d="M7770 1582c17 0 30 13 30 30 0 12-7 23-18 27l-4 2h-1l-2 1-16 5-2 1h-1l-16 3-1 1-117 20h-1l-116 16-8 2-10 2v-1l-2 1h-2-10-1c-2 0-4 0-6 0l-1-1-8-2h-2c-12-4-21-15-21-29 0-16 13-30 30-30 2 0 4 1 6 1h1l4 1h4l8-1 9-2h1l115-16 115-20 15-3 14-5 2-1h1l2-1c3-1 6-1 9-1z" /><path stroke-width="0" fill="#ED331F" d="M7599 1415c15 0 27 10 30 24v2 1l1 3 1 4v1 2l15 70v1l13 71v1l10 71v1l7 71v1 1l5 77 6 76 2 13v1c0 1 0 2 0 3 0 16-13 30-30 30-14 0-26-11-29-24l-1-3-1-14v-1l-6-76v-1l-5-77-7-70-10-70-13-70-14-70h-1v-3l-1-4v-1l-1-4v-1-2-1c0-1 0-2 0-3 0-17 13-30 29-30z" /><path stroke-width="0" fill="#ED331F" d="M2060 406h-1l-3 1-4 1-6 4-5 3-17 13-13 13-13 15-10 17-9 17-7 19-5 20-4 21-2 43 5 43 11 40 17 37 11 16 12 16 15 14 15 12 16 9 16 6 17 3 17-1 20-5 18-8 17-11 15-13 13-16 12-17 10-20 7-21 6-22 3-22 2-23-2-23-3-21-6-21-8-19-10-17-19-25-23-22-27-20-30-17-31-14-17-5zm-95-77h8 1 10 1l1 1 35 4h2 1l35 8 3 1 35 12 3 1 34 15 2 1 1 1 32 18 2 1 1 1 30 22 1 1 2 1 26 25v1c1 1 2 1 2 2h1l22 28 1 2 1 2 12 21h1c0 1 1 2 1 3l9 23 1 3h1l6 24 1 2v2l4 25v1 2l1 25v2 1l-1 26v2 1l-4 26v1l-1 2-6 24v2l-1 1-9 24v2l-1 1-11 23-1 1-1 2-14 21c-1 1-1 2-2 2v1l-16 19-2 1-1 1-18 17h-1c-1 1-2 2-2 2h-1l-21 14-1 1-3 1-23 10c-1 0-2 1-3 1l-1 1-25 6h-2c-1 0-2 1-3 1h-1l-23 1h-2c-1 0-2 0-3 0h-2l-22-4h-2c-1 0-1-1-2-1l-2-1-21-8h-2c0 0-1-1-2-1l-1-1-20-11-2-1-1-2-19-14v-1c-1 0-2-1-3-2l-16-16-2-2v-1l-15-18-1-2h-1l-12-19-1-3-1-1-19-41-1-1c0-1 0-2-1-3v-1l-12-45-1-2v-3l-5-47h-1c0-1 0-2 0-3v-1l3-48v-2-2l4-23v-1l1-2 6-22v-1-2l9-22v-1l1-2 10-20v-1l1-2 13-19v-1l2-2 14-18c1-1 2-2 2-2l1-1 10-10h-6-8l-2-1c-15-1-27-14-27-29 0-17 13-30 30-30z" /><path stroke-width="0" fill="#ED331F" d="M2124 1067l-12 1-13 4-13 6-13 8-9 7-1 2c-2 3-5 6-8 9l-2 1-1 2-2 3h-1l-20 25-18 27-17 28-15 30-12 31-11 31-7 32-5 30-1 36 2 16 3 15 6 13 7 12 9 10 12 9 13 6 13 5 13 4 13 1 28-1 27-7 27-13 25-17 22-21 18-24 19-36 14-39 10-43 3-43-1-21-2-21-4-19-6-19-8-18-10-16-12-15-14-13-12-9-11-5-12-3-11-1zm-1-60h2l17 1h1c1 0 2 1 3 1h2l16 4 2 1c1 0 2 0 3 1h1l16 8 2 1c1 0 2 1 2 1l1 1 16 11 2 2 2 1 16 17h1c0 1 1 1 2 2v1l14 18 1 1 1 2 12 19 1 1v2h1v1l9 20v1l1 2 7 22 1 3 5 22v1 2l3 23v1 2l1 23v1 3l-4 47v1c0 1 0 2 0 3h-1l-10 46v1 2l-1 1-16 44v1l-2 3-21 39c0 1-1 2-1 3l-1 1-21 28-1 1c-1 1-1 1-2 2l-26 25-1 1-2 2-29 20c-1 1-2 1-3 2h-1l-32 15-1 1c-1 0-2 0-2 1h-2l-33 9h-1c-1 0-2 0-3 0h-2l-34 2h-1c-1 0-2 0-3 0h-1l-17-2-2-1h-1l-17-4h-2l-2-1-16-6-1-1-3-1-16-8c-1-1-2-1-3-2l-1-1-16-12-1-1c-1 0-2-1-3-2l-1-1-13-14v-1c-1-1-2-2-2-3l-1-1-10-16-1-1c0-1 0-2-1-3v-1l-7-17-1-2v-2l-5-19v-1-3l-2-19-1-1c0-1 0-2 0-3v-1l1-39 1-3v-1l5-34v-1-1l8-34h1v-2l11-33 1-2v-1l13-32v-1l1-1 16-32v-1l1-1 18-30 1-2 19-28v-1l2-1 21-26 2-3 2-3 1-1 1-1 2-2v-1c2-4 5-8 8-11l2-1 18-13 1-1 1-1 16-10h1l2-1h1l16-8c1 0 2-1 3-1h1l17-5h2l3-1 17-2c1 0 2 0 3 0z" /><path stroke-width="0" fill="#ED331F" d="M2250 2449l-8 1-11 3-12 5-26 14-25 17v2c-2 10-9 18-18 22l-2 1h-2l-1 1-4 5-4 5-17 25-15 28-13 29-11 32-8 32-8 33-11 65-5 41-4 41-1 40 3 37 2 9 3 4 1 1 7 2 9-1 12-2 27-9 27-15 23-16 34-31 28-36 22-41 18-44 13-47 8-47 4-48v-47l-2-27-4-26-6-25-8-20-6-8-5-3-4-2zm2-60c3 0 5 1 7 1h1l14 4h2c3 1 5 2 8 4l13 9 2 2c1 1 3 2 4 4l1 1 11 15 1 1c1 2 2 4 2 5l11 26c1 1 1 2 1 3l1 2 7 28v1 2l4 29v1 1l2 29 1 2v49 2l-5 51v2l-9 51v1 2l-14 50v1l-1 2-19 47v1c-1 1-1 2-1 2l-1 1-24 44-2 2-1 2-30 39-1 1c0 1-1 2-2 2l-1 1-36 34-2 1-2 2-26 18h-1c-1 1-1 1-2 2l-30 16c-1 1-2 1-3 2h-2l-31 12h-2c0 0-1 0-2 1h-1l-16 3h-2-2l-16 1h-1c-2 0-4 0-6-1l-16-4h-1-2c-3-1-6-2-8-4l-1-1-12-8-1-1c-2-2-4-4-6-7l-1-1-7-13-1-1c-1-2-2-3-2-5v-2h-1l-4-16v-1c0-1 0-2 0-3v-1l-4-41h1l-1-2v-1l2-43v-2l4-42v-1l5-42v-1l11-67 1-1v-1l7-33v-1l1-1 9-34v-1l1-1 11-33 1-2 13-32 2-3 16-29v-1c0 0 1-1 1-2h1l18-28h1l1-1 5-7v1-1l1-1 6-7 1-1 2-2 7-6h1v-1l1-2c1-5 5-10 9-14l2-2h1l34-24h1l2-1 28-16 1-1c1 0 2-1 2-1h1l15-6c1-1 2-1 3-1l1-1 16-4h1c1 0 2-1 3-1h2l15-1h1z" /><path stroke-width="0" fill="#ED331F" d="M7646 1377l-1 2c-1 15-14 26-29 26-9 0-16-3-21-8l-2-2-6-8c-1-1-2-1-2-2h-1l-8 4-9 5-10 8-18 20-15 20-20 33-15 36-12 38-9 40-6 41-2 41 1 41 3 39 3 23 5 22 6 21 9 18 10 17 13 13 14 11 19 8 13 3 12 2 26-1 23-6 23-11 22-16 20-19 18-23 15-24 17-34 15-35 12-36 8-38 5-38 2-37-2-37-7-36-8-26-12-24-14-20-18-18-19-14-23-11-24-8h-1zm-24-64c1 0 2 0 3 1h1l32 4h2c0 1 1 1 2 1h1l28 9c1 0 2 1 3 1l2 1 27 13v1c1 0 2 1 3 1l1 1 24 17 1 1c1 1 1 2 2 2v1l21 21 2 2 1 1 17 25h1c0 1 1 2 1 3l1 1 13 27 1 2 1 2v1l10 29v1c0 1 0 2 1 3l7 40v2 1l3 41v1 2l-2 40v2 1l-6 41v2l-9 40-1 2v1l-12 38-1 1v2h-1l-15 37v1l-1 2-18 35v1l-1 1-18 28-2 2-20 26c-1 1-1 1-2 2l-23 23-2 1-2 1-25 19h-1c-1 1-1 1-2 2h-1l-28 14-1 1c-1 0-2 0-3 1h-2l-29 8h-2c-1 0-2 1-3 1h-2l-32 1h-1c-1 0-2 0-3 0l-1-1v1l-16-3h-2-1l-17-5h-2c-1-1-2-1-2-1h-1l-23-11-3-1c-1 0-1-1-2-1l-1-1-20-14-1-1c-1-1-2-2-2-2l-1-1-16-18-2-1c0-1-1-1-1-2l-1-1-13-20-1-2-1-2-10-22v-1l-1-2v-1l-8-23v-3h-1l-5-24v-1-1l-4-25v-1-1l-3-41v-2l-1-43v-2l3-43v-2-1l6-43v-2l9-43 1-3 13-41c0-1 1-2 1-2v-1l17-38v-1l1-2 1-1 21-36 1-1 1-2 3-3h-2c-1 0-3 0-6 0-16 0-29-13-29-29 0-13 7-23 18-28l1-1 22-8h1 1l23-8h1l25-7 2-1h1l26-5h3l27-3h3l27-1z" /></g></g></svg>