<?xml version="1.0" encoding="utf-8"?>
<!-- Created with Majerus.net InkPaint (http://www.majerus.net/InkPaint/) -->
<!DOCTYPE svg PUBLIC "-//W3C//DTD SVG 1.1//EN" "http://www.w3.org/Graphics/SVG/1.1/DTD/svg11.dtd">
<svg xmlns="http://www.w3.org/2000/svg" version="1.1" width="252.75mm" height="101.2mm" viewBox="0 0 5055 2024" preserveAspectRatio="xMidYMid meet"><!-- Generator: Majerus.net InkPaint UWP 1.1.14.0 --><g fill="none" stroke-linecap="round" stroke-linejoin="round"><g stroke="#000000"><path stroke-width="0" fill="#000000" d="M1546 339c17 0 30 13 30 30 0 5-1 10-3 14h-1v2 72 1l-2 73v1l-5 74v1 1l-10 72-1 2-7 33-1 3-11 34v1l-1 2-1 1-8 16v1l-2 3-9 14c-1 1-1 2-2 2l-1 2-12 12-1 1c0 1-1 1-2 2l-2 1v1l-14 9c-2 1-3 2-5 3h-2l-13 5h-1c-2 1-4 1-6 2h-2-12-1c-3 0-5 0-6 0l-2-1-12-3h-2c-1 0-2-1-2-1l-2-1-12-6h-1c-1-1-1-1-2-2h-1l-11-8-2-1-1-1-10-10-1-1-1-1-17-20-1-1c0 0-1-1-2-2l-29-44-1-3h-1l-24-49-1-2-6-16-7 27-1 2-10 32-1 2-12 31v1l-14 31-1 1v1l-16 29h-1l-1 2-19 29-1 2-23 29-1 1c0 1-1 1-2 2v1l-27 25-1 1-3 2-14 10c-1 0-2 1-3 1l-1 1-15 7-2 1c-1 0-2 1-3 1l-2 1-15 3h-1c-2 0-4 1-6 1-1 0-2 0-3 0l-2-1-13-2h-1c-3-1-6-2-8-3l-1-1-12-7-1-1c-2-1-3-2-5-3v-1l-10-10-1-2c-1 0-1-1-2-2l-8-13-2-2v-1l-7-14-1-1v-1l-5-14-1-1v-1l-4-12v-1l-1-1-7-28v-2l-6-28v-1l-1-2-7-58v-1-1l-4-59v-1l-3-58-5-74-4-35-8-34v-1l-1-2c-1-2-1-5-1-8v-2-1c2-16 14-27 30-27 12 0 23 7 27 18h1v1l1 3 1 3 1 2v1l7 36h1v2l4 38h1v2l4 75 3 58 4 58 8 57 5 27 7 26 4 11 4 12 6 11 5 9 6 5 3 2h2l6-1 10-5 11-7 23-22 21-27 18-27 15-27 13-29 11-29 10-30 16-63 13-66c3-14 15-24 29-24 15 0 27 10 29 24h1v1 2l3 9h1v1l15 48 19 49 23 45 27 41 15 17 7 7 8 6 7 3 5 1h4l5-2 8-5 8-8 7-11 6-12 10-31 7-31 9-70 5-71 2-73 1-73v-1-7-1c0-2 1-4 1-6l1-1 2-7 1-1c0-2 1-4 2-5h1l1-2 1-2c6-7 14-11 23-11z" /><path stroke-width="0" fill="#000000" d="M1874 105c9 0 17 4 23 11v1l1 1 1 1c1 2 2 4 3 5v1l1 2 1 2 1 4v1l18 67 1 1v1l6 35v1l5 36v1l2 36v2l1 35v2l-2 35-1 1v1l-4 34v2l-3 13v1c0 1 0 2-1 3l-3 12c-1 1-1 2-1 3l-1 1-1 2-1 2c-5 9-15 16-26 16-17 0-30-14-30-30 0-4 1-8 2-12l1-1v-1l3-9 2-10 4-33 2-32v-34l-3-34-4-33-6-33-18-65v-1l-1-2c-1-4-2-8-2-12 0-16 13-30 30-30z" /><path stroke-width="0" fill="#000000" d="M2025 82c17 0 30 14 30 30 0 15-10 27-24 30h-1l-18 3-19 3h-1l-65 12-67 11-67 12-65 12-13 4h-2-1l-13 3h-3c-1 0-2 0-3 0-16 0-30-13-30-30 0-14 11-26 24-29h1l12-2 13-4h2l66-13h1l67-12 68-11 65-12 20-3 18-3h2c1-1 2-1 3-1z" /><path stroke-width="0" fill="#000000" d="M2515 300c11 0 21 6 26 16l1 2 2 4c1 3 2 6 2 9l1 3v5c0 1 0 2-1 3v2l-2 11v2l-4 21-1 3-6 21-1 3-17 42-1 2-21 41v1l-21 39h-1l-37 71v1l-39 71v1 1l-42 70-1 1v1l-46 66-1 1-8 10-5 6-2 2c-5 5-13 8-21 8-16 0-30-13-30-29 0-8 3-14 7-19l1-1 4-5 7-8 44-64 41-69 38-72 38-71v-1l21-39 20-39 16-39 5-19 4-20 1-6c-1-3-1-6-1-9 0-17 13-30 30-30z" /><path stroke-width="0" fill="#000000" d="M2253 378c8 0 14 3 19 7l1 1 8 7 7 5 9 7 1 1 9 8 2 1 1 1 42 45 2 2 40 51 1 1 37 52v1l35 52 67 100 67 98 11 16 10 14c3 5 5 11 5 17 0 16-13 30-30 30-9 0-17-4-23-11l-1-2-10-14-11-16h-1l-66-98-1-1-66-99v-1l-35-51-37-52-38-49-41-43-7-6-8-6-8-6-1-1-1-1-9-7-1-1c-5-6-9-13-9-22 0-16 14-30 30-30z" /><path stroke-width="0" fill="#000000" d="M106 1647c2 0 4 0 6 1h1 2v1h1 1l3 1h1l3 1h1l1 1 22 6 23 4 48 5h50l48-3 18-1h3c16 0 30 13 30 30 0 15-12 28-27 30h-1l-19 1h-1l-49 3h-2-51l-3-1-51-4h-1l-2-1h-1l-24-4h-1l-1-1-24-6v-1h-1-1-2v-1l-3-1h-1l-3-1h-1-1c-12-4-21-16-21-29 0-17 13-30 30-30z" /><path stroke-width="0" fill="#000000" d="M319 1807c17 0 30 14 30 30 0 14-9 25-21 29l-2 1-35 7v1l-36 7h-1l-37 7h-2l-40 6h-1-2l-20 1h-1c-1 0-2 0-3-1h-1l-19-2h-2c-1 0-2-1-3-1h-1l-5-2-1-1c-1 0-2 0-3-1l-2-1-1-1h-1c-8-6-13-15-13-25 0-1 0-2 0-3 0-1 0-2 1-3v-1-2c4-12 15-21 29-21 4 0 8 1 11 2l2 1 13 2 16-1 39-5 36-6 35-8 35-8c2 0 4-1 6-1z" /><path stroke-width="0" fill="#000000" d="M1499 1493c15 0 28 12 30 27v3 1 3 1c0 1 0 2 0 3v1l-3 25-1 2-5 25v1 1l-12 50-1 1h1l-14 52v1h-1l-15 53v1l-18 52v2h-1l-20 50-1 1-6 13-1 1-7 13v1l-1 1-9 14v1l-2 2-10 13c-1 1-1 1-2 2l-2 1-11 10-1 1c-1 1-3 2-4 3l-2 1-13 5v1c-4 1-8 2-12 2h-14-3c-2 0-4-1-5-1l-2-1-7-2-1-1c-1 0-2-1-3-1l-1-1-8-5h-1c0-1-1-1-2-2l-2-1-18-18c-1-1-2-2-2-2l-1-2-16-20v-1l-1-2-14-22v-1l-12-23-12-23-12-22-13-18-1-1-5 20-7 38v1l-8 37v1l-1 2-12 37v2h-1l-1 4-1 1-2 6-1 3h-1l-7 13-1 2c-1 1-1 2-2 3l-5 5-1 2c-2 1-3 2-5 3l-1 1-4 3-2 1c-4 2-9 3-14 3h-5-3c-5 0-10-2-14-5l-1-1-5-4h-1c-3-2-5-4-6-7l-1-1-11-18-1-1c0-1-1-2-1-3l-1-2-7-21v-1l-1-2-5-23-5-21v-1l-11-56h-1v-1l-10-58-10-57-12-56-8-38-5-17-6-17v-2c-1-2-1-5-1-8 0-17 13-30 30-30 12 0 23 7 27 18l1 1 6 19 1 1v1l5 20v1l9 39 11 56v1l11 58 10 57 12 56v1l4 20 3 13 6-17 8-36 7-37v-1l8-38 1-3c0-1 0-2 1-3l4-11c2-3 4-6 7-9l1-2 7-6h1c4-4 10-6 16-7h1l9-1h2c4 0 8 1 12 3h2l10 6h1c2 1 4 2 5 4l2 1 18 18h1c0 1 1 2 2 3l1 2 15 22c1 1 1 1 2 2l12 24h1l11 23 12 22 12 20 13 18 15 13 1 1h1l3-1 6-5 8-9 7-12 7-12 5-11 20-48 17-50 15-53 14-51 12-50 4-23 3-21v-2c0-1 0-2 0-3 0-5 1-10 3-14h1v-1l1-2c5-8 15-13 25-13z" /><path stroke-width="0" fill="#000000" d="M2491 1490c16 0 30 13 30 30 0 7-3 13-7 19h-1l-1 1-1 2-1 2-1 2-44 58-42 61-71 108v1l-38 54-1 1-40 51-1 1-2 2-1 1-1 1-2 2c-5 4-11 7-19 7-16 0-30-14-30-30 0-8 3-14 7-19l2-2v-1l40-50 36-52 71-108 1-1 43-61v-1l43-58 1-2 2-3c0 0 1-1 2-2l3-4 2-2c5-5 12-8 21-8z" /><path stroke-width="0" fill="#000000" d="M2225 1498c11 0 21 7 26 16l1 2 1 1v1l2 3v1l25 42 28 40 31 40 32 40 39 48 39 47 1 1 38 49 1 1 36 51 1 1 22 36 1 1v-1l19 32h-1l1 1c2 5 4 9 4 15 0 16-14 30-30 30-11 0-20-6-25-14l-1-1-19-32-22-34-34-50-38-48-40-47-39-48v-1l-32-40-32-41v-1l-30-42-1-2-25-43-2-4-2-2-1-2-1-3v-1h-1c-1-4-2-8-2-12 0-16 13-30 30-30z" /><path stroke-width="0" fill="#000000" d="M3491 1474h20l3 1c1 0 2 0 3 0l2 1v-1l9 3h1c1 1 3 2 5 2l1 1 8 5 1 1c2 1 5 3 6 5l1 2h1l2 3 3 3v1l1 2c4 5 6 10 6 17 0 16-14 29-30 29-10 0-18-4-23-10l-1-1-3-3v-1h-1-13l-15 3-14 4-30 13-25 18-20 23-6 12-6 15-4 17-3 17-1 36 6 34 12 33 18 30 22 27 28 22 33 18 21 7 23 6 24 4 24 1 50-2 50-8 15-3h1c2-1 4-1 6-1 16 0 30 14 30 30 0 14-9 25-21 29h-3l-16 4h-1-1l-52 9h-2-2l-53 2h-1-2l-27-2h-1-1l-27-4h-2-1l-26-7h-1l-2-1-25-9h-1c-1-1-2-1-3-2l-37-19v-1c-1 0-2-1-2-1l-3-2-31-25-1-1c0 0-1-1-2-2l-1-1-27-31c-1-1-1-2-2-3l-1-1-20-35v-1c-1-1-1-2-2-3v-1l-14-38v-1c-1-1-1-2-1-3v-1l-7-40v-2c0-1 0-2 0-3v-41-3l1-1 3-21v-1-2l6-20v-1l1-2 7-18v-1c0-1 1-2 1-3l9-16 1-1 1-2c0-1 1-1 2-2l24-29 1-1c1-1 2-2 3-2l1-1 30-22 1-1c1 0 1-1 2-1l3-1 34-15 1-1c0 0 1 0 2-1h1l17-5h3v-1l20-3 3-1c1 0 2 0 3 0z" /><path stroke-width="0" fill="#000000" d="M3859 1545l-12 2-11 3-9 7-3 3-2 2-3 5-16 30-12 32-7 34-1 14v14l2 8 2 4 3 2 7 2 12 1 13-2 14-3 13-5 26-15 23-21 9-11 7-12 5-12 3-12v-11l-1-12-4-12-6-11-7-9-9-7-12-5-12-3h-12zm-27-62c4 0 8 1 12 2l1 1 8-1h1c1 0 2 0 3 0h1l19 1h1c1 0 2 0 3 0l1 1v-1l18 5h2c1 1 2 1 3 1l1 1 16 7 2 1c1 1 2 1 3 2h1l14 11 1 1c1 1 2 1 2 2l2 2 12 13v1c1 1 2 3 3 4v1l9 16c1 2 2 4 3 6l5 17c0 1 1 2 1 3v3l2 17c0 1 0 2 0 3v2l-1 17v1c0 1 0 2 0 3l-1 1-4 17v2c-1 1-1 2-1 2v1l-7 15c0 1-1 2-1 3l-1 1-9 15-1 2-1 1-11 15h-1c0 1-1 2-2 2l-1 1-27 25-1 1c0 1-1 1-2 2l-2 1-32 18v1c-1 0-2 1-3 1h-1l-17 7h-2l-2 1-17 4h-1c-1 0-2 1-3 1l-17 1c-1 1-2 1-3 1l-2-1v1l-17-1h-1c-1 0-2-1-3-1h-2l-16-5h-1c-3-1-6-2-8-4h-1l-12-9-1-1c-2-2-4-4-6-6v-1l-8-13-1-2c-1-1-2-3-2-5l-1-2-4-16v-1c0-1 0-2-1-3v-2-18-1-3l1-18v-1c0-1 1-2 1-3v-1l8-36v-1l1-2 1-2h-1l14-36 1-1 1-2 16-32v-1h1l7-12 1-2 9-13 2-2c0-1 1-2 1-2l1-1 11-10 1-2c2-1 4-2 5-3h1l6-3 2-1c2-1 4-2 6-2l7-1 2-1c1 0 2 0 3 0z" /><path stroke-width="0" fill="#000000" d="M4227 1464c1 0 2 0 3 1h1l8 1h2c6 1 11 4 15 8l1 1 4 4 1 2c4 5 7 11 7 19v2 3h-1v1c0 3-1 6-2 9v1l-2 4-1 2-1 1-1 2-1 3h-1l-1 3h-1l-1 2-1 1c-6 7-14 11-23 11-11 0-20-5-25-13l-1-2-17 7-38 19-36 23-34 25-30 25-11 12-9 13-1 2v1l1 1 5 4 9 6 12 5 13 4 11 4 25 6 28 5v1l27 6h1 2 1l26 9c2 0 4 1 5 2h1l10 6 2 1c3 3 6 5 8 8v1l5 7 2 2c1 4 3 8 3 12l1 9v2c0 2 0 4-1 6v3l-3 9c-1 2-1 4-2 6l-5 9c-1 1-1 2-2 3h-1l-6 9-1 2-1 1-14 15-1 2-1 1-34 31v-1l-1 1-2 1v1l-38 27-1 1-2 1-41 24-1 1h-1v1l-41 20-2 1-21 9h-1c0 0-1 1-2 1h-2l-12 3c-2 1-4 1-6 1h-1-11-3c-2-1-4-1-6-2l-5-1-2-1c-11-5-18-15-18-28 0-16 13-30 30-30 3 0 6 1 8 2h1 3l6-1 18-8 40-20 38-23 37-26 32-29 11-13 4-5-16-5-26-6h-1l-27-6h-1l-27-7h-2l-12-4h-1l-14-5-2-1-14-6h-1c0 0-1-1-2-1h-1l-13-8-2-1c-1-1-2-1-2-2h-1l-11-9-1-2c-2-1-3-3-4-5h-1l-7-11-1-2c-1-3-2-5-3-8v-3l-1-13c-1-1-1-2-1-3 0-2 1-4 1-6v-1l2-8 1-2c0 0 0-1 1-2v-1l4-8v-2c1-1 1-1 2-2v-1l12-16 1-2 2-2 14-14v-1l3-2 32-26 1-1 35-26 1-1h1l38-25 2-1h1v-1l40-20 2-1h1l20-8 2-1 20-6 3-1h2l10-1h1c1-1 2-1 3-1z" /><path stroke-width="0" fill="#000000" d="M4751 1425l-27 2-17 43-17 57-13 57-4 25-3 27-1 26 1 25 5 22 8 19 12 16 17 12 13 6 15 4 16 1h18l19-3 18-3 35-13 25-12 24-17 23-19 20-22 17-25 13-25 8-26 3-28-1-11-2-11-9-22-13-20-18-18-22-16-25-15-26-12-25-9-29-9-29-5-29-1zm-16-115c16 0 30 14 30 30 0 8-3 14-7 19l-1 1-1 2-2 2v1l31 1 1 1h2l33 6h1 2 1l31 9v1h1 1l28 11h1l1 1 28 13 1 1h1l27 16 2 1 1 1 25 19h1c1 1 2 2 2 2h1l21 22 2 2 2 2 17 25c1 2 2 4 3 5v1l11 28 1 2c0 1 0 2 0 3l3 15v1l1 2v1l1 16v2c0 1 0 2 0 3l-4 33v3c-1 1-1 2-1 3l-10 31c0 1 0 2-1 3l-1 1h1l-15 30-1 1c0 1-1 2-1 3h-1l-19 27-1 2-1 1-23 25-1 1-2 2-25 22h-1c0 1-1 1-2 2l-27 18-3 2-29 15-2 1h-2l-38 14h-1l-3 1-21 4-2 1-21 2-1 1h-2-22-3-1l-20-2c-1 0-2 0-3 0l-1-1v1l-20-5-2-1c-1 0-2 0-3-1l-18-8h-1l-2-1c-1-1-2-1-2-2l-2-1-23-17-1-1c-1-1-3-2-4-4l-1-1-16-22-1-1c-1-2-2-3-3-5l-10-25c-1-2-2-4-2-6l-6-27c0-1 0-2 0-3v-1l-2-29v-2-1l1-29v-2l3-28 1-2 4-26v-1-1l13-58 1-1v-2l18-59v-2l23-57v-1l1-2 27-53 3-6 1-1c0-1 2-3 3-4l1-1 3-5 1-1c6-5 13-9 22-9z" /><path stroke-width="0" fill="#000000" d="M5023 1514c16 0 30 14 30 30 0 16-12 29-27 30l-26 3-27 3-30 3-31 4h-1l-65 7-66 8-65 11-66 15h-1c-1 0-4 0-6 0-16 0-30-13-30-30 0-13 9-24 22-28l2-1 66-15v1l1-1h1l67-11h1l67-8 66-8 32-4 30-3 27-3 26-2c1-1 2-1 3-1z" /><path stroke-width="0" fill="#000000" d="M872 1467c8 0 15 7 15 16 0 3-1 6-2 8l-1 1v1 6l5 44v1l5 44v1l3 41v1l1 42v41l2 42 2 59 3 60 4 67 1 8 4 7v1h1v2l2 5h-1l1 1c0 1 0 1 0 2v1 1c0 8-7 15-15 15-8 0-14-5-15-12l-1-1v-2l-4-9h-1c0-1-1-2-1-3v-1l-2-11v-1-1l-4-68-3-59-2-60-2-42v-42l-1-41-3-41-5-44-4-45-1-9v-1c0 0 0-1 0-2v-1l2-8c0-3 2-6 4-8l1-1 1-1 1-1c1 0 2-1 3-1l1-1h1l2-1c1 0 2 0 3 0z" /><path stroke-width="0" fill="#000000" d="M926 1444c5 0 10 3 12 7h1v1l2 3v1l1 2v1 1l2 11v1 1 10l4 24 5 23v1l6 28c0 1 0 1 0 2v1l2 29 2 40 4 40 4 37 3 38 3 60 1 60-1 113v1 1c-1 8-7 14-15 14-9 0-16-7-16-15v-1l1-113-1-59-3-59-3-37-4-37-4-40v-1l-2-41-1-28-6-27-6-24v-1l-3-25v-1l-1-11-1-8-1-1c0-2-1-4-1-6 0-9 7-16 16-16z" /><path stroke-width="0" fill="#000000" d="M1589 1441c6 0 12 4 14 10l5 11v1l3 12h1l5 23 1 1v1l3 24 5 48 6 64v1l2 63v1l-1 64v65l-2 60v1l-4 60-1 19v17l2 6 1 2c0 1 0 2 0 3 0 9-7 16-16 16-5 0-10-3-12-7l-2-2v-1l-1-2-2-8v-1c0-1 0-1 0-2v-1l-1-19v-1-1l1-20 4-60 2-60v-64l1-64-2-63-6-63-4-47-4-23-5-22-3-10-5-11v-2c0-1-1-2-1-3 0-9 7-16 16-16z" /><path stroke-width="0" fill="#000000" d="M1653 1442c8 0 14 6 15 14v1l3 10 3 11v1 1l7 38 5 38 9 59 8 59h-1l1 1 6 71v1l3 71 3 69 5 68 2 17 4 17v2 1c1 1 1 2 1 3 0 9-7 16-16 16-6 0-12-4-14-10v-1l-1-2v-1l-5-19v-1l-2-19v-1l-5-68v-1l-3-69-3-71-6-70-8-59-9-58h1l-1-1-5-38-6-37-3-10-3-11v-1l-1-2v-1-1-2c0-8 7-15 16-15z" /><path stroke-width="0" fill="#000000" d="M2136 1482c8 0 15 7 15 15 0 1 0 1 0 2v1 30 31l2 52 7 52 7 63 5 63v1l2 39 3 38 4 43v2 43 2l-1 4v3c1 1 1 2 1 3 0 9-7 16-16 16-1 0-2 0-3-1l-3-1c-2 0-3-2-5-3l-1-2h-1c-1-2-2-5-2-7l-1-6v-2c0 0 0-1 0-1v-1l1-5v-41l-4-43-3-39v-1l-2-38-4-63-8-62-7-53v-1l-2-53v-1-31-30-1-1-1-1-1l1-1c1-7 7-12 15-12z" /><path stroke-width="0" fill="#000000" d="M2085 1500c7 0 14 6 15 13v1 1l6 32h-1 1l4 33v1l2 49 2 49 13 171 2 50v1 50l-1 23v22 3 1c0 8-7 15-16 15-8 0-14-6-15-14v-1-4-23l1-23v-49l-2-49-13-171-2-49-2-49-4-32-5-31v-1-1-1c0 0-1-1-1-1 0-9 7-16 16-16z" /><path stroke-width="0" fill="#000000" d="M2600 1459c8 0 14 6 15 14v2 1 1l3 31 4 31v1l9 106v1l2 65 2 66 4 69v1l1 70v1l-1 34v34l1 8 1 7 1 2c0 1 0 2 0 3 0 9-6 16-15 16-6 0-12-4-14-10l-1-1v-2l-3-9v-1c0 0 0-1 0-1v-1l-1-10v-1l1-34v-35l-1-69-3-70-2-66-3-65-9-105-4-31v-1l-3-32v-1-2-1c0-9 7-16 16-16z" /><path stroke-width="0" fill="#000000" d="M2664 1451c8 0 14 6 15 13v1l2 17v2 43 1l-2 43 1 59 3 60 8 119 4 45 4 44v1l1 31v6c0 8-7 15-15 15-8 0-15-6-15-14l-1-1v-5l-1-31-4-43v-1l-4-44v-1l-8-119v-1l-3-60-1-60v-1l2-43v-43l-1-17-1-1c0-9 7-15 16-15z" /><path stroke-width="0" fill="#000000" d="M1870 1694c12 0 22 7 27 18v1 1h1l1 3c0 2 1 5 1 8 0 17-13 30-30 30-12 0-22-8-27-18v-1l-1-1-1-3c0-3-1-5-1-9 0-16 13-29 30-29z" /><path stroke-width="0" fill="#000000" d="M3026 1665c2 0 3 0 4 0 0 0 1 0 2 0l2 1h1c12 4 21 15 21 28 0 17-13 30-30 30-2 0-4 0-5-1h-2l-1-1c-12-3-21-14-21-28 0-1 0-2 0-3 0-1 0-2 1-3 0-1 0-2 0-2 1-1 1-2 1-3 1-1 1-2 2-3 0-1 0-1 1-2 1-1 1-2 2-2 0-1 1-2 2-3 0 0 1-1 2-1 0-1 1-2 2-2 1-1 2-1 2-2 1 0 2-1 3-1 1 0 2-1 3-1 1 0 2 0 3-1 0 0 1 0 2 0 1 0 2 0 3 0z" /></g></g></svg>