<?xml version="1.0" encoding="utf-8"?>
<!-- Created with Majerus.net InkPaint (http://www.majerus.net/InkPaint/) -->
<!DOCTYPE svg PUBLIC "-//W3C//DTD SVG 1.1//EN" "http://www.w3.org/Graphics/SVG/1.1/DTD/svg11.dtd">
<svg xmlns="http://www.w3.org/2000/svg" version="1.1" width="285.7mm" height="116.05mm" viewBox="0 0 5714 2321" preserveAspectRatio="xMidYMid meet"><!-- Generator: Majerus.net InkPaint UWP 1.1.14.0 --><g fill="none" stroke-linecap="round" stroke-linejoin="round"><g stroke="#000000"><path stroke-width="0" fill="#000000" d="M1089 1897c17 0 30 14 30 30 0 11-6 21-16 26l-1 1-2 1-2 3-14 19-13 21-10 23-9 22-3 12-1 10 1 22 6 20 11 20 15 19 18 17 20 15 22 12 29 14 11 4c11 5 18 15 18 27 0 17-13 30-29 30-4 0-8-1-12-2l-11-5h-1l-31-15h-1l-1-1-24-14-2-1-1-1-24-17-1-1-1-1-21-20-1-1c-1 0-1-1-2-2l-18-23-1-2c-1 0-1-1-2-2l-13-25c-1-1-2-3-2-5l-8-26v-1l-1-2c0-1 0-2 0-3v-2l-2-28v-1c0-1 0-2 0-3v-1l2-15 1-2v-2l4-14v-2l1-1 9-25v-1l1-1 12-25v-2l1-1 14-23 1-2 1-1 15-21 1-1 3-3v-1l4-4 2-2 1-1 4-4v1l1-1c2-2 4-4 7-5h1l4-2h2c2-1 5-2 8-2z" /><path stroke-width="0" fill="#000000" d="M1418 1957h3 1c15 2 27 14 27 29 0 15-10 27-24 29l-9 7-11 12-12 15-11 15-19 25-17 26-1 1-18 26-1 1-1 1-20 24-2 2-2 1v1l-11 9h-1c0 1-1 1-2 2l-1 1-2 1h-1c-4 3-9 4-14 4-17 0-30-13-30-29 0-11 5-20 13-25l2-1 7-6 19-22 17-24 18-27 19-26v-1l12-15v-1l14-16 1-2 15-15v-1c1 0 2-1 2-2l2-1 16-11c2-1 3-2 5-3h1l1-1h1l1-1h2 1l1-1h2l2-1c1 0 3 0 5 0z" /><path stroke-width="0" fill="#000000" d="M1227 1961c3 0 6 0 8 1l2 1 6 2h1c1 1 2 1 3 2h1l6 4 38 22 1 1c1 1 2 1 2 2l33 27 2 2 2 2 28 32v1c1 0 1 1 2 2l1 1 23 37 1 2v1l9 18h1l8 19h1v1l5 12v1c2 3 3 7 3 11 0 17-14 30-30 30-11 0-21-6-26-16l-1-2-6-13-8-17-8-17-21-34-25-29-30-24-35-21-4-3-4-1-1-1c-10-4-18-15-18-27 0-16 13-29 30-29z" /><path stroke-width="0" fill="#000000" d="M1589 2103c16 0 29 14 29 30 0 2 0 4-1 6v1l-1 3v2 1l-1 2-4 20-1 22-1 8v2c-1 15-14 27-29 27-16 0-30-14-30-30l1-8v-2l2-25v-3l4-24c1-1 1-2 1-3l1-1h-1l1-3 1-2v-2c4-12 15-21 29-21z" /><path stroke-width="0" fill="#000000" d="M1748 1984l3 1c8 0 15 4 20 10l1 2 1 1 2 3 35 48 39 44 17 16 18 12 5 2 1 1c9 5 15 15 15 26 0 16-13 29-29 29-4 0-8 0-12-2l-1-1-6-3h-1c-1-1-2-1-3-2l-22-15c-1 0-2-1-2-1l-2-2-20-18v-1l-2-1-40-46-1-1-1-1-36-49-1-1-1-3-1-1-1-1c-3-4-5-10-5-16 0-16 14-30 30-30z" /><path stroke-width="0" fill="#000000" d="M1929 1961c16 0 29 13 29 29 0 4 0 8-2 12l-1 2-11 20-7 22-5 23-4 24-8 46-6 46-4 47-2 46v12 3c-2 15-14 26-30 26-16 0-29-13-29-29v-13-1l2-47v-2l4-47v-1-1l6-47v-1l8-47 1-1 4-24v-1l6-26 1-2v-1l8-24 1-3 1-2 12-22v-1c5-9 15-15 26-15z" /><path stroke-width="0" fill="#000000" d="M2015 1848c8 0 15 3 20 9l11 10 2 2c0 1 1 2 1 2l1 1 8 12 1 2 16 28 1 3 13 29 1 3 10 30v3h1l6 31 1 2 4 31v1 2l2 31v2 32 2l-2 32v1l-3 34v1c-2 14-14 26-29 26-17 0-30-13-30-29v-3l4-34 1-31v-30l-2-30-4-29-6-28-9-28-11-26-15-26-6-9-8-9-2-2c-4-5-7-11-7-19 0-16 13-29 30-29z" /><path stroke-width="0" fill="#000000" d="M490 324c16 0 28 11 30 26v1l1 8v3 2l-1 9-2 40v2l-4 40v1l-13 81v1l-16 80-14 79-5 36-4 35-2 13v3c-3 13-15 23-29 23-16 0-30-13-30-29 0-1 0-2 0-3l2-14 4-36 1-1 5-36v-1l14-80 16-80 12-79 4-38 2-40v-1l1-7-1-6v-3c0-16 13-29 29-29z" /><path stroke-width="0" fill="#000000" d="M705 988c17 0 30 13 30 30 0 15-12 27-27 29h-1l-19 1h-1l-45 2h-1-46l-88 1-88 3-87 6-85 10-22 3-2 1-22 2c-1 0-2 0-3 0-16 0-30-13-30-29 0-15 11-26 24-29l3-1 21-2 22-4h2l86-9h1v-1l89-6h1l88-3h1l89-1h45l45-2 18-1h2z" /><path stroke-width="0" fill="#000000" d="M374 1214c1 0 2 0 3 0h3l20 4h1c2 1 5 2 8 3l16 10 2 1c2 1 5 3 6 5l1 1 11 14 2 2c1 2 2 3 2 5l1 1 7 19 1 2c0 1 0 2 1 3v2l4 30v2c1 1 1 2 1 3l-1 32v2l-1 2-5 32v1l-1 2v1l-9 30c-1 1-1 2-1 3h-1l-12 30c-1 1-1 2-2 3l-7 14 22 2h2l30 6h1c13 3 23 15 23 29 0 16-13 30-29 30-1 0-2-1-3-1h-2l-30-5-24-3-25-1h-3l-10 12c-1 1-2 2-2 2v1l-27 25-2 2-15 12-2 1-1 1-16 10-1 1-2 1-17 8h-1c-1 0-2 1-3 1l-17 5h-1l-2 1h-3l-18 2c-1 0-2 0-3 0-1 0-2 0-3 0l-18-2h-3c-1 0-2-1-3-1h-1l-8-3-1-1c-3-1-5-2-8-4l-2-2-4-4c-4-4-6-9-8-15v-1l-1-4v-2c0-1 0-2 0-3 0-3 0-6 1-9l2-5v-1l1-2c1-2 2-3 3-5l1-1 8-11v-1c1 0 2-1 2-2l2-1h-1l10-9h1l2-2h1l22-15v-1c1 0 2-1 3-1l1-1 24-12 2-1h2l26-9 1-1h2l27-7h1 2l26-4 10-14 14-26 12-27 8-28 5-28 1-27-4-25-5-12-5-6-7-4-12-2h-18l-19 3-19 5-18 6-37 20-34 25-10 8-1 1-2 3c-5 10-15 16-26 16-16 0-29-13-29-30 0-5 1-10 3-14l4-6c1-2 2-3 3-5l1-1 5-6 1-1c1 0 1-1 2-2l12-9 1-1 37-27h1c0-1 1-1 2-2l41-21 2-2h1l22-8 1-1h2l22-6h1l2-1 22-3h2 2 23z" /><path stroke-width="0" fill="#000000" d="M1851 290c17 0 30 13 30 29 0 14-9 25-21 29h-1l-15 4h-1l-2 1h-2l-17 3h-1l-27 3h-1-1l-27 2h-2-56l-1-1-55-2h-54l-170 4-85 4-83 7-41 5-40 7-74 14 12 4 41 13 40 13h1 1l116 43 2 1 113 50h1l1 1h1l109 57h1l1 1 106 64v1h1l10 7h1l2 1 10 9h1c1 1 2 3 4 4l4 5 1 2c1 1 1 2 2 3l1 2 2 5c1 3 2 6 3 9v2 6 1c0 3-1 6-1 8l-1 3-3 6c-1 2-2 4-3 5l-1 2-13 17-1 1c0 0-1 1-2 2l-17 16-1 1h-1l-17 15h-1l-16 14-72 61-34 32-34 33-100 102-101 102-34 37-32 39-63 81-62 83-32 41h-1v1l-19 22 7 1 49 5 51 1 51-2 104-7 105-9 172-10 172-12 81-6h2l80-2h1 1l32 1v1h2c15 1 26 14 26 29 0 16-13 29-29 29h-1l-31-1-79 2-81 6-172 12h-1l-171 10-104 9v-1 1l-105 7h-2l-52 2h-1-1l-52-1h-2l-52-5-3-1-51-9h-1l-1-1v1l-4-1-1-1h-1-1v-1h-3c-1-1-1-1-2-2l-2-1h-1v-1c-8-5-13-14-13-24 0-6 1-12 5-17v-1l9-11 1-1 1-1 9-10 33-39 32-39 61-82 1-1 62-82h1v-1l33-39 1-1 35-38 1-1 101-102 100-102 35-34v-1l35-33h1l72-63v1l1-1 17-14 17-14 15-13 3-4-9-5-105-64-108-56-112-50-115-42-40-13-41-13h-1l-41-15-1-1h-2l-37-19h-2l-1-2-3-1-3-3h-1l-3-2-2-1-1-2-1-1h-1c-5-6-8-13-8-21 0-12 7-23 18-27l2-1 34-12h1l3-1 36-8h1l81-15h1l42-7h1v-1l42-5h1l85-7h1l85-4h1l171-4h1 55 1l55 3h54l26-2 26-3 15-2 13-4h1l2-1c2 0 4 0 6 0z" /><path stroke-width="0" fill="#000000" d="M2701 589c16 0 29 13 29 30 0 2 0 4 0 6l-1 2v1l-5 45-2 46-1 93v1l-5 156v9l5-8v-1l1-1 16-22 1-1 2-1h-1l19-20 1-1c0 0 1-1 2-1v-1l21-17 2-2 2-1 15-9h1c2-1 4-2 6-3l16-5c3 0 6-1 9-1h1l17 1h2c2 0 4 1 6 1l1 1 9 3h1c1 1 1 1 2 2l2 1 9 5c1 1 1 1 2 2l2 2 11 11h1c0 1 1 1 2 2v1l10 13 1 1c1 1 1 2 2 3l16 31v2l1 2 12 32v1 1l9 32v1l8 35v1l8 35 8 32 11 30 7 11 9 8 4 4 2 1c6 5 10 13 10 22 0 17-13 30-29 30-6 0-12-2-17-5v-1l-7-4-1-1c-1-1-2-1-2-2l-13-13-2-2c-1-1-1-2-2-2v-2 1l-10-17-1-1c-1-1-1-2-1-3h-1l-13-34v-2l-1-1-9-35v-2l-7-35-8-34-8-30-11-30-13-26-7-10-8-7-3-2h-1l-7-1-9 3-10 6-18 15-16 17-15 19-12 20-22 47-18 49v1l-3 7-2 7v1c-4 12-15 21-28 21-15 0-28-12-29-27l-1-3v-78-1l2-78 5-157 1-93v-1l2-47v-2l5-46v-3h1v-1c0-1 0-1 0-2l1-3v-3h1c3-12 15-21 28-21z" /><path stroke-width="0" fill="#000000" d="M3224 690c17 0 30 13 30 30 0 4-1 8-3 11v1l-2 4-1 2c0 1-1 2-1 2l-2 3-11 24-10 28-8 28-5 29-4 30-1 30v30l2 28 7 40 5 18 7 16 9 15 11 12 12 11 15 9 13 5 14 5 12 3h2c12 4 20 15 20 28 0 17-13 30-29 30-2 0-4 0-6-1h-1l-13-3-1-1-17-5-2-1-16-6h-1c0-1-1-1-2-2h-1l-19-11-2-1c-1-1-1-1-2-2h-1l-16-15-2-1c0-1-1-1-1-2h-1l-13-16-2-3v-1l-11-18-1-1-1-3-8-19-1-1c0 0 0-1-1-2l-6-21c0-1 0-2-1-3v-1l-7-43-1-2v-1l-2-31v-2-31-2l1-32v-1l1-1 3-32 1-2 6-31v-2l8-31 1-1v-1l11-30v-1l1-1 12-28 1-2c1-1 1-1 2-2l2-3 1-2v-1c5-10 15-16 26-16z" /><path stroke-width="0" fill="#000000" d="M3546 770c17 0 30 13 30 29 0 8-3 16-9 21v1l-23 37-18 40-17 44-17 43v1l-27 65v1l-1 1-31 64-1 1-4 7-1 2c-5 8-14 13-25 13-16 0-29-13-29-29 0-6 1-10 3-14l1-1 3-6 31-62 27-65 16-42 17-45 1-1 19-43 1-2 1-1 23-39 1-1 2-4c2-2 3-3 4-4l1-1 3-3 1-1c5-4 11-6 18-6z" /><path stroke-width="0" fill="#000000" d="M3365 817c6 0 12 2 17 5l1 1 10 8h1c1 1 1 2 2 2l9 9 43 44h-1l2 2 39 49 1 1 36 51v1h1l33 52v1l12 20h1l11 20h1l7 14c3 4 4 9 4 14 0 17-13 30-29 30-11 0-20-5-25-13l-1-2v-1l-8-13-11-19-12-19-33-51-34-50-38-47-41-43-8-7-8-6v-1c-7-5-11-13-11-22 0-17 13-30 29-30z" /><path stroke-width="0" fill="#000000" d="M3681 604c3 0 6 1 9 2l6 2 2 1c1 0 2 1 3 1l5 3 2 1 5 3 2 2 23 19c1 0 2 1 3 2l1 1 20 23 1 1 1 2 18 25 1 2 16 26v1l1 1 14 30v1l1 1 11 31v1 1l8 31v1 2l5 31v1 2l1 31v2 1l-1 31v2 1l-3 31v1 1l-5 32-1 2-12 55v-1l-1 2-15 53v1l-4 12-3 11-1 2c-5 11-15 19-27 19-17 0-30-14-30-30 0-3 1-6 2-9l3-11 4-12 15-51 12-53 4-30 3-30 1-30-1-29-4-29-7-27-9-28-13-26-14-24-16-23-18-20-20-16-2-2h-1c-16 0-30-13-30-30 0-15 12-27 27-29h5l3-1z" /><path stroke-width="0" fill="#000000" d="M4450 854c17 0 30 14 30 30 0 15-12 28-27 29h-1l-6 1-64 5-64 7h-1-1l-37 1h-1l-37 1-37 1-36 2-3 1v-1l-1 1h-1-2-3c-1-1-2-1-3-1-1 0-2 0-3-1-2 0-5-2-7-3-1-1-2-1-3-2-3-3-6-7-8-11 0-1-1-2-1-3-1-3-1-6-1-9 0-2 0-4 0-6 0-1 1-2 1-3 1-1 1-3 2-5 1-1 1-2 2-2 0-1 1-2 1-3 1 0 2-1 2-2 1 0 2-1 2-2 1 0 2-1 3-1 0-1 1-1 2-2 1 0 2-1 3-1 1 0 1-1 2-1 1 0 2-1 3-1 1 0 2 0 3 0h1 1l3-1h1l37-2h1l37-1h37l36-2 65-7 65-5h1l6-1v1l1-1z" /><path stroke-width="0" fill="#000000" d="M4768 696c13 0 25 9 28 21l1 2v1 1c1 1 1 2 1 3v2 2 1 3l3 28 7 29 11 26 6 9 7 7 2 1h1l4-2 6-3 7-6 14-13 26-31 25-32 1-1c0 0 1-1 2-2l3-3 2-2c3-2 5-3 8-4v-1l3-1c3-1 7-2 11-2 5 0 10 1 14 4l5 2c5 3 9 7 12 12v1l4 7 1 2 1 2 2 8 1 1v1l14 51v1 2l9 53v1 1l5 53v2l3 53v1l1 44v1l-1 44v2l-2 45-1 1-5 45v2l-8 44v1l-1 2-11 43h-1v1 2l-16 41-1 1-1 2v1l-20 38v1c-1 0-1 1-2 2l-13 19v1c0 0-1 1-1 2l-16 18v1l-2 2-18 17-2 1-1 1-19 15h-1c-1 1-2 1-3 2l-21 11-2 1c-1 1-2 1-3 1l-22 7h-1l-2 1c-1 0-2 0-3 0h-1l-24 2h-2c-1 0-2 0-3 0l-2-1h-1l-23-4h-1c-2-1-4-1-5-2l-2-1-20-10h-1c-1-1-3-2-4-3l-2-2-15-14c-2-2-3-3-4-5l-1-1-11-18v-1c-1-1-1-2-2-3v-1l-7-21h-1c0-1 0-2 0-3v-1l-4-22v-2l-1-2v-22-1-2l1-22v-1-2l4-20v-1-2l1-1 8-30c1-1 1-2 1-3l13-29 1-3h1l16-28 1-2v-1l19-26 1-1 1-1 21-25 1-1 23-23 1-1 24-21 1-1h1l24-19 1-1h1l28-20 1-1c4-3 10-5 16-5 17 0 30 14 30 30 0 9-4 17-11 23l-2 1-28 20-24 18-22 19-21 22-20 23-17 24-15 25-11 25-7 27-3 17-1 19v19l3 17 5 15 8 12 8 8 12 6 17 3 16-1 17-5 17-8 16-12 15-14 13-17 12-17 18-36 15-38 11-40 8-43 5-43 2-43 1-44-1-43-2-52-5-52-9-50-5-20-1 1v1l-28 31-1 2-16 15-2 2-9 7-2 2h-1l-9 7v-1l-2 2c-1 0-2 0-2 1h-1l-9 4h-1l-2 1c-1 0-2 0-3 1h-2l-10 1h-1c-1 1-2 1-3 1-2 0-4-1-6-1l-10-2-3-1c-2 0-4-1-5-2l-2-1-10-7h-1c-1-1-3-2-4-4h-1l-11-12-1-1c0-1-1-2-2-2l-8-14h-1l-1-2c0-1-1-2-1-3l-13-30v-1c-1 0-1-1-1-2l-1-2-7-33-1-1v-2l-4-32v-3-4-1c0-1 0-2 0-3 0-16 13-30 29-30z" /><path stroke-width="0" fill="#000000" d="M5564 158c1 0 2 0 3 1h1l16 2h2c4 1 7 3 10 5l2 1 12 10h1c3 2 4 4 6 7l1 1 5 8v1c1 1 1 1 1 2l1 3 3 9 1 1c0 1 0 2 0 2l1 3 2 19c0 1 0 2 0 3v3l-2 18c0 1 0 2-1 3v2l-5 19v1c-1 1-1 1-1 2v1l-8 17c0 1-1 2-1 3l-1 1-4 8 18-1h1l35-1h20 3c14 2 26 14 26 30 0 16-13 29-29 29h-1-19-33l-34 3-31 5-18 6-1 1-7 3v1c-2 1-4 2-6 2l-6 2-3 1c-2 0-4 0-6 0-7 0-13-2-19-6v-1h-1l-1-2c-6-5-9-12-9-21 0-8 3-15 9-20l2-2 1-2h1c0 0 1-1 2-2l2-1 5-3c1 0 2-1 3-1l2-1h1l3-1 3-3 11-10 10-13 10-14 8-14 7-15 3-14 2-13-2-12-1-4-2-2h-3l-9 2-9 5-9 8-7 10-1 2v5l-1 2c-3 14-14 24-29 24-16 0-29-14-29-30 0-1 0-2 0-3v-1l1-8 1-3c0 0 0-1 0-2l1-2 3-8v-2c1-1 2-3 3-5h1-1l11-15 2-2c0-1 1-2 2-2l1-2 15-12v-1c1 0 2-1 3-2l2-1 15-8v-1c2 0 4-1 5-2h2l18-5h2c2 0 3-1 6-1z" /><path stroke-width="0" fill="#000000" d="M2371 542c7 0 13 7 13 14 0 1 0 2 0 3v1l-1 2v1l-3 14-1 14 2 30 3 31v1l3 31v1 36 1l-2 36v1l-4 72-5 68-4 68-4 92-8 92-1 29-1 28h-1 1l-2 29v1l-2 28v1l-2 14v1c-1 6-7 11-13 11-8 0-14-6-14-14v-1-1l2-13 2-28 1-29 1-29 2-29 8-92 4-91 4-68v-1l5-68 4-72 1-36v-35l-2-31-4-31h1l-1-1-1-32v-1-1l1-15v-2h1l2-15 1-2v-2l1-1v-1c2-5 7-9 13-9z" /><path stroke-width="0" fill="#000000" d="M2474 543c8 0 14 6 14 14 0 2 0 4-1 5v1l-1 2-5 12-3 13-4 27-3 32-2 32-2 68-2 34h-1 1l-4 34v1l-8 48-5 49-5 62v1l-6 63-4 52v52l2 106v47 1 3c-2 6-7 11-14 11-7 0-13-6-13-14v-1-47l-2-105v-1-53l4-53v-1l6-63 4-63 6-49v-1l8-48 3-33 2-34 3-68 1-32v-1l4-32 4-29v-1l4-15v-1l5-14h1v-1l1-2 1-2c3-3 7-6 11-6z" /><path stroke-width="0" fill="#000000" d="M5166 429c8 0 14 6 14 14v1 2 1l-2 46v23l2 22 10 52 5 26v1l4 27v1l4 85v1h1v85 100l-2 100-2 32-1 32-2 45v1l-2 45-1 16 1 14v1 1c0 1 1 2 1 3 0 8-7 14-14 14-6 0-11-4-13-8v-1-1l-1-1v-2-1-1h-1l-1-17v-1-1l1-17 3-45 2-45 1-32 1-32 2-99 1-100-1-85-4-84-4-26-5-26-10-53v-1l-2-24v-1-23-1l2-46v-2-1c0-6 3-11 8-13h2v-1 1l1-1c0 0 1 0 2 0z" /><path stroke-width="0" fill="#000000" d="M5256 401c4 0 9 2 11 6l3 5 1 2 1 1 2 6v1 2l1 12v1l2 28v1 29l-1 57 2 44 5 44 8 47h-1 1l5 48v1-1l8 158 3 90 2 45 4 44 4 49 4 49v3 1c0 8-6 14-13 14-7 0-13-5-14-11v-1-3-1l-4-48-4-49-4-45v-1l-2-45-3-90-8-157-6-46-7-47v-1l-6-44h1l-1-1-2-45h1l-1-1 1-58v-28l-1-28-1-10-1-3-2-4-1-1c-1-2-1-4-1-6 0-7 6-13 14-13z" /></g></g></svg>