<?xml version="1.0" encoding="utf-8"?>
<!-- Created with Majerus.net InkPaint (http://www.majerus.net/InkPaint/) -->
<!DOCTYPE svg PUBLIC "-//W3C//DTD SVG 1.1//EN" "http://www.w3.org/Graphics/SVG/1.1/DTD/svg11.dtd">
<svg xmlns="http://www.w3.org/2000/svg" version="1.1" width="332.6mm" height="116.05mm" viewBox="0 0 6652 2321" preserveAspectRatio="xMidYMid meet"><!-- Generator: Majerus.net InkPaint UWP 1.1.14.0 --><g fill="none" stroke-linecap="round" stroke-linejoin="round"><g stroke="#000000"><path stroke-width="0" fill="#000000" d="M1089 1897c17 0 30 14 30 30 0 11-6 21-16 26l-1 1-2 1-2 3-14 19-13 21-10 23-9 22-3 12-1 10 1 22 6 20 11 20 15 19 18 17 20 15 22 12 29 14 11 4c11 5 18 15 18 27 0 17-13 30-29 30-4 0-8-1-12-2l-11-5h-1l-31-15h-1l-1-1-24-14-2-1-1-1-24-17-1-1-1-1-21-20-1-1c-1 0-1-1-2-2l-18-23-1-2c-1 0-1-1-2-2l-13-25c-1-1-2-3-2-5l-8-26v-1l-1-2c0-1 0-2 0-3v-2l-2-28v-1c0-1 0-2 0-3v-1l2-15 1-2v-2l4-14v-2l1-1 9-25v-1l1-1 12-25v-2l1-1 14-23 1-2 1-1 15-21 1-1 3-3v-1l4-4 2-2 1-1 4-4v1l1-1c2-2 4-4 7-5h1l4-2h2c2-1 5-2 8-2z" /><path stroke-width="0" fill="#000000" d="M1418 1957h3 1c15 2 27 14 27 29 0 15-10 27-24 29l-9 7-11 12-12 15-11 15-19 25-17 26-1 1-18 26-1 1-1 1-20 24-2 2-2 1v1l-11 9h-1c0 1-1 1-2 2l-1 1-2 1h-1c-4 3-9 4-14 4-17 0-30-13-30-29 0-11 5-20 13-25l2-1 7-6 19-22 17-24 18-27 19-26v-1l12-15v-1l14-16 1-2 15-15v-1c1 0 2-1 2-2l2-1 16-11c2-1 3-2 5-3h1l1-1h1l1-1h2 1l1-1h2l2-1c1 0 3 0 5 0z" /><path stroke-width="0" fill="#000000" d="M1227 1961c3 0 6 0 8 1l2 1 6 2h1c1 1 2 1 3 2h1l6 4 38 22 1 1c1 1 2 1 2 2l33 27 2 2 2 2 28 32v1c1 0 1 1 2 2l1 1 23 37 1 2v1l9 18h1l8 19h1v1l5 12v1c2 3 3 7 3 11 0 17-14 30-30 30-11 0-21-6-26-16l-1-2-6-13-8-17-8-17-21-34-25-29-30-24-35-21-4-3-4-1-1-1c-10-4-18-15-18-27 0-16 13-29 30-29z" /><path stroke-width="0" fill="#000000" d="M1589 2103c16 0 29 14 29 30 0 2 0 4-1 6v1l-1 3v2 1l-1 2-4 20-1 22-1 8v2c-1 15-14 27-29 27-16 0-30-14-30-30l1-8v-2l2-25v-3l4-24c1-1 1-2 1-3l1-1h-1l1-3 1-2v-2c4-12 15-21 29-21z" /><path stroke-width="0" fill="#000000" d="M1748 1984l3 1c8 0 15 4 20 10l1 2 1 1 2 3 35 48 39 44 17 16 18 12 5 2 1 1c9 5 15 15 15 26 0 16-13 29-29 29-4 0-8 0-12-2l-1-1-6-3h-1c-1-1-2-1-3-2l-22-15c-1 0-2-1-2-1l-2-2-20-18v-1l-2-1-40-46-1-1-1-1-36-49-1-1-1-3-1-1-1-1c-3-4-5-10-5-16 0-16 14-30 30-30z" /><path stroke-width="0" fill="#000000" d="M1929 1961c16 0 29 13 29 29 0 4 0 8-2 12l-1 2-11 20-7 22-5 23-4 24-8 46-6 46-4 47-2 46v12 3c-2 15-14 26-30 26-16 0-29-13-29-29v-13-1l2-47v-2l4-47v-1-1l6-47v-1l8-47 1-1 4-24v-1l6-26 1-2v-1l8-24 1-3 1-2 12-22v-1c5-9 15-15 26-15z" /><path stroke-width="0" fill="#000000" d="M2015 1848c8 0 15 3 20 9l11 10 2 2c0 1 1 2 1 2l1 1 8 12 1 2 16 28 1 3 13 29 1 3 10 30v3h1l6 31 1 2 4 31v1 2l2 31v2 32 2l-2 32v1l-3 34v1c-2 14-14 26-29 26-17 0-30-13-30-29v-3l4-34 1-31v-30l-2-30-4-29-6-28-9-28-11-26-15-26-6-9-8-9-2-2c-4-5-7-11-7-19 0-16 13-29 30-29z" /><path stroke-width="0" fill="#000000" d="M490 324c16 0 28 11 30 26v1l1 8v3 2l-1 9-2 40v2l-4 40v1l-13 81v1l-16 80-14 79-5 36-4 35-2 13v3c-3 13-15 23-29 23-16 0-30-13-30-29 0-1 0-2 0-3l2-14 4-36 1-1 5-36v-1l14-80 16-80 12-79 4-38 2-40v-1l1-7-1-6v-3c0-16 13-29 29-29z" /><path stroke-width="0" fill="#000000" d="M705 988c17 0 30 13 30 30 0 15-12 27-27 29h-1l-19 1h-1l-45 2h-1-46l-88 1-88 3-87 6-85 10-22 3-2 1-22 2c-1 0-2 0-3 0-16 0-30-13-30-29 0-15 11-26 24-29l3-1 21-2 22-4h2l86-9h1v-1l89-6h1l88-3h1l89-1h45l45-2 18-1h2z" /><path stroke-width="0" fill="#000000" d="M374 1214c1 0 2 0 3 0h3l20 4h1c2 1 5 2 8 3l16 10 2 1c2 1 5 3 6 5l1 1 11 14 2 2c1 2 2 3 2 5l1 1 7 19 1 2c0 1 0 2 1 3v2l4 30v2c1 1 1 2 1 3l-1 32v2l-1 2-5 32v1l-1 2v1l-9 30c-1 1-1 2-1 3h-1l-12 30c-1 1-1 2-2 3l-7 14 22 2h2l30 6h1c13 3 23 15 23 29 0 16-13 30-29 30-1 0-2-1-3-1h-2l-30-5-24-3-25-1h-3l-10 12c-1 1-2 2-2 2v1l-27 25-2 2-15 12-2 1-1 1-16 10-1 1-2 1-17 8h-1c-1 0-2 1-3 1l-17 5h-1l-2 1h-3l-18 2c-1 0-2 0-3 0-1 0-2 0-3 0l-18-2h-3c-1 0-2-1-3-1h-1l-8-3-1-1c-3-1-5-2-8-4l-2-2-4-4c-4-4-6-9-8-15v-1l-1-4v-2c0-1 0-2 0-3 0-3 0-6 1-9l2-5v-1l1-2c1-2 2-3 3-5l1-1 8-11v-1c1 0 2-1 2-2l2-1h-1l10-9h1l2-2h1l22-15v-1c1 0 2-1 3-1l1-1 24-12 2-1h2l26-9 1-1h2l27-7h1 2l26-4 10-14 14-26 12-27 8-28 5-28 1-27-4-25-5-12-5-6-7-4-12-2h-18l-19 3-19 5-18 6-37 20-34 25-10 8-1 1-2 3c-5 10-15 16-26 16-16 0-29-13-29-30 0-5 1-10 3-14l4-6c1-2 2-3 3-5l1-1 5-6 1-1c1 0 1-1 2-2l12-9 1-1 37-27h1c0-1 1-1 2-2l41-21 2-2h1l22-8 1-1h2l22-6h1l2-1 22-3h2 2 23z" /><path stroke-width="0" fill="#000000" d="M1851 290c17 0 30 13 30 29 0 14-9 25-21 29h-1l-15 4h-1l-2 1h-2l-17 3h-1l-27 3h-1-1l-27 2h-2-56l-1-1-55-2h-54l-170 4-85 4-83 7-41 5-40 7-74 14 12 4 41 13 40 13h1 1l116 43 2 1 113 50h1l1 1h1l109 57h1l1 1 106 64v1h1l10 7h1l2 1 10 9h1c1 1 2 3 4 4l4 5 1 2c1 1 1 2 2 3l1 2 2 5c1 3 2 6 3 9v2 6 1c0 3-1 6-1 8l-1 3-3 6c-1 2-2 4-3 5l-1 2-13 17-1 1c0 0-1 1-2 2l-17 16-1 1h-1l-17 15h-1l-16 14-72 61-34 32-34 33-100 102-101 102-34 37-32 39-63 81-62 83-32 41h-1v1l-19 22 7 1 49 5 51 1 51-2 104-7 105-9 172-10 172-12 81-6h2l80-2h1 1l32 1v1h2c15 1 26 14 26 29 0 16-13 29-29 29h-1l-31-1-79 2-81 6-172 12h-1l-171 10-104 9v-1 1l-105 7h-2l-52 2h-1-1l-52-1h-2l-52-5-3-1-51-9h-1l-1-1v1l-4-1-1-1h-1-1v-1h-3c-1-1-1-1-2-2l-2-1h-1v-1c-8-5-13-14-13-24 0-6 1-12 5-17v-1l9-11 1-1 1-1 9-10 33-39 32-39 61-82 1-1 62-82h1v-1l33-39 1-1 35-38 1-1 101-102 100-102 35-34v-1l35-33h1l72-63v1l1-1 17-14 17-14 15-13 3-4-9-5-105-64-108-56-112-50-115-42-40-13-41-13h-1l-41-15-1-1h-2l-37-19h-2l-1-2-3-1-3-3h-1l-3-2-2-1-1-2-1-1h-1c-5-6-8-13-8-21 0-12 7-23 18-27l2-1 34-12h1l3-1 36-8h1l81-15h1l42-7h1v-1l42-5h1l85-7h1l85-4h1l171-4h1 55 1l55 3h54l26-2 26-3 15-2 13-4h1l2-1c2 0 4 0 6 0z" /><path stroke-width="0" fill="#000000" d="M5389 901c16 0 29 14 29 30 0 15-12 28-26 29h-2l-6 1-63 5-65 6v1h-2l-37 1h-1l-37 1-37 1-36 2h-3v1h-1-3-3c-2-1-3-1-5-2-3-1-6-2-8-3-6-4-10-10-12-16-1-3-1-6-1-9 0-1 0-2 0-3 0-1 0-2 1-3 0-1 0-2 0-3 1-1 2-3 3-5 1-3 4-6 7-9 0 0 1-1 2-1 1-1 2-1 2-2 2-1 4-1 6-2 2-1 3-1 5-1h1 1l4-1 37-2h1l38-1 37-1 36-1 64-7 65-5h1l6-1h2z" /><path stroke-width="0" fill="#000000" d="M5706 743c14 0 25 9 29 21v2 1l1 1c0 1 0 2 0 3v2 2 1 3l4 28 6 29 11 26 6 9 7 7 2 1h2l4-2 5-3 7-6 14-13 26-31 26-32v-1c1 0 1-1 2-2l4-3 2-2c2-2 4-3 7-4v-1l3-1c3-1 7-2 11-2 6 0 10 1 15 3v1l4 2c5 3 10 7 12 12l1 1 3 7 1 2 1 1 3 9v1 1l14 51v1l1 2 8 53 1 1v1l5 53v2l2 53v1l1 44v1 44l-1 2h1l-3 45v1l-5 45-1 2v1l-8 43v1 2l-12 43v1l-1 2-16 41v1l-1 2-21 39v1c0 0-1 1-1 2l-13 19v1c-1 0-2 1-2 2l-16 18v1l-2 2-18 17-1 1-2 1-19 15h-1c-1 1-2 1-2 2h-1l-21 11-2 1c-1 0-2 1-3 1l-22 7h-1-2c-1 1-2 1-3 1h-1l-24 2h-1c-1 0-2 0-3-1h-3l-24-4h-1c-1-1-3-1-5-2l-2-1-19-10h-1c-2-1-4-2-5-3l-2-2-15-14c-2-2-3-3-4-5l-1-1-10-18-1-1c0-1-1-2-1-3l-1-1-7-21v-1c-1 0-1-1-1-2v-1l-4-22v-2-2l-1-22v-1-2l1-22v-1l1-2 3-20v-1l1-2v-1l8-30h1c0-1 0-2 1-3l12-29 1-3h1l16-28 1-2v-1l19-26 1-2h1l21-25 1-1 23-23 2-1 24-21v-1h1l24-19 2-1 29-20v-1c5-3 10-5 17-5 16 0 29 14 29 30 0 9-4 17-11 23l-2 1-28 20-23 18-23 19-21 22-20 22-17 25-14 25-11 25-8 27-3 17-1 19 1 19 3 17 5 15 7 12 9 8 12 6 16 3 17-1 16-5 17-8 16-12 15-14 13-17 12-17 19-36 14-38 11-41 8-42 5-43 3-43v-44l-1-43-2-52-5-52-8-50-6-20v1h-1v1l-27 31-2 2-16 15-2 2-8 7h-1l-2 2-10 6-2 2c0 0-1 0-2 1l-10 4-3 1c-1 0-2 0-3 1h-2l-10 1h-1c-1 1-2 1-3 1-2 0-4-1-6-1l-10-2-3-1c-1 0-3-1-5-2l-2-1-10-7c-2-1-4-2-5-4l-11-12-2-1c0-1-1-2-1-2v-1l-9-13-2-2c0-1-1-2-1-3l-13-30v-1c0 0-1-1-1-2l-1-2-7-33v-1l-1-3-3-31-1-3v-4-1c0-1 0-2 0-3 0-17 13-30 29-30z" /><path stroke-width="0" fill="#000000" d="M6502 205c1 0 2 0 3 1h1l16 2h2c4 1 7 3 11 5l1 1 13 10h1c2 2 4 4 5 7l1 1 5 8v1c1 1 1 1 2 2l1 3 3 9v1c0 1 0 1 1 2v3l2 19c0 1 0 2 0 3v3l-2 18c0 1 0 2 0 3l-1 2-5 19v1c0 1-1 1-1 2l-8 18c0 1-1 2-1 3l-5 9 18-1 2-1h34 1 19 3c15 2 26 14 26 30 0 16-13 29-29 29h-19-34l-33 3-32 5-17 6h-1l-1 1-6 3-1 1c-2 1-4 2-5 2h-1l-6 2-3 1c-2 0-4 0-6 0-7 0-13-2-18-6l-1-1-2-2c-5-5-9-13-9-21 0-8 4-15 9-21l2-1 2-2c1 0 1-1 2-2l2-1 5-3h1c1 0 1-1 2-1l3-1 3-1 3-3 11-10 11-13 9-14 9-14 6-15 4-14 1-13-1-12-2-4-2-2h-3l-8 2-10 5-9 8-7 10v2l-1 5-1 2c-2 13-14 24-28 24-17 0-30-14-30-30 0-1 0-2 0-3v-1l1-8h1v-3c0-1 0-1 1-2v-2l3-8 1-2c0-1 1-3 2-5h1l11-16 1-1c1-1 1-2 2-2l2-2 14-12 1-1c0 0 1-1 2-2l2-1 15-8v-1c2 0 4-1 6-2h2-1l19-5h1c2 0 4-1 6-1z" /><path stroke-width="0" fill="#000000" d="M2371 542c7 0 13 7 13 14 0 1 0 2 0 3v1l-1 2v1l-3 14-1 14 2 30 3 31v1l3 31v1 36 1l-2 36v1l-4 72-5 68-4 68-4 92-8 92-1 29-1 28h-1 1l-2 29v1l-2 28v1l-2 14v1c-1 6-7 11-13 11-8 0-14-6-14-14v-1-1l2-13 2-28 1-29 1-29 2-29 8-92 4-91 4-68v-1l5-68 4-72 1-36v-35l-2-31-4-31h1l-1-1-1-32v-1-1l1-15v-2h1l2-15 1-2v-2l1-1v-1c2-5 7-9 13-9z" /><path stroke-width="0" fill="#000000" d="M2474 543c8 0 14 6 14 14 0 2 0 4-1 5v1l-1 2-5 12-3 13-4 27-3 32-2 32-2 68-2 34h-1 1l-4 34v1l-8 48-5 49-5 62v1l-6 63-4 52v52l2 106v47 1 3c-2 6-7 11-14 11-7 0-13-6-13-14v-1-47l-2-105v-1-53l4-53v-1l6-63 4-63 6-49v-1l8-48 3-33 2-34 3-68 1-32v-1l4-32 4-29v-1l4-15v-1l5-14h1v-1l1-2 1-2c3-3 7-6 11-6z" /><path stroke-width="0" fill="#000000" d="M6105 476c7 0 13 6 13 14v1 2l-1 47-1 23 2 22 10 52 5 26v1l4 27v1l5 85v1 85 100l-2 100-2 32-1 32-1 45h-1v1h1l-3 45-1 16 1 14v1l1 1c0 1 0 2 0 3 0 8-6 14-14 14-6 0-10-4-12-8l-1-1v-1-2h-1v-1-1-2l-1-16v-1-1l1-17 2-45 2-45 1-32 2-32 2-99v-100l-1-85-4-84-4-26-5-26-10-53v-1l-2-24v-1-23-1l2-46v-2-1c0-7 5-12 11-14h1 2z" /><path stroke-width="0" fill="#000000" d="M6194 447c5 0 9 3 11 6v1l4 5 1 2v1l2 6v1 2l2 12v1l1 28v1 29l-1 57 2 44 5 44 8 47 5 48 9 158 3 90 2 45 3 44 4 49 4 49v3l1 1c0 8-7 14-14 14-7 0-12-5-14-11v-1-3-1l-4-48-4-49-4-45v-1l-2-45-3-90-8-157-5-46-8-47v-1l-5-44v-1l-2-45v-1l1-58v-28l-2-28-1-10-1-3-2-4-1-2c0-1-1-3-1-5 0-7 6-14 14-14z" /><path stroke-width="0" fill="#000000" d="M2710 838c16 0 29 12 31 27v3 51l1 50 3 50 6 43 12-12 12-20 10-21 8-24v-1l8-25c0-2 1-4 2-6l1-1 2-3 1-1c2-4 6-8 10-10l2-1 3-1c4-2 8-3 12-3 5 0 9 1 12 3l5 2c4 1 7 4 10 6l5 5 2 2v1l4 4 1 2 20 28v1c0 0 1 1 1 2h1l15 30h1v2l28 59 9 14 10 9 3 2 4 1h3l4-1 4-2 4-3 10-13 9-18 6-19 8-32 4-32 2-35v-35-2-1l2-14 1-3c0-2 1-4 1-6h1l5-13 1-3c1 0 1-1 2-2v-1l3-3 1-2c6-6 14-11 24-11 17 0 31 14 31 31 0 6-2 12-6 17v1h-1l-2 6-1 9-1 34v1l-1 36-1 1v1l-4 36v2l-1 1-8 35-1 2v1l-8 22v2l-1 1-11 22v2c-1 1-1 1-2 2l-1 2-15 19v1c-2 1-3 3-5 4l-9 8-2 1c-1 0-2 1-3 1l-1 1-11 5-1 1c-2 1-4 1-6 2l-11 2c-2 0-4 0-6 0h-2-10-2c-1 0-2 0-3-1h-3l-10-3c-1-1-2-1-3-1l-3-1v-1l-9-4v-1c-2-1-4-2-5-3l-1-1-16-14-2-1c-1-2-2-3-3-5h-1l-11-19-2-2-1-1-28-61-12-22-1 3v1l-1 2-1 1-11 24-1 2v1l-15 24-1 1c0 1-1 2-1 3l-1 1-19 20-1 1c-1 1-1 2-2 2l-2 2-10 8h-1c-1 1-2 1-3 2h-1l-12 6-2 1c-1 1-3 1-5 2h-1l-6 1h-3c-1 0-2 0-3 0-2 0-4 0-6 0h-1l-4-1h-1l-2-1c-5-2-10-4-13-8h-1l-7-8-1-1c-2-3-4-5-5-8v-2l-4-11-1-1c0-1 0-2 0-3v-1l-3-11v-2l-7-50v-1-1l-3-51v-2l-1-51h-1v-1-51c0-17 14-30 31-30z" /><path stroke-width="0" fill="#000000" d="M3322 643c15 0 29 12 30 27v1 1 2 2 2 1 2 2 1l-3 28v1l-1 2-5 28v1l-11 56-6 33-5 34-1 6v2c-3 14-15 25-30 25-17 0-31-14-31-31 0-1 0-2 0-3v-1l1-6v-1l5-34v-1l6-34v-1l11-56 5-27 4-27v-1-2-1-1c0-17 14-30 31-30z" /><path stroke-width="0" fill="#000000" d="M3444 629h1l11 1h3c15 2 27 15 27 31 0 17-14 30-31 30h-1-11-29l-30 1-88 5-43 4-40 6-5 2-3 1-7 1h-3c-1 0-2 1-3 1-17 0-31-14-31-31 0-15 11-28 25-31l5-1 5-1h1l2-1h2l43-7h2l44-4h1l1-1 89-4 31-1 1-1h31z" /><path stroke-width="0" fill="#000000" d="M3708 790c18 0 31 14 31 31 0 4-1 8-2 12l-1 2-1 2c0 1-1 2-1 2v1l-10 19-1 1-12 20h-1v1l-25 37-1 1-43 57v1l-45 57-44 55-40 58-6 9-5 10-2 3v1c-5 10-16 16-27 16-17 0-31-14-31-31 0-4 1-8 2-12l1-1 2-4v-1l6-10v-1l1-1 7-11v-1h1l40-59h1l1-2 44-57 45-56 42-56 25-37 11-18 9-16v-1l1-3h1v-1-1c6-9 16-16 27-16z" /><path stroke-width="0" fill="#000000" d="M3475 848c8 0 15 2 20 7l2 1c1 0 2 1 3 1l27 18v1l2 1 25 21 2 2 23 23c1 0 2 1 2 2l22 26 1 2h1l20 32 1 2 1 1 16 33v1l1 2 12 34 1 1v2l9 35 1 2 3 15v3c0 1 0 2 0 3 0 17-14 31-31 31-14 0-27-11-30-25l-3-14-8-33-11-32-15-29-18-28-19-24-21-21-23-18-25-17-2-1-2-1-2-2h-1c-2-1-3-2-4-4l-2-2-1-1c-5-5-7-12-7-20 0-17 13-30 30-30z" /><path stroke-width="0" fill="#000000" d="M4129 920h1l27 1h2l1 1 26 3h3v1l5 1h2 1l2 1c13 4 22 16 22 30 0 17-14 31-31 31-3 0-6-1-9-2h-2l-2-1-24-3-25-1-53 1h-82l-79 2-3 1h-2-2-4l-2 1c-17 0-31-14-31-31 0-16 13-29 28-31h2 2l4-1h2 2l81-3h1 82l54-1h1z" /><path stroke-width="0" fill="#000000" d="M4035 772c16 0 29 12 31 27v2l3 44 3 44 1 1 1 66 2 65v12l1 1c0 17-14 31-31 31-16 0-29-12-31-28v-1l-1-12v-1l-1-65-2-65-4-43v-1l-3-45v-1c0-18 14-31 31-31z" /><path stroke-width="0" fill="#000000" d="M4474 666c17 0 31 13 31 30v1l-2 131v1l-3 65v2l-6 65v1l-2 22 1-1 2-1 22-14 2-2 23-11 2-1 2-1 23-8 2-1 2-1h1l24-5c1 0 2 0 3 0l2-1 25-1h2c1 0 2 0 3 0h1l12 2h3c1 0 2 0 3 1l2 1 11 4c3 1 6 3 8 5l2 1 8 8v1c3 2 5 6 7 9l1 2 4 12v1c1 2 1 4 1 6v3l1 11c0 2 0 3-1 4v2 1l-2 10v1c-1 2-1 4-2 6l-9 21-2 3c0 1-1 1-1 2l-1 1h1l-14 19-2 2-1 1-15 17-1 1c0 0-1 1-2 2l-28 22-2 2-2 1-31 18h-1c-1 1-2 1-3 2h-1l-34 12-1 1c-1 0-2 0-3 1h-1l-35 6h-2-2l-13 1h-2c-17 0-30-14-30-31 0-16 12-29 27-31h2 12l30-6 29-10 26-15 24-20 13-13 10-15 7-16 1-4v-3h-6l-20 1-21 4-20 7-19 10-19 13-18 13-33 34-1 2h-1l-3 4-1 1h-1l-2 3-2 1c-5 4-12 7-19 7-2 0-4 0-6-1h-1-1-2c-13-4-22-16-22-30 0-1 0-2 0-3l1-2 9-53 6-54 5-64 3-64 2-131v-3c2-15 15-27 31-27z" /><path stroke-width="0" fill="#000000" d="M2742 571c17 0 31 14 31 31 0 9-5 18-11 24h-1l-1 1-1 1-1 1c-1 1-2 1-2 2l-1 1-39 30-19 14-16 15-25 27-22 29-17 31-6 15-4 16-7 38-3 39-2 40 1 39 3 36 5 35 9 35 11 33 14 32 17 31 20 29 23 27 5 5 1 1c4 5 7 12 7 20 0 17-14 31-31 31-8 0-16-4-22-9v-1l-5-5-1-2-25-29-2-2-21-31v-1l-2-2-18-33-1-3v1l-1-1-15-34v-1l-1-2-12-36-1-2-9-37v-1-2l-6-37-1-2v-1l-3-38h1l-1-2v-41-1l1-42v-2l4-41 1-2 7-41v-1-1l5-20 1-1v-1l8-19v-1c0-1 1-2 1-3l19-35c1 0 1-1 2-2l1-1 24-33v-1l2-1 27-29v-1l2-1 18-17h1l1-1 19-15 37-29 1-1 1-1c1 0 2-1 2-2h1l3-2 2-2c3-2 7-4 11-4l2-1h1c1 0 2 0 3 0z" /><path stroke-width="0" fill="#000000" d="M4744 592c6 0 11 2 15 4l3 2 2 1 2 2 3 2 27 22c2 1 3 3 5 4l21 26c1 2 2 3 3 5l16 30c1 1 1 1 1 2l1 3h1l10 33h1c0 1 0 2 0 3v1l8 45 1 2v1l3 45v2 45 1l1 45 2 63v1 64 2l-2 32v2l-3 31v2l-5 32h-1v1 1l-8 31v2l-1 2v1l-16 40-1 1c0 1 0 1-1 2l-1 2-22 37-1 1-2 2-27 34-2 2-30 31-1 1-9 9-2 1c-5 5-12 7-20 7-17 0-30-13-30-30 0-9 3-17 9-22v-1l9-8 29-30 25-31 20-33 15-37 7-28 5-29 3-30 1-30v-64l-2-63v-1-45l-1-45-3-42-7-41-9-28-14-25-17-21-25-20v-1h-1l-2-1c-8-6-14-15-14-26 0-17 14-31 31-31z" /></g></g></svg>