<?xml version="1.0" encoding="utf-8"?>
<!-- Created with Majerus.net InkPaint (http://www.majerus.net/InkPaint/) -->
<!DOCTYPE svg PUBLIC "-//W3C//DTD SVG 1.1//EN" "http://www.w3.org/Graphics/SVG/1.1/DTD/svg11.dtd">
<svg xmlns="http://www.w3.org/2000/svg" version="1.1" width="309.55mm" height="77.1mm" viewBox="0 0 6191 1542" preserveAspectRatio="xMidYMid meet"><!-- Generator: Majerus.net InkPaint UWP 1.1.14.0 --><g fill="none" stroke-linecap="round" stroke-linejoin="round"><g stroke="#000000"><path stroke-width="0" fill="#000000" d="M195 165c13 0 24 8 29 19v1h1v2l1 2c0 1 1 2 1 3v3l1 3v2 5l12 104v1l6 104v2 105 2l-6 104v2l-8 63v1l-9 63v1l-21 126-21 126-7 62-6 63 18-18 23-26 24-26 27-29h1v-1l30-29 2-1v-1l32-25 2-2h1l17-11 2-1 1-1 18-8h1c2-1 4-2 6-2l16-3c2-1 4-1 6-1 2 0 4 0 6 1h2l13 3 1 1c4 1 8 3 11 5l10 9 2 2c1 1 3 3 4 4v1l8 12 1 2c0 1 1 2 1 3l1 1 5 14 1 2v2l4 15 1 2 3 16v1l2 13v1 1l4 43v1 1l2 44v2l-2 89-1 88 1 43 4 42 4 24 8 21 4 6 4 6 6 3 6 2 9 1h12l12-3 13-4 30-11h2c3-1 6-2 9-2 17 0 31 14 31 32 0 12-8 24-19 28l-1 1-31 11-2 1h-1l-14 4h-1l-2 1-16 3-3 1h-1l-16 1h-2c-2 0-3 0-4 0l-15-2h-1-2c-1-1-2-1-3-1l-2-1-14-5h-1c-2-1-4-2-5-3l-12-8-2-2c-1 0-1-1-2-2l-1-1-9-10-1-1c-1-1-2-1-2-2l-1-1-7-12-1-2c0 0-1-1-1-2l-1-2-10-26v-2c0-1-1-2-1-3v-1l-5-28v-2l-4-45v-1l-2-45h1l-1-1h1-1l2-89 1-88-1-42-4-42-2-13-2-13-4-13-3-10-4-5v-1l-5 1-12 6-14 9-30 23-28 28-26 27-24 26-24 26-1 2-25 25c0 0-1 1-2 2l-27 21-2 2-1 1-7 4h-1c-2 1-4 2-5 3h-1l-5 2h-1-2c-2 1-4 1-7 1-3 0-6-1-9-1l-2-1-4-2h-1c-8-3-14-9-17-17l-3-6c-1-3-2-6-2-9v-2l-2-24v-2-2l2-26 5-64h1v-1l8-63v-1l20-127 21-126 9-62 7-62 7-103v-103l-6-102-12-103v-1-1-5l-1-2c-1-2-1-4-1-7 0-17 14-31 31-31z" /><path stroke-width="0" fill="#000000" d="M961 517c17 0 31 14 31 31 0 7-2 13-5 18l-1 1-27 49-22 52-19 54-17 53-12 44-10 44-6 44-3 44 2 42 8 41 6 19 8 19 9 19 12 17 25 31 30 28 32 26 34 23 19 12h-1 1c9 6 14 15 14 26 0 17-14 31-31 31-5 0-11-1-15-3l-2-1-18-12-1-1-36-24-1-1-35-28-2-1-32-31h-1c0-1-1-2-2-3l-27-33c-1-1-2-2-2-3h-1l-13-21-1-2-11-21-1-3-9-21-1-3-7-22c-1-1-1-2-1-3v-1l-9-44v-1-2-2l-3-46v-2l1-2h-1l3-46v-1l1-2 7-47v-1-1l10-45v-1l1-1 12-45v-1l17-55 1-1 20-55v-2l24-53v-1l1-2 27-51 1-2 1-1 1-2 1-1 1-2 1-1c5-6 14-11 24-11z" /><path stroke-width="0" fill="#000000" d="M1480 605c17 0 31 14 31 31 0 11-5 20-13 26l-2 1-6 8-24 39-21 42-20 44-19 45-1 1-35 79-1 1h1l-38 80v1l-40 78-1 1-43 76v1l-1 1-3 6h-1v1c-6 8-15 14-26 14-17 0-31-14-31-31 0-6 1-11 3-15l1-2 4-6 42-75 40-77 37-80 35-78v-1l19-44h1v-1l20-45 1-2 22-44v-1l1-1 25-40 1-1 7-11 2-2 1-1 4-5 1-1c1-1 3-2 5-4l5-3 2-2c5-2 10-3 15-3z" /><path stroke-width="0" fill="#000000" d="M1246 726c12 0 22 7 28 16v1l34 66h1v1l33 67 1 1v1l31 71 31 72 34 68 18 32 21 31 6 8 6 8 1 2c3 5 5 11 5 17 0 17-14 31-31 31-10 0-18-4-24-11l-1-1-6-8-7-9-1-1v-1l-21-32-1-2-20-33v-1l-1-1-34-71-1-1-31-72v-1l-31-70-33-66-34-66h-1l-1-3c-1-3-2-7-2-12 0-17 14-31 31-31z" /><path stroke-width="0" fill="#000000" d="M1570 325c6 0 11 2 15 4l2 1 14 9h1c1 1 1 2 2 2l1 1 13 11 1 1 2 2 22 25 1 1 1 2 20 28 1 1 1 2 17 30 1 1v2l15 32 1 1v1l13 33v2 1l20 68 1 2 14 69v1l9 51v2l6 51v1 1l3 51v1l2 51v1 1l-3 103v1l-9 104-6 61-5 60-1 12v12 1c-2 16-15 28-31 28-18 0-32-14-32-31l1-2h-1l1-12 1-13 5-60v-1l6-61 9-102 2-101-1-50-3-49-6-50-8-50-14-67-19-66-12-31-14-30-16-28-18-26-20-22-9-9-12-7-1-1c-8-5-14-15-14-25 0-18 14-32 31-32z" /><path stroke-width="0" fill="#000000" d="M2289 772c18 0 32 14 32 31 0 14-10 26-22 30h-2l-8 2h-1-1l-28 5-3 1-29 3h-2l-59 1h-1-1l-59-2-58-1h-3-2-1c-17 0-31-14-31-31 0-16 12-30 28-31h3 1 2 3 1l58 1h1l58 2 57-2 27-2 27-5 6-2v1l1-1c2 0 4 0 6 0z" /><path stroke-width="0" fill="#000000" d="M2142 969l54 1 25 1h2c15 2 28 15 28 31 0 17-14 31-32 31h-1l-24-1-52-1-24 2-22 2-7 3h-1-2l-9 2-1 1c-2 0-4 0-6 0-17 0-31-14-31-31 0-14 9-26 22-30h2l8-2 8-3c1 0 2 0 3-1h3l26-4v1l1-1h1l27-1h2z" /><path stroke-width="0" fill="#000000" d="M4069 156c14 0 26 9 30 22l1 2v1 1 1l1 1v1l7 42v2l6 42v1 1l5 87v2l-1 87v2l-6 85v1h-1l-1 16-1 3c-3 14-15 25-30 25-18 0-31-14-31-31 0-1 0-2 0-3v-1l1-15 7-84 1-85-5-84-5-41-8-41v-1-1c-1-2-1-5-1-7 0-17 14-31 31-31z" /><path stroke-width="0" fill="#000000" d="M4269 102c17 0 31 14 31 32 0 16-12 29-28 31h-2l-21 1-22 1-63 4-65 6-64 7-63 9-24 4-22 4-20 5-15 7-1 1-2 2-2 1-1 1-2 1-1 1c-4 2-9 4-15 4-17 0-31-14-31-32 0-10 5-20 14-26h1l4-4 2-1c1-1 2-2 3-2l1-1 21-10h2c0-1 1-1 2-1l2-1 23-6h2 1l24-5h1l24-3 63-10h1l65-8v1l1-1 65-5h1v-1l64-4h1l22-1 21-1h2z" /><path stroke-width="0" fill="#000000" d="M4616 669c17 0 31 14 31 31 0 5-2 10-4 15v1l-2 2-1 2c-1 1-2 3-4 4l-2 3-2 1-3 3v1l-31 39-31 43-29 46-28 45-72 120-33 61-31 62-6 12-1 1c-5 10-16 16-27 16-18 0-32-14-32-31 0-4 1-8 3-12l1-1h-1l6-13h1l31-63 1-1 33-62 1-1 73-121v-1l29-45 29-46 1-1 31-44v-1l1-1 33-42h1c0-1 1-2 2-3l2-2 1-1 3-2c5-9 15-14 26-14z" /><path stroke-width="0" fill="#000000" d="M4406 666c12 0 22 7 27 17h1l1 3 1 3 26 50 27 48v1l55 98v1l24 46v1l25 45 27 44 30 39 9 11 1 1c5 5 7 12 7 20 0 17-14 31-31 31-9 0-16-4-22-9l-1-2-11-11h1l-1-1-1-1-32-42-1-1v-1l-28-45-1-2-25-47h-1l-24-47-55-98v-1l-27-49-26-51-2-3-1-2-1-2c-1-4-2-8-2-12 0-18 14-32 31-32z" /><path stroke-width="0" fill="#000000" d="M5048 796c4 0 9 1 12 3h2l11 6 1 1h1l9 5 15 6 17 4 39 6 40 2 41 1h89 1l89 2h1 12 2c15 2 28 15 28 31 0 18-14 32-32 32l-1-1h-11l-89-2h-90-42l-1-1v1l-42-3h-2-1l-42-6-1-1h-2l-20-5-1-1h-2l-19-7-1-1c-1 0-2 0-3-1l-1-1v1l-10-6-11-6h-1c-10-5-16-16-16-28 0-17 14-31 31-31z" /><path stroke-width="0" fill="#000000" d="M5260 675c15 0 28 11 31 25v2l1 2v1 1 2l9 55 10 56v1l20 113 12 69 15 67 2 9 3 9v3c1 2 1 4 1 6 0 17-14 31-31 31-14 0-26-9-30-22v-1l-3-8v-1l-3-10v-2l-16-68v-1-1l-12-70-19-113-11-56-9-57v-2-3l-1-2v-1c0-1 0-2 0-3 0-17 14-31 31-31z" /><path stroke-width="0" fill="#000000" d="M5814 492c16 0 29 12 31 28v2l1 33 3 33 8 67 22 187 25 188 9 73v1l2 36v2 36 1l-1 17v2c-2 15-15 28-31 28-17 0-31-14-31-32v-1l1-16v-34l-2-34-9-71-25-188v-1l-22-187-8-67v-1l-3-34v-2l-1-34v-1c0-17 14-31 31-31z" /><path stroke-width="0" fill="#000000" d="M6034 823h2l30 2h1c1 0 2 0 3 0l1 1 28 6 2 1c1 0 2 0 3 1l27 11 3 2 2 1 12 8c1 1 2 1 3 2l1 1 10 10 1 1c1 0 2 1 2 2l1 1 9 11v1c1 1 2 2 2 3l1 3 6 12c1 2 1 4 2 6v2l2 14v1c0 1 0 2 0 4 0 1 0 2 0 3v1l-2 15-1 2c0 1 0 2 0 3l-1 2-8 20v1c0 1-1 2-1 2l-1 2-11 18h-1v1l-2 3-14 17-1 2-16 16-2 1h1l-56 50-1 1-1 1-60 45-1 1-62 42h-1v1l-62 39-16 10v1l-15 9-2 1c-4 2-9 4-14 4-18 0-32-14-32-32 0-10 6-20 14-26h1l15-9 16-10 61-40 61-41 59-44 53-48 14-15 11-14 9-14 5-14 1-7v-6l-3-5-4-6-7-6-7-5-22-10-23-5-25-2-27 1-26 5-27 7-25 10-24 13-22 14-14 10-12 14-1 2c-6 5-14 9-22 9-18 0-32-14-32-32 0-7 3-14 7-19l1-1 15-17v1l1-2c1-1 1-1 2-2l1-1 18-13 1-1h1l23-16 3-1 27-14 2-1 29-11 2-1h1l29-9v1l2-1h1l31-5 2-1h1l30-1h2z" /><path stroke-width="0" fill="#000000" d="M2538 289c2 0 5 0 7 1h1 2c6 3 12 7 16 13l1 1 1 1v1l2 3 1 1v1l15 28 1 2v1l12 29 1 2 22 62v1l18 63 19 62 25 75 28 76v1l28 76 1 1 25 77 1 1 29 102 31 101 6 19 7 20 8 15 3 5 3 2h1l3-2 5-5 5-7 11-17 11-23 9-24 16-52 14-54 14-54 20-83 21-82v-2h1l4-15c1-2 2-4 3-6v-1l8-14 1-2c4-4 8-8 14-11l2-1h1l3-1h1c3-1 6-2 9-2 3 0 7 1 9 2h1l5 1v1l2 1c1 0 2 0 3 1l2 1 5 3h1l1 2 4 3h1l2 2 22 22c1 1 2 2 2 2l1 1 20 26 1 2 18 28h1l16 28 1 1 33 59v1l1 1 30 61v1 1h1l55 124 18 38 21 38 11 16 12 15 13 12 9 6 2-2 11-19 4-10 4-9 36-83 31-87 25-88 21-89 16-89 14-90v-1l8-45v-1l9-45 1-1 11-45v-1l1-1 14-42v-1-1l7-18 1-1v-1l9-18v-2l1-2 11-17 1-1c0 0 1-1 1-2l2-2 13-13 1-1c1-1 2-2 4-3v-1h1l2-2c1 0 2 0 3-1l2-1h1c3-1 6-1 10-1 17 0 31 14 31 31 0 10-5 18-11 24l-1 1-9 8-8 13-7 15-6 16-14 42-11 43-9 43-8 45-13 90-1 1h1l-17 90v1 1l-21 90-1 1v1l-26 89v1 1l-31 88-1 2-36 85-1 1-4 9-5 11-1 2v1l-13 22v1l-2 2c0 1-1 1-1 2l-1 1-8 9-2 2c0 1-1 1-2 2l-2 1-9 7c-4 2-7 4-11 5h-1l-10 2c-2 0-4 0-6 0-3 0-6 0-9-1l-11-3c-3-1-6-3-9-4v-1l-17-12h-1l-2-1-1-2-16-15h-1l-2-3-14-17-2-2-13-19-1-2v-1h-1l-22-39v-1-1l-19-40v-1l-56-124-29-60-32-58-17-27-17-26-17-23-2-2-18 72-21 83-13 54-14 55-1 2-16 54-1 2v1h-1l-10 25v1l-1 1-12 25v1l-1 2-12 20-1 1-1 1-7 10-1 2-2 1-8 9h-1c-1 1-1 2-2 2l-2 2-9 7h-1c-1 1-3 2-5 3l-3 1-10 3c-3 1-6 1-9 1h-3-11-1c-3-1-6-2-9-3l-1-1-12-5v-1h-1c-2-1-3-2-5-3l-1-1-8-7-1-1c0-1-1-2-2-2v-1l-7-9-1-1c-1-1-1-2-2-3l-10-20-2-3v-1l-8-22-1-1-6-20v-1l-30-101h-1l-29-102-26-76-27-76-28-76-1-1-26-77v-1l-18-62h-1l-18-62-20-60-12-28-14-27-2-2v-1l-1-2c-3-4-4-9-4-15 0-17 14-31 31-31z" /></g></g></svg>