<?xml version="1.0" encoding="utf-8"?>
<!-- Created with Majerus.net InkPaint (http://www.majerus.net/InkPaint/) -->
<!DOCTYPE svg PUBLIC "-//W3C//DTD SVG 1.1//EN" "http://www.w3.org/Graphics/SVG/1.1/DTD/svg11.dtd">
<svg xmlns="http://www.w3.org/2000/svg" version="1.1" width="318.9mm" height="149.85mm" viewBox="0 0 6378 2997" preserveAspectRatio="xMidYMid meet"><!-- Generator: Majerus.net InkPaint UWP 1.1.14.0 --><g fill="none" stroke-linecap="round" stroke-linejoin="round"><g stroke="#000000"><path stroke-width="0" fill="#000000" d="M174 289c5 0 10 1 15 3l1 1 3 2h1c1 2 3 3 4 4l2 2c7 6 12 15 12 24 0 10-5 19-12 25l-1 25v91l2 92 8 185 2 93v1 89l21-50v-1l35-72v-1l1-1 40-67 1-2 1-1 12-17 1-1 15-18 1-2 17-17 3-2 18-15v-1c1 0 1-1 2-1l2-1 20-12c2-1 4-2 6-3l21-6 3-1c1 0 2 0 3 0h1l10-1h3c1 0 2 0 3 0l10 1h1l3 1h2l1 1 10 3c1 0 2 0 3 1l2 1 11 5 1 1c1 0 2 1 3 1l1 2v-1l15 12h1c1 2 2 3 4 5l12 14 1 3 2 2 9 17h1c0 1 1 2 1 3v1l7 18h1v3l1 1 10 40v1l1 2 5 38 1 1v1l3 43v2l2 43v1 1l-2 87-3 87v42l1 43 2 22 3 22 5 18 8 13 1 1 2 1 4 1h7l12-2h2c1-1 2-1 3-1 17 0 31 14 31 32 0 15-10 27-25 30h-1l-14 3h-1-3-11-2c-1 0-2 0-3 0h-1l-12-2h-1c-2 0-4-1-6-2h-1l-10-5-3-1c-1-1-3-2-4-3l-2-2-9-8-1-1c-2-2-4-4-5-7l-11-20v-1c-1-1-2-3-3-5v-1l-6-23-1-3v-1l-4-25v-1-1l-2-24v-1l-2-44v-1-44-1l3-87 2-86-1-41-4-42-5-35-9-36-6-15-7-13-8-10-10-8-5-2-6-2-5-1-4 1-14 4-14 8-15 13-15 15-13 16-11 15-39 64-33 70-30 72-28 73v1l-28 71-4 12-1 5v1l-2 19-1 2v1l-4 19-1 2c0 1-1 2-1 2l-1 2-8 16v1c-1 2-3 5-5 7l-2 2-2 1c-5 4-12 7-20 7-12 0-22-6-27-16l-1-2-1-1v-1c-1-4-2-8-2-12 0-1 0-2 0-3v-1-4-1l1-2v-2l10-36v-2-1l6-17 1-5 8-91 3-91v-92l-3-92-7-185-2-93v-92-27-2l1-13v-1l1-2v-1l2-12c0-1 1-2 1-3l1-2v-1l1-2c2-5 5-9 9-12l1-1 2-2c5-3 11-5 18-5z" /><path stroke-width="0" fill="#000000" d="M1013 758l-7 1-10 3-12 6-12 8-34 26-32 31-29 34-9 13v38l3 42 4 42 7 40 6 26 7 25 9 22 11 18 3 3h1l4 2 4-1 7-2 9-6 10-9 10-10 8-10 18-30 16-32 13-34 10-36 8-37 4-37 1-36-1-36-2-11-2-12-7-25-4-8-4-4-4-3-4-1zm-148-90c17 0 31 14 31 32 0 4 0 8-2 12l-1 1v1l-10 39-4 19 17-16v1l1-2 1-1 37-28 1-2h1l15-9 2-1v-1l16-8 2-1 2-1h1l15-5c2 0 4-1 7-1h1l16-1h2c2 0 4 0 6 0l1 1h1l14 3 1 1c2 0 4 1 6 2l2 1 1 1 11 7c2 1 3 3 5 4l1 2 10 11c1 1 2 3 3 5l7 13 1 3c1 1 1 2 2 3l8 29h1-1l1 3v1l3 15v2l2 13v1 1l2 38v2 1l-2 39v2l-4 40-1 2v1l-8 39v2 1l-11 38-1 2-14 37-1 1v2l-18 35v-1 2l-1 1-21 32v1l-1 2-10 12v1l-1 1-12 12-1 1-1 2-13 11-1 1c-1 0-1 1-2 1l-1 1-13 8v1l-3 1c-1 1-1 1-2 1l-1 1-15 5-2 1c-2 1-4 1-6 1h-1l-15 1-2 1c-3 0-6-1-9-2h-1l-14-5-2-1c-2-1-4-1-6-3l-7-5-2-1c-1-1-2-2-2-2l-1-1v1l-6-7-2-2c-1-1-1-2-2-3l-15-23-2-2c0-1 0-2-1-3l-11-26v-1l-1-2v-1l-8-28v-2l-6-28v-1l-7-42-1-2-2-17c-3 1-6 1-10 1-15 0-27-10-30-25l-1-2-1-10v-1c0-1 0-2 0-3 0-1 0-2 0-3v-1l2-17 1-3c0-1 0-2 0-3l1-1 5-17 1-2 1-2 8-16 1-1 1-1 9-16 1-1v-1l7-9 1-28h1v-2l5-43v-2l8-43v-2l11-41v-1-1l1-3h1v-3l1-1 1-2 1-1c5-10 15-17 27-17z" /><path stroke-width="0" fill="#000000" d="M1874 513c17 0 31 14 31 31 0 6-1 11-4 15l-3 6-4 10-2 10-3 26-4 51-3 54-3 54v1l-6 53v2l-7 44h-1v1 1l-10 45-1 2v1l-16 43v2l-2 2-10 20c0 1-1 2-2 3l-12 18c-1 1-2 3-3 4l-1 1-14 14-2 1c-2 2-3 3-5 4l-2 1h-1l-16 7c-3 2-6 2-9 3h-3-18c-3 0-6 0-9-1l-3-1v-1l-18-7c-2-1-4-2-6-3l-13-10-2-1-1-1-12-11-1-1c0-1-1-1-2-2l-20-26-2-2-1-1-17-28-1-2-16-27v-1l-16-29-16-30-17-26-3-4-17 56-18 62v1l-1 1-22 61v1l-1 1-13 30-1 2-16 28-1 2-13 20v1l-1 1-15 20-1 2c-1 0-1 1-2 2l-18 17-2 2c0 0-1 1-2 2l-10 6c-1 1-1 1-2 2l-2 1-11 5h-1c-1 1-3 1-5 2h-2l-12 2h-1c-1 0-2 0-3 0-2 0-4 0-6-1h-2l-10-2v-1h-2c-2-1-4-1-6-2l-2-2-9-6c-2-1-4-2-5-4l-9-9-1-2c-1 0-2-1-2-2h-1l-13-21-1-3h-1l-5-11-1-1-4-9v-1h-1l-17-43-1-2v-1l-15-43v-1l-1-1-12-46v-1-1l-10-46v-1l-15-94v-1l-12-93h1l-1-1v-1-2c0-1 0-2 0-3 0-18 14-32 31-32 14 0 26 10 30 22v3h1v1 1c0 1 0 2 0 3v1l1 1 10 92 15 92 10 45 11 44 15 42 17 41 4 8 4 9 11 17 4 4 2 1 5-2 5-4 13-13 13-17 12-19 15-26 12-27 21-59 18-62 19-62v-2l5-13 1-2c0-1 1-2 1-3l1-1 7-11 1-2c1-2 2-3 4-5l2-2 4-3c3-3 7-5 11-6h1l5-2h2c2-1 4-1 7-1 2 0 4 0 6 1h1l6 1 2 1c3 1 6 2 8 4h1l7 5 2 2c0 0 1 1 2 2l1 1 22 25c1 1 2 2 2 3l1 1 18 29 1 2 17 30 16 29 15 27 16 26 19 23 8 8 8 6 9 4 5-1 5-2 8-8 10-14 8-16 14-39 10-43 7-42 6-51 3-53 3-53v-1l3-52v-2h1-1l4-29 1-2v-2l3-13 1-2 1-2 5-13v-1c0-1 1-2 1-3l4-7c6-10 16-17 28-17z" /><path stroke-width="0" fill="#000000" d="M2647 138c12 0 24 8 28 19l1 3 1 2c0 1 1 2 1 3v2l1 5v1 2l3 44v2 45 2l-5 92-9 154-1 1-6 77v1l-9 77v1 1l-6 41v88l2 59 3 58 5 58 9 55 10 35 6 15 8 15 6 11 1 2c3 4 4 9 4 15 0 17-14 31-31 31-11 0-20-6-26-14l-1-1-7-12-1-2-9-18-1-2-7-18h-1v-3l-1-1-10-39-1-1v-2l-9-57-1-2-3-32-9 26v1 1l-19 49v1l-1 1-22 48-1 2-1 2-27 44-1 1-2 2-16 20c0 1-1 2-2 2v1l-18 17-2 2-1 1-13 10-2 1c0 0-1 1-2 1l-1 1-14 7h-2c-1 1-2 1-3 1l-1 1-14 4h-2c-1 0-2 0-3 0h-1v1h-15-1c-1 0-2 0-3 0h-2l-14-2-1-1c-1 0-2 0-3 0l-3-1-13-6c-2-1-4-2-6-3l-12-9-2-1c-1-1-2-1-2-2l-1-1-11-12-1-1c-1-1-1-2-2-2l-1-2-18-30-1-1c0-1-1-2-1-3l-1-1-12-34-1-2c0-1 0-2-1-3v-1l-7-40v-2-2l-2-42v-1c0-1 0-2 0-3h1-1l5-41v-1-3l1-1 10-41v-2l1-2 15-39 1-1c0-1 0-2 1-3l20-36v-1l2-2 1-2 25-32 1-1c0-1 1-2 2-3l30-28 2-2 1-1 20-14c1-1 2-1 3-2l23-12 2-1 3-1 12-4c1 0 2-1 3-1h2l12-2h1c1 0 2 0 4 0h2l11 1h1c2 0 4 0 6 1h2l11 4 1 1c1 0 2 1 3 1l2 2h1l4 2v1c1 0 2 1 2 1l6 5c1 1 1 1 2 2l1 1 5 5 1 1c2 3 3 5 5 8l1 5h1c1 4 2 8 2 12 0 17-14 31-31 31-12 0-22-6-28-16l-1-2-2-2-3-1-4-1-6 1-7 3-19 9-16 12-26 25-22 29-18 32-14 36-9 37-4 38 1 37 6 35 11 29 15 24 6 7 7 5 7 3 6 1 8-1 8-2 9-4 9-7 15-15 14-17 25-41 21-45 18-47 23-72 18-73 15-74 4-31v-60-1l4-154v-1l9-154v-2l16-152v-1l1-8v-1l1-7 1-1c0-1 0-2 0-3l1-1v-1-1l1-2c4-9 11-15 20-18 3-1 6-2 10-2z" /><path stroke-width="0" fill="#000000" d="M2993 795h-7l-19 5-18 9-16 13-8 8 1 1c1 3 1 6 1 9v1l-1 27v11l1 12 3 28 5 28 8 26 10 21 1 2 3-2 6-5 12-14 19-33 14-38 4-18 3-20 1-19-1-16-4-18-8-13-2-2-3-2-5-1zm3-62c3 0 5 0 7 0l1 1 12 2 2 1c1 0 2 1 3 1l2 1 11 6c2 1 3 2 5 3l1 1 9 8h-1l2 1c1 1 3 3 4 5v1h1l12 21 1 1c1 2 2 4 2 6l1 2 6 25v1c0 1 0 2 0 3l1 1 1 22v1 2l-1 22-1 2v1l-3 22v2l-1 1-5 22v2l-1 1-15 43h-1v1c0 1-1 2-1 3h-1l-21 38-1 1c-1 1-2 2-2 3h-1l-15 19-2 1-2 2-9 8h-1c0 1-1 1-2 2l-1 1-10 6h-2c-1 1-3 2-5 3l-10 3h-1l-2 1c-2 0-5 0-7 0h-2-10-1c-3-1-6-2-9-3l-3-1-9-5h-1c-2-2-5-4-7-6l-1-2-10-10v-1c-1-1-2-3-3-5l-1-1-13-27-1-1c0-1 0-2-1-3v-1l-8-28-1 2c-6 6-14 9-23 9-17 0-31-14-31-31v-2l2-27v-1l1-2v-1l5-25v-1c0-1 0-2 0-3h1l8-25v-1l1-2v-1l12-25 1-2 1-2 15-23c1-1 1-2 2-3h1l18-21 1-1c1-1 1-1 2-2h1l21-17 2-1c0-1 1-1 2-2h1l24-12 2-1c1 0 2-1 3-1l1-1 27-6h1c1-1 2-1 3-1h3 14z" /><path stroke-width="0" fill="#000000" d="M3557 581c15 0 27 10 30 25l1 1v2 1l11 66v1l7 66v1l6 66 6 66 5 52 7 52 9 51 13 46 7-8 18-29 15-33 13-32 15-42 14-42v-1l15-42v-1-1l16-42 1-1c0-1 0-2 1-3v-1l3-5 2-2c1-2 3-5 6-7l1-1 3-2 1-1c5-3 11-5 17-5h2 3 2c5 1 10 3 14 6l3 2c3 1 5 3 7 6l1 1 6 8h-1l1 1c1 1 1 2 2 2v1l5 8v1l1 2 15 35 1 2 13 36 1 1v1l22 74 23 74 13 34 14 31 1-1 10-26 7-30 7-30 19-90 18-92h1l21-91v-2l12-45h1v-1l14-43v-1l1-1 7-19v-2h1l7-17 1-3 5-8c5-10 16-16 27-16 18 0 32 14 32 31 0 5-2 10-4 15l-4 7-7 16-7 17-14 43-12 43-20 90-19 91v1l-19 89v1l-7 31v1 1l-8 31-1 1v2l-11 30-1 1c0 1 0 2-1 3l-15 27-2 2c0 1-1 2-1 2l-2 2-7 7c-3 3-6 6-10 7l-1 1-7 2h-1c-3 1-6 2-9 2-2 0-5 0-7-1l-5-1h-1l-3-1c-2-1-5-2-8-4h-1l-5-4-2-2c-1-1-3-2-4-4l-1-1-9-13-1-1c-1-1-1-2-2-2v-1l-7-13-1-2-16-35v-1l-1-1-13-36-1-2-23-74v-1l-23-73-11-32-11 33v1l-14 43h-1v1l-15 43-1 1-14 33v1 1l-17 35v1l-1 2-20 32-1 2-1 2-12 14c0 1-1 2-2 2v1l-13 12-2 1c0 1-1 1-2 2l-1 1-7 4-2 1c-2 1-5 3-8 3h-1l-6 1-3 1c-1 0-2 0-3 0-2 0-4 0-6-1h-2l-6-1-1-1c-3-1-6-2-8-4l-1-1-5-3-1-1c-3-2-5-4-6-7h-1l-7-11c-1-2-2-4-3-6l-6-13v-1l-1-2v-1l-14-51-1-2v-1l-10-53v-1l-7-54v-1l-5-52-6-66-6-66-7-65-10-65h-1v-1-1-3c0-1 0-2 0-3 0-17 14-31 31-31z" /><path stroke-width="0" fill="#000000" d="M4384 671l-16 3-17 6-15 9-15 12-11 14-9 15-5 13-3 12-3 29 3 28 7 30 12 30 1 3 34-36 34-40 15-20 13-20 10-21 8-20 2-16-2-13-1-3-2-3-4-3-4-3-16-5-16-1zm-1-62h2l23 1h1c2 1 4 1 6 2l22 7h1c1 0 3 1 5 2h1l11 7 1 1c1 0 2 1 3 2h1l8 8 1 1c1 1 2 2 2 2l2 2 6 9c1 1 2 2 2 3l1 2v1l4 9h1c0 2 1 4 1 6l1 2 3 22v1c0 1 0 2 0 3 0 1 0 2 0 3l-1 2h1l-4 24-1 1c0 1 0 2 0 3l-1 1-9 25v2l-1 1-12 24v1l-1 2-15 22v1l-1 1-16 22-1 2h-1l-35 41-1 1-36 39h-1l-12 12 16 25 45 61 49 57 12 12 12 12 2 2c4 6 7 13 7 20 0 17-14 31-31 31-9 0-17-3-22-9l-12-12-13-13-1-2v1l-51-58-1-1-1-1-46-64-1-1h-1l-7-12-4 5-1 2c-5 7-14 11-24 11-17 0-31-14-31-31 0-7 2-13 5-18l1-1 14-19 1-1 1-1 5-5-12-24-1-1v-1l-13-33v-1-1l-1-2-8-34-1-1c0-1 0-2 0-3l-3-34v-3-3-1l3-33c0-1 0-2 0-3l1-2 4-17v-1l1-2 6-16 1-1c0-1 1-2 1-3l1-1 11-20 1-2c1 0 1-1 2-2l15-18 2-2 2-2 18-15h1c0-1 1-2 2-2l2-1 20-12 1-1c1 0 2-1 3-1l1-1 22-8h2c1 0 2-1 3-1h1l23-4h2c1 0 2 0 3 0z" /><path stroke-width="0" fill="#000000" d="M5166 532c17 0 31 14 31 32 0 10-5 20-14 25l-1 1v1l-28 33-22 37-19 41-17 42-15 40-12 43-8 42-1 20v11l8-4 24-19 21-23 17-25 13-25 8-22v-5-2l4-57v-1-2l1-5v-1c0-1 0-2 1-3l1-3 1-3c5-11 16-19 29-19 4 0 8 1 12 2l1 1h1l2 1c7 4 12 10 15 18v3l1 4v1c1 1 1 2 1 3v1l1 16v2 2l-1 16v2 3h-1l-6 34c0 1-1 2-1 3v41l1 56v58 1l-1 70v1l-3 71v1l-5 70v1l-7 71-1 1-9 70v1l-12 70v1l-14 69v1l-16 68v1l-7 26v1 1l-8 27-1 1-10 28v2l-12 27h-1l-1 3v1l-15 25v-1l-1 2-2 2v1l-17 21c-2 2-3 3-5 5l-21 17-2 2c-1 0-2 1-3 1l-2 1-25 12h-1c-2 1-4 2-6 2l-16 4c-2 0-5 0-7 0h-16-3c-1 0-2-1-3-1h-1l-15-4h-1c-1-1-2-1-3-1l-2-1-13-7h-1c-1-1-2-1-3-2h-1l-12-9-1-1-2-2-11-11h-1c0-1-1-2-2-2l-1-2-18-25-1-1c0-1-1-2-1-3h-1l-15-29v-1l-1-2c-2-4-3-8-3-12 0-17 14-31 32-31 11 0 22 6 27 16l15 28 15 21 8 8 8 6 8 3 8 3h9l9-2 18-9 16-13 15-17 12-22 11-24 9-26 8-26 6-25 16-68 14-68 11-69 9-69 8-70 5-70 3-69 1-70-1-44-15 17-1 1c-1 0-1 1-2 2l-28 22-2 2-2 1-15 8-1 1c-1 0-1 1-2 1h-1l-15 6v1l-3 1c-1 0-2 0-3 0l-6 2c-2 0-4 0-6 0h-3-1-5c-5-1-10-3-14-5l-1-1-8-6-1-1c-3-2-6-5-8-9l-1-2v-1l-4-9-1-1c0-1-1-3-1-5l-1-2-2-12v-2-2l-1-22v-1-2l2-23v-1-2l9-46v-1-2l1-1 13-44v-1-1l15-42h1v-1-1l17-42 1-2 20-43 1-1 1-1 24-41 1-2c0 0 1-1 2-2l29-36 1-1 4-4 1-1c1-2 3-3 5-4l1-1 3-2 2-1c4-2 9-4 15-4z" /><path stroke-width="0" fill="#000000" d="M5562 689h-9l-18 5-16 10-16 15-15 18-14 21-11 23-9 24-7 22-7 31-4 33-1 32 3 25 20-11 29-19 27-21 24-24 19-26 15-28 10-30 5-34v-13l-2-15-3-13-5-12-5-8-4-4-6-1zm5-63c4 0 7 1 10 1l1 1 16 6h1c3 1 6 3 8 5l13 11 2 1c1 2 3 3 4 5l9 14 2 3c0 1 1 1 1 2v1l7 16v1l1 2v2l4 18 1 1v3l2 18v3 17c0 1 0 3 0 4v1l-5 38v2c-1 1-1 2-1 3v1l-12 35-1 3c0 1-1 2-1 2v1l-18 32c0 1-1 2-1 3l-1 1-23 30-1 1-1 2-27 26c-1 1-1 2-2 2l-1 1-29 23-2 2h-1l-32 21v-1l-2 2-31 16 1 2 17 23 23 19 12 7 12 5 27 8 29 2 30-3 31-6 31-10 30-13 29-13 37-21 34-20 31-21 29-20h1c5-3 11-5 17-5 17 0 31 14 31 31 0 10-4 19-11 24l-2 2h-1l-29 20-1 1-31 20-1 1-36 21-1 1-38 21h-1l-31 15-1 1h-1l-31 13h-1l-2 1h-1l-33 11-3 1-34 7c-1 0-2 0-3 0h-1l-34 3-3 1-2-1-34-2h-1c-1 0-2 0-3-1h-2l-33-9h-1c-1-1-2-1-3-1l-1-1-16-7-2-1h-1l-15-10-2-1c-1 0-1-1-2-1l-1-1-27-23-2-2c-1-1-2-1-2-2l-1-1-21-29-1-1c0 0-1-1-1-2l-1-2-12-25-1-1c-4-5-7-12-7-20v-2l-5-23-1-1v-3-1l-4-35c0-1 0-2 0-3v-1-36l1-3 4-36v-2l1-1 7-33v-1l1-2 7-25 1-2 10-26h1v-2l13-26 1-1 1-1 15-25 2-3 17-21 1-1c0 0 1-1 2-2l1-1 20-18 1-1c1-1 2-1 2-2l2-1 23-14v1l1-1c2-1 3-2 5-3h1l25-7c2-1 4-1 6-2h3 19z" /><path stroke-width="0" fill="#000000" d="M6068 268c17 0 31 14 31 31 0 5-1 10-4 15l-5 10-3 9-6 27-12 79-6 83-3 83-1 83-3 196 1 97 3 96 1 13 1 9 1 7v5 1c0 1 1 2 1 3 0 17-14 31-32 31-15 0-27-11-30-25l-1-3v-6l-1-7v-1l-1-10-1-13v-1l-4-97v-1-98l2-196 1-84h1l3-85v-2l6-84 1-2 12-81v-2l6-29c0-1 0-2 1-3l4-14 1-3c0-1 1-2 1-2l1-1 6-12h1l1-3c6-8 15-13 26-13z" /><path stroke-width="0" fill="#000000" d="M5958 676h3l24 2h1 2l12 2 12 2 66 8 68 8 68 7 65 6h1l35 3 33 3c16 2 28 15 28 31 0 18-14 32-31 32h-3v-1l-33-3h-1l-34-3h-1l-66-6-68-7-68-8-67-8h-1l-13-2-11-2-23-2h-1c-16-2-28-15-28-31 0-17 14-31 31-31z" /></g><g stroke="#ED331F"><path stroke-width="0" fill="#ED331F" d="M3875 1583c18 0 32 14 32 31 0 3-1 6-2 9v1l-3 8-15 50-13 52-11 53-10 54-29 149-30 149-31 149-30 149-22 118v1l-12 59v1l-15 59v1 1l-16 57-1 1v1l-20 56-1 2v1l-24 54-1 3-29 52-1 2v1l-26 38c-1 1-1 2-2 3l-15 17-2 2c-1 1-1 1-2 2l-18 14-2 1c-1 2-3 3-5 3l-2 1-10 4h-1c-3 1-7 1-10 1-2 0-4 0-6 0h-1l-9-2-2-1c-3-1-6-2-8-4l-2-1-8-7c-2-1-3-3-4-4l-1-1-7-8-1-2-1-2v-1l-16-29c-1-1-1-2-2-3l-13-32-1-2v-1l-10-33v-1l-9-33v-1-1l-18-80v-1l-15-82-13-83-13-81-16-94-18-93-22-92-13-44-15-43-9-22-12 26-18 42-31 88-27 83-25 84h-1l-27 84v1l-31 82v1l-16 37-1 2-19 36v1c-1 1-1 1-2 2v1l-24 33-1 1-2 3-14 13c-1 1-1 2-2 2l-1 1-15 12h-2c-1 1-1 2-2 2l-2 1-15 7c-3 1-6 2-9 2l-13 2c-2 0-3 0-4 0-2 0-4 0-6-1h-1l-12-3-2-1c-2 0-4-1-5-2l-2-1-11-6-1-1c0-1-1-1-2-2l-2-2-9-9h-1c0-1-1-2-2-2v-1l-9-11-1-2-1-2-14-24h-1l-1-2-18-41-1-1v-1l-16-42v-1-1l-12-42h-1v-1-2l-10-43v-1-1l-15-88v-2l-12-88-13-109-15-109-19-107-12-52-14-50-5-12-1-1v-1l-2-7-1-1c0-1 0-2-1-3v-2l-1-7v-1c0-1 0-3 0-4 0-17 14-31 31-31 15 0 28 11 30 25l1 2v4l2 3 5 14 1 3v1l15 52v2l13 53v1l20 109v1l15 109v1l13 109 11 88 15 87 10 42 11 40 15 40 18 38 12 21 6 8 5 5 4 2 2 1h2l7-3 11-8 10-11 21-29 17-33 15-35 30-80 27-82v-1l26-84 27-83v-1l32-90v-1h1l17-44 1-2 20-42 1-1v-1l5-8h1l1-2 1-3 7-8c3-3 6-5 9-7l2-1 1-1 7-3h1c4-2 8-3 12-3 2 0 4 1 6 1l5 1c4 1 8 3 11 5l5 3c2 1 3 2 5 4l1 2 10 12h1c0 1 1 1 1 2l2 3 7 14h1c0 1 0 2 1 2v1l12 30v1l16 45v1l14 46v2l23 93v1l18 94v1l17 94v1l13 82 13 81 14 81 18 80 8 31 10 32 11 29 13 23 5-4 11-13 24-36 28-50 23-52 19-55 16-56 14-58 12-59 22-118 30-149 31-149v-1l30-148v-1l29-148 10-54v-1l11-54v-1l13-53 1-2 16-51v-1-1l3-8 1-1c4-12 15-19 28-19z" /></g><g stroke="#000000"><path stroke-width="0" fill="#000000" d="M4882 1838c2 0 4 0 6 1h1l10 2 2 1c1 0 2 1 3 1l3 1 9 5c2 1 3 2 5 3l1 2 7 6 1 1c2 2 4 5 5 7l1 1 9 18 1 2c1 2 1 4 2 6v2l3 23v1c0 1 0 2 0 3 0 1 0 2 0 3l-3 26v3l-1 2-7 25v1c0 1-1 2-1 3l-10 24c-1 1-1 2-2 3l-13 23c0 1-1 2-1 3l-30 44-1 2-31 41-43 56-20 28-17 26-5 10v8l3 10 6 13 10 13 11 13 13 13 13 11 27 21 27 20 14 9c8 5 13 15 13 26 0 17-14 31-31 31-6 0-12-2-17-5v-1l-14-8v-1l-29-21-2-1-28-22-1-1-14-12-1-1-14-14-1-1-14-16-1-1-1-1-12-17-1-1c0 0-1-1-1-2v-1l-9-17-1-2c-1-1-1-2-1-3l-1-2-4-18-1-1c0-2 0-4 0-7v-1-18-2c1-2 1-4 2-6l1-3 7-18c1-1 1-2 2-3l1-2v-1l20-28v-1-1l21-28h1-1l43-56 30-41 29-43 12-21 9-21 5-20 2-20-1-14-5-8-1-1h-3-6l-19 3-19 6-20 8-19 10-38 25-35 29h-1l-14 12-13 14-1 1c-5 6-13 9-22 9-17 0-31-14-31-31 0-8 3-15 7-20l1-1v-1l15-15v-1c1 0 2-1 3-2l16-13 37-30 2-2 41-27 2-1 1-1 21-11 3-1 22-9c1-1 2-1 3-2l23-6v-1h3 1l23-4 2-1h3 13z" /><path stroke-width="0" fill="#000000" d="M4778 2784c17 0 31 14 31 31 0 12-6 22-16 28h-1l-2 1c-3 1-8 2-12 2-17 0-31-14-31-31 0-12 7-22 16-27l1-1 2-1c1 0 2 0 3-1 3-1 6-1 9-1z" /></g></g></svg>