<?xml version="1.0" encoding="utf-8"?>
<!-- Created with Majerus.net InkPaint (http://www.majerus.net/InkPaint/) -->
<!DOCTYPE svg PUBLIC "-//W3C//DTD SVG 1.1//EN" "http://www.w3.org/Graphics/SVG/1.1/DTD/svg11.dtd">
<svg xmlns="http://www.w3.org/2000/svg" version="1.1" width="341mm" height="150.55mm" viewBox="0 0 6820 3011" preserveAspectRatio="xMidYMid meet"><!-- Generator: Majerus.net InkPaint UWP 1.1.14.0 --><g fill="none" stroke-linecap="round" stroke-linejoin="round"><g stroke="#000000"><path stroke-width="0" fill="#000000" d="M134 552c14 0 26 9 30 22v1l1 2 1 4v2l1 4v1l1 6v1l6 48v1l5 50v1l6 105v1l3 107v1l-1 104v1l-2 72v1 1l-7 68v2l-1 6-1 5v1c-3 14-16 25-31 25-17 0-31-14-31-32 0-1 0-2 0-3l1-2h-1l1-4 1-5 6-67 3-69v-104l-2-105-7-104-4-50-6-48-1-4v-2-3h-1v-1c-1-3-1-6-1-9 0-17 14-31 31-31z" /><path stroke-width="0" fill="#000000" d="M173 345c17 0 31 14 31 31 0 18-14 32-31 32-8 0-14-3-20-8-7-5-11-14-11-24 0-1 0-2 0-3 1-7 4-14 9-19 1 0 1-1 2-2 6-4 12-7 20-7z" /><path stroke-width="0" fill="#000000" d="M609 572h19 3l2 1h1l18 3c15 3 25 16 25 31 0 17-14 31-31 31-1 0-2 0-3 0h-3v-1l-16-2-14-1-15 2-15 4-33 13-31 15-32 17-31 20-28 22-23 23-5 8-1 3 16 12 23 9 28 7 27 7 37 7 37 8h1 1l37 10h1l3 1 34 13 1 1c1 0 2 0 3 1l1 1 15 9h1c1 1 2 2 2 2l2 1 11 11 1 1c1 0 1 1 2 2l2 2 8 12c1 2 2 4 3 6l5 13h1c0 1 0 2 1 3v3l3 14c1 1 1 2 1 4v1l1 16v1 3l-2 16c0 1 0 2 0 3l-4 16c0 1 0 2 0 3v1l-10 29c0 1 0 2-1 3l-13 29v1l-1 2-16 28v1l-1 2-18 27v1l-2 2-42 51-2 2-22 23-1 1-1 1-23 21-1 1-24 19-3 2-1 1-13 8h-1c-1 1-2 1-3 2h-1l-14 5-1 1c-1 0-2 0-3 1h-2-4l-1 1c-1 0-2 0-3 0-18 0-32-14-32-32 0-15 11-27 25-30h2l1-1 7-2 9-6 22-17 22-20 21-21 40-49 16-26 15-26 11-26 9-27 2-13 1-12v-10l-2-9-3-8-5-7-6-6-10-5-31-12-34-9-36-8h-1l-36-7h-1l-28-7h-1-1l-30-8-1-1h-2l-1-1-28-11c-2-1-4-2-5-3l-24-16-3-2c0-1-1-1-2-2l-1-1-6-7c-2-2-3-4-4-5v-2l-4-6h1l-1-2c-1-2-2-4-2-6l-1-7-1-3c0-1 0-2 0-3v-2l1-7v-1c0-2 0-4 1-6l1-2 5-13v-1c1-2 2-4 3-6l9-13c0-1 1-1 2-2l1-2 26-27 1-1c1 0 1-1 2-2h1l31-24 2-1v-1l34-21 1-1h1l32-18h1l1-1 33-16 1-1h1l37-14 1-1h2l19-5h1 3l19-3c1 0 3 0 4 0z" /><path stroke-width="0" fill="#000000" d="M1436 129c16 0 29 12 31 28v3 2 2l-1 174v1l-3 174-6 347-2 122v1l-2 61h-1 1l-4 61v1l-6 60v1l-1 1h1l-9 60-1 1v1l-12 58v2l-16 59-1 1-7 21v1l-7 20-1 2c-4 12-15 19-28 19-18 0-32-14-32-31 0-3 1-6 2-9v-1l7-20 7-21 15-56 12-57 9-58 5-59 4-60 2-60 2-122 6-347 3-174 2-174v-2-2c0-17 14-31 31-31z" /><path stroke-width="0" fill="#000000" d="M1683 683c17 0 31 14 31 31 0 9-4 17-9 22l-1 1-19 18v1l-21 19-1 1-45 40h-1v1l-49 37-1 1-51 34-2 1-53 30h-1l-2 1-55 26h-1l-2 1-57 20-1 1h-2l-59 16v-1l-2 1h-1l-61 9h-1l-4 1-5 1h-1-2-5-1c-2 0-5 0-7-1h-1l-3-1h-2c-12-4-22-16-22-30 0-17 14-31 32-31 1 0 2 0 3 0h2 4 4l59-9 56-15 55-20 53-24 51-29 49-32 47-36 44-38 20-19 19-19 2-2c5-4 12-7 20-7z" /><path stroke-width="0" fill="#000000" d="M1751 143c17 0 31 14 31 32 0 3-1 6-2 9v2l-6 43-2 42v45l1 45-1 145v1l-3 146-5 145v1l-8 145v1l-2 15 28-42 39-56 2-2 43-53c0-1 1-1 2-2l14-14 2-1c0-1 1-2 2-2l16-11c2-1 4-2 6-3l1-1 9-3h1c2-1 4-1 6-1h1l9-1h2c2 0 4 0 6 1h2l9 2 1 1c2 0 4 1 6 2l2 1 9 6c2 1 4 3 5 4l2 2 15 18c1 1 2 3 3 5l1 1 10 21 1 2 1 2 8 22v1 1l7 23v1l9 37v1l8 37v1 1l12 76v1l10 76 12 73 4 19 5 16 6 14 8 12 7 6 2 3c5 5 7 12 7 19 0 18-14 32-31 32-9 0-16-4-22-10l-9-8v-1l-2-2-1-2h-1l-11-16c0-1-1-2-1-3l-1-2-1-1-7-17-1-1c0-1-1-2-1-3l-6-19v-2-1l-5-20v-1l-13-75v-1l-10-76-12-76-7-36-9-36-6-21-6-20-8-16-10-11-11 7-10 10-41 50-38 55-38 57-38 55-1 1-3 4v1l-2 2-3 2v1c-4 3-8 6-13 7l-3 1-2 1c-2 0-5 0-7 0-11 0-20-5-26-13l-1-3-2-3c-1-3-2-6-3-9v-2l-4-26v-1c0-1 0-2 0-3v-1l1-27v-2l5-55 8-144 5-145 3-145v-145-45-45-2l2-44v-2-1l6-44v-5l1-2c0-2 1-4 1-5l1-1 1-2v-1l1-2c5-10 16-17 28-17z" /><path stroke-width="0" fill="#000000" d="M2360 654c17 0 31 14 31 31v84l1 84 3 83 8 81 7 38 2 10v1c1 2 1 4 1 7 0 17-14 31-31 31-14 0-26-9-30-22l-1-2-2-12h-1v-2l-7-40v-2l-8-83v-2l-4-84v-1-84-85-3c1-16 15-28 31-28z" /><path stroke-width="0" fill="#000000" d="M2299 428h2 1c17 0 31 14 31 31 0 17-14 31-31 31h-1-2c-17 0-31-14-31-31 0-17 14-31 31-31z" /><path stroke-width="0" fill="#000000" d="M2799 510c17 0 31 14 31 32 0 15-11 27-25 30h-2v1h-3l-12 6-13 7-26 18-24 23-21 24-7 11-7 11v1l7 7 11 7 30 17h1l41 24 2 1 41 27h1l1 1h1l19 16h1l1 1 18 17 1 1 2 1 16 18 1 1 1 2 14 19v1c0 0 1 1 1 2l1 1 6 12 1 2 1 2v1l4 11v1c0 2 1 4 1 6l2 23c1 1 1 2 1 3 0 1 0 3-1 4v2l-4 23v1c0 1 0 2-1 3l-1 2v1l-9 21v1c0 1-1 2-1 2l-1 2-13 21-1 1-1 2-16 20-1 2-17 18v-1l-1 1-1 1-17 16-1 1h-1l-34 28-2 1-39 26-3 2-42 22-2 1h-1l-21 8-2 1h-1l-21 6h-2-1l-9 2h-2c-1 0-2 0-3 0-17 0-31-14-31-31 0-15 10-28 25-31h1l7-1 18-5 18-7 39-19 36-25 32-26 16-14 15-16 14-17 10-18 7-16 3-16-2-16-2-6-4-8-11-16-14-15-16-15-18-13-40-26-40-23-31-17-1-1-2-1-15-10-2-2-2-2-13-13c-1-1-3-3-4-4l-1-2v-1l-4-7h-1c-1-3-2-6-3-9l-1-8-1-3c0-1 0-2 0-3v-3-1l1-7v-1c0-2 1-4 1-6l3-8c0-2 1-4 2-6l9-15 1-3 1-1 10-13 1-1v-1l23-26 2-2v-1l27-25 1-1 2-1 29-21 1-1 2-1h1l15-9 2-1h1l15-7c1 0 2-1 3-1l2-1h1l3-1h1l3-1h1 3 1v-1c2 0 3 0 4 0z" /><path stroke-width="0" fill="#000000" d="M1029 1984l-39 1-38 7-36 13-34 18-31 25-35 38-29 45-22 48-17 52-9 54-2 55 1 26 4 26 5 26 7 24 13 32 17 27 8 9 10 7 11 5 12 3 18 1 18-3 19-6 18-10 19-11 17-14 32-32 26-31 24-35 21-36 20-39 36-80 32-81 45-121h-1c-3-1-6-2-9-3l-2-1-7-5-7-3h-1l-38-17-38-10-38-4zm238-549c10 0 19 4 25 11v1l4 4 1 2c1 1 2 3 3 5v1l3 9 1 1v3l10 41v1c0 1 0 2 1 3l4 42v3 44 1l-2 44-1 1-6 65v1 1l-10 65-1 2-13 64v1 1l-17 64v1 1l-17 59v84l5 134 2 43 4 42 7 41 11 36 6 12 7 10 9 9 10 7 13 6v1c10 5 17 15 17 27 0 17-14 31-31 31-5 0-9-1-13-2l-1-1-14-7-1-1c-1 0-2-1-3-1l-14-10h-1l-2-2-2-2-12-12h-1c0-1-1-2-2-2l-1-2-10-14-1-1c0-1-1-2-1-3l-1-1-8-16-1-2c0-1-1-2-1-3l-12-41h-1v-3-1l-8-43v-2-1l-4-44v-1l-2-44v-1h-1l-1-52-10 25v1 1l-33 81v1l-36 81-1 1v1l-1 1-20 39v1l-1 1-22 38-1 1v1l-25 36-2 2-27 34c-1 1-2 1-2 2h-1l-35 35-2 2-20 16-2 1-21 14-2 1-1 1-23 11h-1l-2 1-23 8h-1c-1 1-2 1-3 1h-1l-24 4h-2c-1 0-2 1-3 1l-1-1h-24-2c-1 0-2-1-3-1h-2l-18-5h-2c-1 0-2-1-3-1l-2-1-16-8-1-1c-1 0-2-1-3-1l-1-1-15-11-1-1c-1-1-1-1-2-2l-1-1-12-13-1-2c-1 0-2-1-2-2l-1-1-20-32-1-1c0-1-1-2-1-3v-1l-14-34v-1l-1-2v-1l-8-26v-1l-1-2v-1l-6-27v-2l-4-29v-1-1l-2-29v-2-1l3-58v-2-2l10-58v-1c1-1 1-2 1-3l18-56c0-1 0-2 1-3v-1l25-53 1-2 1-2 31-48h1c0-1 1-2 2-3v-1l39-42 1-1c0-1 1-1 2-2l1-1 35-27 2-2 2-1 38-21h1c0-1 1-1 2-2h2l41-15h1c1 0 2-1 3-1h1l41-8h1 2 3l43-2h1c1 0 2 0 3 0l43 5 3 1h2l42 12h2c1 0 1 1 2 1h1l40 17v1l10 4h1l2 1 2 1 6 4v-1-40-1l4-134v-1l9-133v-1l10-94v-2l7-45v-2l1-1 10-43v-2-1l2-5v-1l1-2 1-2 1-1 1-3c3-6 8-10 13-13l2-1 4-2c4-1 8-2 12-2z" /><path stroke-width="0" fill="#000000" d="M2016 1867l-12 14-14 17-13 19-20 31-19 34-17 35-14 36-12 36-9 37-6 37-2 36 2 29 6 27 23-22 22-27 17-28 14-31 12-33 10-33 16-71 10-71 4-27 2-26v-19zm16-76c3 0 6 0 9 1l3 1 7 3c7 3 12 8 15 14l1 1 4 8v1l1 2c1 2 2 4 2 6v1h1l4 27v1c0 1 0 2 0 3v1 27 3l-3 28v1l-4 27v1l-10 72-1 1v1l-16 73v2l-1 1-10 35v1l-1 1-13 35v1l-1 1-15 34-1 1-1 1-18 31-1 2-2 2-24 31h-1c0 1-1 2-2 3l-1 1-29 26-1 1c-1 0-1 1-2 2l-8 5 10 14 19 17 22 15 26 12 18 5 18 4 40 4 39-3 40-7 40-12 38-15 38-18 35-21 25-16 24-16c5-3 11-5 18-5 17 0 31 14 31 31 0 11-5 20-14 26l-24 16-1 1-26 16-1 1-37 21-1 1h-1l-39 20v-1l-2 1-41 17h-1l-2 1-42 12h-1l-2 1h-1l-43 8h-3l-1 1-44 2h-2-2l-44-4c-1 0-2 0-3 0l-22-5h-3l-21-7c-1 0-2 0-3-1h-1l-30-13v-1l-2-1-3-1-26-18c-1-1-2-1-3-2l-2-2-22-21-1-1c0 0-1-1-2-2l-1-1-16-22-8 5h-2l-2 1-37 13-1 1h-2l-38 10h-1-2l-38 6-2 1h-1l-38 2h-2-1l-37-1h-2-2l-36-6h-2l-2-1h-1l-35-11c-1 0-2 0-3-1h-1l-33-16-1-1c-1 0-2-1-3-1l-1-1-29-21-1-1c-1-1-1-2-2-2l-2-2-22-27h-1c0-1-1-2-2-3l-1-2-9-15v-1c0 0-1-1-1-2v-1l-7-17-1-2v-2l-5-18v-1c0-1 0-2 0-4l-2-19-1-4v-1l2-31v-2-2l5-31v-1l1-2 9-31v-1-2l12-30v-1l1-1 14-30v-1l1-1 15-28 1-2 34-53 1-1 23-32 1-2 26-31 2-2v-1l29-27 2-2 1-1 16-11 1-1 2-1 16-10h1c1 0 2-1 3-1l2-1h1l18-6 1-1c2 0 4-1 6-1h2 9 1c2 0 4 0 6 0l1 1 7 1 2 1c2 1 4 1 6 2l1 1 6 4 2 1c2 1 3 2 5 3v1l6 6 1 2c1 0 2 1 2 2l1 2 5 8c1 1 1 2 1 3l1 2 1 1 3 9v1c0 1 0 2 1 3v1l4 23v2 2l1 23v1 3l-2 24-1 3-4 24v1l-1 2v1l-14 46v1c0 1 0 2-1 3l-19 43-1 2-1 2-27 44-1 2c0 1-1 1-1 2l-33 39c0 1-1 2-2 2v1l-38 35-1 1-1 1-43 31-1 1c-5 3-11 5-18 5-17 0-31-14-31-31 0-10 5-18 12-24l1-1 41-30 35-32 29-36 25-41 17-39 13-44 4-21 1-21v-19l-3-18-2-5-10 3-12 7-13 9-26 25-24 29-22 31-33 51-14 26-13 28-11 28-8 28-4 28-1 26 1 16 4 14 5 13 6 11 18 22 24 17 28 13 31 10 32 5 33 1 35-3 36-5 36-9 34-12 7-4-5-13v-1c0-1-1-2-1-3l-6-31c-1-1-1-2-1-3v-1l-2-33v-2-2l2-40v-1-2l6-39v-2l1-1 9-40 1-2 12-38 1-1v-2h1l15-38 1-2 17-36 1-2 20-34v-1l1-1 21-33v-1l1-1h-1l15-20 1-1 15-19v-1l2-1 16-17v-1c1-1 2-1 2-2h1l17-14 2-1 2-2h1l9-5c2-1 4-2 6-3h2l9-2 1-1c2 0 4 0 6 0z" /><path stroke-width="0" fill="#000000" d="M2487 1905l-16 1-13 4-13 8-13 11-12 15-10 16-18 38-15 41-12 43-9 45-6 47-5 47-2 47-1 93 1 61 4 63 6 63 8 63 10 62 13 61 12 45-19-135h1l-1-1-15-137v-1l-5-68-4-68-2-55v-1l-1-25v-23l1-32v-30-1l4-54v-1l1-8v-7h1c0-1 0-2 0-3v-1l1-5 1-3c0-1 1-2 1-3l3-7c5-11 16-19 29-19 17 0 31 14 31 31 0 5-1 9-3 13l-1 4-1 5-1 8-3 54-1 28v31 23 24l1 26 15-13 29-32 26-34 24-36 30-52 13-27 11-29 9-28 6-28 3-28-1-26-3-19-7-18-9-16-11-15-14-12-15-10-16-6-17-4zm2-62c1 0 3 0 4 0h3l23 5c1 0 2 0 3 1l3 1 21 9h1c1 0 2 1 2 1l2 1 20 13h1c1 1 1 1 2 2l1 1 18 16 1 1c1 1 1 1 2 2v1l15 18 1 2 2 2v1l11 20c1 1 1 2 2 3v2l8 22 1 2c0 1 0 2 1 3l4 24v3 2h1v31 1c0 1 0 2 0 3l-3 31-1 3-6 31h-1v1 2l-10 31-1 2v1l-12 30v1l-14 30-1 1v1l-31 54-1 2-25 37-2 2-28 37v1l-2 1-31 33v1l-2 1-16 15-1 1-1 1-18 13-1 1h-1l-8 5-2 1v1l-5 3 1 22 5 67 15 136 19 137 19 134v1l4 25v1 1l1 19v2 3l-1 11v1c0 4-1 8-3 12l-2 2-3 5v1c-6 8-15 13-26 13-2 0-4 0-6 0l-3-1-6-1v-1c-5-1-9-4-13-7l-1-1-8-9-1-1c0-1-1-2-2-3v-1l-14-21v-2l-1-1-12-25-1-1v-1l-10-26-1-1v-1l-10-28v-1l-18-59-1-2-16-61h1l-1-1-13-63v-1l-11-63v-2l-8-64v-1l-6-63v-1-1l-4-63v-1l-2-63v-1-1l1-94v-1l3-48v-2l5-48v-1l7-48v-2l9-47 1-2 12-46v-1l1-1 15-44 1-2 1-1 19-40 1-2 1-2 13-19v-1l2-2 14-18c1-1 2-2 2-2l2-1 16-16h1c1-1 2-2 3-2l1-1 19-11 1-1c2-1 4-2 6-3l21-6c2-1 4-1 6-1h2l23-1h1z" /><path stroke-width="0" fill="#000000" d="M3284 1440c17 0 31 14 31 32 0 2 0 4 0 6l-1 1-2 10-1 9-1 11-1 14-8 125-7 126-10 252-5 112-5 110-3 109 2 109 1 23 2 20v4l1 3v2c0 1 0 2 0 3 0 17-14 31-31 31-15 0-28-11-31-25v-1l-1-4v-1-5l-1-1-1-21v-1h-1l-1-24v-2l-1-109v-1l2-111 5-111 6-112 10-252 6-126v-1l9-125 1-14v-12h1v-1-1l1-11 1-2v-1l3-13v-2c4-12 16-22 30-22z" /><path stroke-width="0" fill="#000000" d="M3569 1794h-7l-18 6-17 9-16 14-16 17-13 20-12 20-9 20-16 47-10 52-2 16 19-7 25-12 24-14 20-15 14-13 13-15 23-36 9-17 7-19 5-19 2-18-1-16-4-12-1-2-2-2-3-2-6-2h-8zm0-63h2l13 1h1c1 1 2 1 3 1h2l12 3 1 1c1 0 2 0 3 1l3 1 10 5c2 1 3 3 5 4l1 1 8 7 1 1c1 1 1 1 2 2l2 2v1l6 8c1 2 2 4 3 6l1 2v1l6 20c1 2 1 4 2 6v2l1 24v1c0 1 0 2-1 3v1l-3 22v2 2l-6 22v1l-1 2-8 22v1l-1 1-10 22-1 1-1 2h-1l-25 39c-1 1-2 2-2 3h-1v1l-15 17-1 1-1 1-16 15-2 2h-1v1l-23 17-2 1-1 1-26 15-1 1-2 1-27 13h-1l-2 1-29 11h-1-1l-11 4 2 22 5 25 7 24 9 23 11 22 13 19 16 18 18 16 20 14 28 13 30 9 32 5 32 2 33-2 33-5 33-7 33-8 20-6v-1l18-6h1c3-1 6-1 9-1 17 0 31 14 31 31 0 13-8 24-19 29l-2 1h-1l-18 6h-1l-20 6-2 1-33 9h-2l-35 7v1h-2l-36 5h-1-1l-36 2h-2-1l-36-1-2-1h-1l-36-5-1-1h-3l-34-11c-1 0-2 0-3-1h-1l-33-16-1-1c-1 0-2-1-3-1l-24-16c-1-1-1-1-2-2l-1-1-21-19-1-1-2-1-18-21-1-1c0-1-1-1-1-2l-16-23c0-1-1-2-1-3h-1l-12-24-1-3h-1l-10-26-1-2v-1l-7-26v-1l-1-2-5-28-1-3-2-16-20 3h-2l-29 2h-2-2-3-3-1-1-3c-16-2-28-15-28-31 0-17 14-31 31-31h1 1 2 3 1l27-2 26-4 1-11v-2l3-28v-3l11-55c0-1 0-2 1-3v-1l17-50v-1l1-2v-1l11-22 1-2 13-23 1-2 1-1 15-22 2-2 1-1 18-20 1-2 2-1 20-18h1c0 0 1-1 2-2l2-1 22-13h1c2-1 4-2 6-2l24-7 3-1c1 0 2 0 3-1h1l13-1h2z" /><path stroke-width="0" fill="#000000" d="M4079 1700c2 0 3 0 4 0h2l4 1h1c4 1 8 3 11 5h1l4 3 2 2c1 0 2 1 2 2l2 2 9 10c0 1 1 2 2 3l1 1 5 10 1 1c0 1 1 2 1 3l1 1 11 32 1 2c0 1 1 2 1 3v1l6 35v2 2l2 36v2 1l-2 36v2l-4 41h-1v2l-4 25 12 40 29 81 32 79 27 57 14 26 17 24 11 14 2 2c3 5 5 11 5 18 0 17-14 31-31 31-10 0-18-4-24-11v-1l-12-14-1-2-19-26v-1l-1-2-16-28h-1l-1-2-27-60v-1h-1l-31-80h-1v-1l-12-34-14 36-1 1-18 39-1 2-20 37-1 2-22 34v1l-1 1-12 16-1 1h-1l-13 16-2 2-16 15-1 1-2 1-17 12v1c-1 1-2 1-3 2h-1l-18 9h-1c-2 1-4 2-6 2h-1l-17 4h-1-3c-1 0-2 0-3 0-1 0-2 0-3 0h-1l-19-3h-2c-2-1-4-1-6-2l-9-4-3-1-2-2-9-6c-1-1-2-1-3-2l-2-2-15-14v-1c-1-1-3-3-4-4l-12-18-1-3-1-2h-1l-8-20h-1c0-1 0-2-1-3v-1l-6-21-1-3-4-22v-1l-1-2-2-23v-2l-1-22v-1-1-21-2l3-32v-2l5-32v-2l7-33v-2l10-32v-1-1l11-32 1-2 13-30 1-2 1-1 15-28 1-3 17-26 4-6 4-6v-1c1 0 1-1 2-2l1-1 4-5 1-1c2-1 3-3 5-4l6-4 3-2c4-2 9-3 15-3 17 0 31 14 31 31 0 11-6 20-14 26l-3 2-2 3-4 7-17 25-14 27-12 28-11 30-8 30-7 31-4 30-2 30-1 19 1 20 2 21 4 19 6 19 7 15 8 13 11 11 4 3 3 1 10 1 9-1 11-6 13-9 13-12 12-14 10-14 21-32 19-35 17-37 14-38 13-39 9-40-8-27v-1l-1-2-20-83v-1l-6-27v-2l-4-28v-2-2l-1-28-1-1c0-1 1-2 1-3v-3l4-26h1c0-3 1-4 1-6l2-3 3-6c2-5 6-9 10-11l1-1 4-3h2c4-3 9-4 14-4z" /><path stroke-width="0" fill="#000000" d="M4427 1994l-3 14-3 30-1 29 3-24 3-35 1-14zm240-397h1 22l2 1c16 1 28 14 28 31 0 17-14 31-31 31h-1l-20-1-21 2-19 4-18 6-17 9-16 10-16 12-29 31-26 36-18 33 1 57 1 75v1 1l-1 75-1 1h1l-4 38v1l-5 37v2l-4 19c-1 1-1 2-1 3l-6 19-1 1-1 2c0 1 0 2-1 3v1l-10 17-1 2c-1 1-3 3-4 4l-1 2-15 12-1 1c-2 2-5 4-7 5h-1l-4 2h-1l-2 1c-3 1-6 1-9 1h-2-4-2c-6-1-12-3-16-7l-1-1-6-5-2-1c-2-3-5-6-6-10l-1-1-3-9-1-2-1-3-2-10v-2l-4-31v-2l-2-32v-1-1l2-32v-2l3-32v-3l12-63v-1l1-2 16-60 1-1v-1l16-43v-2l17-38v-2-1-2-2-1c1-10 8-19 17-24l1-1 10-17 1-3h1l28-39 1-2 1-2 33-33v-1c1-1 2-1 3-2l18-15 2-1 20-13 2-1 1-1 20-10h2l2-1 21-8h1l3-1 23-5c1 0 2 0 3 0h1l24-2h3z" /><path stroke-width="0" fill="#000000" d="M5044 1639c1 0 2 0 3 0h1l16 2 2 1c1 0 2 0 3 0l1 1 15 5 2 1c1 0 2 1 3 1l1 1 14 8 2 1c1 1 2 1 2 2h1l13 11 2 2 2 2 11 14c1 1 1 2 2 2l1 2 13 21 1 2 1 2 10 23v1l1 2v1l8 24v1l1 2 6 26v1l1 2 7 53v1 1l3 52v1l2 48v48 1l-1 96 1 48 2 47 5 45 8 45 2 9 2 8 1 1c0 2 0 5 0 7 0 17-14 31-31 31-14 0-26-9-30-22v-1l-2-9v-1l-3-9v-1-1l-8-47-1-2-5-47v-1-1l-3-48v-1-49-1-97-47l-1-46-3-51-7-51-5-23-8-22-8-20-11-18-9-10-9-8-9-5-9-3-9-1-8 1-9 3-9 7-19 21-17 26-14 30-14 33v1l-24 59-21 61-20 62-18 63-31 127-24 126-2 17-2 8-1 7v1 3l-1 1c-2 14-15 25-30 25-2 0-4 0-6-1h-2-1v-1h-1c-12-4-22-15-22-29v-1l1-5v-1-11l7-113 6-115 6-115 7-113v-1l1-12v-1l2-10 1-21v-1c2-16 15-28 31-28 17 0 31 14 31 31v2l-1 22v1l-1 11-2 11-6 98 18-56v-1l1-1 22-62v-1l24-60v-1l15-34v-1l16-32v-2l1-1 19-30 1-1c0-1 1-2 1-3l1-1 24-26 1-1c1-1 2-1 2-2l2-1 15-11h1c2-1 3-2 5-3l1-1 16-6h2c1-1 2-1 3-1l2-1 16-2h1c1 0 2 0 3 0z" /><path stroke-width="0" fill="#000000" d="M5485 1727c17 0 31 14 31 31v1l-1 51v1l-2 49-5 99-2 55-1 56v56l2 54v16l1 14v1c0 18-14 32-31 32-16 0-30-13-31-28v-2l-1-14-1-16v-1l-1-55v-1-56-1l1-56v-1l1-55v-1l6-99 2-49 1-50v-3c2-16 15-28 31-28z" /><path stroke-width="0" fill="#000000" d="M5479 1397c17 0 31 14 31 31 0 6-2 12-5 17l-1 1h1l-3 3v1c-5 11-16 19-29 19-17 0-31-14-31-31 0-3 0-7 1-10l1-2v-1l2-3c1-2 2-4 3-5l1-2 2-3 2-2 1-2c6-7 14-11 24-11z" /><path stroke-width="0" fill="#000000" d="M5777 1763h3 1l7 1c3 0 6 1 9 2l1 1 7 3 2 1c2 1 5 3 7 5v1l14 15 1 1c2 2 3 3 4 5v1l10 20v1c1 1 1 2 1 3l6 21 1 1v2l5 21v1l7 42v2l6 43h-1 1v1l7 87 5 44 6 42 8 40 12 39 3 8 3 8c2 4 3 8 3 12 0 17-14 31-31 31-13 0-24-8-29-19l-4-8v-1l-4-10v-2l-13-41-1-3-8-43h-1v-2l-6-43v-1l-5-44v-1l-8-87-5-42-7-41-4-19-5-18-6-12-2-3-4 4-8 8-29 39-26 42-23 45-21 45-4 9-5 9-3 8h-1v1l-1 2-2 3c-5 8-15 13-26 13-17 0-31-14-31-31 0-1 0-2 0-3l12-111 1-16 1-1v-1l1-9v-2c0-1 1-2 1-3l2-8v-1c4-12 16-21 30-21 12 0 22 6 28 16l1 3 14-23v-1l1-1 31-42 1-1 1-1 10-11 1-1c1-1 2-1 2-2h1l12-10 2-2c1 0 2-1 3-1l1-1 7-3 1-1c1 0 2-1 3-1l3-1 7-1c2-1 4-1 6-1z" /><path stroke-width="0" fill="#000000" d="M6195 1722c17 0 31 14 31 31 0 10-4 19-11 24l-3 2-12 8-9 10-20 25-17 25-15 27-11 27-3 12-1 10v6l5 1h8l7-2 16-7 15-11 13-15 10-19 7-20v-39-2l1-7v-2c0-1 0-2 0-3l1-1 1-4v-2c4-13 16-22 30-22 3 0 6 1 9 2h1 1l2 1c10 4 17 12 19 23l1 7v2l1 3v25 1c0 1 0 2 0 3l-1 2-3 19v57l-1 101v1l-4 102v1l-5 51v1l-6 52v1l-13 76-1 1-15 76v1l-1 1-18 76v1l-20 76-1 1-45 150-1 1-49 146v1l-12 33-11 32-1 1-24 62v1l-4 7v1l-3 6-1 2c-5 10-16 17-27 17-18 0-32-14-32-32 0-4 1-8 3-12l3-7 3-7 24-61 11-31 12-33 49-145v-1l45-149 21-75 18-76 15-75 13-75 6-50 5-49 4-101v-53l-10 7-1 1c-2 2-4 2-6 3l-23 10c-2 1-4 2-6 2l-13 2v1h-3-2l-13 1h-1c-3 0-5-1-7-1l-15-3-3-1c-3-1-5-2-8-4h-1l-11-8-1-2c-3-1-5-4-6-6l-2-3-6-11v-1c-2-2-3-5-4-8v-3l-2-15v-1c0-1 0-2 0-3 0-1 0-2 0-3v-1l2-15v-3l1-1 4-16v-2l1-2v-1l13-31c0-1 1-2 1-3h1l16-30 2-2 18-27 1-1 22-28v-1c1-1 2-2 2-2h1l12-13 3-2 2-2 14-9v-1c5-3 11-5 18-5z" /><path stroke-width="0" fill="#000000" d="M6719 1269c1 0 3 0 4 0l24 3 3 1c2 0 4 1 6 2h1l19 9 2 1c3 2 5 3 7 5l2 2 14 16v1c2 2 4 5 5 7v1l5 10c0 1 0 2 1 3v3l3 12v1c0 1 1 2 1 3v2 25c0 1 0 3 0 4v1l-3 25-1 2v1l-6 26-1 1v1l-8 24v1l-1 1v1l-20 48v1 1l-23 48-1 1v1l-50 95-24 47-21 48-17 47-12 49-2 13-2 12v2c-3 15-15 25-31 25-17 0-31-14-31-31 0-1 0-2 0-3v-1l2-13v-1l2-14 1-1v-1l12-52 1-2v-1l18-50 1-2v-1l22-48v-1l1-1 24-48v-1h1l50-95 22-47 19-47 7-23 6-22 3-21-1-19-1-7-1-4-7-7-9-4-16-2-20 1-21 4-21 7-21 9-41 23-37 27-16 13-4 4-3 8h-1c-5 10-15 17-27 17-17 0-31-14-31-32 0-4 1-8 2-12l1-2 5-10h1v-1c1-2 2-3 3-5l8-9 2-2 2-2 18-16h1l1-1 40-29 3-2 44-25h1c1 0 2-1 2-1h1l23-10 3-1 24-8c1 0 2 0 3-1l25-5c1 0 2 0 3 0h1l24-2h2z" /><path stroke-width="0" fill="#000000" d="M6653 2167c5 0 9 1 12 2l3 1 2 1 1 1c10 5 16 16 16 27 0 18-14 32-31 32-4 0-8-1-12-3l-3-1-1-1-1-1h-1c-9-5-16-15-16-27 0-17 14-31 31-31z" /></g></g></svg>