<?xml version="1.0" encoding="utf-8"?>
<!-- Created with Majerus.net InkPaint (http://www.majerus.net/InkPaint/) -->
<!DOCTYPE svg PUBLIC "-//W3C//DTD SVG 1.1//EN" "http://www.w3.org/Graphics/SVG/1.1/DTD/svg11.dtd">
<svg xmlns="http://www.w3.org/2000/svg" version="1.1" width="423mm" height="173.9mm" viewBox="0 0 8460 3478" preserveAspectRatio="xMidYMid meet"><!-- Generator: Majerus.net InkPaint UWP 1.1.14.0 --><g fill="none" stroke-linecap="round" stroke-linejoin="round"><g stroke="#000000"><path stroke-width="0" fill="#000000" d="M2897 3054c17 0 30 13 30 30 0 11-6 21-16 26h-1l-1 2-3 3-14 19-12 21-11 23-8 22-3 11-2 10 1 22 7 21 10 20 15 18 18 18 20 15 22 12 30 14 10 4c11 5 18 15 18 27 0 17-13 30-29 30-4 0-8-1-12-3l-11-4-1-1-30-14-2-1h-1l-24-14-2-1-1-1-23-17-2-1-1-1-21-20-1-1c0-1-1-1-2-2v-1l-18-22-1-2c-1-1-1-1-1-2h-1l-13-25c-1-1-1-3-2-5l-8-27-1-3c0 0 0-1 0-2v-2l-2-28v-2c0-1 0-2 0-3v-1l2-14 1-2v-2l4-15v-1l1-2 9-24 1-1v-1-1l12-24 1-2v-1l14-23 1-2 1-1 15-21h1v-1l3-3v-1h1-1l4-4 2-2 1-1 4-4 1-1c2-1 4-3 7-4h1l4-2h2c2-1 5-2 8-2z" /><path stroke-width="0" fill="#000000" d="M3227 3114h2 1 1c14 1 26 14 26 29 0 14-10 26-23 29h-1l-8 6-12 13-12 15-11 14-18 25-18 27-19 26-1 2-1 1-20 24-2 1-2 2-11 10c-1 1-2 1-3 2l-1 1-2 1h-1c-4 3-9 4-14 4-16 0-30-13-30-30 0-10 6-19 13-24l2-1 8-6 18-22 17-24 18-27v-1l19-25v-1l12-15 1-1 13-16v-1l1-1 15-15v-1c1 0 2-1 2-2l2-1 16-11v-1c2-1 4-2 5-2l1-1h2l1-1h2l1-1h1l3-1v1l1-1c2 0 4 0 6 0z" /><path stroke-width="0" fill="#000000" d="M3035 3118c3 0 6 0 9 1l1 1 7 2c1 1 2 1 3 1l1 1 6 4 38 22 1 1c1 0 2 1 2 2l33 27 2 2 2 1 28 33c1 1 2 2 2 3h1l23 38 1 1v1l9 18 1 1 8 18 1 1 5 13v1c2 3 3 7 3 11 0 16-13 30-30 30-11 0-21-7-26-16l-1-2v-1l-5-12-8-18-9-16-21-34-25-29-29-24-36-22-4-2-4-1v-1h-1c-10-4-18-15-18-27 0-16 13-29 30-29z" /><path stroke-width="0" fill="#000000" d="M3397 3260c16 0 29 13 29 30 0 2 0 4 0 6h-1v4l-1 2v1l-1 2-4 20-1 22v7h-1v3c-1 15-14 26-29 26-16 0-29-13-29-29v-1-8-1l2-25v-1-2l4-24h1c0-1 0-2 0-3l1-1 1-3v-2l1-2c3-12 14-21 28-21z" /><path stroke-width="0" fill="#000000" d="M3556 3141c1 0 2 0 3 0 1 1 2 1 3 1 1 0 2 0 3 1 1 0 2 0 2 1 1 0 2 0 3 1 1 0 2 1 2 1 1 1 2 1 3 2 0 1 1 1 2 2 0 1 1 1 2 2l1 2 1 1v1l2 2 35 47 39 44 17 17 19 12 4 2 1 1c9 5 15 14 15 26 0 16-13 29-29 29-4 0-8-1-12-2l-1-1-6-3h-1c-1-1-2-1-3-2l-22-15c-1 0-2-1-2-2l-2-1-20-19-2-2-40-46h-1v-2h-1l-36-49-2-3-1-1-1-1c-3-4-5-10-5-16 0-1 0-2 1-3 0-1 0-2 0-3 0-1 0-2 1-3 0-1 0-2 1-3 0-1 1-1 1-2 0-1 1-2 1-3 1-1 2-1 2-2 1-1 1-1 2-2 1-1 1-1 2-2 1-1 2-1 2-2 1 0 2-1 3-1 1-1 2-1 2-1 1-1 2-1 3-1 1-1 2-1 3-1 1 0 2 0 3-1 1 0 2 0 3 0z" /><path stroke-width="0" fill="#000000" d="M3737 3118c16 0 30 13 30 29 0 4-1 8-3 11l-1 3-11 20-6 21-6 24-4 24-8 46-6 46-4 47-2 46v12 3c-2 15-14 26-30 26-16 0-29-13-29-29v-1-12-1l2-47v-2l4-48v-1l6-47 1-2 8-47v-1l4-24 1-1 5-24v-1l1-2v-1l8-24 1-3 1-2 12-23c5-9 15-15 26-15z" /><path stroke-width="0" fill="#000000" d="M3823 3005c8 0 15 3 20 8h1l10 11 2 2c0 1 1 1 2 2v1l8 12 1 1 16 28v1l1 2v1l13 29 1 2v1l10 30 1 2v1l6 30 1 1v2l4 31v1 1l2 32v2 32 2l-1 31-1 2-3 34c-1 15-14 27-29 27-17 0-30-13-30-30v-2-1l4-34 1-30v-30l-1-30-4-29-7-29-9-27-11-26-15-26-6-10-8-8-2-2c-4-5-7-12-7-19 0-16 13-29 30-29z" /><path stroke-width="0" fill="#000000" d="M2299 1480c15 0 27 12 29 27l1 9v3 2l-1 9-2 40v1 1l-4 40v1l-13 81v1l-16 80-14 79-5 35-4 36-2 13v2c-3 14-15 24-29 24-16 0-30-13-30-29 0-1 0-2 1-3v-1l1-13v-1l5-35v-1l5-36v-1l14-80v-1l16-79 12-79 4-39 2-39v-1l1-7-1-7v-2c0-16 13-30 30-30z" /><path stroke-width="0" fill="#000000" d="M2513 2145c17 0 30 13 30 29 0 16-12 28-27 30h-1l-19 1-46 2h-1-46l-88 1-88 3-87 6-85 9-21 4h-2-1l-22 3c-1 0-2 0-3 0-16 0-29-13-29-30 0-14 10-26 23-28l3-1 21-2 22-4h2l86-10h1 1l88-6h1l88-3h1l89-1h46l44-2 18-1h2z" /><path stroke-width="0" fill="#000000" d="M2182 2370c1 0 2 0 3 0l3 1 20 4h1c3 1 5 2 8 3l16 9 2 2c3 1 5 3 7 5l11 15 2 2c1 1 2 3 3 5v1l7 19 1 2c0 1 0 2 1 3v1l4 31 1 1c0 1 0 2 0 3v1l-1 32v2l-1 2-5 31v1l-1 3-9 31c-1 1-1 2-1 3l-13 30c-1 1-1 2-1 3l-8 13 22 3h2l30 6h1c13 3 23 15 23 29 0 16-13 29-29 29-1 0-2 0-3 0h-2l-30-6-24-2-25-1h-3l-10 12c-1 1-1 1-2 2l-27 26-1 2h-1l-15 12-2 1-1 1-16 10-1 1h-2l-17 8-1 1c-1 0-2 1-3 1l-17 5-3 1h-3l-18 2c-1 0-2 0-3 0-1 0-2 0-3 0l-18-2h-3c-1-1-2-1-3-1l-1-1-8-2-1-1c-3-1-5-2-8-4l-2-2-3-4c-5-4-7-9-9-15v-1l-1-5h1l-1-2c0-1 0-2 0-3 0-3 1-6 1-8l1-1 1-4v-1l1-2c1-2 2-4 3-5l1-2 8-10v-1c1-1 2-1 2-2l2-1 10-9v-1l3-1 22-16c1 0 2-1 3-1l1-1 24-12 2-1h2l26-10h1 2v-1l27-6h1 2l26-4 10-14 14-26 12-28 8-27 5-28 1-27-4-25-4-12-6-6-7-4-12-3-18 1-19 2-19 5-18 7-37 20-34 25-10 8-1 1-2 3c-5 9-15 16-26 16-16 0-29-14-29-30 0-5 1-10 3-14l4-6c1-2 2-4 3-5l1-1 5-6 1-1c1-1 2-1 2-2l12-9 1-1 37-27h1c1-1 1-1 2-2l41-22 2-1h1l22-8 2-1h1l22-6 1-1h2l22-3h2 2l23-1z" /><path stroke-width="0" fill="#000000" d="M3659 1447c17 0 30 13 30 29 0 13-9 25-21 28l-1 1h1l-16 4h-1l-2 1h-2l-17 3h-1l-27 3h-2l-27 2h-2l-55-1h-1l-56-2-54-1-170 4-85 5-83 7-41 5-40 7-74 13 12 5 41 12 41 13 1 1 116 43 2 1 113 50h1l1 1h1l110 57 1 1 107 64h-1l1 1 10 6 1 1 2 1 10 9h1c1 1 3 2 4 4l4 5 1 2c1 1 1 2 2 2l1 2v1l2 5c2 3 2 6 3 9v2 5 1c0 3 0 6-1 9l-1 2v1l-3 6c-1 2-1 4-3 5l-1 2-13 17h-1c0 1-1 2-2 2v1l-17 16-1 1-18 14v1l-17 13-72 62-34 32-34 33-100 102-100 102-35 37-32 39-62 81-62 82-1 1-32 40v1h-1l-19 23 7 1 49 4 51 2 51-2 104-8 105-8 172-10 172-13v1-1l81-5h2l80-2h1 1l32 1h2c15 2 27 14 27 30 0 16-14 29-30 29h-1l-31-1-79 2-81 5-172 13-172 10-104 8-105 8h-2l-52 2h-1-1l-52-2h-2l-52-5h-2l-52-9-2-1-4-1h-1l-2-1-3-1c0 0-1 0-2-1l-2-1h-1v-1c-8-5-13-14-13-24 0-6 2-12 5-17v-1l9-11 1-1 1-1v-1l9-10 33-38 32-39 61-83v1l1-1 62-82h1v-1l33-39 1-1v-1l36-38 101-102 100-102 1-1 34-34h1l35-33v-1l73-62 18-14 17-14 14-13 3-4-8-5-105-64-109-56-112-50-115-43-40-12-41-13-1-1-41-14-1-1-1-1v1l-38-19-1-1-2-1-3-1v-1l-3-2h-1l-3-3-1-1-2-1-1-1h-1c-5-6-8-13-8-21 0-13 7-23 18-28h2l35-12 3-1 36-8h1l82-15h1l41-8h1l42-5h1l85-7h1l85-4h1v-1l171-4h1l55 1h1l55 2 54 1 26-2 26-3 15-2 14-4 2-1c2 0 4 0 6 0z" /><path stroke-width="0" fill="#000000" d="M7197 2058c16 0 29 13 29 30 0 15-11 28-26 29h-2-6l-63 6-65 6h-2l-37 2h-1l-37 1-37 1-36 2h-3-1-2c-1 0-2 0-3 0-1 0-2 0-3 0-1 0-2-1-3-1-2 0-4-1-5-2-1-1-2-1-3-2-3-2-6-4-8-8 0 0-1-1-1-2-1-1-1-2-2-3 0 0 0-1-1-2 0-1 0-2 0-3-1-1-1-2-1-3 0-1 0-2 0-3 0-1 0-2 0-3 0-1 0-2 1-3 0-1 0-2 0-3 1-1 1-2 1-3 1 0 1-1 2-2 0-1 1-2 1-3 1 0 1-1 2-2 0-1 1-1 2-2 0-1 1-1 2-2 1 0 1-1 2-2 1 0 2-1 3-1 0 0 1-1 2-1 2-1 4-2 6-2 1 0 2 0 3 0h1v-1h4l37-2h1l38-1 37-1 36-1 64-7h1l64-5h1v-1h6 2z" /><path stroke-width="0" fill="#000000" d="M7515 1900c13 0 24 9 28 21v2l1 1v1c0 1 0 2 0 3v2 2 1 3l4 28 6 29 11 25 6 9 7 7 3 2h1l4-2 6-4 6-5 14-14 26-30 26-32v-1c1 0 1-1 2-2l4-3 2-2c2-2 4-4 7-5l3-1c4-1 7-2 12-2 5 0 9 1 14 3l4 3c6 3 10 7 12 12h1l3 7 1 2 1 2 3 9v1 1l14 50 1 2v1l8 53 1 2 5 54v1l2 54v1l1 43v1 45 1l-3 45v2l-5 45-1 2-8 44v1 2l-12 43v1l-1 1-16 42v1l-1 2-20 39h-1c0 1-1 2-1 3l-13 19c-1 1-1 2-2 3l-15 18h-1l-1 2-1 1-17 17h-1l-1 1-1 1-20 15v-1l-1 1c-1 1-2 1-2 2h-1l-20 11h-1l-2 1c-1 0-2 1-3 1l-22 7h-3c-1 0-2 1-3 1h-1l-23 1h-2c-1 0-2 0-3 0h-3l-24-5c-2 0-4-1-6-1l-1-1h-1l-19-10h-1c-2-1-4-2-5-3l-2-2-15-14v-1c-1-1-3-2-4-4v-1l-11-18-1-1c0-1-1-2-1-3l-1-2-7-20v-1c0-1-1-2-1-3v-1l-4-21v-2-2l-1-22v-2-1l1-22v-1l1-2 3-20v-1l1-3 8-30 1-1c0 0 0-1 1-2v-1l12-28v-1l2-2v-1l16-27 1-2 1-1 18-26 2-2 21-25 2-1 22-23 2-2 24-21 1-1 25-19h1l29-21c5-3 11-5 17-5 16 0 29 13 29 30 0 9-4 17-11 22l-2 2-28 20-23 17-23 20-21 21-19 23-18 24-14 25-11 26-8 27-3 17-1 19 1 19 3 17 5 15 7 12 9 8 12 6 16 3 17-1 16-5 17-8 16-12 15-15 14-16 11-17 19-36 14-38 11-41 8-42 5-43 3-43v-44l-1-43-2-52-5-52-8-51-5-19h-1v1h-1l-27 32-2 2-15 15h-1l-1 2-9 7-3 2-10 6-1 1c-1 1-2 1-3 2l-10 4-3 1c-1 0-2 0-2 0l-3 1-10 1h-1c-1 0-2 0-3 0-2 0-4 0-5 0h-1l-10-2-3-1c-1-1-3-1-5-2l-1-1h-1l-10-7c-2-1-3-2-5-4l-11-12-1-1c-1-1-2-2-2-3l-9-13-2-2c0-1 0-2-1-3l-13-31c0-1-1-2-1-2v-3l-8-32v-1l-1-3-3-31v-1l-1-2v-4-1c0-1 0-2 0-3 0-17 13-30 30-30z" /><path stroke-width="0" fill="#000000" d="M8310 1362c1 0 2 0 3 0l1 1v-1l17 3h1c4 1 8 3 11 5l1 1 13 9 1 1c2 2 4 4 5 6l1 2 5 7 1 1c0 1 0 2 1 3l1 2v1l3 9c0 1 0 2 1 3v3l2 18c0 1 0 2 0 4v2 1l-2 18c0 1 0 2 0 3l-1 2-5 18v1c0 1-1 2-1 3l-8 18c0 1 0 2-1 3l-5 9 18-2h2 34 1 19 3c15 2 26 14 26 29 0 17-13 30-29 30h-19-34l-33 2-32 6-17 5-1 1-1 1-6 3-1 1c-2 1-4 1-5 2h-1l-6 2-2 1c-2 0-4 0-6 0-8 0-14-2-19-7h-1v-1l-2-1c-5-5-8-13-8-21 0-8 3-15 8-21l2-2 2-1c1-1 1-1 2-2l2-1 5-3h1c1-1 2-1 2-1l3-1 3-1 3-3 11-11 11-12 9-14 9-14 6-15 4-14 1-13-1-13-1-3-3-2h-3l-8 2-10 5-9 8-7 10v1l-1 6v2c-3 13-15 23-29 23-17 0-30-13-30-29 0-1 0-2 0-3v-1l2-9v-2c0-1 0-2 1-3v-1l3-9 1-1c1-2 1-3 3-5l11-16 1-1c1-1 1-2 2-3l2-1 14-13h1c0-1 1-1 2-2l2-1 15-9h1c1-1 3-1 5-2h2l18-5h1c2-1 4-1 6-1z" /><path stroke-width="0" fill="#000000" d="M4179 1699c7 0 14 6 14 14 0 1 0 2-1 3v1 1h-1v1 1l-2 13-1 14 1 31 3 31v1l3 31v1 36 1l-2 36-4 73-5 68-3 68-5 92-7 92-2 28-1 29-2 29v1l-2 28v1l-2 13v2c-1 6-7 11-13 11-8 0-14-6-14-14v-1-1l2-13 2-28 1-29 1-29 2-29 8-92 4-91v-1l4-68 5-68 4-72 2-36-1-35-2-31-3-32v-1h-1l-1-31v-1-1l1-15 1-2 2-15v-1l1-1v-2l1-1v-1c2-5 7-9 13-9z" /><path stroke-width="0" fill="#000000" d="M4283 1700c0 0 1 0 2 0 1 0 2 1 3 1 1 0 1 1 2 1 1 1 2 1 2 2 2 2 3 4 4 7 0 1 0 2 0 3 0 2 0 3-1 5v1l-1 2-5 12-3 12-4 28-3 32-2 31-2 68v1l-2 34-4 34v1l-8 48-5 48-5 63v1l-6 62-3 53-1 52 2 106v46 2 3c-1 6-7 11-14 11-7 0-13-6-13-14v-2-46l-2-106v-53-1l4-53 6-63 4-63h1-1l6-49v-1l8-48 3-33 2-34 3-68 1-32 1-1h-1l4-32v-1l4-28v-1h1l3-15 1-1h-1l6-14v-1l1-2 1-2c1-1 1-1 2-2 0-1 1-1 2-2 1 0 1-1 2-1 1 0 2-1 3-1 1 0 2 0 3 0z" /><path stroke-width="0" fill="#000000" d="M7913 1633c7 0 13 6 13 13v2 2l-1 47-1 22 2 23 10 52 5 26 1 1 3 27v1l5 85v1l1 85-1 100-2 99v1l-1 32-1 31h-1v1h1l-2 45-3 46-1 16 1 14 1 2c0 1 0 2 0 3 0 8-6 14-14 14-5 0-10-4-12-9h-1v-1-2l-1-1v-1-2l-1-16v-1-1l1-17 2-45 2-45 1-32v-1l2-31 2-100v-99-85l-5-84-3-26-5-26h-1l-10-53v-1l-2-24v-1-24l2-47v-1-2c0-7 6-13 14-13z" /><path stroke-width="0" fill="#000000" d="M8002 1604c5 0 9 3 11 6l1 1 3 4v1l1 1v2l2 6v1 1l2 12v1l1 29v1 28 1l-1 57 2 44 5 44 8 46v1l5 47v1l9 158 3 90 2 45 4 44h-1 1l4 49 3 49 1 3v1c0 8-6 14-14 14-7 0-12-5-13-11l-1-2v-3l-4-49-4-49-4-44v-1l-1-45h-1l-2-90-9-157-5-47-8-46v-1l-5-45v-1l-2-44v-1l1-58v-28l-2-28-1-10-1-4-2-3h1l-2-2c0-1-1-3-1-5 0-8 6-14 14-14z" /><path stroke-width="0" fill="#000000" d="M4518 1994c16 0 29 12 31 28v3 51l1 50 4 49 6 44 11-12 12-20 10-21 8-24v-1l8-25c1-2 1-4 2-6l1-2 2-2 1-1c2-5 6-8 10-10l3-1 2-1v-1c4-1 8-2 12-2 5 0 9 1 12 2h1l4 2v1c4 1 7 3 10 6l5 5 2 2 4 5 1 2h1l19 28c1 1 1 2 2 3l16 30v1l28 60 9 13 10 10 3 1 4 1h3 4l4-2 4-3 10-13 9-18 6-19 8-32 4-33 2-34v-35l1-3 1-14v-1l1-2c0-2 1-4 1-6l1-1 5-12v-1l2-2c0-1 1-2 1-2l1-1h-1l3-3 1-2c6-7 14-11 24-11 17 0 31 14 31 31 0 6-2 12-6 17v1l-3 6-1 8v35l-1 1h1l-2 36v1l-1 1-4 35v3l-1 1-8 35v-1l-1 2v1l-8 22v2l-1 2-11 22v1c-1 1-1 2-2 3l-1 2-15 19c-2 2-3 3-4 5h-1l-9 7-2 2c-1 0-2 1-3 1l-1 1-11 5-1 1c-2 0-4 1-6 1l-11 3c-2 0-4 0-6 0h-2-10-2c-1 0-2-1-3-1h-2l-1-1-10-2v-1c-1 0-2 0-3-1l-2-1h-1l-9-5c-2-1-4-2-5-3l-1-1-16-15-1-1c-2-1-3-3-4-4v-1l-12-18-2-2v-2l-29-61-12-22-1 4v1l-1 2-1 1-11 24-1 2v1l-15 24-1 1c0 1-1 2-1 3l-1 1-19 20-1 1c0 1-1 2-2 2l-1 1-11 8-1 1c-1 0-2 1-3 1l-1 1-12 6-1 1c-2 0-4 1-6 1h-1l-6 2h-3c-1 0-2 0-3 0-2 0-4 0-6 0l-5-2h-1-2c-5-2-9-4-13-8l-1-1-7-7-1-2c-2-2-3-4-5-7v-2l-4-12c-1-1-1-2-1-3v-1l-2-11-1-2-7-50v-1-1l-3-51v-2l-1-51v-1-51c0-17 13-31 30-31z" /><path stroke-width="0" fill="#000000" d="M5130 1799c16 0 29 13 30 28v1 1l1 2-1 2h1l-1 2v1 2 2 1l-3 28v1l-1 1-5 29v1l-11 56-6 33-5 34-1 5v3c-3 14-15 25-30 25-17 0-31-14-31-31 0-1 0-2 0-3v-1l1-6v-1l5-34v-1l6-34v-1l12-56 5-28 3-26v-1-2-1-1c0-17 14-31 31-31z" /><path stroke-width="0" fill="#000000" d="M5252 1786h1l12 1h2c15 1 27 14 27 30 0 17-13 31-30 31h-1-12-29l-30 1-88 5-43 4-40 6-5 2h-3l-7 2h-3c-1 0-2 0-3 0-17 0-31-13-31-31 0-14 11-27 25-30l5-1 6-1 3-1h1l43-7 2-1 44-4h1 1l89-4 31-2h1 31z" /><path stroke-width="0" fill="#000000" d="M5517 1947c17 0 30 14 30 31 0 4 0 8-2 12l-1 2-1 2c0 1 0 1-1 2l-10 19-1 2-12 19-1 1-25 37-1 1-42 58-1 1-45 56-44 56-40 58-6 9-5 10-1 3-1 1c-5 9-15 16-27 16-17 0-31-14-31-31 0-4 1-8 2-12l1-1 2-4v-1l6-11 1-1 7-11v-1l1-1 40-58 1-1 1-1 44-57h1l44-56 42-57 25-36 11-18 9-16v-2l2-2v-1-1c6-9 16-16 28-16z" /><path stroke-width="0" fill="#000000" d="M5284 2004c7 0 14 3 19 7v1h2c1 1 2 1 3 2l27 18 2 2 25 20v1l2 2 24 22v1c0 0 1 1 2 2l21 25 1 3h1l20 31 1 2 1 2 16 32 1 2v2l13 34v1 2l9 35 1 1v1l3 14v1 2c0 2 0 3 0 4 0 17-13 30-30 30-15 0-28-10-31-24l-2-15-9-33-11-31-15-30-18-28-19-23-21-21-23-18-25-17-2-1-2-1-2-2h-1c-1-1-3-3-4-4l-2-2-1-1c-5-6-7-12-7-20 0-17 14-31 31-31z" /><path stroke-width="0" fill="#000000" d="M5937 2077h1l27 1h2 1l26 4h3l5 1v1h2 1l2 1c13 4 22 16 22 29 0 17-14 31-31 31-3 0-6 0-9-1l-2-1h-2l-24-3-25-1h-53l-82 1-79 2-3 1h-2-2-4-2c-17 0-30-13-30-31 0-15 12-29 27-30h2 3l3-1h2 2l81-3h1 82l55-1z" /><path stroke-width="0" fill="#000000" d="M5843 1928c16 0 29 13 31 28v1l3 45 4 43v2l1 66 2 65 1 11v2c0 17-14 31-31 31-16 0-29-12-31-28v-2l-1-11h1l-1-1-1-65-2-65-4-43v-1l-3-45v-2c0-17 14-31 31-31z" /><path stroke-width="0" fill="#000000" d="M6282 1822c17 0 31 14 31 31v1l-2 131v1l-3 65v1l-6 66v1l-2 22 1-1 2-1v-1l22-14 2-1h1l22-12 2-1h2l24-9h1l3-1 24-5c1 0 3-1 4-1h1l25-1h2c1 0 2 0 3 0h1l12 1 3 1c1 0 2 0 3 1h2v1h1l10 4c3 1 6 3 8 5l2 1 8 8c3 3 5 7 7 10l1 2 4 12v1c1 2 1 4 1 6l1 3v11c0 1 0 2 0 3l-1 3-2 11v1c0 2-1 4-2 5v1l-9 21-1 2c-1 1-1 2-2 3v1l-14 19-1 2-2 1-15 17h-1c0 1-1 2-2 2l-28 23-2 2-2 1-31 18h-1c-1 1-1 1-2 1l-2 1-34 12-1 1c-1 0-2 0-3 0l-1 1-35 5-2 1h-2-13-1c-17 0-31-13-31-30 0-16 12-30 27-31h2l12-1 30-5 29-10 26-15 24-20 13-13 11-15 6-16 1-4v-3l-6-1-20 2-21 4-20 7-19 10-19 12-18 14-33 34-1 2v-1l-1 1-3 3-1 2-3 3v-1l-1 2c-6 4-13 7-20 7-2 0-4 0-6-1h-1-1l-2-1c-13-4-22-15-22-29 0-1 0-2 1-3v-2l9-54 6-53 5-64 3-64 2-131v-3c2-16 15-28 31-28z" /><path stroke-width="0" fill="#000000" d="M4550 1728c17 0 31 14 31 31 0 9-5 18-11 23l-1 1-1 1-1 1-1 1c-1 1-1 1-2 2h-1l-39 30v1l-19 14-16 15-25 26-21 29-18 32-5 15-5 16-6 38-4 39-1 40v39l3 36 6 35 8 35 11 33 15 32 17 31 19 28 23 28 5 4 1 2c4 5 7 12 7 20 0 17-14 30-31 30-8 0-16-3-21-9h-1l-5-6-1-1-25-29-2-2v-1l-21-31-2-2-18-33-1-3h-1l-15-34v-1l-1-2-12-36v-1l-1-1-9-37v-2-1l-6-38v-1-1l-3-38v-2l-1-41v-1-1l1-41v-2l4-41 1-2 7-41v-1-2l6-19v-1l1-2 7-18v-1c0-1 1-2 1-3l19-35c1-1 1-2 2-2l1-1 24-33 1-1 1-1 27-29 1-1 1-2 18-16 1-1h1l20-15 36-29 1-1 1-1c1 0 2-1 2-2h1l3-3 2-1c1 0 1-1 2-1l1-1 2-1c4-1 8-2 12-2z" /><path stroke-width="0" fill="#000000" d="M6552 1749c6 0 11 2 15 4l3 2 2 1 2 2 3 2h1l26 22c2 1 3 3 5 4l21 26c1 2 2 3 3 5l16 29c1 1 1 2 2 3v2l1 1 10 32 1 1c0 1 0 2 0 3l1 1 7 44 1 3v1l3 45v2 45l1 45 2 64v1 64 2l-2 32v1l-3 32v2l-5 32-1 1v1l-8 31v2l-1 2-16 41c-1 1-1 2-2 3l-1 1h1l-23 38v-1l-1 2-1 2-28 34-2 2-30 31-1 1-9 9-2 1c-5 5-12 7-19 7-17 0-31-14-31-31 0-8 3-16 9-21v-1l9-9 29-29 25-31 21-33 14-37 7-28 5-29 3-30 1-31v-63l-2-63v-1-45l-1-45-3-43-7-40-9-29-13-24-18-21-24-20-1-1h-1l-2-1c-8-6-13-15-13-26 0-17 13-31 30-31z" /></g><g stroke="#ED331F"><path stroke-width="0" fill="#ED331F" d="M533 313c12 0 22 6 27 16l1 1v1l1 2c0 0 1 1 1 2v1l1 1v1l1 4 18 57v1 2l15 60v1 1l10 61 1 2 5 62v3 62 3l-6 61v1c0 1 0 2 0 3l-13 59v1l-1 2v1l-9 29-1 2-11 28v1l-1 2-10 21-1 1-1 1-12 20-1 1-1 2-14 18-1 1c0 1-1 1-2 2l-16 16-2 2-2 1-18 13h-1c0 1-1 1-2 2l-2 1-20 9-1 1c-1 0-2 0-3 1h-2l-22 5-1 1c-1 0-2 0-3 0h-2l-24 1h-1c-1 0-2 0-3 0l-2-1-12-2h-1c-2 0-4-1-6-2l-10-4c-3-1-6-3-8-5l-9-7-1-2c-2-1-3-3-4-4l-1-2-6-10-1-1c0-1-1-2-1-3l-1-2v-1l-2-7c-1-3-2-6-2-9 0-17 14-31 31-31 13 0 24 8 28 19l1 2v1l2 4 1 2 1 1 3 1 5 1h18l16-4 15-7 14-10 13-12 11-16 11-17 9-18 10-27 9-27 12-56 6-58v-59l-6-60-10-59-14-58-17-57v-1l-1-3c-2-4-3-8-3-12 0-17 14-31 31-31z" /><path stroke-width="0" fill="#ED331F" d="M863 283c17 0 31 14 31 31 0 16-12 29-28 30v1h-9l-11 1-73 4h-1l-74 2h-134-68l-67 1-67 5-65 7-63 13-60 17-6 3-1 1-3 1-7 2c-3 1-6 1-9 1-17 0-31-13-31-30 0-13 8-24 19-29l2-1h1l4-1 6-3 2-1c1 0 2-1 2-1h1l63-19h1 2l1-1 65-12 3-1 67-8h1l68-4h2l68-2h69 133l73-1 72-4 10-1 9-1h2z" /><path stroke-width="0" fill="#ED331F" d="M1260 212c17 0 31 13 31 30 0 6-1 11-4 15l-1 3-2 2c-1 2-2 4-4 5l-1 1-4 4-1 1h-1l-4 3-2 2-35 36-31 40-27 42-22 45-19 46-15 49-11 50-8 52-5 67-1 68 3 67 9 67 5 23 6 24 8 23 9 21 12 18 13 15 16 12 19 8 8 2 2 1c12 4 21 15 21 29 0 17-13 31-31 31-2 0-4 0-6-1h-1l-11-3h-2c0-1-1-1-2-1h-1l-24-11-3-1c0-1-1-1-2-2l-1-1-21-15-1-1c-1-1-2-1-2-2l-1-1h-1l-17-19v-1c-1-1-2-2-2-3h-1l-14-23-1-1-1-2-11-24v-1l-1-2-9-26v-1-1h-1l-6-26-1-2-5-25v-2l-9-69v-1-1l-4-70v-2l1-70v-2l6-69v-1-1l8-54v-2h1l11-52v-1l1-2 16-51v-2l1-1 19-49 1-2 24-47v-1l2-2 28-44v-1l2-2 33-42v-1l2-1 37-40v1l1-1c0-1 1-1 2-2l3-3h1l4-3 1-2c6-7 15-11 24-11z" /><path stroke-width="0" fill="#ED331F" d="M1870 375c17 0 31 14 31 31 0 11-6 20-14 25l-2 2-5 2-3 3v1l-4 9-2 14v17l3 67 1 68v1 34 2l-3 33v1 1l-4 34-1 2-6 32v1l-1 1-1 5v1l-2 5v1l-1 2-5 13h-1c0 1 0 2-1 3l-1 2-3 5h-1c-1 2-2 3-3 5l-2 1-3 3-1 1c-4 3-9 6-14 7h-1-4l-2 1c-1 0-2 0-3 0-6 0-12-2-17-6h-1l-4-3-1-1c-2-2-3-3-5-4l-1-2-18-25-1-1v-2h-1l-16-27h1l-1-1-30-55-12-21-12-22-11-14-15 55-13 59v1l-14 60-1 2-18 58-1 2-2 7h-1v1l-3 9-1 1v1 1l-10 19-1 1c0 1-1 1-1 2l-1 2-6 8-1 1c-1 1-3 3-4 4h-1l-7 6-2 1c-2 2-5 3-8 4l-2 1h-1l-7 1c-2 1-5 1-7 1-3 0-6 0-9-1l-1-1-8-3h-2c-2-1-4-2-6-3l-1-1-13-10h1l-1-1c-1 0-2-1-3-2l-11-12-2-2c0 0-1-1-1-2h-1l-18-28-2-3-1-1-15-31v-2-1h-1l-11-30-1-2-18-57v-2l-8-31v-1l-6-31v-3l-4-31v-2l-1-31v-1-2l2-31v-1l1-2 5-29v-1-1l1-3 1-5v-1l1-4 1-2 1-2v-1-1l1-1c4-11 15-19 28-19 17 0 31 14 31 31 0 3-1 7-1 9l-1 3-1 2-1 5-1 2-4 27-2 27 1 29 3 29 5 29 7 28 18 56 11 28 13 28 16 25 6 6 5-10 3-8 2-6 18-56 14-59 13-59v-1-1l16-59 1-1v-1l4-11 1-2 1-2h-1l6-11 1-1c0-2 2-4 3-5l1-1 3-4 2-2c1-1 3-2 4-3l2-1 4-3 1-1c3-1 6-2 9-3h2 1l5-1c1 0 2 0 3 0 4 0 7 1 10 1v1l6 1c2 1 4 2 5 3l2 1 10 6 1 1c1 0 2 1 2 2l2 1 9 8 1 1c1 1 1 2 2 2v1h1l16 22 1 1 1 2 14 23v1l12 22 30 54 5 9 2-8 4-31 2-32 1-32-2-67-2-67v-1-20c0-1 0-2 0-3l2-20 1-2c0-1 0-2 0-3l1-2 7-17v-1c1-2 2-4 3-6l1-1 6-7v-1c1-1 2-2 2-3l2-1v-1h1l7-6c1 0 2-1 2-2l3-1 7-4c5-3 10-4 15-4z" /><path stroke-width="0" fill="#ED331F" d="M2039 137c5 0 9 0 12 2h1l7 3 8 3 2 1c2 1 3 2 5 3l25 17 2 2 2 1 22 21 1 1 2 2 20 24c1 1 1 2 2 3l18 27 1 2h1l15 28 1 1v1l14 30 1 1 23 58 1 3 22 70 1 3 15 72 1 2 9 74v1 2l4 74v2 1l-3 74v2 1l-8 73v1l-1 2-14 73-1 2v1l-20 69v1l-1 1-4 13h-1v1l-4 12-1 1c-4 11-15 19-28 19-17 0-31-14-31-31 0-3 1-6 2-9v-1l4-12 5-13 19-68 14-70 9-71 2-72-3-72-9-71-15-70-21-68-23-56-13-27-15-27-16-25-18-21-20-19-19-13-6-2-2-1-8-3-2-1c-10-6-16-16-16-28 0-17 13-30 30-30z" /><path stroke-width="0" fill="#ED331F" d="M2931 465c17 0 31 14 31 31 0 16-12 29-27 31h-1l-20 1v1-1l-1 1-94 7h-1l-52 2h-1v1l-52 1-105 3h-1-3-3l-2 1c-2 0-4 1-6 1-17 0-31-14-31-31 0-13 8-24 19-29h1l3-1 1-1c2 0 4-1 6-1h1 5 2 4 3l104-4 52-1 52-3 93-7 20-2h3z" /><path stroke-width="0" fill="#ED331F" d="M2981 639c17 0 31 13 31 31 0 14-11 27-25 30h-2l-42 6-50 6-51 7-51 7-48 9h-1l-17 4-16 4-12 5-11 8h-1c-5 3-11 5-17 5-17 0-31-13-31-30 0-10 5-19 11-24l2-2 15-10c2-1 4-2 6-3l18-7 2-1h1l19-5h1l18-4h1l49-9v-1h2l51-7h1l51-7 50-6 42-6h1c1 0 2 0 3 0z" /></g></g></svg>