<?xml version="1.0" encoding="utf-8"?>
<!-- Created with Majerus.net InkPaint (http://www.majerus.net/InkPaint/) -->
<!DOCTYPE svg PUBLIC "-//W3C//DTD SVG 1.1//EN" "http://www.w3.org/Graphics/SVG/1.1/DTD/svg11.dtd">
<svg xmlns="http://www.w3.org/2000/svg" version="1.1" width="263mm" height="192.85mm" viewBox="0 0 5260 3857" preserveAspectRatio="xMidYMid meet"><!-- Generator: Majerus.net InkPaint UWP 1.1.14.0 --><g fill="none" stroke-linecap="round" stroke-linejoin="round"><g stroke="#000000"><path stroke-width="0" fill="#000000" d="M790 759c17 0 31 14 31 31v2l-1 27v2l-3 28-8 55-32 273-30 273-25 275-10 137-8 138-11 253-7 253-2 127 1 126 4 126 6 126 6 76 4 76v1l3 76v1l-1 1h1l-3 76v1l-2 31v1 1l-2 15v2l-1 2v1l-4 14-10 34-4 33-2 35-1 38v2l-2 25v1l-3 25-2 23v17l2 1 7 5 8 3 22 8 23 6 24 4 26 2 53 1 52-2 106-6 105-8 211-21 106-10 106-9h1l106-6h1l107-3h1l138-1 138 1 138-1 138-4 171-9 173-11 173-9h1l173-5 203-3 100-4 102-5 234-14v1-1l118-4h1l117-3h1 118l118 3h1l117 7h1 1l116 11h2l60 9h1l60 11h1l117 25h1l11 2h1l2 1c13 4 22 16 22 30 0 17-14 31-31 31-2 0-4 0-6-1l-12-2-118-25-58-10-60-9-115-11-116-7-117-3h-117l-117 3-117 5-234 13-102 6-101 3h-1l-203 4-172 5-172 9-173 10-173 9-139 4-139 1h-138-137l-106 3-106 6-105 9-105 10h-1l-211 21-106 8h-1v1l-107 5-54 2h-1l-55-1h-3l-27-2h-1-1l-27-5h-2-1l-26-7h-2-1l-25-10h-2l-1-1-10-5h-2l-1-1-11-7-1-1c-1 0-2-1-3-2l-1-1-9-9h-1c-2-2-4-5-6-7l-1-3-4-10v-1c-2-2-2-5-3-8v-3l-1-25v-1l1-3 2-25v-1l3-25 2-23 1-37v-1l1-37v-2l1-1 4-36 1-2v-3l11-36v-1l3-12 2-11 2-29 2-75-2-74-5-76-5-76-7-127v-1l-3-127-1-127v-1l1-127 8-254v-1l11-253v-1l7-138h1-1l10-138 1-1 25-275 30-274v-1l32-273 8-55 3-26 1-26v-2c2-15 15-28 31-28z" /></g><g stroke="#1F5FFE"><path stroke-width="0" fill="#1F5FFE" d="M1251 2156c17 0 31 14 31 31 0 8-3 15-7 20l-1 1-26 29-24 30h-1v1l-35 43-33 44-28 47-12 23-9 24-4 11v1l-1 2c-5 11-16 19-29 19-17 0-31-14-31-31 0-4 1-7 2-10l4-12v-2h1v-1l10-25v-1l1-1 12-26 1-1 1-2 29-49 1-1 1-1 34-46 1-1v-1l36-43 26-31v-1l27-30 1-1c6-6 13-9 22-9z" /><path stroke-width="0" fill="#1F5FFE" d="M1090 2239c3 0 6 0 9 1h1 1 1c1 0 2 0 3 1h1l35 8v1h2 1l35 12 2 1 34 14 1 1 33 15 21 10 1 1c10 5 17 16 17 28 0 17-14 31-32 31-4 0-8-1-12-3h-1l-21-10-32-15-32-14-33-11-31-8h-2-1c-3 0-5-1-7-1l-3-1c-13-4-22-16-22-30 0-18 14-31 31-31z" /><path stroke-width="0" fill="#1F5FFE" d="M1651 2411c17 0 31 14 31 31 0 7-2 13-5 18l-2 2-12 22-10 25-9 28v1l-9 28-18 57-16 58-4 16v1c-4 13-16 22-30 22-17 0-31-14-31-31 0-2 0-4 0-6l1-2 4-16v-1l16-58 1-1 17-58 9-28v-1l9-28v-1h1v-2h1l11-28v-1c0-1 1-2 1-3l14-25v-1h1l1-2 1-1 1-2 1-1 1-1v-1h1l1-1c5-6 13-9 22-9z" /><path stroke-width="0" fill="#1F5FFE" d="M1465 2544l3 1 21 1h1c1 1 2 1 3 1l21 5h1 2v1l41 12h1v1l39 13h2v1l38 15h1l1 1 74 35h1v1l16 8c10 5 17 16 17 27 0 18-14 32-32 32-4 0-8-1-12-3l-2-1h-1l-14-8-73-34-37-15-37-13-40-13-18-4-19-1h-1c-16-2-28-15-28-31 0-18 14-32 31-32z" /><path stroke-width="0" fill="#1F5FFE" d="M1282 2768c18 0 32 14 32 31 0 9-4 16-9 22l-2 1-1 2v1l-20 30-19 31-35 65-7 12-1 2c-6 9-15 14-26 14-17 0-31-14-31-31 0-6 1-11 3-15l1-1 6-11 36-65v-1l19-33 1-1 20-31 3-4 1-1 1-2 2-2 1-1c1-2 4-4 6-6l2-1 2-1h1c4-3 9-4 14-4z" /><path stroke-width="0" fill="#1F5FFE" d="M1095 2766c7 0 14 2 20 7h1l47 33 49 30 49 29h1l49 30h1l19 12 1 1c8 5 13 15 13 26 0 17-14 31-31 31-5 0-10-1-15-4l-1-1-19-12-49-29-50-29-1-1-50-30-1-1-47-33h-1l-1-1h-1c0-1-1-1-2-2l-1-1-1-1-1-1c-6-6-9-14-9-22 0-17 14-31 31-31z" /><path stroke-width="0" fill="#1F5FFE" d="M975 2554c18 0 32 14 32 31 0 14-10 26-22 30h-1l-2 1h-1l-3 4-4 4-29 37-26 40-25 42-1 1-27 41v1l-9 12-1 2c-6 7-15 11-25 11-17 0-31-14-31-31 0-7 2-13 6-18l8-12 27-40 25-42 1-1 27-41 1-2 30-39h1v-1l5-6 2-1 6-6v-1c1 0 1-1 2-2l2-1 7-5c3-2 6-4 9-4l1-1 7-2h2c2-1 4-1 6-1z" /><path stroke-width="0" fill="#1F5FFE" d="M812 2583c7 0 13 2 18 6l2 1 2 2 3 2h1l3 2 50 33 49 33 24 16h1c8 5 14 15 14 26 0 17-14 31-32 31-5 0-10-1-15-4l-2-1-24-16h-1l-49-33v-1l-48-31-5-3h-1c-1-1-2-1-2-2l-3-1-4-4h-1c-7-6-11-15-11-25 0-17 14-31 31-31z" /><path stroke-width="0" fill="#1F5FFE" d="M1792 2974c17 0 31 14 31 31 0 10-4 19-11 25l-2 1-1 2-2 3-13 23-10 24-19 53-3 10c-4 13-16 22-30 22-17 0-31-14-31-31 0-3 0-6 1-9l4-11v-1-1l19-53 1-2v-1l11-26h1l1-3 13-24h1v-1l2-4 1-1 3-5v-1l2-2 3-4h1c2-3 4-5 6-6l2-2 4-2c5-2 10-4 15-4z" /><path stroke-width="0" fill="#1F5FFE" d="M1673 3001c6 0 12 2 17 5l2 2 6 5 6 3 19 8 2 1 38 19h1l38 20 1 1 20 10v1c10 5 16 15 16 27 0 17-14 31-31 31-5 0-10-1-15-4l-20-11-38-19-37-19-19-8-2-1-10-5h-1c-1-1-1-1-2-2l-2-1-9-7v-1c-7-5-12-14-12-24 0-17 14-31 32-31z" /><path stroke-width="0" fill="#1F5FFE" d="M1380 3241c17 0 31 14 31 32 0 4-1 8-2 12l-1 2-2 5h-1c0 1-1 2-1 3l-2 2-2 3-32 58-28 61-10 23-1 2c-6 10-16 17-28 17-17 0-31-14-31-31 0-5 1-9 2-13h1l10-23v-1l29-62 1-2 33-61c1-1 1-2 2-3l1-2 2-2 1-2 1-1c5-10 15-17 27-17z" /><path stroke-width="0" fill="#1F5FFE" d="M1185 3266c1 0 2 0 3 0h2l17 3h1 2l16 5 39 8 40 7 40 7 38 7 42 6 2 1c14 2 25 15 25 30 0 17-14 31-31 31-1 0-2 0-4 0h-1l-42-7h-1l-39-6-41-7-40-8h-1l-39-8-2-1-15-4-16-2h-1c-14-3-25-16-25-31 0-17 14-31 31-31z" /><path stroke-width="0" fill="#1F5FFE" d="M1687 1347c18 0 32 14 32 31 0 8-3 15-8 20l-1 1-28 31-25 32-23 35-22 35-40 76-38 75-8 14-7 14c-5 10-15 17-27 17-18 0-32-14-32-31 0-5 1-9 3-13l1-2 7-13 7-15 39-75v-1l41-76v-1l23-37 1-2 24-35 1-2 27-34v-1l1-1 29-32 1-1c6-6 14-9 22-9z" /><path stroke-width="0" fill="#1F5FFE" d="M1412 1471c7 0 14 3 20 7v1l10 9 10 7 24 15 52 36 54 33 35 20 2 1c8 6 14 15 14 26 0 17-14 31-32 31-5 0-10-1-14-3l-1-1-36-21h-1l-54-34h-1l-53-36-24-16h-1l-11-9-2-1-1-1-11-10-1-1c-6-5-10-13-10-22 0-17 14-31 32-31z" /><path stroke-width="0" fill="#1F5FFE" d="M1973 1828c17 0 31 14 31 31 0 7-2 13-6 18v1l-16 40-12 41-9 42-8 43-2 14-2 13v2c-3 14-16 25-31 25-17 0-31-14-31-32 0-1 0-2 0-3v-1l2-14 3-14v-1l8-44v-1l10-43v-1-2l13-43v-1l1-2 16-41v-1l2-4c1-2 2-4 3-5v-1l2-2 1-3c6-6 15-11 25-11z" /><path stroke-width="0" fill="#1F5FFE" d="M1848 1986c7 0 13 2 17 5l1 1h2l1 2v-1 1h1l42 28h1v1l44 31 42 31 42 31 34 25 2 1c7 6 11 14 11 24 0 17-14 31-31 31-7 0-13-2-18-5l-1-1-34-24v-1l-42-30-42-32-42-30-42-28-2-1-2-1-2-1-1-1-1-1c-7-6-11-14-11-24 0-17 14-31 31-31z" /><path stroke-width="0" fill="#1F5FFE" d="M1451 980c17 0 31 14 31 32 0 7-3 14-7 19l-2 2-4 4-2 5-23 45-19 46-19 49v1l-19 47h-1l-5 12v1l-5 11-1 3c-5 9-16 16-28 16-17 0-31-14-31-31 0-5 1-9 3-12v-1l5-11 5-12 19-47 18-48 1-1v-1l20-47v-1l1-2 23-45 1-1 5-9c1-2 2-4 3-5l2-2 6-7h1c5-6 13-10 22-10z" /><path stroke-width="0" fill="#1F5FFE" d="M1300 1070c7 0 14 3 19 7l1 1 3 3 2 1c1 1 1 2 2 2l1 1 2 4 47 52 47 53 32 36 1 1c4 5 7 12 7 20 0 17-14 31-31 31-9 0-17-4-22-9l-1-2-33-35v-1l-47-52-47-54-1-1-2-2-1-1-1-2c-6-5-10-13-10-22 0-17 14-31 32-31z" /><path stroke-width="0" fill="#1F5FFE" d="M2484 2826c18 0 32 14 32 31 0 5-1 9-3 13l-1 2-1 2-16 43-13 46-11 48-10 46v1h-1l-3 18h-1l-3 16-3 14-3 13c-3 14-15 25-30 25-17 0-31-14-31-32 0-2 0-4 0-6l3-12v-1l3-13v-1l3-16 4-18 1-1 10-46v-1l11-49 1-1 13-48v-1l1-2 17-45 1-1v-2l3-5c5-10 16-17 27-17z" /><path stroke-width="0" fill="#1F5FFE" d="M2360 2875c7 0 13 2 18 5l1 1 47 36h1l45 36v1l87 72 23 19 22 19 1 2c6 5 10 13 10 22 0 17-14 31-32 31-7 0-14-3-19-7l-1-1-22-18-22-19-86-72-45-36-47-35-1-1c-7-6-11-14-11-24 0-17 14-31 31-31z" /></g><g stroke="#0CAC38"><path stroke-width="0" fill="#0CAC38" d="M1542 625c1 0 2 0 3 1h1 1 3c3 1 6 2 8 3l1 1 3 2 2 1c1 0 2 1 3 2l13 11 2 2 2 2 12 14 2 2 11 15 11 15h-1 1l27 39 1 2 24 40 1 1 46 83v1l44 83 46 81 51 80 54 80 54 79h1l53 81 52 77 53 76 108 151 1 1 59 87v1l57 89 57 88 59 87 92 127 94 126 192 250 85 110h1l84 111 82 113 1 1 78 113v1l1 1 58 93 1 1 56 95 56 94 30 45 31 42 39 46 44 39 15 11 1 1c6 6 11 14 11 24 0 17-14 31-31 31-7 0-13-2-18-5l-1-2v1l-16-12v-1l-1-1-47-41-1-1-1-2-42-47v-1l-2-2-32-44-1-1-30-46-1-1-57-95-56-95-58-93-78-113-81-112-84-110-85-110-193-250v-1 1l-95-127h1-1l-92-128-1-1-59-87v-1l-57-89-57-88-59-87-108-151-54-76v-1l-52-77v-1l-53-80-54-79h-1l-53-80h-1v-1l-52-81-1-1-47-82v-1h-1l-43-84-45-82-24-39-26-38-11-14-10-14-6-7c-6-1-11-4-16-8l-1-2-2-2v-1h-1l-1-1-3-5-1-1c-1-2-2-3-3-5v-2l-1-3-1-1c-1-3-1-6-1-9 0-18 14-32 31-32z" /></g><g stroke="#ED331F"><path stroke-width="0" fill="#ED331F" d="M2361 982l-4 1-7 4-8 6-9 7-16 18-8 11-1 1c-2 3-5 6-9 7l-2 1 2 6 14 23 4 4 3 2 2 1h2 3l3-1 13-7 9-8 10-12 8-13 5-14 2-12v-9l-3-7-7-7-3-1-3-1zm-2-63l4 1 13 1c3 0 6 1 9 2l2 1 13 7h1c2 2 5 3 7 5v1l15 14 1 2c2 3 4 5 5 8l7 17c1 3 2 6 3 9v1l1 19v2c0 1 0 2 0 3l-1 3h1-1l-3 19c0 1-1 2-1 3l-1 3-7 18-1 1c0 1 0 2-1 3l-1 1-10 17-1 2-2 2-12 15c-1 1-2 2-2 3l-2 1-13 12-1 1c-1 0-2 1-2 1l-3 2-19 11c-2 1-4 2-6 2l-1 1-10 2-2 1c-1 0-2 0-3 0h-1l-9 1h-2c-2 0-3 0-4 0h-2l-9-2h-1c-2-1-4-1-6-2l-9-4c-2-1-4-2-5-3h-1l-9-7-1-1c-1 0-2-1-2-2l-1-1-8-9-1-1c-1-1-2-1-2-2l-1-1-17-28v-1l-1-1c0-1-1-2-1-3l-1-1-12-32v-2c-1-1-1-2-1-3v-1l-6-33v-3-2h-1v-17-3-1l2-15v-3-1l1-3c0-1 0-2 1-3l1-2v-1l1-2c4-11 15-19 28-19 18 0 32 14 32 31 0 2-1 4-1 6v1l2-2 1-2 1-1 11-10 1-1 2-1 12-8v-1c1-1 2-1 3-2h1l13-6 1-1c1-1 2-1 3-1l3-1 13-3c2 0 4-1 6-1z" /><path stroke-width="0" fill="#ED331F" d="M3173 850h-1c-3 3-7 4-11 5h-1l-8 2-4 2-4 5-5 7-11 23-3 10-2 10-1 14v6l5-1 9-6 10-8 9-11 9-12 7-14 5-14 4-12 1-5h-1c-2 0-4-1-6-1h-1zm16-63h3l8 1h1c3 0 6 1 9 2v1l6 2h1l2 2c4 1 7 4 9 7l2 2v1l7 10c3 4 5 9 5 14l2 15v3c0 1 0 2 0 3v1l-3 16v2 2l-5 16v1l-1 2v1l-7 16-1 3-9 16c0 1-1 2-1 3l-11 16c0 0-1 1-2 2v1l-13 14-1 1-2 2-14 12c-1 1-2 1-2 2l-2 1h-1l-15 9c-2 1-4 2-6 2l-16 5h-1l-2 1c-1 0-2 0-3 0l-3 1h-12c-3 0-6-1-9-2l-3-1-8-3h-1c-3-2-7-4-9-7h-1l-6-7-1-1c-2-2-3-4-4-5l-1-2-4-8v-1c-1-2-1-4-2-6v-3l-3-20c0-1 0-2 0-4 0-1 0-2 0-3l2-19c0-1 0-2 1-3v-1l2-12h1v-2-1l4-13c0-1 1-2 1-3v-1l12-27h1l1-2c0-1 1-2 1-3l9-12 1-3c1 0 2-1 2-2h1l10-10 2-2c0 0 1-1 2-1l2-2h1l11-6v-1c3-1 6-2 9-3h1l14-2 2-1c1 0 2 0 3 0 2 0 4 1 6 1h1 1c3-3 7-4 11-5l3-1 9-1c1 0 2 0 3 0z" /><path stroke-width="0" fill="#ED331F" d="M2884 1282c18 0 32 14 32 31 0 8-4 16-10 22l-1 1-2 2-1 2-3 6-2 6-3 13-3 14-2 15v14l2 14 3 11 4 9 3 4 4-5 4-8 4-9 3-8 2-10 1-8-1-4-2-3-1-1-1-1c-6-6-10-14-10-22 0-18 14-32 32-32 7 0 14 3 19 8h1l4 3 1 2c2 1 3 3 4 4v1l8 11v1l2 2c1 3 2 6 3 9l3 13v1 3c0 1 0 2 0 3v2l-1 15v1c0 1 0 2 0 3h-1l-3 15v2l-1 1-3 9v1l-1 2-5 11v1l-1 2-1 1-6 11-1 2-1 2-8 10-1 1c-1 1-1 2-2 2l-2 2-9 8c-2 2-5 4-8 5h-1l-9 4h-1l-2 1c-3 1-6 1-9 1-1 0-2 0-3 0l-11-1h-3c-3-1-6-2-9-4l-2-1-12-7v-1c-2-1-5-3-7-6l-10-12-2-3c0-1-1-1-1-2l-1-2-7-15-1-1c0-1 0-2-1-3v-1l-4-17-1-1v-3-1l-2-17c0-1 0-2 0-3v-1-18-2l2-18v-3h1l3-16v-1-2l4-14 1-1v-1l2-7v-1l1-2 4-9c0-1 1-2 1-3l1-1 4-8h1v-1c2-2 3-4 4-5l2-1 6-6c6-5 13-7 20-7z" /><path stroke-width="0" fill="#ED331F" d="M2752 424h2l11 1h1c1 0 2 0 3 0l3 1 18 5h1c3 1 6 3 8 4l8 6 3 1c1 2 3 3 4 5l7 8 1 2c1 2 2 3 3 5l1 2 5 15v1c1 3 2 6 2 10v15 3c-1 2-1 4-2 6v1l-5 14-1 2c0 1-1 2-1 3l-1 2-1 1-8 12v1c-1 1-3 3-4 4l-1 1h1l-12 11-2 1c-1 1-1 2-2 2l-1 1-14 8-1 1c-1 1-2 1-3 2h-1l-15 6h-2c-1 1-2 1-3 1h-2l-15 2h-1c-1 1-2 1-3 1-1 0-2 0-3-1l-18-1v-1h-3c-1 0-2 0-3-1l-20-6c-1 0-2 0-3-1l-2-1h-1l-8-5c-1 0-2-1-3-2l-2-1-8-6c-1-2-3-3-4-5l-1-1-6-7v-1c-2-3-3-6-4-8v-1l-3-8v-1l-1-2c0-2 0-4 0-6v-1-4-2c1-7 3-12 7-17v-1l2-1 1-1c6-6 14-10 22-10 6 0 11 2 15 4l4 2c3 2 5 4 7 6l1 1v-1l5 6h1l3 4v1c4 4 6 8 7 13v1l7 2 11 1 7-1 9-3 8-5 7-7 4-7 2-6v-4l-1-5-11-3-8-1h-1c-16-2-28-15-28-31 0-17 14-31 31-31z" /><path stroke-width="0" fill="#ED331F" d="M2588 1346l-9 4-13 9-12 10-2 1-1 1 1 2c1 2 2 4 2 6v1l2 3v1l8 14 4 5 1 1 6-9 8-17 4-18 1-14zm8-64c3 0 6 0 9 1l2 1 12 4 1 1c5 2 9 5 12 9l8 9v1l2 2c1 2 3 5 4 8v2l4 14v2c0 2 1 4 1 6l-1 1h1l-2 23v2c0 1 0 2 0 3l-1 1-5 24-1 2c0 1-1 2-1 3l-10 22-1 2c-1 1-1 2-2 3l-1 1-13 18-1 2c-2 1-3 3-4 4l-2 1-9 7-1 1c-3 2-6 3-9 4h-2l-9 3h-1c-2 0-4 0-6 0-2 0-4 0-6 0h-1l-8-2c-3-1-6-2-9-3l-1-1-8-5-2-1c-1 0-1-1-2-1l-2-2-7-7-1-1c-1 0-1-1-2-2l-7-9-1-2-2-1-10-18v-1l-1-1-1-3v-1h-1l-1-4-1-1-1-4-1-2c0-1-1-2-1-3v-3l-1-2c0-1 0-3 0-4 0-10 6-20 14-25l1-1-1-3c-2-3-3-7-3-12 0-9 5-18 12-24l13-11 2-1 16-11 3-1 1-1 18-8 1-1c2-1 4-1 6-2h2l15-2h1c1 0 2 0 3 0z" /><path stroke-width="0" fill="#ED331F" d="M3757 1269c17 0 31 14 31 32 0 1 0 2 0 3v2l1 15 3 15 4 15 5 14 7 12 7 7 6 5 8 2 5-1 6-2 8-4 7-6 7-8 6-8 4-9v-1h-9l-8 1h-2c-18 0-32-14-32-32 0-16 13-29 28-31h2 9 2 1 16 2c1 0 2 0 3 1h2l14 4h2c4 2 7 4 10 6l1 1 11 9h-1l1 1c4 4 7 8 8 13l2 7c1 3 2 6 2 10v9 3c-1 1-1 2-1 3v2l-4 12v2c0 1-1 2-1 3v1l-6 13-1 2-2 2-8 12c-1 1-1 2-2 3l-1 1-10 11-1 1c-1 1-1 2-2 2l-11 10h-1c0 0-1 1-2 2l-2 1-12 7h-1c-1 1-2 1-3 2l-2 1h-1l-13 4c-2 1-4 1-6 1h-1l-14 1h-2c-2 0-4 0-6 0l-1-1-18-4-2-1c-1 0-3-1-5-2l-2-1-15-10c-2-1-3-2-5-4l-1-1-12-14h-1c0-1-1-2-1-3l-2-2-9-16v-1c-1 0-1-1-2-2v-1l-7-18-1-2v-1l-5-19v-2-1l-3-18-1-2-1-17v-4-1-3c0-2 0-4 0-7v-1h1v-1-2c4-12 16-22 30-22z" /><path stroke-width="0" fill="#ED331F" d="M3696 1738c2 0 4 0 6 0l2 1 9 2 1 1c5 1 9 4 12 7l2 2 5 6c3 3 5 7 6 11l1 2v1l1 7c1 2 1 5 1 7v2l-1 9v1c0 2-1 4-1 6l-6 19c0 1-1 2-1 3v1l-4 8-1 2-3 5v1l-2 2-10 15-2 3-12 14c0 1-1 2-2 3h-1v1l-29 26-1 1c-1 1-1 1-2 2h-1l-16 10v1l-2 1-1 1-17 8-2 1-2 1h-1l-17 6h-1c-1 0-2 0-3 1h-1l-19 3h-1c-1 0-2 0-3 0h-1-14l-2-1c-1 0-2 0-3 0h-1l-12-3-2-1c-1 0-2 0-3-1h-1l-11-5-2-1c-1-1-2-1-3-2l-10-7-2-2c0 0-1-1-2-2l-1-1-16-19h-1c-1-2-2-3-3-5l-12-22v-1h-1l-4-9h-1l-1-2v-1l-2-5c-1-2-2-4-2-6l-1-5c0-2-1-4-1-6 0-17 14-31 32-31 15 0 27 10 30 25l1 1v1l4 9 11 19 11 13 5 3 5 3 6 1 8 1 13-2 13-5 13-7 13-8 25-23 10-12 8-12 2-3-8 3c-4 2-8 3-12 3-18 0-32-14-32-31 0-12 7-23 17-28l2-1 14-6 2-1 15-5 1-1c1 0 2 0 3 0l2-1 15-2h2c1 0 2 0 3 0z" /><path stroke-width="0" fill="#ED331F" d="M2961 1820h-4l-6 2-9 4-9 7-13 10-2 1c-5 4-11 6-18 6-5 0-10-2-15-4l-1-1-2 2c-1 2-2 4-3 5l-4 11-1 12 1 13 3 14 5 13 7 11 8 8 9 6 3 2 3 1 8-1 8-4 10-7 10-12 9-13 7-15 4-13 2-9 2-11v-12l-2-11-2-8-3-5-2-1-3-1zm6-63c3 0 6 1 9 2h2l14 5 1 1c3 1 5 3 7 4l2 1 10 10 1 1c1 1 2 3 4 4l1 2 7 12v1c1 2 2 4 2 6h1l4 14v3l1 2 2 15v1c0 1 0 2 0 3v16 3l-2 14v3 1l-3 12c0 1 0 2-1 3v1l-6 17v2l-1 1-9 18v1l-2 2-11 17v1c-1 0-1 1-2 2l-1 1h1l-14 15-1 1c-1 1-2 2-2 3h-1l-15 12-2 1c-1 1-2 1-3 2l-2 1h-1l-16 7c-3 2-6 2-9 3h-1l-18 1h-3c-2 0-4 0-6 0l-9-2-1-1h-2c-1-1-2-1-3-1l-10-4c-2-1-4-2-5-3l-1-1-14-10-2-1c-1-1-1-1-2-2l-1-1-12-14-1-1c-1 0-2-1-2-2l-1-1-9-16-1-1c-1-1-1-2-2-3v-1l-7-17-1-3v-2l-5-18v-1c0-1 0-2 0-3v-1l-1-19v-2c0-1 0-2 0-3l2-18v-3c0-1 1-2 1-3l5-16 1-1v-2l1-2 1-2 1-1 1-2 1-2 2-2v-1c1-2 3-3 4-5l1-1 1-1 1-1c6-4 12-7 20-7 5 0 10 2 15 4l2 1 1-3c2-3 4-6 7-9h1l14-11 2-1 11-8c1-1 2-1 3-2l13-7 3-1c1-1 2-1 3-1l13-4c2-1 4-1 7-2h3 14z" /><path stroke-width="0" fill="#ED331F" d="M3458 2237c1 0 2 0 3 0l8 1h3c2 1 4 2 6 2l1 1 7 3 1 1c3 1 5 3 8 5v1h1l6 7v1l1 1c2 2 4 5 5 7v2l4 9v1c1 2 1 4 1 6l1 2v10 2c0 1 0 2 0 3v1l-1 11h-1v2c0 1 0 2-1 3l-6 21h-1v1l-1 2v1l-4 9-1 1-3 8h-1v1l-1 1h1l-12 19-1 2v1l-14 19-1 2-1 1-16 18-2 1-1 1v1l-18 16-1 1c-1 0-2 1-3 1v1l-20 13-2 1-3 2-22 9c-2 1-4 1-6 2l-23 4h-2c-1 0-2 0-3 0h-3-1l-23-2c-2 0-4 0-6-1l-2-1-22-8c-2-1-4-2-6-3l-2-2-16-13c-2-1-3-3-4-4l-2-3v1-1l-12-16h1-1c-1-2-2-4-3-6v-1l-7-19-1-2c0-1-1-2-1-3l-4-21v-3-1l-2-22v-2-1l1-22v-2-1l3-20v-3l1-2 3-12 2-12c3-15 16-25 31-25 17 0 31 14 31 31 0 1 0 2 0 3v3l-3 13v1 2l-3 11-3 17v19l1 18 3 16 5 13 7 10 9 7 12 5 15 2 15-3 16-7 16-10 15-14 14-16 12-16 10-17 3-7 3-7 6-17-9 4-9 7-14 13-12 14-9 12-1 1c-6 7-14 12-24 12-17 0-31-14-31-32 0-6 2-12 5-17l1-1 10-13 1-1v-1l14-16 2-2h1v-1l15-14 2-2 1-1 13-9 1-1 2-1h1v-1l15-8c1-1 2-1 3-1l2-1 8-3h1c1-1 2-1 3-1h2l8-2h1c2 0 3 0 4 0z" /><path stroke-width="0" fill="#ED331F" d="M4371 1761h10 3c1 0 2 0 3 0l2 1h1l8 3h1c2 0 4 1 5 2l2 1 8 5 1 1c2 1 3 2 5 3l1 2 13 15h1c1 3 3 5 4 8l8 20h1c0 2 1 4 1 6l5 24v2 3l1 25v1c0 1 0 2 0 3l-3 25v3l-1 1-5 25-1 3-8 25-1 3-10 24-1 2-11 22v1l-2 1-12 20-1 1v1l-5 7-1 1-7 8-1 1-7 8h-1l-2 2v1l-8 6c-1 1-2 1-2 2l-3 1-8 5c-3 1-6 2-9 3h-1l-8 2h-2c-1 0-2 0-3 0-3 0-6 0-9-1l-2-1-7-3h-1c-5-2-9-5-12-9h-1l-6-8-2-2c-1-2-2-4-2-6l-1-1-8-22-1-2c0-1 0-2 0-3l-1-1-4-25v-2-2l-1-26v-1-3l2-23c1-1 1-2 1-3v-1l1-3v-2l1-2v-1c4-12 16-22 30-22 17 0 31 14 31 32 0 2 0 4 0 6l-1 2v1 1h-1l-1 20v21l3 20 5-6 4-5 11-18 10-20 9-21 7-22 5-23 2-22v-20l-3-18-5-12-7-7-1-1h-2l-5 1-7 3-3 1c-3 1-6 2-9 2-18 0-32-14-32-32 0-13 8-24 19-28h1l10-5 2-1h3 1l10-3c2 0 4 0 7 0z" /><path stroke-width="0" fill="#ED331F" d="M4171 2400c3 0 6 1 9 2l15 4v1l3 1c3 1 5 2 8 4l1 2 12 11c2 2 4 5 6 7l1 3 7 16c1 2 1 4 2 6v2l2 16 1 1c0 1 0 2 0 4l-1 17v3 2l-3 17v1l-1 3-5 17c0 1-1 2-1 3v1l-7 16-1 3h-1l-9 16-1 1-1 2-11 14c-1 1-1 2-2 3h-1l-12 11-1 2c-1 1-2 1-3 2h-1v1l-19 11-2 1c-1 1-3 2-5 2l-1 1-21 5-2 1c-1 0-2 0-3 0h-3l-20 1h-1c-2 0-4-1-6-1l-21-5h-2c-1-1-2-1-3-2h-1l-19-9-2-1c-1 0-2-1-2-1l-1-1-18-12h1l-2-1c-1-1-2-2-3-2v-1l-15-15-2-2c0-1-1-2-1-2l-12-18c-1-1-1-2-2-3l-1-1-1-2-1-3v-1c-4-5-6-11-6-17 0-17 14-31 32-31 9 0 18 4 24 11l1 2 1 2c1 1 2 1 2 2v1l2 3v1l2 3 9 13 11 12 13 9 13 6 14 3h13l12-3 13-8 8-8 7-10 7-11 6-13 4-14 2-13v-12l-1-10-3-7-2-1-3-1-3 1-6 2-8 5-18 12-15 13v1c-6 4-13 7-20 7-17 0-31-14-31-32 0-8 3-16 9-22l2-1 16-14 2-2 20-14h1l2-2 10-6h1l2-1h1l10-5c1 0 2-1 3-1h2l9-3h1c1 0 2 0 3 0h2l9-1h1z" /><path stroke-width="0" fill="#ED331F" d="M3671 2694h2l22 1h1c3 1 6 1 9 3l18 7h1c3 2 7 4 10 7l1 1 13 15 1 1c2 2 3 5 4 8h1l4 11v2c1 1 1 2 1 3v1l2 12 1 2c0 1 0 2 0 3v1l-2 25v1c0 1 0 2 0 3v2l-7 24v2c0 1-1 2-1 3v1l-11 23-1 2c-1 1-1 2-2 3l-15 21-1 2c-1 1-1 1-2 2l-1 1-18 17-2 1c-1 1-3 2-4 3h-1l-21 11v1l-2 1c-1 0-2 0-3 1h-2l-11 3-2 1c-1 0-2 0-3 0h-1l-12 1h-2-3-1l-12-1c-1 0-2 0-3-1h-2l-13-4h-1c-1 0-2-1-3-1l-2-1h-1l-12-7h-1c-1-1-3-2-5-3l-1-2-10-9c-2-2-3-3-4-5l-1-1-6-11-1-1c-1-2-2-4-2-6h-1l-3-12c-1-2-1-4-2-6l-1-13v-3-3-1l2-13c0-1 0-2 0-3l1-2 3-13v-1c1-1 1-2 1-3l1-1 6-12 1-1c0-1 1-2 1-3l2-2 2-2 1-2 2-2 1-2c6-8 15-13 26-13 17 0 31 14 31 31 0 4-1 8-2 12l-1 2-1 1-1 1v1c-1 1-2 3-3 5l-3 3-1 1-1 1-2 6-3 7v8 7l2 5 2 4 4 3 5 3 8 2 7 1 7-1 5-1 14-8 13-12 11-15 9-19 4-19 1-17-1-6v-2l-5-5-7-3h-14l-11 1c-1 0-3 0-4 0-17 0-31-14-31-31 0-15 11-28 25-31h2l14-2h1c1 0 2 0 3 0z" /><path stroke-width="0" fill="#ED331F" d="M4009 2016l-15 1-15 3c-2 1-4 1-6 1-2 0-3 0-4 0h-1v2l-1 12v12l2 11 3 9 3 6 4 3 4 1h2l3-1 5-3 5-6 12-22 3-9 2-7v-7l-1-5v-1h-1-4zm-59-67c7 0 14 3 20 8l1 1 12-2c1-1 2-1 3-1h1l19-2h3 2l9 1h1c1 0 2 0 3 1h2l9 2 1 1c3 0 6 2 8 3l1 1 11 8 1 1c3 2 5 4 6 7l2 2 6 11c1 3 2 6 3 9l3 13v3c0 1 0 2 0 3v1 12 3l-1 3-2 12v1c0 1-1 2-1 3l-4 13v1h-1v2c-1 1-1 2-2 3l-14 27h-1l-1 2c-1 1-1 2-2 3l-1 1-10 11-1 1c-1 1-1 2-2 2l-2 1-11 9h-1c-2 1-3 2-5 3l-2 1-13 4-1 1c-3 0-6 1-9 1h-2l-14-1h-2c-3 0-6-1-8-2h-1l-13-6h-1c-2-1-5-3-7-5l-1-1-11-9-1-1c-1-2-3-3-4-5l-1-1-7-13-1-1c0-1-1-2-1-3l-1-2v-1l-5-14c0-1-1-2-1-3v-2l-3-15h1l-1-2v-2-16-1-2l1-15v-1-2l2-13 1-2 1-5v-1-1l2-8 1-1c0-1 0-2 1-3l3-7c1-3 2-5 4-8l2-1 4-5h1c5-6 13-10 22-10z" /><path stroke-width="0" fill="#ED331F" d="M4319 3179l-5 2-13 8v-1l-3 2-2 1h1c7 0 13 4 18 9h1l3-11v-10zm6-65c1 0 2 1 3 1l11 1h3c3 1 6 2 9 3l1 1 5 3 2 1c1 1 3 2 4 4l2 2 4 5c2 1 3 3 4 5l1 2v1l4 8h-1 1c1 2 1 4 2 6l1 9v1l1 3c0 1 0 2 0 3v1l-1 21v2c0 1 0 2 0 3l-1 1-5 21v2l-1 2-7 18c-1 1-1 2-2 3l-5 10-2 2-1 2-8 11-1 1c-1 1-1 1-2 2l-1 1-5 4-1 1c-1 1-2 2-2 2l-2 1v1h-1l-5 2v1c-3 1-6 2-9 3h-1l-5 1h-2c-1 0-2 0-3 0-4 0-7 0-10-1l-6-2-2-1c-4-2-7-4-10-7h-1l-7-8-1-1c-2-4-4-7-6-11l-2-10h-1 1l-1-3c0-1-1-2-1-3v-2-10-1-1-10-3c1-11 9-21 19-25l3-1h-1c-16-2-28-15-28-31 0-12 7-22 16-28h1l15-8 2-1h1l10-4h1l2-1 2-1 12-3h1c2 0 4-1 7-1z" /></g><g stroke="#000000"><path stroke-width="0" fill="#000000" d="M378 463c17 0 31 14 31 31 0 14-9 26-22 30l-1 1-8 7-18 20-17 21-31 47-28 52-26 51-20 45-17 44-4 11v2c-5 11-16 19-29 19-17 0-31-14-31-31 0-3 0-6 1-9v-1l4-12 1-1 17-46h1v-1l20-45 1-1v-1l26-53v-1h1l28-52v-1l2-2 33-50 1-2 19-23v-1l1-1 20-21 1-1 10-10 2-2 2-2h1l5-4h1c2-2 5-3 8-4h1l6-2h2c2-1 4-1 6-1z" /><path stroke-width="0" fill="#000000" d="M127 526c9 0 16 4 22 9l1 2 2 2c1 1 2 2 2 2l1 2 2 3 1 1 2 4 1 2v1l20 39 1 2 17 41 17 41 18 38 12 21 12 20 9 14 1 2c3 4 4 10 4 15 0 17-14 31-31 31-11 0-21-5-26-14l-10-14v-1l-13-21-1-1v-1l-12-21v-1l-1-1-19-40v-2l-17-41-17-40-19-37-1-3-2-2v-1c-5-5-7-12-7-20 0-17 14-31 31-31z" /><path stroke-width="0" fill="#000000" d="M449 706c14 0 26 9 30 22v1l2 7 3 8 1 2v2l10 45h1v1l8 45 6 36v2c0 1 0 2 0 3 0 17-14 31-31 31-15 0-28-10-30-25l-1-1-6-35-8-44-9-42-3-7-1-2v-1l-2-9-1-2c0-2 0-4 0-6 0-17 13-31 31-31z" /><path stroke-width="0" fill="#000000" d="M5100 3397c18 0 32 14 32 31 0 5-2 11-4 15l-26 47-1 2-27 45h-1l-28 44-28 45-48 84-49 83-5 9-1 2c-6 8-16 14-26 14-18 0-32-14-32-32 0-5 2-10 4-14l1-1 5-9 49-84 49-84v-1l28-45 29-44 27-44 25-47c5-10 16-16 27-16z" /><path stroke-width="0" fill="#000000" d="M4905 3412c15 0 28 10 31 24v1l1 4 20 62 22 63 43 126v1l7 22 1 1 5 17 1 1c0 3 1 6 1 9 0 17-14 31-31 31-13 0-24-8-29-19l-1-2v-1l-6-17v-1l-7-22-43-125v-1l-22-63v-1l-20-62v-1l-2-3v-1l-1-3h1l-1-2v-2l-1-2c0-1 0-2 0-3 0-17 14-31 31-31z" /><path stroke-width="0" fill="#000000" d="M5142 3652c4 0 8 1 12 3h1 1l8 4 1 1c6 3 10 7 13 13l1 1 4 10 1 1c1 3 2 6 2 9v1l1 14v1c0 1 0 2 0 3l-1 2-3 23v2l-1 1-6 23v1l-6 22v1l2-1 7-2 19-7 17-6 2-1c3-1 6-1 10-1 17 0 31 14 31 31 0 13-8 24-19 29h-1l-18 7h-1l-20 7-1 1-7 2h-1l-8 2h-1v1h-2-1l-20 4h-2c-1 0-2 0-3 0h-2l-9-1c-4 0-7-1-9-2l-2-1-7-3-1-1c-4-2-8-5-11-10l-1-2-4-6v-1c-2-4-4-9-4-14v-1-10-3c1-1 1-2 1-3v-1l5-22v-1l1-1 6-23 5-21 1-3h-2c-17 0-31-14-31-31 0-6 2-12 5-17l1-2 1-2h1c1-2 2-3 4-4l1-1 3-3h1l1-1 3-2h1l2-2h1c1-1 2-1 3-1l2-1 1-1 6-2h1c2-1 4-1 6-1h1l6-1h2z" /></g><g stroke="#0CAC38"><path stroke-width="0" fill="#0CAC38" d="M1833 77c14 0 26 9 30 22v1l1 3v2l1 3 1 9v3 10 1 1l-2 57v2 1l-8 58v2 1l-13 56-1 3-18 54-1 2v1l-14 35v1l-1 1-18 37-1 1v2l-11 17-1 1-1 2-11 16-1 1-2 1-13 14v1c-1 1-2 2-3 2l-14 12-2 1c-1 1-2 2-3 2l-2 1h-1l-9 5h-1c-3 1-8 2-12 2h-2-9v-1c-6 0-10-2-15-5l-7-5-2-1c-2-2-3-3-4-5l-1-1-6-8v-1h-1c-1-1-1-2-2-3v-1l-22-42v-2 1l-20-44-13-26-14-26-15-22-7-7-5-3-6 5-7 11-24 40-24 40-1 2-25 39c-1 1-2 2-2 2l-1 1-30 35-2 2-1 1-9 8-1 2c-1 0-2 1-3 1v1l-11 6-2 2c-2 1-4 2-6 2h-1l-5 2h-2c-2 1-4 1-6 1-1 0-2 0-3 0h-1l-5-1h-2c-4-1-8-3-11-5l-1-1-5-3-1-1c-2-2-5-4-6-7l-1-1-4-7c-1-1-1-2-2-3l-1-3-12-38-1-3-8-40v-1h-1l-7-40-8-37-7-21v-1l-3-12-1-2v-2-1l-2-11c0-1 0-2 0-3 0-18 14-32 31-32 16 0 28 11 31 25v3h1l1 9 2 8 7 22 1 3 8 39v1l8 40 8 38 4 11 22-25 24-37 23-40 25-40v-2h1l9-14 2-2 2-2 11-12 1-1c1-1 3-2 4-3l2-1 6-4 2-1c1-1 3-2 5-3h1l7-2h3c2-1 4-1 6-1h1 8 2c3 1 5 1 7 2h1l9 4h1c2 1 4 2 6 3l11 8h1l2 2 2 2 10 10h1c0 1 1 2 2 3l1 1 18 26 1 1c1 1 1 1 2 2v1l15 28v1l13 27 20 44 17 32 1-1 10-11 10-13 10-15 17-35 13-34 17-52 13-54 7-54 2-55v-8l-1-5v-1l-1-2c0-2 0-4 0-7 0-17 14-31 31-31z" /></g></g></svg>