<?xml version="1.0" encoding="utf-8"?>
<!-- Created with Majerus.net InkPaint (http://www.majerus.net/InkPaint/) -->
<!DOCTYPE svg PUBLIC "-//W3C//DTD SVG 1.1//EN" "http://www.w3.org/Graphics/SVG/1.1/DTD/svg11.dtd">
<svg xmlns="http://www.w3.org/2000/svg" version="1.1" width="498.7mm" height="234.1mm" viewBox="0 0 9974 4682" preserveAspectRatio="xMidYMid meet"><!-- Generator: Majerus.net InkPaint UWP 1.1.14.0 --><g fill="none" stroke-linecap="round" stroke-linejoin="round"><g stroke="#000000"><path stroke-width="0" fill="#000000" d="M2008 731c9 0 18 5 23 11l1 2 2 2 1 1c1 2 2 4 3 5l1 3 1 5 1 2 1 5 1 2 18 53 24 54 14 25 15 22 17 19 19 16 7 4 7 3 5 1h5l4-1 5-2 6-4 6-5 17-21 14-25 14-28 1-1 15-28c1-2 2-3 3-5h1l4-5 1-1c4-4 8-6 13-8l4-1c3-1 6-2 9-2 2 0 4 1 6 1h1l5 1 1 1c2 0 4 1 6 2l2 1v1l5 2v1c2 1 3 2 4 3l1 1 9 9 1 2 1 1 7 9v1c0 1 1 2 1 2v1l19 35 2 2v2l14 39v1l1 2 10 40v1l8 40v1l9 48v1l6 50v1 1l4 51v1 1l-2 51v2 1l-7 50v1l-1 2-6 24v1l-1 1-7 23h-1v2l-1 1h1l-11 22-1 2v1l-12 21-1 2-1 1-14 20h-1l-1 1-1 1-17 19-1 1-1 2-13 11-1 1-1 1-15 10c-1 1-2 1-3 2l-15 8h-1l-2 1-2 1h-1l-15 5-1 1c-1 0-2 0-3 0l-2 1h-1l-16 2c-1 0-2 0-3 0-1 0-2 0-3 0l-2-1-15-2h-1c-3-1-6-2-9-3v-1l-14-7c-3-2-5-3-7-5l-1-1-13-14-1-2c-1-1-2-3-3-4l-9-16v-1c0 0-1-1-1-2l-1-3-6-17v-1c0-1 0-1 0-2l-1-2-3-19v-1-3-19-1-2l1-20 1-2 3-20v-1l1-2 10-36v-1c0-1 1-1 1-2v-1l10-24h1c0-1 0-2 1-3l13-23v-1l1-2 1-1 32-42 1-2h1-1l18-20 1-1c5-5 13-9 21-9 17 0 30 14 30 30 0 7-3 14-7 19l-1 1-16 18-30 40-11 21-9 21-10 33-2 16-2 17 1 16 2 15 4 13 6 10 7 8 6 3 6 1 9-1 11-4 11-6 12-8 10-9 15-17 13-17 11-19 9-20 7-20 5-21 7-46 1-48-3-49-6-48-9-47-7-38-10-39-12-35-13-23-1 2-14 28-1 1-16 28-1 1-1 2-20 25-1 1c0 0-1 1-2 2l-1 1-9 8-1 1c-1 1-2 1-2 2h-1l-10 7-2 1c-1 0-2 1-2 1h-1l-10 4-2 1c-1 0-2 1-3 1h-1l-10 2h-3c-1 0-2 0-3 0h-11-3c-1 0-2 0-3 0l-10-3h-1-2l-3-1-11-5c-1 0-2-1-2-1l-2-1-11-6-1-1c-1-1-1-1-2-2l-23-19-2-2-1-1-20-22v-1l-2-2-17-24v-1l-2-2-15-27-1-2v-1l-25-56-1-2-19-55v-1h-1v-2l-1-4-1-4-1-2c-2-4-4-9-4-14 0-16 14-30 30-30z" /><path stroke-width="0" fill="#000000" d="M3025 752c17 0 30 13 30 29 0 14-9 25-21 29h-1l-15 4-62 16h-1l-62 15h-1l-75 15-2 1-37 5h-2-1l-38 3h-2c-16 0-30-14-30-30 0-16 12-28 27-30h2l36-2 36-5 73-16 63-14 61-16 15-3 1-1c2 0 4 0 6 0z" /><path stroke-width="0" fill="#000000" d="M3061 991c16 0 30 13 30 30 0 14-10 26-24 29h-1l-40 6-84 14-86 15-29 6-29 6-27 7-27 11v1-1l-3 1c-2 1-5 2-8 2-17 0-30-14-30-30 0-12 7-23 18-28l28-11h1l2-1h1l30-9h2l30-7h1l29-6h1l86-15 85-13 39-7h2c1 0 2 0 3 0z" /><path stroke-width="0" fill="#000000" d="M3510 570c14 0 26 11 29 24v1l1 1v1 3l1 3v2 1l11 59 1 1 9 60 9 60 10 60 12 57 13 57 16 55 22 51 1 2 10-13 11-17 11-17 24-44 22-46 22-47h1v-1l24-45v-1l1-1 5-8 1-1 1-2 6-8 1-1c1-1 2-3 4-4l1-1 4-3h1c2-2 5-3 8-4h1l4-1 1-1c2 0 4 0 6 0 2 0 4 0 6 0l3 1 4 1c4 1 7 3 10 6l2 1 4 4 1 1c1 1 2 2 3 4l1 2h1l11 20c0 1 1 2 1 3l1 1 8 24 1 1v1l7 24 7 24 18 61 19 62 23 59 14 27 16 25 8 11 6 6 1-1 4-4 10-17 8-20 7-20 12-41 10-42 16-86v-1l16-86v-1-1l11-43v-2h1l13-42 1-2 4-9v-1-1l3-6 1-2c5-9 15-15 26-15 17 0 30 13 30 29 0 5-1 8-2 12l-1 1-2 5-3 8-13 40-11 42-16 86-16 87v1l-10 43v2l-13 42v1 1l-8 21v2l-9 23h-1c0 1 0 2-1 3l-12 21-1 2c-1 0-2 1-2 2h-1l-7 9-1 2c-1 0-2 1-3 2l-8 7c-1 1-3 2-5 3l-2 1-8 3-1 1c-2 1-5 2-8 2h-1l-8 1h-2c-2 0-4-1-6-1l-2-1h-1l-7-2c-2 0-4-1-6-2l-1-1-7-4-1-1c-1 0-2-1-2-1l-2-2-13-12v-1c-1 0-1-1-2-2l-1-1-10-13v-1l-1-1-17-27-1-2v-1l-15-29-1-2-25-61v-1l-1-2-19-63v-1l-18-61v-1h-1l-6-23-7-24-2-5-14 27-22 46-23 47v1l-25 45-1 2-11 18-1 1-12 18-1 2-14 17c-1 1-1 2-2 2l-1 1-15 14-1 1c-1 1-3 2-5 3l-1 1-6 3h-1c-3 1-6 2-9 2h-2v1h-6c-4 0-8-1-12-3l-5-2c-3-1-5-2-7-4l-1-1-4-3-2-2c0-1-1-1-2-2l-1-2-7-10-1-1c0-1-1-1-1-2v-1l-6-10-1-2-23-54c-1-1-1-2-1-3l-18-57v-1-2l-14-58v-1l-11-58v-1l-11-60-9-61-9-59-11-59-1-2v-1-4l-1-3v-1l-1-3c0-1 0-2 0-3 0-16 14-30 30-30z" /><path stroke-width="0" fill="#000000" d="M4512 510c16 0 30 13 30 30 0 1-1 2-1 3v1 1l-1 37 1 38 1 40 2 39v1 48 48 1 4 2c-2 15-14 27-30 27-16 0-29-13-29-30v-4-48l-1-47-1-39-2-39v-1l-1-39v-1-1l1-39h1v-2-2-1-1-2c3-14 15-24 30-24z" /><path stroke-width="0" fill="#000000" d="M4714 454c17 0 30 13 30 30 0 15-12 28-27 29h-1l-15 1-16 2-70 4-72 5-71 4-70 5-14 1-14 2h-1l-14 2h-2-16-1c-16 0-30-13-30-29 0-16 12-29 27-30h2l15-1 13-1 14-2h1l15-2h1l70-4 72-5 71-4 70-5 16-1 15-1h2z" /><path stroke-width="0" fill="#000000" d="M5148 638c16 0 30 13 30 30 0 8-4 16-9 21l-1 1-1 1-2 3-1 2v1l-34 48-1 1-37 46v1h-1l-38 45h-1l-40 44-80 86-39 43-36 44-47 63-46 62v1l-6 8-1 2c-6 6-14 10-23 10-17 0-30-13-30-29 0-7 2-12 5-17l1-1 6-9 46-63 47-63 1-1 37-45 1-1 39-44 1-1 80-86 40-43 38-43 36-45 32-47 1-1 3-4 1-2 2-4 2-1c1-2 2-3 4-5l1-1 2-1 1-1c5-3 11-5 17-5z" /><path stroke-width="0" fill="#000000" d="M4782 714c13 0 25 8 28 21l1 1 23 53 29 52 32 51 33 50 41 55 44 51 15 15 2 2c4 5 6 12 6 19 0 16-13 30-29 30-9 0-16-4-22-9l-15-16-1-1-46-52v-1l-1-1-42-57-1-1-34-51v-1l-33-52-1-1-29-54-1-2-1-1-24-54v-1l-1-1-1-3v-1l-1-2v-1-2c-1-2-1-4-1-6 0-16 13-29 30-29z" /><path stroke-width="0" fill="#000000" d="M6021 800c17 0 30 13 30 30 0 12-8 23-18 27l-2 1-10 4v-1 1l-11 3-1 1-92 27v1h-2l-95 22v1h-2l-59 10h-1l-60 7-60 6-60 7h-1c-1 0-2 0-3 0-16 0-29-14-29-30 0-14 10-26 23-29l3-1 61-6 59-6 59-7 58-10 93-22 90-27 11-4 9-3 1-1c3 0 6-1 9-1z" /><path stroke-width="0" fill="#000000" d="M5749 643c11 0 21 7 26 16v1l2 3v1c1 1 1 2 1 3l1 4h1v1l13 48 1 1v1l10 49 1 1 10 50 10 48 32 118 18 58v1l18 57 4 14v1l5 12v1c1 3 1 6 1 9 0 16-13 29-30 29-12 0-23-7-27-18l-1-2v-1l-4-12-1-1-4-14-18-58-18-59v-1l-32-119-1-2-11-49-10-50-11-49-13-47v-1-1l-1-1c-1-4-2-8-2-12 0-16 13-30 30-30z" /><path stroke-width="0" fill="#000000" d="M6440 387c15 0 28 12 30 27l1 12 2 10 5 25v1l20 108 21 109 24 108 27 107 4 16 1 1c0 2 0 4 0 7 0 16-13 29-30 29-13 0-24-8-28-21v-1l-5-16-27-108v-1l-24-109-22-110-19-108-6-24v-1l-2-12v-1l-1-2v-1l-1-13v-2c0-17 14-30 30-30z" /><path stroke-width="0" fill="#000000" d="M6640 684l1 1v-1l33 2h2l32 3h1l2 1 28 5h1l2 1 29 9 3 1 28 11h1c0 1 1 1 2 1v1l27 14 2 2 2 1 23 18 1 1c1 0 2 1 2 2l1 1 20 22 1 1c1 1 2 3 3 4v1l14 25c1 2 1 4 2 6l4 14c1 1 1 2 1 3v1l3 15v2c0 1 0 2 0 3v1 24 2c0 1-1 2-1 3v2l-6 23-1 1c0 1 0 2-1 3l-1 2h1l-11 21-1 1c0 1-1 2-1 3h-1l-14 21v-1l-1 2-1 1-17 19-1 1-1 1-18 17-2 2-37 30-2 2-79 55-1 1-81 49h-1l-19 11-1 1-17 10h-1c-4 2-9 3-14 3-16 0-30-13-30-29 0-11 6-20 13-25l3-1v-1l17-9 19-11 80-49 77-54 36-29 16-16 15-16 12-17 9-17 4-17 1-18-2-10-3-10-11-20-15-17-20-16-23-12-25-11-27-7-25-5-30-4-31-1-32 2-32 4-31 6-29 10-27 12-24 16-5 3-4 3v1l-1 1v1c-5 11-15 18-28 18-16 0-29-13-29-30 0-3 0-6 1-9v-1l3-6v-2c1-2 3-5 5-7l1-1 5-6 1-1c1-1 2-2 2-2l7-6 1-1 6-4 1-1h1l27-17 2-1 2-1 30-14 1-1h2l1-1 31-10h1l2-1h1l33-7h2l35-5h2l34-2v1l2-1z" /><path stroke-width="0" fill="#000000" d="M1690 2071c17 0 30 14 30 30 0 15-10 27-24 29l-3 1-11 1-10 3-22 7-13 7-6 6-4 8-2 14-1 30 3 33 10 67 21 148v1l18 148v1l14 148v1l4 75v1l1 74v1 1l-1 80v1l-4 80v1l-8 79v1 1l-11 79-13 108-9 109-11 139-3 39-1 39 1 79 4 80v1l3 80 2 45 3 44 3 45v1l3 44v2l1 136v1l-7 136-1 37 2 36 6 74v2l1 34v1 23l5 1 30 6 31 3 65 2h20 2c15 2 27 14 27 30 0 16-13 30-30 30h-1l-19-1-66-1v-1h-2l-34-2v-1h-3l-32-6h-1l-2-1-8-2h-1l-2-1-9-4h-1c-2-1-3-2-5-3h-1l-7-6-2-1c-4-3-7-7-9-11v-1l-3-7-1-3c-1-3-1-6-1-9v-34l-1-33-5-74-1-1-1-38v-1-1l1-38 6-136-1-134-2-44-4-45h1-1l-3-45v-1l-1-44-3-81-4-80v-1l-2-81v-1l1-40v-1l3-41 12-139 9-109v-1l13-109 11-80 7-78 4-79 2-79-2-74-4-73-13-148-18-147-21-147-10-69v-1l-3-35v-3-34-3l1-2v-1l4-20c0-2 1-4 1-6l1-1 8-17 1-1c1-2 3-5 5-7l13-13 2-2c1-1 3-2 4-3h1l18-9 2-1 2-1 26-9 1-1h1l14-3 1-1h3l13-2c1 0 2 0 3 0z" /><path stroke-width="0" fill="#000000" d="M1938 2222c7 0 14 3 19 7l2 2 2 2c1 0 1 1 2 2l3 4 1 1 3 5 2 2 22 28 24 28 12 11 12 10 12 7 14 4 2 1h2c12 4 21 16 21 29 0 16-14 30-30 30-2 0-4 0-6-1h-1l-4-1h-2l-1-1-17-6-2-1c-1 0-2-1-2-1h-1l-16-10-2-1-2-1-15-12-2-2-14-13-2-2-25-30h-1v-1l-23-29-1-1-2-2v-1l-3-3-1-1-1-2c-6-5-9-13-9-21 0-16 13-30 30-30z" /><path stroke-width="0" fill="#000000" d="M2160 2144c16 0 30 14 30 30 0 6-2 12-6 17v1l-1 2-27 70-23 72h-1l-22 73h-1v1l-24 72-1 1-44 113v1l-2 4c-4 10-15 18-27 18-17 0-30-13-30-30 0-4 1-8 2-11v-1l2-3 43-112 25-71 23-73 23-73h1v-2l27-71 1-2v-1h1l1-3 1-2 1-2v-1c2-3 3-5 5-7l1-1 1-1 2-1c5-4 12-7 19-7z" /><path stroke-width="0" fill="#000000" d="M2339 2375c8 0 16 4 21 9l2 2c4 5 7 12 7 19 0 1 0 2 0 3l-1 8-1 3v1l-2 9-4 15-17 126-1 5v2c-3 13-15 24-30 24-16 0-29-14-29-30 0-1 0-2 0-3v-1-5h1-1l19-128v-2-1l4-17 2-6v-6l1-3c3-13 15-24 29-24z" /><path stroke-width="0" fill="#000000" d="M1976 2790c1 0 2 1 3 1 1 0 2 0 3 0 1 0 2 1 2 1 1 0 2 0 3 1l2 1h1l1 1 3 1 3 2v1c1 0 2 1 3 1l1 2 10 9v1c1 0 2 1 2 2h1l8 11 2 2 15 24 15 19 6 5 6 3h1 5 2c1 0 2 0 4 0 16 0 29 13 29 30 0 14-10 26-23 29h-3l-5 1c-1 0-2 0-3 0h-9-3c-1 0-2-1-3-1l-9-2h-3c-1-1-1-1-2-1l-3-1v-1l-12-6c-2-1-4-2-5-3v-1l-11-9-2-1c0-1-1-2-1-2l-1-1-18-23-1-1v-1l-15-23-7-8-6-6h-1c0-1-1-1-2-2-1-1-2-1-2-2-1 0-2-1-3-2-1-1-2-2-3-4-1-2-2-3-3-5 0-1-1-2-1-3-1-3-1-6-1-9 0-3 0-6 1-9 0-1 1-1 1-2 1-2 2-4 3-5 1-2 2-3 3-5 2-1 3-2 5-3 1-1 2-1 2-2 2-1 4-2 6-2 1 0 2-1 3-1 1 0 2 0 3 0 1 0 2-1 3-1z" /><path stroke-width="0" fill="#000000" d="M2165 2765c16 0 30 14 30 30 0 4-1 8-3 12v1l-1 1-2 4c0 1-1 2-1 3h-1l-1 2-10 23-10 27-18 56v1l-12 39-11 40-8 40-5 39v4 2l1 2c1 3 1 6 1 9 0 17-13 30-29 30-12 0-22-6-27-16v-1l-1-3-1-1c-1-1-1-3-2-5v-1l-1-8-1-3c0-1 0-2 0-3v-1l1-9v-2l5-42v-2l9-42v-1l11-42 1-1 12-40 18-57 1-1 10-29 1-1v-1l11-26v-1l2-2c0-1 1-2 1-2v-1l2-3 2-2c0-1 1-2 1-3h1l1-2c5-7 14-11 23-11z" /><path stroke-width="0" fill="#000000" d="M2310 3037c1 0 2 0 3 0l13 2h3c4 1 7 3 10 5h1l9 6 2 2c3 2 6 5 7 9l1 2h1l2 6c1 2 2 4 2 6v3l1 8c0 1 1 2 1 3 0 1-1 2-1 3v1l-3 20v2c0 1-1 2-1 3l-1 2-5 13h3c16 0 30 14 30 30 0 15-10 27-24 29l-11 2v1h-1l-13 2h-3v1h-5-2l-11 2h-3-1-5l-2-1c-1 0-2 0-3 0h-2l-3-1-2-1c-5-1-9-4-12-7l-1-1-2-2-1-1c-4-6-7-12-7-19 0-2 1-4 1-6v-2l1-3 1-2c0-1 1-3 2-5l1-1h-1l11-17 8-16 6-14v-3h-3l-8 2-2 1h-1l-10 2h-1c-2 1-4 1-6 1-16 0-30-13-30-30 0-13 9-25 21-28l3-1 10-2 11-3 2-1c1 0 2 0 3 0l14-2h3z" /><path stroke-width="0" fill="#000000" d="M2160 3334c1 0 2 0 3 0 1 0 2 0 3 0 2 1 4 1 5 2 1 0 2 1 3 1 2 1 3 2 5 3 0 1 1 2 2 2 1 2 2 3 3 5 1 0 2 1 2 2v1l1 2c1 1 1 2 1 2 1 1 1 2 1 3 0 1 0 2 0 3 1 1 1 2 1 3 0 1 0 2-1 3 0 1 0 2 0 3 0 2-1 4-2 6 0 1-1 2-1 3 0 0-1 1-2 2 0 1-1 2-1 2-1 1-1 2-2 2-1 1-2 2-2 2-1 1-2 2-3 2 0 1-1 1-2 2-1 0-2 0-3 1-1 0-1 1-2 1-1 0-2 0-3 1-1 0-2 0-3 0-1 0-2 0-3 0-1 0-2 0-3 0-1 0-2 0-3 0-1-1-2-1-3-1-1 0-2-1-3-1-1-1-2-1-2-1-1-1-2-1-3-2-1 0-1-1-2-2-1 0-2-1-2-2-1 0-2-1-2-2-1 0-1-1-2-2-1-1-1-2-1-2l-1-1-1-2c0-1 0-2-1-3 0-1 0-2 0-3-1-1-1-2-1-3 0-1 0-2 0-3 0-1 0-2 0-3 0-1 0-2 1-3 0-1 0-2 0-3 1 0 1-1 1-2 1-2 2-4 3-5 1-1 1-2 2-3 0 0 1-1 2-2 0 0 1-1 2-2 1 0 1-1 2-1 1-1 2-1 3-2 0 0 1-1 2-1 1-1 2-1 3-1 1 0 2-1 3-1 1 0 2 0 3 0 1 0 2 0 3 0z" /><path stroke-width="0" fill="#000000" d="M2142 3525c16 0 30 13 30 29 0 17-14 30-30 30-16 0-30-13-30-30 0-16 14-29 30-29z" /><path stroke-width="0" fill="#000000" d="M2172 3678c17 0 30 13 30 30 0 16-13 29-30 29-16 0-29-13-29-29 0-17 13-30 29-30z" /><path stroke-width="0" fill="#000000" d="M1963 4083c8 0 16 3 21 9h1l2 2 2 1 66 56 65 56v1l9 8 1 1c5 5 9 12 9 21 0 16-14 29-30 29-7 0-14-2-19-6l-1-1-9-8-64-56-65-54-3-3h-1l-2-2c-2-1-3-3-4-4l-1-1-1-1-1-2c-3-4-5-10-5-16 0-17 14-30 30-30z" /><path stroke-width="0" fill="#000000" d="M2180 4010c17 0 30 13 30 29 0 5-1 8-2 12l-7 16-5 16-7 36-4 38-3 37-10 129-10 130v1l-2 15c-1 15-14 27-29 27-17 0-30-13-30-30v-3l1-15 11-129 10-130 3-38 4-40v-2-1l8-38v-1c0-1 0-1 0-2l1-1 5-18c0-1 1-2 1-3l8-17c4-11 15-18 27-18z" /><path stroke-width="0" fill="#000000" d="M2790 2091h2l16 1c2 1 4 1 6 2l3 1 13 5h1c2 1 5 3 7 5h1l6 5 1 2c1 1 1 1 2 2l1 2 5 6v1h1c1 2 2 4 2 5l1 1 8 22 1 2c0 1 1 2 1 3v1l4 26v1l1 2 1 26v1 25 1l-2 75v1l-5 75-4 75-4 75-2 151 2 151 5 152 7 151 10 165 10 166 9 166v1l5 165 3 84 4 83 8 167v1l-1 67v2l-4 66v1l-6 66-5 65v18l1 19h-1l1 1v19l-1 3v1l-1 19c-1 2-1 4-2 5v1l-5 16-1 1c-1 2-2 4-3 6l-9 13-2 2c0 1-1 1-2 2l-1 1-12 11-1 2c-1 0-2 1-2 1h-1l-14 10-3 2h-1l-32 16h-2v1l-16 6h-1l-14 5-22 8h-1l-22 7h-1l-7 2v1h-3c-2 1-4 1-6 1-16 0-30-14-30-30 0-13 9-25 21-28v-1l8-2 21-7 22-7 14-5 14-6 29-14 11-7 9-8 5-7 3-8 1-14v-18l-1-19v-1l1-19v-2l5-67 6-66 4-65v-65l-8-166-4-84-2-84-6-165-8-166-10-165-10-166-8-152-5-152v-1l-2-152v-1l3-151v-1l3-76 5-75 4-75 2-74v-24l-1-24-3-20-6-16-1-1-5-2h-8l-13 1-76 10-1 1-38 4h-2l-40 1h-1c-16 0-30-13-30-29 0-16 12-28 27-30h2l39-2 37-4 76-10h1l16-2h3z" /><path stroke-width="0" fill="#000000" d="M3169 3137c2 0 4 0 6 1l10 2h1l6 2 31 1 33-2 14-2h2c17 0 30 14 30 30 0 16-12 28-27 30h-1l-14 1-35 2h-2-1l-34-1h-3c-1 0-2 0-3 0l-1-1-9-2-9-2c-13-2-24-14-24-29 0-16 14-30 30-30z" /><path stroke-width="0" fill="#000000" d="M3316 3359c17 0 30 13 30 30 0 14-10 26-24 29l-2 1h-1l-33 3h-1l-17 2-15 2-25 4h-2l-26 3c-1 0-2 0-3 0-17 0-30-13-30-30 0-15 12-28 27-29l25-3 24-4h2l17-2 17-2 34-4c1 0 2 0 3 0z" /><path stroke-width="0" fill="#000000" d="M2349 4369c17 0 30 14 30 30 0 2 0 4-1 6v3 3 6l1 6v1l1 19 10-11h1l1-2 15-12v-1c1 0 2-1 3-1l1-1 16-9 1-1c2-1 5-2 8-3l8-2h3c1 0 2 0 3 0 3 0 6 0 9 1l7 2 3 1c2 1 5 3 7 5l1 1 6 5 1 1c1 1 2 3 3 4l1 1 5 8h-1l1 1c1 1 1 2 2 3v1l6 17 1 2v1l2 8 2 6 3 10 3 8c1 3 1 6 1 9 0 16-13 30-30 30-13 0-24-9-28-21l-3-8v-1l-3-10v-1l-2-6v-1l-2-7-2-5-10 9-12 13-12 13-7 8-1 1h-1l-9 9-2 2c0 0-1 1-2 1v1l-5 3-2 1c-2 1-4 2-5 2h-2v1l-4 1h-2c-2 0-4 1-6 1-4 0-8-1-11-3h-1l-4-2-1-1c-5-2-10-7-12-12l-1-2h-1l-2-5c-1-2-1-4-2-6v-2l-5-34v-1-1l-2-35v-5l-1-7v-2-8c0-2 0-4 1-6l1-6c3-13 15-24 29-24z" /><path stroke-width="0" fill="#000000" d="M3804 2443h1 6l2 1c15 1 27 14 27 29 0 17-13 30-30 30h-1-1-1l-5 3-4 2-8 5v1l3 10 19 47 1 2v1l16 49 1 2 13 51h-1l1 1v1l8 52v1l6 47 7 48 1 1 6 47h-1l1 1v1l2 49v1l-1 138v1l-5 138-2 58v59l3 118 2 183 1 65v1l-2 66v1 1l-10 113v1l-15 113-4 28-2 21 2 2 15 5 14 5 39 12 40 10 81 15 10 2h1c14 3 24 15 24 29 0 17-13 30-30 30-1 0-2 0-3 0h-1l-11-2h-1l-82-16h-2l-41-10v-1h-2l-39-12h-1l-15-5-2-1-17-6-1-1c-1 0-2-1-3-1l-8-5-2-1c-1 0-1-1-2-2h-1l-6-5-2-2c-1-1-2-3-3-4l-1-1-4-6-1-2c-1-3-2-6-3-9l-2-7v-3c0-1 0-2 0-3v-3l2-29v-2l5-28 15-112 10-112 2-64-1-65-3-182-2-118v-1l-1-59v-1l2-59 5-138 2-136-3-46-6-47-7-47v-1l-6-47-8-50-12-49-15-47-20-48-1-2v-1l-5-16v-1-2c-1-2-1-4-1-6v-3l1-14h1c0-4 1-8 3-11l1-2 8-12v-1c2-3 5-6 8-8h1l14-9 2-1 1-1 6-3 8-3 1-1 2-1h1l7-2v-1c3 0 6-1 9-1z" /><path stroke-width="0" fill="#000000" d="M4047 2544c10 0 18 4 23 11l2 2 1 1 1 2c1 1 1 1 2 2l1 2v1l2 4v1l2 5 1 2 23 51v1l6 12 1-6 1-1v-1l5-16 1-3c5-10 15-18 27-18 11 0 20 5 25 13l1 2c1 1 1 2 2 2v1l2 4 1 1 2 5h1l1 4 1 1v1l6 15 5 14 1 1v-1l2-2 22-36 15-38 2-7c4-12 15-21 29-21 16 0 30 14 30 30 0 3-1 6-2 9l-2 8-1 3-17 41c-1 1-1 2-1 3l-1 1-23 39-1 1-1 1-3 4v1l-4 5h-1v1l-1 1-11 11-1 1c0 1-1 2-2 2v1l-6 4-2 1c-1 1-1 1-2 2l-2 1-6 2-1 1c-2 1-5 2-8 2h-2-6-1c-5 0-10-1-14-3l-2-1-5-3-1-1c-2-1-4-3-6-6l-2-2-5-8-1 1-1 2-6 7-1 1c-3 3-7 6-11 8l-2 1-6 2h-1c-2 1-5 2-9 2-4 0-8-1-11-3h-1l-6-3-2-1c-3-2-6-4-8-7l-1-1-6-7-1-2c0 0-1-1-1-2l-13-25-1-2-12-26-23-51v-1l-1-3h-1v-1l-1-4-1-1c-4-5-5-11-5-17 0-17 13-30 29-30z" /><path stroke-width="0" fill="#000000" d="M4436 2665c16 0 28 11 30 26v1 2l6 33v2l4 34v1 1 6 1c0 16-13 30-30 30-15 0-28-12-29-27v-2l-1-4-3-32-6-33v-1-3l-1-2v-1-3c0-16 14-29 30-29z" /><path stroke-width="0" fill="#000000" d="M4557 2627c16 0 28 12 30 27v1l2 40 5 38 1 11v1c0 1 0 2 0 3 0 16-13 30-30 30-14 0-26-10-29-24v-2l-2-11-4-40v-2h-1l-2-41v-1c0-17 14-30 30-30z" /><path stroke-width="0" fill="#000000" d="M5127 2496c16 0 30 14 30 30l-1 3-1 14-3 31v1l-4 32v2l-7 32c0 1 0 2 0 3l-1 1-11 30v1l-1 1-1 3v1h-1l-1 3-2 2-1 2v1l-2 2c-5 6-12 10-20 10h-1v1h-2-2c-9 0-17-5-23-11l-6-8h-1l-5-8-2-3-2 4h-1l-7 13c0 1-1 2-1 3l-1 1-9 12-1 1c0 1-1 2-2 2v1l-5 5-2 2c-1 0-2 1-3 1v1l-5 3-2 1c-3 2-6 3-8 3l-3 1-10 1c-1 0-2 0-3 0-6 0-10-1-15-3l-1-1-9-6h-1c-2-2-5-4-6-6l-2-2-8-11v-1c-1-1-1-1-2-2l-1-2-14-30v-1l-1-2-11-32-11-31-13-29-1-3-1-1v-1c-2-4-2-8-2-12 0-11 6-21 15-26h1l2-1c3-2 7-3 11-3 12 0 21 7 27 16v1l1 1 1 3 1 1v1l13 30v1l1 1 11 32 11 31 9 19 5-10 13-26 1-1c1-2 3-4 5-6v-1l4-4 2-2c4-3 9-5 13-6h2l5-1h2c1 0 2-1 3-1 3 0 6 1 9 2h1l6 2 1 1c2 1 4 2 5 3h1l5 4 3 1 2 2 3-17 4-30 3-31 1-14c2-15 14-27 30-27z" /><path stroke-width="0" fill="#000000" d="M5314 2690c17 0 30 13 30 30 0 2 0 4 0 6h-1l1 4v4l2 23 4 21 1 3v1l1 2c0 2 0 4 0 6 0 17-13 30-29 30-14 0-25-9-29-21l-1-5-1-1v-2l-5-24v-3-1l-2-24-1-4v-5-2-5c0-2 0-4 0-6l1-2v-3l1-1c4-12 15-21 28-21z" /><path stroke-width="0" fill="#000000" d="M5435 2657c9 0 16 3 22 9l2 2 1 2c3 3 5 6 6 10v2l1 4v1c1 1 1 1 1 2v2 4 2 3 3l-3 26-1 2v2l-7 25v1l-8 24-1 3 6-1 13-4h2c2-1 4-1 6-1 16 0 30 13 30 30 0 13-9 24-21 28l-2 1-14 3-1 1h-1l-15 3h-1l-2 1-16 2c-1 0-2 0-3 0h-3-1l-9-1c-5-1-9-2-13-5h-1l-5-4-2-2c-4-3-8-8-10-14l-1-6h-1c0-3-1-6-1-9 0-1 0-2 0-3l1-9 1-3v-2-1l7-24h1v-1l8-24 6-22 2-20v-1c-2-3-2-7-2-11 0-17 13-30 29-30z" /><path stroke-width="0" fill="#000000" d="M5743 2604c1 0 2 0 3 0 2 1 4 1 6 2 2 0 4 1 6 2 1 1 3 2 4 3 2 1 3 3 4 4 2 2 3 3 4 5 1 2 1 3 2 5 0 1 0 2 1 3 0 2 0 4 0 6 0 2 0 4 0 6-1 1-1 2-1 3-1 2-1 4-2 5-1 1-1 2-2 3-1 1-2 3-4 4 0 1-1 2-2 2-1 1-3 2-4 3-1 1-2 1-3 2-1 0-2 0-3 1-1 0-2 0-3 0-1 1-2 1-3 1-1 0-2 0-3 0-1 0-2 0-3 0-1 0-2 0-3-1-2 0-3-1-5-1-3-2-5-3-8-5-2-2-4-4-5-6-2-3-3-5-4-8-1-3-1-6-1-9 0-1 0-2 0-3 0-1 0-2 0-3 0-1 1-2 1-3 0-1 1-2 1-2 0-1 1-2 1-3 1-1 1-2 2-3 0 0 1-1 1-2 1-1 2-1 2-2 1-1 2-1 2-2 1-1 2-1 3-2 1 0 1-1 2-1 1-1 2-1 3-1 1-1 2-1 3-1 0-1 1-1 2-1 1 0 2 0 3-1 1 0 2 0 3 0z" /><path stroke-width="0" fill="#000000" d="M5875 2579c8 0 15 3 21 9l1 1 2 2c4 6 7 12 7 19 0 17-13 30-30 30-8 0-16-3-21-8v-1h-1l-1-1-1-2c-5-5-7-12-7-19 0-17 13-30 30-30z" /><path stroke-width="0" fill="#000000" d="M6041 2562c17 0 30 13 30 29 0 17-13 30-30 30-16 0-30-13-30-30 0-16 14-29 30-29z" /><path stroke-width="0" fill="#000000" d="M6508 2409c16 0 30 13 30 29 0 2 0 4-1 6v2l-1 2-6 39-5 42v1l-4 21v2l-4 21h-1v2 1l-7 19v1l-1 2-1 2-9 18v1c-1 1-1 2-2 3l-5 7-2 2-1 2-8 8c-2 2-4 4-7 5l-8 4v1l-3 1c-3 1-7 2-11 2h-1-4-2c-4-1-8-2-11-4h-1l-4-2-2-1c-2-2-4-4-6-6l-6-7-1-2-1-2-3-3v1l-1 2-7 12c0 1-1 2-1 3l-1 1-4 5-1 1c-1 2-2 3-4 4l-4 4-2 1c-3 2-7 4-11 5h-1l-4 1h-2c-1 0-2 0-3 0-6 0-12-2-17-5l-4-3-2-2c-1-1-3-2-4-4h-1l-30-41-15-18-16-17-2-2-1-1-1-1c-7-5-11-14-11-23 0-16 13-30 29-30 3 0 5 1 6 1h2l1 1c3 1 6 2 8 3l1 1 3 2 1 1 5 4 1 2 1 1 17 18 1 1v1l16 19 1 1 9 12v-1l4-8 1-2 4-8v-1c1-1 1-2 2-2l1-3h1l5-6c2-3 5-6 9-7l2-2 3-1c4-1 7-2 12-2 1 0 2 0 3 0h2l3 1h1c4 1 7 2 10 4l1 1 7 5 1 1c1 0 2 1 2 2l2 1 5 7h1l1 2 4 5v1l1 1 2 3 2-4 6-16 4-19 3-19 4-43 1-2 7-41v-1l1-2h-1l1-3 1-1c3-12 15-20 28-20z" /><path stroke-width="0" fill="#000000" d="M6606 2589c17 0 30 13 30 30v33l1 31v7l1 3c0 16-14 30-30 30-16 0-28-12-30-27l-1-8v-1-2l-1-32v-1l1-34v-2c1-15 14-27 29-27z" /><path stroke-width="0" fill="#000000" d="M6738 2607c15 0 28 12 29 27l2-2 2-1h1l11-8 2-1c1 0 2-1 3-1l12-5 2-1c2 0 4-1 6-1h1l12-1h2c3 0 6 0 9 1l1 1 12 4 1 1c3 1 5 2 7 4l2 2 11 10v1c2 1 3 2 4 4v1l8 11h-1l1 2 1 1 6 12 1 2 4 9c1 4 2 8 2 12 0 16-13 30-30 30-12 0-23-8-27-18v-1l-4-8-5-10-4-7-4-4-5 2-8 5-9 7-10 9-9 8-4 4-1 1-6 5-2 1c-1 0-1 1-2 1l-3 1v1l-5 2c-4 1-8 2-12 2-2 0-4 0-6 0l-1-1h-2l-2-1c-7-2-14-7-17-14l-1-2h-1c-1-3-3-7-3-11v-1l-2-21v-2-1l1-21v-1-4-4-1c0-17 13-30 30-30z" /><path stroke-width="0" fill="#000000" d="M4106 2964c6 0 11 2 16 5h1l1 2h1l2 1 1 2 1 1 1 2 2 2c2 4 3 7 3 11v3l1 26 2 24 3 21 2-1c5-4 11-7 19-7 2 0 4 0 6 1h2l1 1c5 1 9 4 13 7l2 2 2 2 2 3v1l2 1 1 2 13 19 13 19 13 16 5 3 5-10 2-6 2-6 5-20 3-20 1-20v-20l-1-5c0-1 0-2 0-3 0-17 13-30 30-30 15 0 28 12 29 27l1 6v2l1 23v1 2l-2 22v1 2l-4 23v1 1l-6 22v2l-2 7-1 1-3 9v2l-1 1-9 18-1 1c0 1-1 2-1 3l-2 2-6 7c-1 1-2 3-4 4l-2 1-7 5v1c-2 1-5 3-8 3l-3 1-8 2c-2 0-4 0-6 0-2 0-4 0-6 0h-1l-9-3h-2c-2-1-4-2-5-2l-1-1-10-6-2-1c0 0-1-1-2-1v-1l-9-7-2-2-1-2-17-18v-1l-2-2-2-4-3 5-1 1c-1 1-1 2-2 2v1l-4 4v1l-2 2c-2 2-4 3-7 5l-2 1-2 1v-1 1c-4 1-8 2-12 2-5 0-10-1-14-4l-2-1-2-1c-4-3-7-6-9-10l-1-2-10-22v-1c-1 0-1-1-1-2v-1l-7-24v-2l-1-1-4-24v-1l-4-23v-1-1l-2-26v-3-26c0-17 13-30 30-30z" /><path stroke-width="0" fill="#000000" d="M4485 3100c4 0 8 1 11 2l2 1 3 2h1c8 4 13 12 15 20v2l1 5v2c1 1 1 2 1 3v1l-1 7v2 5l-1 2v2l-3 12-1 1v1l-4 13-1 3c11 5 18 15 18 28 0 16-13 30-30 30-3 0-6-1-9-2h-1l-4-2h-2l-9-4-2-2c-1 0-2 0-3-1l-2-1-4-4c-3-2-5-5-7-9l-3-4c-1-3-3-7-3-11v-3-13-2l-2-2c-8-4-12-12-13-21v-2h-1v-2-1c0-2 1-4 1-6l1-3 1-4 1-1h-1l2-5v-1h1v-2h1l1-2c0-1 1-2 1-3l2-2 8-11c2-1 3-2 5-4l5-4 2-2c1 0 2-1 3-1v-1l6-2v-1l2-1c4-1 8-2 12-2z" /><path stroke-width="0" fill="#000000" d="M4633 3110c14 0 26 10 29 24v2l1 2v3h1l8 26 10 27 4 13v1c1 3 2 6 2 9 0 17-14 30-30 30-12 0-23-8-27-18l-1-2-5-13-9-27v-1h-1l-8-27-1-2v-2l-1-1v-3-1h-1v-3l-1-2v-2c0-1 0-2 0-3 0-17 13-30 30-30z" /><path stroke-width="0" fill="#000000" d="M4312 3404c16 0 28 12 30 27v3 1 2 1c0 16-13 30-30 30-16 0-29-14-29-30v-1-2-1c0-17 13-30 29-30z" /><path stroke-width="0" fill="#000000" d="M4350 3549c17 0 30 14 30 30 0 17-13 30-30 30-16 0-29-13-29-30 0-16 13-30 29-30z" /><path stroke-width="0" fill="#000000" d="M4345 3693c1 0 2 0 3 0 1 0 2 0 3 1 1 0 2 0 3 0 1 1 2 1 3 1 1 1 2 1 2 2 1 0 2 0 3 1 1 1 2 1 2 2 1 0 2 1 2 2 1 0 2 1 2 2 1 1 1 1 2 2 1 1 1 2 1 3 1 0 1 1 2 2 0 1 0 2 1 3 0 1 0 2 0 3 1 2 1 4 1 6 0 1 0 2 0 3 0 2-1 4-1 6-1 1-1 1-1 2-1 2-2 4-3 5-1 1-1 2-2 3-1 1-2 3-4 4 0 0-1 1-2 1-2 2-3 2-5 3-1 1-2 1-3 1-1 1-2 1-3 1-2 0-4 1-6 1-1 0-2 0-3-1-2 0-4 0-6-1-1 0-1 0-2-1-2-1-4-1-5-3-1 0-2-1-3-1-1-1-3-3-4-4 0-1-1-2-1-3-2-1-2-3-3-5-1-1-1-1-1-2-1-2-1-4-1-6 0-1-1-2-1-3 0-1 1-2 1-3 0-1 0-2 0-3 0-1 1-2 1-3 0-1 0-2 1-3 0-1 1-2 1-2 1-1 1-2 2-3 0-1 1-1 1-2 1-1 2-2 2-2 1-1 2-2 2-2 1-1 2-1 3-2 0-1 1-1 2-1 1-1 2-1 3-2 1 0 1 0 2-1 1 0 2 0 3 0 1-1 2-1 3-1 1 0 2 0 3 0z" /><path stroke-width="0" fill="#000000" d="M4141 3834c11 0 21 6 26 15l1 2 3 5 1 1c1 1 1 2 2 2v2l7 14 1 1v2l6 15v1l1 2 8 31 3 12h1l2-2c4-3 10-5 16-5 2 0 4 0 6 1h3v1l3 1h1c6 1 10 5 14 9l4 5 2 2 1 2 3 6 1 1 2 4 1 2 9 21 1 1 8 22 6 15 1-2 6-15 5-16 8-36v-1l11-37v-1c0-1 0-1 1-2v-1l7-16c0-1 1-2 1-3l1-1 9-16 1-1 1-2 3-4 1-1c5-6 13-10 23-10 16 0 30 13 30 29 0 7-2 12-6 17v1l-2 3-8 13-5 13-10 34-8 37-1 1v1l-5 17v1l-1 2-7 17v1l-1 1-2 6h-1v1l-4 7-1 2-1 1-11 15-1 1c0 1-1 1-2 2l-1 1-6 6h-1c-1 1-3 2-5 3l-2 1v1l-6 2h-1c-3 2-7 3-11 3-1 0-2 0-3-1h-1l-6-1h-2c-5-1-10-3-13-6l-2-1-6-6h1-1c-1-2-3-3-4-5l-1-2-11-20-1-1c0 0 0-1-1-2l-9-22v-1l-7-18-2 1-1 1-4 3-1 1c-5 3-11 5-17 5-1 0-2 0-3 0h-2l-2-1h-1c-9-2-17-7-21-15v-1l-7-14-1-2v-1l-6-15v-2l-1-1-8-31-8-30-4-12-5-11-2-2-1-1-2-3c-1-2-2-4-3-6l-1-3-1-2c-1-2-1-5-1-8 0-17 13-30 30-30z" /><path stroke-width="0" fill="#000000" d="M4504 4033h2l11 1h2c2 0 4 0 6 1l2 1h1l5 2c1 1 2 1 3 2h1l7 4 1 1c1 1 2 1 3 2l14 12 2 2c0 0 1 1 2 2l1 1 5 7v1c1 1 2 3 3 5l1 1 2 7 1 1c0 3 1 6 1 9 0 1 0 2 0 3l-1 2-1 6v2c-1 5-3 9-6 13l-1 1-6 6v1c-2 2-5 3-7 5h-1l-14 7h9l11-2 10-1v-1 1l2-1c1 0 3 0 4 0 16 0 29 13 29 30 0 14-10 26-23 29h-1l-10 2h-1-1l-13 2h-1-1l-15 1h-1-1l-15-1h-2-2l-14-2-1-1c-1 0-2 0-3 0l-1-1-13-4v-1h-2c-2-1-3-2-5-3l-11-7-2-2c-2-1-3-3-4-4l-1-1-8-11-1-1c-2-3-3-5-4-8l-2-7-1-1c-5-5-9-13-9-21 0-6 2-12 5-17l2-2v-2l1-2 6-24v-1c1-2 2-4 3-6l5-10c1-2 2-3 3-5l2-2 7-7 1-1c2-2 4-4 7-5l2-1 9-4 1-1c3-1 7-2 11-2z" /><path stroke-width="0" fill="#000000" d="M4769 4030c17 0 30 13 30 30 0 1 0 2 0 3v3l7 47 1 10v1c0 1 0 2 0 3 0 17-13 30-29 30-15 0-27-10-30-24v-1l-1-11h-1l-6-47-1-5v-2-1-3-2c0-2 0-4 1-6v-1-1l1-2c3-12 15-21 28-21z" /><path stroke-width="0" fill="#000000" d="M5165 3225c9 0 16 4 21 9 2 2 4 4 6 7l1 2v1l1 3c2 3 3 7 3 11 0 17-14 30-30 30-11 0-21-6-26-16l-1-1-1-2-1-2c-2-4-2-8-2-12 0-16 13-30 29-30z" /><path stroke-width="0" fill="#000000" d="M5375 3459c17 0 30 13 30 30 0 16-13 30-30 30-16 0-30-14-30-30 0-17 14-30 30-30z" /><path stroke-width="0" fill="#000000" d="M5663 3597c15 0 28 12 29 27v1 1 1 1 1 1c0 17-13 30-29 30-17 0-30-13-30-30v-1-1-1c0-16 13-30 30-30z" /><path stroke-width="0" fill="#000000" d="M6542 3722c15 0 28 11 29 27l1 1v5 2 1l-2 51v2 2l-9 51v1l-1 3-14 50c-1 1-1 2-1 3l-20 47c-1 1-1 2-2 3l-6 12-1 1-8 13-1 1-1 2-10 13v1l-2 1-11 12c-2 1-3 2-5 4l-12 8c-2 1-5 2-7 3l-1 1-13 3-2 1c-2 0-4 0-6 0-1 0-2 0-3 0h-3l-13-3c-3 0-6-1-9-3l-7-4-2-1c-1-1-2-1-2-2l-1-1-7-5v-1l-1-1-2-2-15-18c-1-1-2-2-2-2l-14-20v-1l-3-6-9 14-1 1c0 0-1 1-1 2l-1 1-15 16-1 1c-1 1-3 2-4 3l-1 1-15 9-2 1c-3 2-7 3-11 4l-15 1h-3c-4 0-8-1-11-2l-1-1-14-6-1-1c-4-2-7-4-9-7l-11-14-2-2c0-1-1-2-1-2l-1-2-16-34v-1h-1l-14-35-15-32-8-12-10-13-3-3-2-2-2-2c-4-5-7-12-7-19 0-17 14-30 30-30 4 0 8 1 12 2l1 1 1 1c3 1 5 3 7 5l3 2v1l4 4 2 2 11 14h1l1 2 1 1 10 16 1 2v1l17 34v1 1l14 34 14 30 5 6 5-4 10-10 9-15 7-16 5-19 1-1c4-13 15-21 28-21 4 0 8 0 12 2l1 1h1l2 1c3 1 5 3 7 5l1 1 3 4 1 1h1l3 5 1 1 2 3 1 1v1l25 40 13 18 12 15 3 3h2l1-1 5-3 8-8 8-10 7-11 5-10 19-45 14-46 7-48 2-48v-4-1c0-17 13-30 30-30z" /><path stroke-width="0" fill="#000000" d="M6716 3916c4 0 8 0 12 2l3 1v1h1l2 1c4 2 8 5 10 9l1 2 2 4 1 1c1 2 3 5 3 8v1l2 9v2c0 1 0 2 0 3v2 1l-1 8v1c0 2 0 4-1 5l-1 3-7 17c-1 2-2 4-3 6l-1 1-12 15v1c-2 1-3 3-4 4h-1l-14 11-1 1h-1l-3 3-5 3-2 1-5 3-1 1c-1 0-1 1-2 1l-3 1-4 1-1 1v2 17l2 17 4 14 5 10 6 7 9 5 12 3 7 1c16 1 27 14 27 30 0 16-13 29-30 29h-2-1l-9-1h-1c-1 0-2 0-3 0l-1-1-18-4-1-1c-2 0-4-1-6-2h-1l-15-9-2-2c-1-1-3-2-4-3l-1-1-12-13-2-1c-1-2-2-3-3-5v-1l-9-17-1-2c0-1-1-2-1-3v-1l-5-19-1-2v-2l-3-20v-1c0-1 0-2 0-3v-21l1-3v-1l3-21v-2-2l6-20v-1c1-1 1-2 1-3l8-19h1l1-3 1-1 11-17v-1c1-1 1-2 2-2l1-2 13-14 1-1c1-1 1-1 2-2l7-6 2-1 1-1 9-6 2-1c2-1 3-1 5-2h2l9-3h1c2 0 4 0 6 0z" /><path stroke-width="0" fill="#000000" d="M6877 3934c16 0 29 14 29 30 0 1 0 2 0 3v1 2 2 2 17h2 1l10 2h2c3 1 5 2 8 3l1 1 9 6h1c2 1 3 3 5 4l8 9 2 1c0 1 1 2 1 3l1 1 13 21 1 1 1 2 5 10h-1l1 1 4 9v1l4 11 1 2c1 3 2 6 2 9 0 17-14 30-30 30-13 0-23-8-28-18v-1l-4-11-4-8-4-8-10-17-2-3-2 2-3 3-1 1v1c-6 6-14 11-23 11-17 0-30-14-30-30v-66-1-3l-1-1v-3-1c0-1 0-2 1-3v-2-1-1c3-14 15-24 30-24z" /><path stroke-width="0" fill="#000000" d="M7172 2361c1 0 2 0 3 0l3 1 9 1 1 1c2 0 5 1 8 3h1l7 5h1c2 2 3 3 5 4l1 2 6 6v1c2 1 3 3 4 5l4 8 1 2c0 1 1 2 1 3l5 18v1h1v2 1l3 17 1 2 6 45v1 1l4 46v1l3 93v1l1 93 2 92 5 134 7 133 9 133 14 133v1l10 100v2l3 100v1 1l-3 100v2l-9 100v1l-7 64-2 31-1 30 2 29 4 29 6 29 10 28 23 50 26 49v1l28 49v1l26 51 1 2v2l6 17 1 1c0 2 1 4 1 6v2 15 1c0 4 0 8-2 12l-6 13v1l-1 2c-1 2-2 3-3 5h-1l-5 7-2 1-2 2h1l-8 6v1c-1 0-2 1-3 1v1l-21 13-2 2h-1l-22 12h-1l-2 1-47 19-1 1-13 4-2 1c-2 1-5 1-9 1-16 0-29-13-29-30 0-12 7-23 18-27l1-1 13-4 45-19 20-10 19-12 4-4 1-1 2-4v-4l-4-11-25-48-27-50-27-50v-1l-1-1-24-52v-1l-1-2-11-31v-1-2l-8-32v-2l-4-32v-1l-1-1-1-32v-1-1-32-1l2-32v-1-1l7-64 9-99 4-99-3-98-10-99-15-134v-1l-9-134v-1l-6-134-6-134-2-93v-1-92l-3-92-4-45-6-44-3-15-4-14-1-2-9 1-14 3-31 7-1 1h-1l-46 8-47 9h-3c-1 0-2 0-3 0-16 0-30-13-30-30 0-14 11-26 24-29h1l46-9h1l46-8 31-7 1-1 16-3h3l16-2h2z" /><path stroke-width="0" fill="#000000" d="M7628 1916c17 0 30 13 30 29 0 15-10 27-24 30l-7 1-5 2-17 10-36 23-16 13-15 14-12 15-9 15-5 16-2 18 1 64 2 67v1 1l-1 58-1 57 3 56 4 27 6 27 9 39v1 1l7 40v1l4 40v2l1 41v1 1l-2 139v1l-7 139-5 119-2 119 1 119 8 117 12 102 6 51v1l4 52 7 71 9 71v1l8 71v1 1l4 72v1l2 56 5 55 13 113v1l6 56h1l5 57v1l3 57v2 57 1l-3 55-2 55-1 36-1 17 2 9 2 2 10 2 11 2 24 1h25l51-2 21-1h2c16 0 29 13 29 29 0 16-11 29-26 30h-2l-22 1-51 2h-1l-26 1-2-1v1l-26-2h-2l-14-2h-3l-1-1-16-4h-1c-2-1-4-1-5-2l-1-1-12-7h-1l-2-1c-2-1-3-3-4-4l-2-2-5-5c-2-3-3-5-4-8l-1-1-2-6-1-2c0-1 0-2-1-3v-3l-2-18c0-1 0-2 0-3v-19-1l1-37 2-55 4-54-1-55-3-56-5-56-6-56-13-113v-1l-5-57v-1l-3-57-4-71-8-71-8-71v-1l-7-71v-1l-5-51-6-51-11-103h-1v-1l-7-119v-2l-2-120v-1l2-120 6-119 6-139 3-139-1-39-4-38-6-37-9-39v-1l-6-28-1-2-4-29v-1-1l-3-58-1-2 1-59 1-58-1-66-2-67v-1c0-1 0-2 0-3v-1l3-23v-2c1-1 1-2 1-3v-1l8-21 1-2c0-1 0-2 1-3l12-20 1-2 1-2 15-18c1-1 1-2 2-2v-1l17-16 2-2h1l18-15 2-1v-1l39-24 1-1 19-10v-1c1 0 2-1 3-1l10-4c2-1 4-2 6-2l10-2h2c1 0 2 0 3 0z" /><path stroke-width="0" fill="#000000" d="M7853 2089c17 0 30 13 30 30 0 6-2 12-5 16l-1 1v2l-1 3c-1 1-1 1-2 2v1l-23 41-2 2v1l-26 39v1l-27 39-25 39-10 19-2 6v5 1c0 1 0 2 0 3 0 16-13 30-30 30-14 0-26-11-29-24v-2l-1-4v-1c0-1 0-2 0-3v-2l1-12v-1c0-2 1-3 1-5l1-1 4-12v-2l2-2 11-22 1-2 26-40v-1l27-40 26-39 22-39 1-1 1-3 1-2 1-3 1-1c1-2 2-3 3-5l2-2 1-1c6-6 13-9 21-9z" /><path stroke-width="0" fill="#000000" d="M7687 2124c14 0 26 10 29 24v1 1 1l8 18 10 16 25 35 28 35 1 1 27 35 1 1 9 15h1l1 3c2 4 4 9 4 14 0 16-14 30-30 30-11 0-20-5-25-13l-9-15-26-34-29-35-1-1-26-37-1-1-1-2-11-19-1-1-1-2v-1l-9-19v-1-1l-1-2v-1l-1-2v-1-1l-1-2-1-2c0-1 0-2 0-3v-2-1-1c0-17 13-30 30-30z" /><path stroke-width="0" fill="#000000" d="M8047 2292c17 0 30 14 30 30 0 3 0 6-1 9v1l-1 3-1 4v2l-4 28-3 29v1l-1 12c-2 15-15 27-30 27-16 0-30-14-30-30 0-1 0-2 0-3l2-13 3-29v-1l4-30v-1l1-3v-1l1-4v-1l1-4v-3l1-1v-2l1-1c5-11 15-19 27-19z" /><path stroke-width="0" fill="#000000" d="M7876 2541c16 0 30 14 30 30 0 4-1 8-3 12l-1 2h1l-1 1-1 2-43 109v1l-23 53v1 1l-26 53v1l-4 6v1c-5 9-15 15-26 15-17 0-30-13-30-30 0-4 1-8 2-11l1-3h1l3-6 24-51 23-53 43-109 1-3v-1l1-2 1-2 1-1c5-9 15-16 26-16z" /><path stroke-width="0" fill="#000000" d="M7770 2569c9 0 17 4 23 11l1 1 1 2 2 2 2 4h1l20 34v1l1 1 18 37v1l17 37 16 35 8 15 6 13 1 2c2 3 3 7 3 11 0 17-14 30-30 30-12 0-21-6-26-15l-1-1-6-13-8-16-1-1-17-35h1l-1-1-16-36-17-35-19-33-2-2-1-1-1-2c-3-4-5-10-5-16 0-17 13-30 30-30z" /><path stroke-width="0" fill="#000000" d="M8025 2705c5 0 10 1 14 4l2 1h1l1 1c4 3 7 6 9 10l1 2 2 3v1l1 2v1l1 3 1 2v2 1c1 1 1 2 1 3l1 16v3 1 16h-1v2 1l-5 33-4 30 1 12 1 10 8 3 5 2h1c12 4 21 15 21 29 0 16-13 29-30 29-2 0-4 0-6 0l-1-1-8-2h-1c-1 0-2-1-3-1l-1-1-17-7-1-1c-3-1-5-3-7-5l-1-1-6-6-1-2c-1-1-2-3-3-5l-1-2-4-9c-1-2-2-4-2-6v-1l-3-16v-1-3-17c0-1 0-2 0-3v-1l4-32v-1l5-31 1-13-1-9-1-2c-3-4-4-9-4-14 0-17 13-30 30-30z" /><path stroke-width="0" fill="#000000" d="M7936 3205c8 0 16 4 21 9h1v1h1v1l1 1c5 5 9 12 9 21 0 16-14 30-30 30-7 0-14-3-19-7l-1-2-2-1-1-1-2-2-1-1c-4-5-7-12-7-19 0-16 14-30 30-30z" /><path stroke-width="0" fill="#000000" d="M7987 3386c17 0 30 14 30 30v2 2 2c0 17-13 30-30 30-16 0-30-13-30-30v-2-2-2c0-16 14-30 30-30z" /><path stroke-width="0" fill="#000000" d="M7964 3630c1 0 2 0 3 0 1 0 2 1 3 1 1 0 2 0 3 0 1 1 2 1 3 1 1 1 1 1 2 2 1 0 2 1 3 1 1 1 1 1 2 2 1 1 2 1 2 2 1 1 2 1 2 2 1 1 1 1 2 2 0 1 1 2 1 3 1 1 1 1 2 2 0 1 0 2 1 3 0 1 0 2 0 3 1 1 1 2 1 3 0 1 0 2 0 3 0 1 0 2 0 3 0 1 0 2-1 3 0 2-1 4-1 6-1 0-1 1-2 2-1 2-2 3-3 5 0 1-1 1-2 2-1 1-3 3-4 4-1 0-2 1-3 1l-1 1h-1c-1 1-2 1-3 1-3 1-6 2-9 2-1 0-2 0-3 0-2-1-4-1-6-2-1 0-2 0-2-1-1 0-2 0-3-1-1 0-2-1-3-1 0-1-1-1-2-2-1-1-3-3-4-4 0-1-1-2-2-2-1-2-2-4-2-5-1-1-1-2-1-3-1-2-1-4-2-6 0-1 0-2 0-3 0-2 1-4 1-6 0-1 0-2 1-3 0-1 0-2 1-3 0-1 0-1 1-2 0-1 1-2 1-3 1-1 2-1 2-2 1-1 1-1 2-2 1-1 1-1 2-2 1-1 2-1 2-2 1 0 2-1 3-1l1-1 2-1c0 0 1 0 2-1h2 1c2-1 4-1 6-1z" /><path stroke-width="0" fill="#000000" d="M7989 4072c17 0 30 14 30 30 0 12-6 21-15 26l-2 1-1 1-2 4-23 35-20 39-17 41-15 41-8 26-5 25v3 1c-1 15-14 27-30 27-16 0-29-14-29-30v-2-6l1-3 5-28c0-1 1-2 1-3l8-28 1-1 15-43 1-1v-1l17-42 1-2 21-41 1-1 1-2 24-38h1v-1l3-4 1-1 3-4 1-1c1-1 1-2 2-2v-1l5-4 1-1c2-2 5-3 7-5h1l5-2h1c3-1 6-2 9-2z" /><path stroke-width="0" fill="#000000" d="M7830 4080c10 0 18 4 23 11l1 1 2 2 1 2c1 1 2 3 3 5l1 4 1 2 1 4v1l1 2 15 42h1l14 42 16 41 17 39 8 15 1 2c2 4 3 8 3 12 0 16-14 30-30 30-12 0-21-7-26-16h-1l-8-15v-1l-1-1-18-41v-1l-1-1-16-42v-1l-15-42-15-42v-1h-1v-1-2l-1-1v-2c-4-5-5-11-5-17 0-16 13-30 29-30z" /><path stroke-width="0" fill="#000000" d="M8165 4218c3 0 6 0 9 1l1 1 2 1h2c7 3 13 9 16 16v1l1 3v1l1 2c1 2 1 4 1 6l3 29 1 3-1 1-1 32v1c0 1-1 2-1 3l-6 31c0 1-1 2-1 3l-1 2-10 27h-1c0 1 0 2-1 3l-1 2-1 2v1h-1l-1 2v1l-1 1-1 2c-3 4-6 7-10 9l-2 1 1 5 6 16 4 7 5 6 5 4 8 3 10 3c12 4 21 16 21 29 0 16-13 30-30 30-2 0-4 0-6-1l-2-1h-1l-12-3c-1-1-2-1-3-1l-1-1-12-6h-1c-1-1-2-1-3-2h-1l-10-8-1-1c-1-1-2-1-3-2l-1-1-8-10-1-1c-1-1-1-1-2-2l-1-2-7-12v-1c-1-1-1-2-2-2v-2l-8-20v-1l-1-3-5-21v-1-2l-3-23v-3-22-1-3l2-22c0-1 0-2 0-3h1l4-22c0-1 0-2 1-3l7-21 1-3 9-20 1-2 4-7 2-2v-1l6-8 1-2 2-2 3-4h1c2-2 4-3 6-5h1l2-1h1v-1l2-1c4-1 8-2 12-2z" /><path stroke-width="0" fill="#000000" d="M8232 1946h2l16 1h1c1 1 2 1 3 1h1l15 4h2c1 1 2 1 3 1l1 1 14 6 2 1c1 1 3 2 4 3l1 1 11 9 2 2c1 1 2 3 3 4l1 1 7 12 2 2c0 1 1 2 1 3v1l6 14v2c0 1 1 2 1 2v1l3 15v1 2 2l2 32v2 16 14 119l3 59 4 59 7 87v1l3 88 1 88 1 86 2 129 3 127 2 38 5 37 3 39 1 2v39 1l-1 91v92l2 36 3 37 4 38v2 38 1l-1 60v59l4 58 4 28 6 28v1l21 99v1l17 101v1l15 101 15 101 15 93 15 94v2l8 81v2l3 82h-1l1 1v1l-2 82v1l-4 81-1 13v1 2l-2 12v2c-1 2-1 4-2 6l-1 1-5 11-1 1c-1 3-4 6-7 8v1l-5 3-2 2c-1 1-3 2-5 3h-1l-6 2-2 1c-1 0-2 1-3 1h-1l-32 5h-1-1l-33 3-32 1-31 2-18 3-15 2h-1c-1 0-2 0-3 0-16 0-30-13-30-30 0-14 11-26 24-29h2l15-2 20-3h1l31-2h1l33-2 30-2 23-4 1-3v-12l4-81 2-81-3-80-7-79-15-94-15-93v-1l-15-100-15-101-17-100-21-99v-1l-6-29v-2l-4-30v-1-1h-1l-4-60v-2-60-1l2-60-1-36-3-36-3-38-1-2-1-37v-2-92l1-92-1-37-4-37-4-38v-1l-2-39v-1l-3-128-3-128v-1l-1-87-1-87-2-86-7-86-5-60v-1l-2-60v-1-1l-1-119v-1-14l1-14-2-30-2-12-3-9-4-5-5-4-8-4-10-2-12-2-14 1-30 4-29 7h-1c-2 1-4 1-6 1-17 0-30-13-30-30 0-13 9-25 21-28l2-1 31-7h1l1-1 34-4 1-1h2 17 1z" /><path stroke-width="0" fill="#000000" d="M8783 3120h1 1 1 1c16 1 27 14 27 29 0 17-13 30-30 30h-1l-57 1-57 4-57 9-56 12h-1l-4 1h-1-2l-3 1c-1 0-2 0-3 0-16 0-30-13-30-30 0-14 11-26 24-29h2v-1l5-1h1l57-12h1l59-9h1 1l59-5h2 59z" /><path stroke-width="0" fill="#000000" d="M8668 2989c10 0 20 5 25 13v1l2 2 3 4c1 1 2 3 3 5l19 35 1 2 1 1 14 38v2l12 39v1l10 38 11 41v1l10 41 4 15 3 14v1c1 2 1 4 1 6 0 17-13 30-30 30-13 0-25-9-28-21l-1-2-3-14-4-15-10-41-11-41-10-37-11-38-13-35-16-30-2-3c-1-1-1-1-2-2v-1l-3-4-1-2c-2-4-4-9-4-14 0-17 14-30 30-30z" /><path stroke-width="0" fill="#000000" d="M9139 2370c17 0 30 14 30 30 0 14-9 25-21 29h-2l-2 1-3 1-5 4v-1 1l-6 3-1 1h-1l-17 9-17 9-14 9-6 7-2 5-1 12 1 15 2 15v1l5 49v3l-1 50-4 69-4 68-2 39-1 39v41 1l-2 40-4 70-1 70 2 141 2 78v1 78l1 77 2 78v1l1 70v70 39 1 1l-1 39v1l-5 79-6 147-1 74 2 73 5 108v1l1 78 26-9h1l34-12 34-14 55-24 13-7h1c3-1 7-2 12-2 16 0 29 13 29 30 0 11-6 21-15 26l-2 1-13 6h-1l-55 25-1 1-35 13-1 1-36 12-34 12-33 14h-1c-3 2-7 3-11 3-17 0-30-14-30-30 0-2 0-4 1-6v-2-1l1-1v-3l1-3v-1l-1-106-4-108-2-74v-1l1-75v-1l6-148 4-79 2-39v-39l-1-70-1-70-2-77v-1l-1-78v-78l-1-78-3-141v-1l2-71v-1l3-71 2-39v-40l1-40v-2l2-40 5-68 3-67 1-47-4-47-2-15v-1-1l-1-18v-2-2l1-17v-2c0-2 0-4 1-5v-1l5-15 1-2c1-3 3-5 5-7v-1l14-15 1-1c1-1 2-2 4-3l17-12h1c0-1 1-1 2-2l19-10h1l16-9 4-2 7-4 1-1h1l6-4 3-1c0 0 1 0 2-1h2l6-2h1c2 0 4-1 6-1z" /><path stroke-width="0" fill="#000000" d="M9401 2708l-9 7-15 14 19-15 5-6zm-65-247c17 0 30 13 30 30 0 1 0 2 0 3v1 1 3h-1v2 1l-6 76-4 77-1 14v-1l13-9 1-1 2-1h1l12-8h1c1 0 2-1 2-1l2-1 14-5h1c1 0 2-1 3-1h3l14-2h1c1 0 2 0 3 0 1 0 2 0 3 0h1l9 1 2 1c2 0 4 1 6 1l2 1v1l6 3c4 2 7 4 9 7l1 1 4 5 1 1c1 3 3 5 3 8l1 2 1 6 1 1c0 2 0 4 0 6 0 1 0 2 0 3v2l-3 14v1c0 3-1 6-3 8l-7 14c-1 2-2 3-3 5h-1l-21 24-1 1c-1 1-2 2-2 2l-1 1-26 21-2 1c-1 1-1 1-2 2l-29 16h-1c0 0-1 1-2 1h-2l-15 6h-1l-2 1-16 4h-3l-5 1h-1c-1 0-2 0-3 0h-3-3c-15-2-27-15-27-30 0-5 2-10 4-14v-1l-1-1c-4-5-7-12-7-19v-2l4-47 3-47 5-76v-1l6-77v-1-3-3-1l1-2v-1-1c3-14 15-24 29-24z" /><path stroke-width="0" fill="#000000" d="M9624 2733c15 0 28 11 29 26v2h1v18l2 17 5 37v1 6 2c0 17-13 30-30 30-15 0-28-12-29-27v-1l-1-5-4-36-2-19v-2l-1-18v-2c0-16 13-29 30-29z" /><path stroke-width="0" fill="#000000" d="M9399 2969c15 0 27 10 29 24l1 2 3 23 3 24 1 1v2l2 40v2l1 42v1l-1 28 10-5 2-1c1 0 2-1 3-1l16-5h2c2 0 4-1 6-1h1l10 1h2c4 0 8 1 11 3l7 4 2 1c3 3 6 5 8 8l1 1 4 6 1 2c1 2 1 4 2 5l1 3 1 8c1 2 1 4 1 6v2l-1 18h-1v1c0 1 0 2 0 3v1l-2 9-1 1v1l-2 7-1 2-1 1-9 20-1 1c0 1-1 2-1 3h-1l-12 18-2 2-1 2-15 16h-1c0 1-1 2-2 2l-1 1-17 13-2 1-2 1v1l-6 3c-4 2-9 3-14 3-17 0-30-13-30-29 0-11 5-20 13-25l2-1 1-1 3-2 14-10 12-12 10-15 8-16 1-4v-1l-7 3-14 9-13 8-1 1h-2l-3 2-3 1-1 1c-5 5-12 7-19 7-16 0-30-13-30-30v-2l4-41 1-40v-40l-3-39-3-23-1-1-2-24c-1-1-1-2-1-3 0-17 14-30 30-30z" /><path stroke-width="0" fill="#000000" d="M9710 3175c1 0 2 0 3 0l1 1 18 2 1 1c3 0 6 1 9 3l2 1 12 8c3 2 6 5 8 8l1 1 7 12 1 1c0 2 1 3 2 5l1 3 3 14c0 2 0 4 0 6v16 3 1l-3 17v1 1l-4 16v1 1l-5 13 3 1c9 5 15 15 15 27 0 16-13 29-29 29-1 0-2 0-3 0h-2l-6-1h-2l-7-2h-3c-1-1-2-1-2-1l-1-1-5-2-3-1c-2-1-4-3-6-5h-1l-3-3-2-2c-3-4-5-9-6-13v-2l-1-8-1-2c0-1 0-2 0-3 0-2 1-4 1-6v-2l3-10v-1l1-2 4-9 3-11 4-14 2-12v-11l-2-6-1-1-1-1-11-2h-1c-14-3-24-15-24-29 0-16 13-30 30-30z" /><path stroke-width="0" fill="#000000" d="M9601 3467c4 0 8 0 12 2l1 1h1c1 1 2 1 3 2h1l1 1 2 2c1 1 2 2 2 2l2 3 1 1v1l1 1 1 2 1 3c0 1 1 3 1 5v3 4 2c0 16-13 29-30 29-16 0-30-13-30-29v-2-4c0-16 14-29 30-29z" /><path stroke-width="0" fill="#000000" d="M9568 3665h1 1c16 0 30 14 30 30 0 17-14 30-30 30h-1-1-3c-15-2-27-14-27-30 0-16 14-30 30-30z" /><path stroke-width="0" fill="#000000" d="M9374 3773c16 0 30 14 30 30v1l-1 68h-1v1l-3 67v1l-8 107 25-7h2l3-1 14-1c1 0 2 0 3 0h1 13 3c1 0 2 0 3 1l12 2h1l2 1c1 0 2 1 3 1l2 1 11 6h1c2 1 3 2 5 3l1 2 10 9v1h1c3 3 5 6 6 9v1l4 9v1c2 3 3 7 3 11v2l-1 10v1c0 3-1 6-2 9l-4 10c-1 2-2 4-3 5l-1 1-7 10-1 1c-1 1-1 1-2 2l-9 9-2 2h-1l-9 7-2 1-1 1-9 6-1 1h-1l-6 3-2 1c-3 1-7 2-11 2-17 0-30-13-30-30 0-11 6-21 15-26h1l5-3 7-4 7-5 6-6 3-4-1-1-4-2-6-2h-9l-10 1-23 6-21 9-3 1h-1l-4 2h-1l-2 1h-1l-3 2h-1c-3 1-6 1-9 1-3 0-6 0-9-1l-1-1c-13-4-21-15-21-28v-2l1-18 10-134 3-67 1-68v-2c2-15 15-27 30-27z" /><path stroke-width="0" fill="#000000" d="M9703 4097c2 0 4 0 6 1l13 2v1h3c1 0 2 1 3 1l1 1 19 9h1c0 1 1 1 2 2l1 1 16 12 1 1 1 1 8 6 1 1c5 6 9 13 9 21 0 17-14 30-30 30-7 0-14-2-19-7h-1l-7-6-12-10-13-6-6-1h-5l-4 1-5 3-14 12-15 17-2 3-1 1-4 5-1 1-1 1-4 4-1 1c-4 3-9 5-13 6h-3l-2 1c-1 0-2 0-3 0-17 0-30-14-30-30v-1-8-2l1-3 1-9v-1l1-2v-1l5-17c4-12 16-21 29-21 4 0 8 1 12 2v1l8-7 1-1c1-1 3-2 5-3l10-6c2-1 4-1 5-2h1l11-3 3-1c0 0 1 0 2 0l2-1h13 1z" /><path stroke-width="0" fill="#000000" d="M9822 2295h1l8 1h2c2 0 4 0 6 1l9 3h1c1 1 3 1 5 2l1 1 9 5 1 1c1 0 2 1 2 2l2 1 15 15c2 2 3 3 4 5l12 18 2 3 9 18 1 2v1l18 42 1 3 13 44 1 3 9 45v2l7 47v1l4 47v1l2 47v1h1l3 93 1 48v1l-1 48v1l-5 96v1l-7 96-6 96-6 79v1 1l-11 78-1 1-13 78h-1v1l-14 76-9 56-6 56-4 56-1 56 2 115 8 113 6 49 8 50 18 100 9 38 11 39 10 40v1 1l7 40v2c0 1 1 2 1 3l-1 2-1 12v1c0 4-1 8-3 11l-1 2-1 1-5 7v1c-2 3-5 5-8 8h-1l-9 6h-1c-1 1-2 1-3 2h-1l-12 4-1 1h-1l-38 10h-1l-38 11-11 3h-1l-2 1c-2 0-4 0-6 0-16 0-30-13-30-30 0-13 9-24 21-28h1l11-4h1l39-10 38-10 4-2-5-33-10-38-11-39v-1-1l-9-39v-1l-19-101-8-51v-1l-6-51v-1l-8-115v-1l-3-116v-1l2-58v-1l3-58h1v-1l6-57v-1-1l9-57v-1l15-77 14-77 11-76 6-78 5-96 7-96 6-96v-46l-1-47-3-93-3-46-3-46-7-45-8-43-13-42-16-39-8-16-10-14-10-11-3-1-2-1h-1l-2 1-12 5-8 7 1 1c1 3 2 7 2 11 0 17-13 30-30 30-5 0-10-1-14-4h-1l-3-2-1-1c-5-3-9-7-11-13l-1-2-1-5h-1c0-1 0-2 0-3l-1-2v-5l-1-2v-2-4c0-3 1-6 2-9v-1l3-8v-2c1-1 1-1 2-2l1-3 5-7c1-2 3-4 4-5l1-1 16-14h1c1-2 3-3 4-4h2l19-9 1-1c1 0 3-1 5-1h1l9-2 3-1c1 0 2 0 3 0z" /></g></g></svg>