<?xml version="1.0" encoding="utf-8"?>
<!-- Created with Majerus.net InkPaint (http://www.majerus.net/InkPaint/) -->
<!DOCTYPE svg PUBLIC "-//W3C//DTD SVG 1.1//EN" "http://www.w3.org/Graphics/SVG/1.1/DTD/svg11.dtd">
<svg xmlns="http://www.w3.org/2000/svg" version="1.1" width="269.25mm" height="171.35mm" viewBox="0 0 5385 3427" preserveAspectRatio="xMidYMid meet"><!-- Generator: Majerus.net InkPaint UWP 1.1.14.0 --><g fill="none" stroke-linecap="round" stroke-linejoin="round"><g stroke="#000000"><path stroke-width="0" fill="#000000" d="M109 429c15 0 27 10 31 23v1l16 58v1l15 58v1l25 114 25 113 14 56 16 57 9 31 2-3 10-17 20-42 15-44 13-44 11-47 10-48 9-48 1-1 11-48v-2c1-3 3-6 4-9l2-2 2-2c6-7 14-12 24-12 9 0 17 4 23 9l1 1 2 3 1 1c1 2 2 3 3 5l1 1 2 5 1 1 1 4 54 117 58 116 12 22 14 23 8 9 10-57 8-75 5-77 5-77 4-57v-1-1l4-28v-3l6-27h1v-3l1-2v-1l2-4c2-4 4-8 7-10v-1l3-2 2-2c4-4 10-6 17-7h3 3c4 0 9 0 12 2h1l3 2c1 0 2 1 3 1l2 1 4 3c9 5 14 15 14 26 0 13-8 24-19 29h-1l-1 7-4 26-3 56-6 77-5 78v1l-8 77-1 2-13 75v1 1l-3 12v2l-1 1-4 12-1 1c-1 2-2 4-3 6l-3 5-2 1c-1 3-4 5-6 7h-1l-4 2-2 2c-3 2-7 3-11 3h-3-5c-5 0-9 0-13-2l-2-1-5-3h-1c-2-1-4-2-5-4l-2-1-20-18-1-1c0-1-1-2-2-2v-1l-18-23-1-1-1-1-15-25-1-1-13-24v-1h-1l-58-117-1-1-20-46-2 9-10 48v2l-12 47v2l-13 45-1 1v1l-16 46-1 2v1l-21 45-1 2-1 1-12 20-1 2-1 1-14 18v1l-2 2-6 6v1c-1 1-2 1-3 2l-1 1-7 5-1 1c-3 2-5 3-8 4l-3 1h-1l-7 1v1c-2 0-4 0-6 0-4 0-7 0-10-1l-1-1-4-1-2-1c-2-1-5-2-7-4l-1-1-4-3-1-2c-2-1-3-3-4-4v-1l-10-14-1-2c0-1-1-2-1-3l-7-16-1-3v-1l-10-33v-1l-16-58v-1l-14-57v-1l-26-113-25-113-14-57-16-58-1-2c0-3 0-5 0-7 0-17 14-32 31-32z" /><path stroke-width="0" fill="#000000" d="M1106 593l-16 3-17 6-17 9-15 12-14 13-10 15-8 15-6 18-2 17-1 17 3 17 2 7 27-21 26-23 22-25 19-27 15-29 6-16 1-5v-2l-15-1zm-2-63h2l22 1h1c3 0 5 0 7 1l11 4c3 1 6 2 9 4l1 1 8 6h1c2 2 4 5 6 7l1 1 5 8v2c1 1 2 3 3 5l1 3 2 9v1c0 2 0 4 0 6v11-1 3 3l-2 10v1c-1 1-1 2-1 3v1l-7 20-1 2-1 2v1h-1l-16 32h-1c0 1-1 2-1 3l-1 1-21 30-1 2-1 1-25 28v-1l-1 2-1 1-28 25-1 1-1 1-31 22-1 1-1 1-5 3 29 28 15 11 17 9 17 8 18 6 18 4 18 2 25-1 26-4 25-5 25-8 23-8 22-9h1l2-1c3-1 6-1 9-1 18 0 32 14 32 31 0 13-8 25-19 30h-1l-22 9h-1-1l-24 9h-1-1l-26 8v1h-2l-29 7v-1 1h-2l-29 4h-1-2l-29 1h-1-3l-22-2c-1 0-2 0-3-1l-22-4-3-1-21-7-3-1-21-10-2-1h-1l-19-11-2-1-1-1-18-13-2-1-2-2-32-31c-1-1-1-2-2-3l-1-1-6-8-6 4-2 1-32 15-3 1-5 3-2 1-4 2h-1c-1 0-3 1-6 1l-3 1h-3c-1 0-2 0-3 0-17 0-32-14-32-31 0-16 11-28 26-31h1l3-2 4-2h1-1l33-15 5-3-2-3v-1l-5-20h-1v-3l-1-2-3-21v-1c0-1 0-2 0-3v-1-21-4l1-1 3-22v-2c1-1 1-2 1-3l7-22v-1c0-1 1-1 1-2l1-2 10-20 1-1c0-1 1-2 1-3l1-1 14-18 1-2 2-2 17-17c0 0 1-1 2-2h1l19-15 1-1 3-1v-1l21-11c1 0 2-1 3-1l1-1 22-8h1c1-1 2-1 3-1h2l22-4h2c1 0 2 0 3 0z" /><path stroke-width="0" fill="#000000" d="M2642 536c17 0 32 15 32 32 0 3-1 7-2 10l-1 2-7 17-35 98-34 100-8 25v1l-9 26-1 2-11 25c0 1-1 2-1 3l-1 1v1l-13 21-1 1c-1 2-3 4-4 5l-2 2-7 6c-5 4-10 6-17 7h-2-6-1c-6 0-11-1-16-3l-1-1-6-4-1-1c-2-1-3-2-5-3v-1l-6-6-2-2-35-45-1-1v-1l-30-48-1-1-28-48-28-48-11-18-11-17-6 37-10 64-1 1-13 63v1l-1 2-9 31-1 2-11 30v1l-1 1-3 8-1 1-4 10-1 1v1l-6 9-1 2-1 1-6 9-1 1c-1 1-1 2-2 2l-1 1-7 7-1 1c-2 1-4 2-6 3l-2 2-8 3c-4 2-8 2-12 2h-3-9c-5-1-9-2-12-4l-2-1-9-6-1-1c-2-1-3-2-5-3v-1l-17-18-2-1-1-1-15-21-1-1v-1l-27-43-1-2v-1h-1l-28-56-1-2v-1l-23-59-1-1v-1l-20-59v-1l-19-60-6-18-2-4-4-5-1-2c-4-6-6-12-6-18 0-18 15-32 32-32 10 0 19 5 25 12l6 8 2 2c0 1 1 2 1 3l1 2 5 9v1c0 1 1 2 1 3l6 20 19 60 20 59 22 56 27 54 26 41 13 18 6 7 3-5 4-8 3-7 11-28 8-29 13-61 10-63v-1l11-63v-2l2-9 1-3 1-2v-1l3-7v-1c2-4 5-9 9-12h1l5-5 2-1c6-4 12-6 18-6h4l3 1c4 0 7 1 9 2h1l4 2 3 1c1 1 2 1 3 2l2 2 17 13c1 2 3 3 4 5l15 18 1 2h1l13 20v1l12 20 28 48 28 48 29 46 20 26 8-19 9-25 8-24v-1l34-100v-1l36-99v-1h1v-1l7-17c5-12 16-20 29-20z" /><path stroke-width="0" fill="#000000" d="M3051 549c1 0 2 0 4 1h2l6 1c4 1 6 2 9 3l2 1 5 3 1 1c8 5 14 15 14 26 0 18-15 32-32 32-5 0-9-1-12-3l-2-1-4 1-21 5-21 7-21 11-21 12-40 31-17 16-16 18-12 16-12 18-11 20-8 19-6 20-2 18 2 17 4 15 5 7 4 2 4 2 8-1 11-3 13-5 12-7 11-8 16-14 16-16 29-38 24-42 18-43 2-8 2-8 1-3 1-2v-1-1c5-12 17-20 30-20 7 0 14 3 20 8l2 1v1h1c4 5 7 10 8 16v1h1v4 2 1l1 7 5 56 8 56 12 55 17 52 3 9 3 7 6 11 1 2c1 4 2 8 2 13 0 17-14 31-31 31-12 0-23-6-28-16l-1-1-6-13-1-1-3-8v-1h-1l-4-11v-2h-1l-17-54v-1-2-1l-13-57v-2l-2-12-6 10-1 2-1 2-32 41-1 1-1 2-18 18h-1l-1 2-19 16-1 1-1 1-14 9v1l-2 1-15 9h-1l-2 1-1 1-16 6v1c-1 0-2 0-3 1h-1l-17 4-1 1c-1 0-2 0-3 0h-2l-16 1h-2c-2 0-4 0-6 0l-1-1-15-4h-2c-3-1-6-2-8-4h-1l-13-10-2-1c-2-2-4-4-6-7l-11-15v-1l-1-2c-1-1-1-2-1-3l-1-2-1-1-7-22c-1-2-1-5-1-7l-2-24v-2c0-2 0-3 0-4l3-24v-3l1-2 6-24h1c0-1 0-2 1-3l9-23c1-1 1-2 2-3l12-22 1-2v-1l14-20 1-2 14-18 1-1 1-1 17-19 1-1 20-19 1-1 1-1 43-33 2-1 1-1 23-14 2-1 1-1 24-11 1-1 2-1 24-9v1l2-1 2-1 24-5 1-1c1 0 2 0 3 0h1l12-1 3-1z" /><path stroke-width="0" fill="#000000" d="M3447 580h3l13 1c4 1 8 2 12 4l2 1 11 7 1 1c2 1 5 3 6 6h1l9 12 1 2c1 1 2 1 2 2v1l7 14h1l1 2v1l6 16 1 2 4 15 1 1 3 13v2l6 31v1l1 2 4 32h-1l1 1v1l4 64 5 64 4 30 6 30 2 8 2 7 2 4 2 4v1c2 4 3 8 3 13 0 17-14 31-32 31-12 0-22-6-28-16l-1-2-2-5v-1l-1-1-2-5v-1l-1-2-2-7-1-1v-1l-3-10v-2l-7-32v-2l-4-32v-1-1l-5-65-4-64-4-30-6-30-3-12-4-13-4-12-6-10-3-5-1 1-22 17-22 24-22 26-21 27-24 31-25 33h-1l-25 32-1 1-26 29-1 1-1 1-5 5-2 1c0 1-1 1-2 2h-1l-3 3v-1l-2 2c-3 1-6 2-9 3h-3l-2 1h-1c-1 0-2 0-3 0-9 0-16-4-22-9l-1-1-1-1-2-2c-3-5-6-11-7-17v-1-6-3-3l1-10 6-77v-1l3-39 1-1 5-39v-1-2h1v-1-1c3-14 15-25 31-25 17 0 31 14 31 32 0 1 0 2 0 3v3 1 1l-6 37-3 38-1 8 2-2 24-32 1-1 24-31 22-27v-1l23-27 1-2 24-26h1c1-1 1-2 2-2l1-1 26-21 2-1c1-1 2-1 2-2h1l7-4c2-1 4-2 6-2l1-1 6-2h1 2c3-1 5-1 7-1z" /><path stroke-width="0" fill="#000000" d="M3920 213c16 0 30 13 31 29l1 3v2 1 80 2l-4 80v2l-7 80v1l-8 80-9 90-9 91-9 90-4 89v10 6c0 18-14 32-32 32-16 0-30-12-31-28v-3l-1-6v-1l1-11v-1l4-91v-1-1l9-90v-1l9-90 9-91 8-80 7-79 4-79-1-80v-1-1-1c0-17 14-32 32-32z" /><path stroke-width="0" fill="#000000" d="M4226 518c18 0 32 15 32 32 0 15-11 28-25 31h-1l-23 5h-1l-25 5h-1l-27 5h-1l-29 5h-2l-64 7h-2l-65 2h-1-1l-65-2h-1l-64-5h-1-1l-41-7-19-3-19-1h-1c-16-1-29-15-29-31 0-18 15-32 32-32h2l20 1h2l1 1 20 2v1l40 6 62 5 63 2 63-2 61-6 29-5 27-5 25-5 24-5c2 0 4-1 6-1z" /><path stroke-width="0" fill="#000000" d="M4876 68c17 0 31 14 31 31v1 21 2l-2 19v1l-2 18-2 21-8 117-1 1h1-1l-10 118v1l-27 236-10 74-9 75-6 73-3 72 1 36 1 15 3 15 2 7 1 2c0 2 0 5 0 7 0 17-14 31-31 31-15 0-27-9-31-22v-1l-2-8-1-3-3-18-1-3-1-17v-1l-1-2v-37-1-1l2-74 1-2 6-74v-1l9-75v-1l10-73 27-236 10-118 9-117v-1l2-20v-1l2-19 1-18 1-20v-2c2-16 15-28 32-28z" /><path stroke-width="0" fill="#000000" d="M5000 652c17 0 31 14 31 31 0 16-11 28-25 31l-2 1-11 1-11 1h-1l-64 6h-1l-65 2h-1-64-1l-64-1-48 1-48 1h-1c-17 0-31-14-31-32 0-16 12-30 28-31h3l48-2h1 48 1l64 1h64l63-3 62-5 11-1 10-1c1 0 3 0 4 0z" /><path stroke-width="0" fill="#000000" d="M5271 521h2l18 1h2c1 0 2 0 3 1l18 4h3c1 1 2 1 3 2l13 6h1l2 1c1 0 2 1 2 2l2 1 11 8v1c2 1 4 2 5 4l8 10 2 2c0 1 1 2 1 3l1 1 5 12 1 1c0 1 1 2 1 3v1l4 13v2l1 3 1 13c0 1 0 2 0 3v2l-2 28v2c0 1 0 2 0 3l-6 25v3l-8 24-1 3-10 24h-1l-1 3-12 23c-1 1-1 2-2 3l-29 43-2 3-1 1-35 37-1 1-2 2-22 19c-1 1-2 1-3 2l-24 16h-1l-2 2h-1l-13 7-2 1h-2l-13 5h-1c-1 1-2 1-3 1h-1l-13 3h-3l-3 1h-14-1c-2 0-4 0-6-1h-1l-15-4h-2c-3-1-6-2-8-4h-1l-11-8-2-2c-1-1-3-2-4-4l-2-2-7-11c-2-2-3-4-3-6l-1-2-5-13v-1c0-1 0-2-1-3v-2l-2-15v-1c0-1 0-2 0-3v-15-3-1l2-14v-2-1l3-13 1-2c0-1 1-2 1-3l3-6 2-6c4-13 16-23 30-23 17 0 32 15 32 32 0 3-1 7-2 10l-2 7c0 1-1 2-1 3l-3 5-1 9-2 10v11l1 9 2 7 2 2 2 1 5 2 7-1 9-1 9-4 10-5 21-14 20-16 32-34 27-40 11-21 9-21 7-22 4-21 2-23-1-8-2-8-3-5-3-4-5-4-7-3-12-3-14-1-16 1-15 3-35 11-32 13-29 16-28 19-25 21-23 25-9 11-9 11v1c-6 7-15 12-25 12-17 0-32-15-32-32 0-7 2-13 6-18l1-1 9-12 1-1 10-12 1-2 25-26 1-1 2-2 27-23 1-1 2-1 30-21c1-1 2-1 3-2l32-17c1-1 2-1 3-2l35-14v-1c1 0 2 0 3-1l38-11 3-1h1l19-3 2-1h1l20-1h2z" /><path stroke-width="0" fill="#000000" d="M1633 2745c4 0 7 1 10 2l12 4h1c3 1 5 2 8 4l2 2 12 9c2 2 3 3 4 5l2 1 7 10v1c1 1 1 2 2 3l1 1 5 11 1 2c0 1 0 2 1 2v2l6 25v1c1 1 1 2 1 3v2l2 26v2 1l-1 25v2l-2 33-1 1v1l-3 20 27-36 1-2 23-27 2-2 24-26h1l1-1 21-20 2-1 2-2 12-8c1-1 2-1 3-2l1-1 13-6h1c2-1 4-2 6-2h1l7-2h1 2c1 0 2 0 4 0 2 0 4 0 6 0h1l6 2 3 1c3 0 5 2 8 4h1l5 4 2 1c1 2 3 3 4 5l1 1 4 6 1 1c1 2 2 3 3 5v1l6 14v1l1 2 1 2 3 15 1 1v1l5 35 1 2 3 34v2l3 70 2 70 3 33 5 32 5 17 6 11 7 7 2 1 5 1 14 1 15-1 3-1c17 0 31 15 31 32 0 17-12 30-28 32h-1l-16 1h-3-1l-20-1h-1c-1 0-2 0-4 0v-1l-12-2-2-1c-1 0-2 0-3-1h-1l-10-5h1l-2-1c-2-1-4-2-5-3l-2-1-14-14-1-1c-2-2-4-4-6-7l-10-19-1-3c0-1-1-2-1-3v-1l-6-22-1-2v-1l-6-35v-2l-3-35v-2l-3-70-2-70-3-32-5-32-3-11-5 4-20 18-23 24-22 26-41 57-38 61-34 61-11 17-7 16-1 2c-5 10-16 16-28 16-17 0-31-14-31-31 0-2 0-5 0-7l1-2v-1l19-63 17-63 13-63 4-30 3-31v-23l-1-23-5-18-2-6-3-4-4-3-2-1h-4l-7 2-9 5-11 7-9 8-9 7-41 43-37 47-34 50-30 54-28 56-26 57-25 57-25 56v1l-4 9v1l-5 9v1l-4 7-1 2-2 2v1c-6 8-16 14-26 14-18 0-32-14-32-32 0-1 0-2 0-3v-1l3-25 4-26 5-46 4-47 3-94-1-95-1-95v-1-3-3c0-17 14-32 32-32 16 0 30 13 31 29l1 3v3 3 96l1 95v1 1l-2 55 13-27v-1l29-57v-1h1l31-55v-1l1-1v-1l35-52v-1l1-1 39-50h1l1-2 44-45v-1l2-1 9-9h1l1-1 11-9 2-1 13-9 3-1v-1l14-6 2-1c1-1 2-1 3-1l13-5c2 0 4-1 7-1h1l14-1h1z" /><path stroke-width="0" fill="#000000" d="M2270 2725c17 0 31 14 31 31 0 1 0 2 0 3v3l-4 51 1 52 3 52 3 53 5 80 6 79 9 78 13 77 2 12 3 9 2 7 1 6h1v3c1 2 1 4 1 6 0 18-14 32-32 32-14 0-26-9-30-22v-1l-2-6v-1l-2-8-1-1-2-10v-1l-3-12v-1l-14-79v-2l-9-80v-1l-6-80-5-80-4-53-2-54v-1l-1-53v-1-2l4-53v-1-1-2-2l1-1v-1-1-1c4-13 16-22 31-22z" /><path stroke-width="0" fill="#000000" d="M2253 2586c18 0 32 15 32 32 0 2 0 4-1 6v2 1c-3 14-16 25-32 25-8 0-16-3-22-9l-1-1-2-2c-1-2-2-4-3-5l-1-1v-1l-1-2c-2-4-2-8-2-12 0-11 5-21 13-26l1-1h1l1-1 1-1c2-1 4-1 6-2l2-1h1 1c2 0 4-1 6-1z" /><path stroke-width="0" fill="#000000" d="M2750 2693c17 0 31 14 31 32 0 12-6 22-16 27l-2 2h-1-1l-13 12-15 17-15 21-14 20-15 22-12 23-10 22-5 20v8l2 4 4 5 8 5 13 6 15 5 16 4 14 4 27 8h1 1l29 9c1 0 2 0 3 1l28 13 2 1c1 0 2 1 2 1h1l11 8v1l3 1 2 2 10 10c1 1 2 3 3 5l1 1 7 10 1 2c1 2 1 4 2 5v1l3 11 1 3c0 1 1 2 1 3v1 12 2c0 1 0 2 0 3v1l-1 12h-1v2c0 1 0 2-1 3v1l-8 23-1 2-1 2v1l-11 21v1l-1 1-19 31-1 1-1 1-21 30-1 2-24 29v1h-1l-25 29-1 1-54 55-1 1-54 50h-1l-11 10v1l-12 10-1 1-1 1-12 9h-1c-1 1-2 1-3 2l-2 1-10 5h-1c-4 2-8 3-12 3-2 0-3 0-4-1h-2-1l-4-1c-11-2-19-9-23-19h-1l-2-5v-3c-1-2-2-6-2-9v-1l1-9v-2-2l2-11 1-2 6-24v-1c5-13 17-23 31-23 12 0 22 7 28 17v1l47-44 53-53 24-28 23-28 20-29 18-29 10-19 6-18 1-6v-4l-1-4-3-4-5-5-7-5-23-10-27-8-26-8-15-4h-1l-16-5h-1-1l-16-5-1-1-2-1h-1l-15-7h-1l-2-1-2-2h-1l-13-9h-1c-1-1-3-2-4-4l-1-1-11-12-1-1c-2-2-4-5-5-8l-6-14c-1-3-2-6-2-9v-3l-1-18v-1c0-2 0-4 1-6v-2l7-26 1-2c0-1 0-2 1-3l11-26 1-3h1l14-25 1-2 16-23v-1l14-20v-1h1l15-22 1-1 1-1 17-20 2-2 1-1 19-16v-1c2-1 4-3 5-4l3-1 3-1h1l2-1v-1c4-1 8-2 13-2z" /><path stroke-width="0" fill="#000000" d="M3157 2596c18 0 32 14 32 32 0 5-2 10-4 15l-2 2-9 26-7 27-12 61-16 95-15 97-13 97-10 96v1l-6 57-1 26 2 25 1 4v1 2c0 1 0 3 0 4 0 17-14 31-31 31-16 0-28-11-31-25l-2-7v-3-1l-2-28v-2-1l1-29v-2l6-59 10-97 13-99 15-98v-1l17-95v-1l12-62v-2l8-29v-2l1-1 10-29 1-1 1-3c1-2 2-4 3-6h1l1-3 2-1c5-8 14-12 24-12z" /><path stroke-width="0" fill="#000000" d="M3293 2909c18 0 32 14 32 31 0 17-12 30-28 32h-4-22-23l-71 3-73 5-72 8-71 11h-1l-3 1h-2-1c-3 1-6 2-9 2-18 0-32-14-32-32 0-13 8-24 19-29l2-1 5-1 1-1c2 0 4-1 7-1l5-1 71-11h1 1l73-8h1l74-6h1l72-2h1 23 1 22z" /><path stroke-width="0" fill="#000000" d="M3591 2866c17 0 32 14 32 31 0 15-10 27-23 31h-1l-4 1-4 2-7 6-6 6-18 18-16 20-30 45-24 49-20 49-5 18 6-5 19-19 36-45 36-48v-1l37-48v-1c1 0 2-1 3-2l4-4 1-1c5-4 11-7 17-8h1 3 2c10 0 19 5 25 12l2 3 2 2c1 1 2 3 3 5v2l2 5 1 2v2l9 34v1 1l6 36 1 1 5 37 6 35 10 55 11 56 16 53 9 24 11 23 5 9 4 6 3 5 4 4 1 2c4 5 6 11 6 18 0 17-14 32-32 32-10 0-18-5-24-12l-4-5-1-1-5-6-1-1v-1l-5-8-1-1v-1l-6-9v-1l-1-1-12-26v-1l-1-1-10-26-1-2v-1l-16-55v-1l-1-2-12-57v-1l-10-56-5-37h-1l-5-37-3-16-2 3-36 49-1 1-38 47-2 2-21 21v1l-1 1-22 20-1-1v1l-2 1-12 9-1 1c0 0-1 1-2 1l-2 1-13 6h-1c-3 2-6 2-9 3h-6-3c-3 0-6 0-9-1h-2l-5-2-1-1c-5-2-9-5-12-9h-1l-3-5-2-2c-2-2-3-5-4-8v-1l-3-8v-2c0-1 0-2-1-4v-2-16-1c0-2 0-3 0-4v-1l2-16 1-2v-3l10-33v-1l1-2 20-52v-1l1-1 26-52 1-1 1-2v-1l32-48c1-1 1-2 2-2l18-22 2-2 19-20h1v-1l7-6h1v-1l9-8h1c1-1 1-2 2-2l1-1 9-6 2-1c2-1 4-2 6-2l1-1 10-2 2-1c2 0 4 0 6 0z" /><path stroke-width="0" fill="#000000" d="M4081 2608c17 0 32 14 32 32 0 6-2 13-6 18l-1 1-2 7-19 81-14 82-11 84-9 84-11 109-5 53-2 53v29l1 10 2 7 2 3 1 2c2 4 4 9 4 15 0 17-15 31-32 31-11 0-21-5-26-14h-1l-3-6-2-2c0-1 0-2-1-3l-1-2v-1l-4-13-1-1c0-1 0-2 0-3l-1-3-2-15c0-1 0-2 0-3v-1l1-31v-2l2-53v-1l4-54v-1l12-109v-1l9-84v-1l11-85v-1l15-84v-1-1l20-81 2-11 1-2 1-3 1-4 1-1c0-1 1-3 3-5l1-2 4-4c5-7 14-12 24-12z" /><path stroke-width="0" fill="#000000" d="M4393 2671c17 0 31 15 31 32 0 14-9 26-22 30l-2 1-18 10-19 14-41 34-71 58h-1l-73 57h-1l-75 54-1 1-65 42 21 7 33 8 31 7h1l54 12 53 10 54 7 53 4h12l3 1c16 1 28 15 28 31 0 18-14 32-32 32h-13l-2-1v1l-55-4-1-1h-1l-55-8h-2l-55-10-1-1-53-11h-1l-32-7-1-1-34-8h-2v-1 1l-32-11h-1l-2-1-2-1-29-15h-1c-1-1-1-1-2-2h-1l-5-4-1-1c-1 0-2-1-2-2l-1-1-3-3-1-1c-3-4-5-7-6-11l-1-2-1-4v-1c0-2-1-4-1-6 0-5 1-9 3-13l1-2 2-4v-1c2-3 5-6 8-9l1-1 11-8 2-1 2-2 13-7 76-49 74-53 72-56 71-57 41-35 2-1 21-16h1c1-1 2-1 3-2l23-12 2-2h1l2-1c3-1 6-2 9-2h1 2l3-1z" /><path stroke-width="0" fill="#000000" d="M4581 2765l-5 3-14 10-14 13-14 14-25 33-22 33-11 20-10 21-9 22-5 18 31-28 29-29 25-32 17-25 14-28 10-29 3-13v-3zm11-69c2 0 4 0 6 1h3l11 3 1 1c6 2 11 5 15 10l1 1 7 9 1 2c3 3 4 7 5 11v1l3 16v2c0 1 0 2 0 3v2l-1 17v1l-1 3-3 16c0 1 0 2-1 3v1l-12 33v2l-1 3-16 31-1 1-1 2-18 28-1 1-1 2h-1l-27 34-2 2-31 31-1 1-31 29-29 28-2 1v1l12 13 17 12 18 10 21 7 22 5 22 3 47 2 43-1h1c18 0 32 14 32 31 0 17-12 30-28 32h-2l-44 2h-2-1l-50-2h-2l-1-1-26-3-2-1h-1l-25-6h-2l-1-1-24-8-2-1-2-1-23-12c-1 0-2-1-3-2h-1l-21-16-1-1c-1 0-1-1-2-2h-1l-18-19-1-2c-1-1-1-1-2-2l-1-2-13-23c-1-2-2-4-3-6v-1l-7-24v-2c0-1-1-2-1-3v-2l-1-25v-2c0-1 0-2 0-3v-1l4-26v-2-2l7-25 1-1v-2l10-25v-1l1-1 11-24 1-1 12-21v-1l1-2 23-35h1l1-2 27-35 1-1 1-2 16-16 1-2 17-14 1-1 1-1 17-13h1c1-1 2-1 3-2l17-9c2-1 4-2 6-3h2l15-4h2c2-1 4-1 6-1z" /><path stroke-width="0" fill="#000000" d="M4946 2720c18 0 32 14 32 32 0 13-8 24-19 29h-1l-5 2-4 3-13 10-33 27-32 29-29 32-11 15-10 16-4 10-3 9-1 8 1 7 1 7 3 8 4 7 6 8 24 23 28 19 32 17 33 16h1v1l10 5h1c1 1 3 2 5 4l1 1 7 6 1 1c2 3 5 6 6 10l1 2v1l1 3h1c1 3 1 7 1 10 0 1 0 2 0 3v1l-1 5v1c-1 3-2 6-3 9h-1l-2 5-2 3c0 0-1 1-2 2v1l-6 6-1 1c0 1-1 1-2 2l-25 21h-1l-2 2-28 18-2 1h-1v1l-58 32-1 1-126 71-13 7h-1l-12 7c-4 3-10 4-15 4-17 0-32-14-32-32 0-10 6-20 14-26l3-1 12-7 13-8h1l126-71 58-32 26-17 5-4-18-9-2-1-33-18h-1c0-1-1-1-2-2l-32-21v-1l-2-1-2-2-27-26h-1c-1-1-1-2-2-2l-1-1-8-12-2-1-1-2v-1l-7-11v-1c0-1-1-2-1-3l-1-1-4-12-1-2c0-1 0-2-1-3l-2-12-1-3v-3-12-1c0-1 0-2 0-3v-2l2-12v-2l1-3v-1l4-12v-1c0-1 1-2 1-2l1-1h-1l7-14 1-2v-1l12-19v-1l1-1 13-18 1-2 1-1 31-33 1-2 1-1 34-30 1-2 34-27 15-12 2-1v-1l8-5 2-1c1 0 2-1 3-1l8-4 3-1c3-1 6-1 9-1z" /></g><g stroke="#ED331F"><path stroke-width="0" fill="#ED331F" d="M1272 1610c17 0 30 12 32 28v2 1 1 4l1 38h-1 1l-1 2-2 39v1l-8 79v1l-10 76 24-42v-1l2-2 30-46 2-2 35-43c1-1 2-2 2-2l40-40 2-2 23-19 2-1v-1l26-17c1-1 2-1 3-2l13-7 3-1 14-6 3-1h1l14-4h2c1-1 2-1 3-1h1l14-1h2c2 0 5 0 7 1l14 3c4 0 8 2 11 4l11 8 3 2c1 1 3 2 4 4l1 1 8 11 1 1c1 2 2 4 3 6l6 13c0 2 1 4 1 6l6 30 1 3v1l1 15v1l1 13h-1l1 1-1 1h1l-3 49v1 2l-7 48-1 1v1l-7 36 35-42 55-72 1-1 58-70 2-2 31-33 1-1 33-31 1-1h1l21-17 2-2h1l11-7 2-1 2-1 11-5 1-1c1 0 2 0 3-1h2 1l8-2c2-1 4-1 6-1 2 0 3 0 4 0l7 1c3 0 6 1 9 2l2 1 5 3 1 1c3 1 5 3 8 5l4 5 2 2c2 1 3 3 4 5v1l7 13 1 2c0 1 0 2 1 3v1l4 16v1 2h1l3 25v1 1l2 25v2 1l-1 52v2l-5 53v1l-6 50v1l-7 56-7 56-6 56-1 54 1 9v2c0 17-14 31-32 31-16 0-30-12-31-28l-1-2v-10-2-1l1-56v-2l6-57v-1l7-57 7-56 6-50 5-51 1-50-2-23-3-22-2-7-7 4-19 15-31 30-30 31-57 69-55 72-1 1-56 69-1 1-17 20-2 2-9 9-2 1-2 2-9 7h-1c-2 1-3 2-5 3h-1l-3 2h-1l-2 1c-3 1-6 1-9 1-2 0-3 0-4 0h-2l-3-1c-7-1-14-5-18-11l-2-2-3-5-1-1c-3-4-5-9-5-14v-1 1l-1-9v-3-3l1-9v-1-1l1-8v-1l9-47v-1l9-47 7-46 2-46v-10l-1-12-5-25-3-7-3-4-1-1h-4-7l-9 2-10 5-11 5-23 16-20 17-38 37-33 41-29 44-26 46-24 48-22 50-40 102v1l-17 41-15 41-1 2c-5 11-16 19-29 19-18 0-32-14-32-32 0-2 0-4 1-6v-2l25-94 20-96 16-97 12-97 8-78 2-37v-35-1-1-2-2-1c0-17 14-31 31-31z" /><path stroke-width="0" fill="#ED331F" d="M2226 1627c17 0 31 14 31 32v1l-1 22v2l-2 20v1l-5 41-22 175-11 88-8 88v5l-1 4v1c-1 16-15 29-31 29-18 0-32-14-32-32v-2-5l1-5v-1l8-89 11-89 22-175v-1l5-40 2-19 1-21v-2c2-16 15-28 32-28z" /><path stroke-width="0" fill="#ED331F" d="M2243 1328c17 0 31 14 31 31 0 11-5 21-14 27l-4 3-2 1-2 1-1 1c-6 6-14 9-23 9-17 0-32-14-32-31 0-7 2-13 6-18l1-2 1-2h1c1-2 3-3 4-5l2-1 4-2v-1l2-1 3-2 2-1 3-2 3-2c4-2 9-3 15-3z" /><path stroke-width="0" fill="#ED331F" d="M2747 1486c1 0 2 0 3 0l3 1 14 2 1 1c2 0 4 1 6 1l2 2h1l11 6h1c1 1 3 2 5 3l1 1 10 9 1 1c0 1 1 2 2 3l1 1 8 11 1 1c0 1 1 2 1 3h1l6 13 1 2 1 2v1l9 27c0 1 0 2 0 3l1 1 4 26 1 1v2l4 40v2l2 41v1l-1 41v2l-3 41h-1v1l-9 82-1 1-11 80-10 67-3 32-1 30v4 4 2c0 18-14 32-32 32-16 0-29-12-31-28v-1-5-1l-1-5v-1-1l1-33 1-3 3-33v-1l10-68 12-80 9-80 3-40 1-39-1-39-4-37-4-24-8-23-4-8-4-6-5-4-4-2-4-1-5 1-7 3-9 6-10 9-9 11-17 22-40 63-37 68-34 70-32 69-20 47-1 2-11 22v1l-1 2-13 21-1 2-1 1-1 2-2 2c-1 1-2 3-4 4l-1 1h-1l-1 1c-5 4-11 6-18 6-15 0-28-11-31-25v-3l-1-2v-1c0-1 0-2 0-3 0-1 0-2 0-3v-1l2-13v-3h1l2-13 1-1 20-81 1-2 12-40 1-1 13-39 2-4v-2l1-1v-1l1-1 1-2c1-3 3-5 5-7l1-1 2-2c6-5 13-8 21-8 5 0 10 2 15 4l2 2 13-28v1l1-2 37-69 2-2 42-65v-1l1-1 18-25v1l1-2h1l11-13 1-1 1-1 12-11 2-2 1-1 13-9 1-1c1 0 2-1 3-1l2-1 13-7h1c2-1 4-1 6-2h2l14-2 2-1c1 0 2 0 3 0z" /><path stroke-width="0" fill="#ED331F" d="M3130 1612c18 0 32 14 32 32v1l-1 35-1 1v1l-3 33-7 67-13 144-10 146v7l-1 2c-1 16-15 28-31 28-18 0-32-14-32-31v-2l1-7v-1l10-146v-1l13-145v-1l7-67 3-32 2-33v-2c1-16 15-29 31-29z" /><path stroke-width="0" fill="#ED331F" d="M3096 1321c18 0 32 14 32 32 0 11-6 21-14 26l-2 1-2 2-5 3h-1c-5 3-10 4-15 4-18 0-32-14-32-32 0-11 6-20 14-26l2-1 4-3 3-1 1-1c5-2 10-4 15-4z" /><path stroke-width="0" fill="#ED331F" d="M3578 1657h18l3 1c2 0 4 0 6 1h1l17 6 2 1c2 1 4 2 6 3l1 1 17 13 1 1c1 1 3 2 4 4l1 1 11 16 1 1c1 2 2 3 3 5v2l7 17 1 2c0 1 0 2 0 3l1 2 2 16 8-5h1c1-1 2-1 3-1l1-1 15-6 3-1c1 0 2 0 3-1h1l15-2h1c1 0 2-1 4-1 1 0 2 1 3 1h3l12 2 1 1c3 0 6 1 8 3h1l10 6h1l2 2c1 0 1 1 2 1l2 2 10 9c1 1 1 2 2 3l1 2 8 11h1c0 1 1 2 1 3l7 12v1l1 2v1l10 25 1 2v2l9 32v2 1l6 33v2l3 34v1l2 34v1l3 67 2 32 4 32 2 9 1 7 3 12 1 1c0 2 0 4 0 7 0 17-14 31-31 31-15 0-27-9-31-22v-1l-3-13-1-1-1-9h-1v-1l-2-10h1l-1-2-4-33v-1-1l-2-33v-1l-3-68-2-32-3-32-5-31-8-30-8-21-5-9-5-7-4-5-3-1-2-1-5 1-10 4-11 6-23 20-20 23-10 16-1 1v2l-1 1-3 5-1 1v1l-3 4-2 2c-1 1-1 2-2 3l-1 1-2 2c-6 4-13 7-20 7-18 0-32-14-32-32 0-4 1-8 2-12l1-2 1-1 1-1v-1l2-4 1-1 4-7 5-10 6-16 4-17 3-17v-15l-1-14-4-10-7-9-8-7-8-2h-8l-11 2-12 6-13 9-12 11-11 12-18 22-17 25-31 52-30 55v1l-30 54-1 2-4 6c-3 4-5 7-9 9h-1v1h-1l-2 1c-4 3-9 4-15 4-13 0-24-8-29-19l-1-2v-2l-1-1c0-2-1-4-1-6v-3-17-1l1-18 1-39v-1l2-41v-1-1l6-41v-2l1-2v-1l11-37 1-3 1-2v-1c1-2 2-4 3-5l1-2 1-1 1-1c6-7 14-12 24-12 18 0 32 15 32 32 0 6-2 11-4 15l-1 1-9 32-3 19h1v-1l32-55 1-1v-1l18-25 2-2 19-25 2-2 13-14h1l1-2 15-13h1l2-2 16-11c1-1 2-1 3-2l1-1 17-8 2-1c1 0 2 0 3-1h1l18-5h1c2-1 5-1 7-1z" /><path stroke-width="0" fill="#ED331F" d="M4186 1680c17 0 32 15 32 32 0 4-1 9-3 12v1l-1 3v2l-17 69-12 72-9 72-5 72-2 50 1 49 1 7 1 7v1c0 1 0 2 0 3 0 17-14 31-32 31-15 0-28-10-31-25v-3l-1-7v-1l-1-8v-1-1l-2-51v-1-1l2-52 1-2h-1l6-72v-1-1l9-73v-2l13-73v-1-2l17-70 1-5 1-1v-3l1-2c0-2 1-4 2-6l1-2 1-1 1-1c5-8 15-14 26-14z" /><path stroke-width="0" fill="#ED331F" d="M4237 1318c16 0 30 13 32 29l1 11 1 10 1 1 1 9v2c0 1 0 2 0 3 0 18-14 32-31 32-15 0-28-11-31-26v-1l-2-8-2-12v-2l-1-13-1-3c0-17 15-32 32-32z" /><path stroke-width="0" fill="#ED331F" d="M4640 1570c1 0 2 0 3 0l15 2h3c1 1 2 1 3 1l1 1 14 5h1c3 2 6 3 8 5l2 2 9 8v1c3 3 5 6 7 10l4 11 1 3c1 2 1 4 1 6l1 13h1v3l-1 3-1 14c0 1 0 2 0 3l-1 1-3 13v1 2l-4 13v1l-1 1-4 12-1 2-17 41-1 2-20 41v1l-44 81-1 1-46 80-22 40-21 40v1l-7 13-1 3 7 2 22 2h25l24-1 26-1h1c17 0 31 14 31 32 0 16-12 30-28 31h-2l-25 1h-1l-24 1h-1-27-3-1l-26-2c-1-1-2-1-3-1l-3-1v1-1l-24-6-1-1c-1 0-3-1-5-2l-3-1v-1l-7-4v-1c-4-2-7-5-9-8v-1l-4-6-1-2c-2-3-3-6-3-9l-1-2-1-7v-1c0-1 0-2 0-3 0-1 0-2 0-3v-2l1-8h1v-1c0-2 0-3 1-4v-2h1l6-16v-1l1-2 1-1 7-14v-1l21-39v-1l23-40v-1l46-80 44-80 19-40 16-40 4-11 4-11 2-11 1-9v-5l-3-1-9-2h-11l-28 4-28 8-27 10-20 7-7 4-7 5-2 2c-5 3-11 5-18 5-17 0-31-14-31-32 0-9 4-18 11-24l1-1 10-7 1-1c1-1 2-1 3-2h1l11-6 2-1h1l22-9h1l28-10h1l1-1 31-8 2-1h2l32-5v1l1-1h3 15 1z" /><path stroke-width="0" fill="#ED331F" d="M4381 1819c2 0 4 0 6 0l1 1 14 3 14 2h1l72 10 72 7 72 3 71 1h22l21-1c18 0 32 15 32 32 0 17-12 30-28 32h-3-21-23-73v-1h-1l-73-3h-1-1l-73-7h-1l-72-10-16-2-3-1h-1l-16-4h-2c-13-4-22-16-22-31 0-17 14-31 32-31z" /><path stroke-width="0" fill="#ED331F" d="M5123 1677l-10 1-11 3-12 5-24 13-23 16-23 19-22 21-20 24-17 26-14 27-11 27-4 20 7-4 31-17 32-17 31-19 30-19 26-22 21-23 17-26 6-13 4-13 2-17v-5l-1-4-1-1v-1h-1l-4-1h-9zm-2-64h1l15 1h3c1 0 2 0 3 0h1l12 3 2 1c2 0 4 1 5 2l1 1 9 5 2 1c2 1 3 3 5 4l1 1 7 8v1c2 1 3 3 4 5l1 1 4 9v1c1 1 1 2 2 3v3l2 10h1c0 1 0 2 0 3v2l1 11v2c0 1 0 2 0 3l-1 1-3 22v2c0 1-1 2-1 3l-5 18c-1 1-1 2-1 3h-1l-7 16v1l-1 2-1 2-20 31c-1 1-2 2-2 3l-1 1-25 27-1 1c-1 0-2 1-2 2l-29 23c-1 1-2 2-3 2l-31 21v1l-2 1-32 19h-1l-33 18-31 17-35 18 2 9 10 17 14 16 16 13 20 11 22 8 24 5 36 2 39-2 41-4 39-6 36-7v-1l34-7h1c2-1 4-1 6-1 17 0 32 14 32 32 0 14-10 26-23 30l-2 1h-1l-34 7v1h-1l-36 7h-1l-41 7h-1-1l-42 4-2 1-42 1h-2-2l-39-2h-1c-1 0-2-1-4-1l-28-6c-1 0-2 0-3 0l-2-1-26-10h-2c-1 0-2-1-3-1v-1l-23-13h-1l-2-1-2-2-21-17h-1c0 0-1-1-2-2l-1-2-18-19v-1c-1-1-1-2-2-3l-1-2-13-23h-1c0-1-1-2-1-3v-1h-2c-18 0-32-14-32-32 0-10 4-19 12-24l8-7v-3-2l3-33v-1c0-1 0-2 0-3v-1l8-33v-2l1-2 12-32v-1l2-2v-1l15-29 1-1c0-1 1-1 1-2l19-29c1-1 2-1 2-2l22-26v-1l2-2 24-24 2-1v-1l26-20 2-2 25-17h1c0-1 1-2 2-2l28-15c1-1 2-1 3-1v-1l14-5h1l2-1h1v-1l15-4h2 2l15-2 1-1c1 0 2 0 3 0z" /></g></g></svg>