<?xml version="1.0" encoding="utf-8"?>
<!-- Created with Majerus.net InkPaint (http://www.majerus.net/InkPaint/) -->
<!DOCTYPE svg PUBLIC "-//W3C//DTD SVG 1.1//EN" "http://www.w3.org/Graphics/SVG/1.1/DTD/svg11.dtd">
<svg xmlns="http://www.w3.org/2000/svg" version="1.1" width="444.45mm" height="229.85mm" viewBox="0 0 8889 4597" preserveAspectRatio="xMidYMid meet"><!-- Generator: Majerus.net InkPaint UWP 1.1.14.0 --><g fill="none" stroke-linecap="round" stroke-linejoin="round"><g stroke="#000000"><path stroke-width="0" fill="#000000" d="M1411 4015c17 0 30 14 30 30 0 2 0 4-1 6v2l-1 4h-1v1c0 2-1 4-2 5v1l-3 4v1l-1 1-5 9-21 41h-1v1l-24 41-1 1-51 79v1l-53 78-50 80-3 4-1 2c-5 8-14 13-24 13-17 0-30-14-30-30 0-5 1-10 4-14l3-5v-1l51-81 1-1 53-78 51-79 23-39 21-42 1-2 6-9 1-1v-1-1c4-12 15-21 28-21z" /><path stroke-width="0" fill="#000000" d="M1194 4050c12 0 23 7 27 18l2 6 3 4 11 15h-1 1v1l41 63h-1l1 1 38 64v1l1 1 34 66 1 2 30 69 1 1 20 54 21 51 5 12 1 1c1 3 2 7 2 11 0 16-13 30-29 30-11 0-21-7-26-16l-1-1-6-12v-2l-21-52h-1v-1l-20-53-29-68-34-64-38-64-39-62-10-14-1-1-5-8-1-2c0-1-1-2-1-2v-1l-3-7-1-1h1l-1-2c-1-3-2-6-2-9 0-16 14-29 30-29z" /><path stroke-width="0" fill="#000000" d="M1605 4351c15 0 28 11 29 26v2l2 48 5 46 3 16v1c0 1 0 2 0 3 0 16-13 30-29 30-15 0-26-10-29-24v-1h-1l-2-17v-1l-6-47v-1-2l-2-49v-1c0-16 14-29 30-29z" /><path stroke-width="0" fill="#000000" d="M2429 4100c17 0 30 13 30 29 0 8-4 16-9 21l-1 1-1 2v1l-2 3-1 1-32 54-30 57-31 57v1l-31 55v1h-1l-49 82-2 4-1 1c-5 7-14 13-24 13-16 0-30-14-30-30 0-5 2-10 4-14l1-2 2-3 48-81 31-55 31-57 31-57v-1l32-55 2-3 2-4 1-1 1-1v-1l2-3h1v-1c1-2 3-4 5-6h1l2-2 2-1c4-3 10-5 16-5z" /><path stroke-width="0" fill="#000000" d="M2196 4063c7 0 14 2 19 6v1l2 1 1 1 3 3h1l1 2v-1l52 58v1h1l48 61 1 2h1l44 65 1 2 39 67v1l24 45 23 43 10 17v1c3 4 4 9 4 14 0 16-13 29-30 29-10 0-19-5-24-13l-1-1-10-18-24-44v-1l-24-44-38-66-43-63-47-59-50-56-2-1-1-2-2-1c-5-5-8-13-8-21 0-16 13-29 29-29z" /><path stroke-width="0" fill="#000000" d="M2729 4320h2l10 1h1c6 1 11 3 16 7l1 1 5 4 1 1c3 3 5 7 7 12v1l2 7 1 2c0 1 0 2 0 3v2 8 1 1 7 1 1l-4 33v2l-6 34v1l-6 33-2 13 17-5 36-12 22-8h1c3-1 6-1 9-1 16 0 29 13 29 29 0 12-7 23-18 27l-1 1-22 8h-1l-37 12v1h-1l-19 5-2 1-19 4c-1 0-2 0-3 0h-1l-10 1h-2c-3 0-6 0-9-1l-7-3-2-1c-6-2-10-5-13-10l-1-2-4-5v-1c-2-4-3-7-4-11v-3-9-1c0-1 0-2 0-3v-1l5-34 1-1v-1l6-33 6-33 2-18-4 3-1 1-3 3h-1c-2 1-4 2-5 3h-1l-2 1h-1l-2 1c-2 1-5 1-8 1-17 0-30-13-30-29 0-11 6-21 15-26l2-1 5-4 3-2h1l9-6h1l1-1 10-5 2-1c1 0 2-1 3-1l11-3v-1c3 0 6-1 9-1z" /><path stroke-width="0" fill="#000000" d="M3574 3981c17 0 30 13 30 29 0 13-8 23-18 28h-2l-20 20-18 24-16 28-15 29-35 71-29 75-26 77-21 77-2 9-2 6c-2 14-14 24-28 24-17 0-30-13-30-30 0-2 0-4 1-6l1-6v-1l3-10v-1l21-79h1v-1l26-78v-2h1l30-76v-1l1-1 35-73v-1-1l16-29 1-1 17-30 1-1 1-1 20-28 1-1c1-1 1-2 2-2v-1l24-23 2-1 1-1 4-4h1c1-1 2-2 3-2l2-1h1c3-2 7-3 11-4h2 2z" /><path stroke-width="0" fill="#000000" d="M3302 4015c13 0 24 9 28 21l6 8 1 2h1l47 74v1l47 74 48 73 52 69 14 17c4 5 7 11 7 19 0 16-13 29-30 29-8 0-15-3-21-9l-1-2-15-17-1-1-52-70-1-1-1-1-48-73-1-1-47-75-46-72-6-8-1-2h-1l-3-4v-1l-1-2c-1-2-2-3-2-5l-2-4c-1-3-1-6-1-9 0-16 13-30 30-30z" /><path stroke-width="0" fill="#000000" d="M3805 4280h1l14 1h1c4 1 8 2 11 4l3 1 4 3c4 2 7 6 10 10v1l2 4 1 2c1 3 2 6 2 9v1l1 12v2c0 1 0 2 0 3v1l-2 14-1 7v2 1l3 2 7 5 22 10 1 1 1 1 10 6 2 1c1 0 1 1 2 1l1 1 8 7 2 2c2 2 3 4 5 6v1l3 7 1 2c1 2 2 5 3 8v3 7 1c0 2 0 4-1 6v2 1h-1l-2 8c0 1-1 2-1 3l-1 2-4 8h-1c0 1 0 2-1 3l-1 1-11 15-1 2h-1l-10 12-1 1-20 22-1 1-22 22-1 1-45 40-1 1-8 7-1 1c-5 4-12 6-19 6-16 0-29-13-29-29 0-8 3-16 9-21l1-1 9-8 44-40 21-20 20-22 9-10 9-13h1l-5-3-22-11-1-1-2-1-10-6-1-1c-1 0-2-1-3-1l-1-2-8-8h-1c-2-2-4-5-5-7l-6-10c-1-3-3-7-3-11l-1-12v-3c0-1 0-2 0-3v-2l1-4-4 2-7 5-2 2-1 1-3 3-2 1c-1 2-3 3-4 3v1l-2 1c-5 2-9 3-14 3-17 0-30-13-30-29 0-11 5-19 13-25h1l1-2 1-1 2-2 2-1 2-2 11-8h1c0 0 1-1 2-1l1-1 14-7 2-1c1 0 2-1 3-1l15-4v-1 1l3-1c2-1 4-1 6-1z" /><path stroke-width="0" fill="#000000" d="M4447 4369c4 0 8 1 11 2l2 1 2 1 1 1h1c9 5 15 15 15 26 0 16-13 30-29 30-4 0-8-1-12-3h-1l-1-1-3-1v-1c-10-5-16-14-16-25 0-17 13-30 30-30z" /><path stroke-width="0" fill="#000000" d="M4788 4441h8 1c17 0 30 13 30 29 0 16-13 29-30 29h-1-8c-16 0-29-13-29-29 0-16 13-29 29-29z" /><path stroke-width="0" fill="#000000" d="M5022 4453l2 1 3-1h1c16 0 29 14 29 30 0 15-11 28-26 29h-3-2l-2 1-2-1h-2-1c-15-1-27-14-27-29 0-16 14-30 30-30z" /><path stroke-width="0" fill="#000000" d="M5292 4430c1 0 2 0 3 0 2 0 4 1 6 1 1 1 2 1 3 1 1 1 3 2 5 3 0 1 1 1 2 2 1 1 3 2 4 4 0 0 1 1 2 2 1 2 2 3 2 5 1 1 1 2 1 3 1 2 1 3 1 5 1 1 1 2 1 3 0 1 0 2-1 3 0 3-1 6-2 9-1 3-2 5-4 7-2 2-4 4-6 6-3 1-5 3-8 4-2 0-4 1-6 1-1 0-2 0-3 0-1 0-2 0-3 0-1 0-2 0-3-1-1 0-2 0-3 0-1-1-1-1-2-1-2-1-4-2-5-3-1-1-2-1-3-2-1-1-2-2-4-4 0-1-1-1-1-2-1-2-2-3-3-5 0-1-1-2-1-3-1-2-1-4-1-6 0-1 0-2 0-3 0-2 0-4 0-6 0 0 1-1 1-2 0-1 1-2 1-3 0-1 1-2 1-3 1 0 1-1 2-2 0-1 1-2 1-2 1-1 2-2 2-2 1-1 2-2 2-2 1-1 2-1 3-2 0-1 1-1 2-1 1-1 2-1 3-2 1 0 1 0 2-1 1 0 2 0 3 0 1-1 2-1 3-1 1 0 2 0 3 0z" /><path stroke-width="0" fill="#000000" d="M5573 4401c16 0 30 13 30 29 0 16-14 30-30 30-16 0-29-14-29-30 0-16 13-29 29-29z" /><path stroke-width="0" fill="#000000" d="M6573 4020c16 0 29 14 29 30 0 10-5 19-13 24l-1 1-26 16-24 17-47 41-58 53-56 56-51 60-48 63-4 7c-5 7-14 13-24 13-16 0-30-14-30-30 0-6 2-12 5-16h1l4-7 1-1 48-65 1-1 53-62 1-1 57-58 1-1 59-54h1v-1l49-41v-1l1-1 26-19h1l1-1 28-16 1-1c4-2 9-4 14-4z" /><path stroke-width="0" fill="#000000" d="M6236 4015c11 0 21 7 26 16l5 6 1 1 1 1 54 73 59 70 62 67 66 62 19 16 1 1c6 6 9 13 9 21 0 17-13 30-29 30-8 0-14-3-19-7h-1l-19-17-1-1-67-63h-1v-1l-64-68-1-1-60-72-1-1-54-73-4-5-1-1-3-3-1-2c-1-1-1-2-2-3l-1-2-1-2v-1c-2-3-2-7-2-11 0-16 13-30 29-30z" /><path stroke-width="0" fill="#000000" d="M6801 4221c15 0 28 12 29 27v1 2 1c0 1 0 2 0 3v1 4h-1v1 4l-1 1-2 41-1 43 2 43 4 41 4 31 3 14 5 11 2 5 1 2c2 3 2 7 2 11 0 16-13 30-29 30-11 0-21-7-26-16l-3-6-1-2-1-1-5-16-1-1v-2l-4-16-1-1v-2l-5-33v-1-1l-4-43v-1l-2-44v-2l1-44v-2l3-43v-1-1-3h1v-4-1c0-17 13-30 30-30z" /><path stroke-width="0" fill="#000000" d="M6824 4269c17 0 30 13 30 29 0 8-3 16-9 21v1l-22 20v1l-22 18-41 37-18 17-17 17-10 11h2 6l30-2h2c16 0 29 13 29 29 0 16-12 28-26 30h-2l-30 1-7 1h-9-1-2l-20-1h-2c-1 0-2-1-2-1h-2l-9-2-1-1c-2 0-4-1-5-2l-2-1-7-4v-1c-5-3-9-7-11-13l-2-6-1-2c-1-3-2-6-2-9 0-2 1-4 1-6l1-2 2-9v-1c1-2 2-3 3-5l1-3 13-19c1-1 1-2 2-3h1l17-19 1-2 18-18h1l17-17h1l42-38 21-18 21-20 2-2c5-4 11-6 18-6z" /><path stroke-width="0" fill="#000000" d="M7334 4325c17 0 30 13 30 29 0 14-10 26-24 29h-1l-3 1-4 1h-2-1c-2 1-4 1-6 1-17 0-30-13-30-30 0-14 10-26 24-29h1 2 1l4-1h1 1l3-1h1c1 0 2 0 3 0z" /><path stroke-width="0" fill="#000000" d="M7742 4353c1 0 2 0 3 0 1 0 2 0 3 1 0 0 1 0 2 0 1 1 2 1 3 1 1 1 2 1 3 2 0 0 1 1 2 1 1 1 2 1 2 2 1 0 2 1 2 2 1 0 2 1 2 2 1 1 1 1 2 2 1 1 1 2 1 3 1 0 1 1 2 2 0 1 0 2 1 3 0 1 0 2 0 3 1 1 1 2 1 3 0 1 0 2 0 3 0 15-12 27-26 29-1 0-2 0-3 0-17 0-30-13-30-29 0-1 0-2 0-3 0-1 0-2 1-3 0-1 0-2 0-3 1-1 1-2 1-3 1-1 1-2 2-2 0-1 1-2 1-3 1-1 1-1 2-2 0-1 1-2 2-2 0-1 1-2 2-2 1-1 1-1 2-2 1 0 2-1 3-1 0-1 1-1 2-2 1 0 2 0 3-1 1 0 2 0 3 0 1-1 2-1 3-1 1 0 2 0 3 0z" /><path stroke-width="0" fill="#000000" d="M7949 4343c1 0 2 0 3 0 1 0 2 0 3 0 0 0 1 1 2 1 1 0 2 0 3 1 1 0 2 1 3 1 0 1 1 1 2 2 1 0 2 1 2 1 1 1 2 2 2 2 1 1 2 2 2 2 1 1 2 2 2 3 1 0 1 1 2 2 0 1 0 2 1 3 0 0 0 1 1 2 0 1 0 2 0 3 1 1 1 2 1 3 0 1 0 2 0 3 0 2 0 4-1 6 0 1 0 2 0 3-1 2-2 3-2 5-1 1-1 2-2 2-1 2-2 4-4 5 0 1-1 1-2 2-1 1-3 2-4 3-1 0-2 1-3 1-2 1-4 2-5 2-2 0-4 0-6 0-1 0-2 0-3 0-1 0-2 0-3 0-2 0-4-1-6-2-1 0-2-1-2-1-2-1-4-2-5-3-1-1-2-1-2-2-2-1-3-3-4-5 0 0-1-1-1-2-1-2-2-3-3-5 0-1 0-2 0-3-1-2-1-4-1-6 0-1 0-2 0-3 0-1 1-2 1-3 0-1 0-2 0-3 1-1 1-2 1-2 1-1 1-2 2-3 0-1 1-2 1-2 1-1 1-2 2-3 0 0 1-1 2-2 0 0 1-1 2-2 1 0 1-1 2-1 1-1 2-1 3-2 0 0 1-1 2-1 1-1 2-1 3-1 1 0 2-1 3-1 1 0 2 0 3 0 1 0 2 0 3 0z" /><path stroke-width="0" fill="#000000" d="M8466 4129c16 0 29 13 29 29 0 10-5 19-13 25l-2 1-20 11-18 13-35 32-31 36-29 37-37 54-16 28-14 27-3 7-1 1c-5 9-15 16-26 16-16 0-30-14-30-30 0-4 1-8 3-11v-1l3-7 1-2 15-29 1-1 17-29 1-1 38-55 1-2 29-39 1-1h1-1l34-38 1-2 1-1 38-34 1-1 2-1 20-15h1l1-1 22-13c5-2 9-3 15-3z" /><path stroke-width="0" fill="#000000" d="M8155 4044c11 0 21 6 26 16l2 4c1 1 1 1 2 2v2l1 2 17 28 22 28 23 28 24 29 61 72 31 34 33 32 16 15v1h1c6 6 9 13 9 21 0 17-13 30-29 30-7 0-14-3-19-7l-1-1-17-15-1-1-34-33v-1l-33-35-1-1-61-74h-1l-23-28-24-29-1-1-23-30-1-1v-1l-20-31v-2c-1-1-1-1-2-2v-2l-1-3-2-2c-2-4-3-9-3-14 0-17 13-30 29-30z" /><path stroke-width="0" fill="#000000" d="M8792 4297c1 0 2 0 3 0l3 1 16 3c4 1 8 2 11 4l13 9 2 2c1 1 3 2 4 4l11 13 1 2c1 1 1 2 2 3l8 16 1 2 1 1 6 18v1l1 1 4 17 1 1 3 16h1v1l2 14h1v1 2c0 1 0 2 0 3 0 17-13 30-29 30-15 0-26-10-29-24l-3-14-3-15-5-15-5-14-6-12-6-8-4-2-5-1h-2l-5 1-24 13-25 17-24 19-24 19-1 1-3 2-4 3-1 1h-1l-4 3-2 1c-1 1-3 2-5 2l-2 1h-1-1-1c-2 1-4 1-6 1-13 0-24-9-28-21v-2-1l-2-5c0-2 0-4 0-6v-8-2-7l1-5v-1-5-4-2-3c1-15 14-26 29-26 10 0 19 5 25 13l20-15 1-1v-1l27-18c1-1 2-1 3-1v-1l28-14 2-1c1 0 2-1 3-1l9-3h1c1-1 1-1 2-1h3l9-1v-1c1 0 2 0 3 0z" /></g><g stroke="#2C3E50"><path stroke-width="0" fill="#2C3E50" d="M1197 2605l-40 2-18 3-16 8-5 3c-5 3-10 5-17 5-1 0-2 0-3 0h-1l-16 13-19 20-18 24-17 23-18 30-6 14-5 14-2 12 1 12 3 11 6 11 9 11 10 9 25 15 28 9 31 4 32-1 33-6 30-10 27-14 19-13 20-15 19-16 18-18 16-19 12-19 10-19 5-20 1-9v-9l-2-6-2-5-11-13-16-11-37-15-43-10-43-5zm1-59c1 0 2 0 3 0v1l48 5h2 2l46 12h2l2 1 42 17c1 0 2 1 3 1l2 1v1l23 14v1c2 1 4 3 6 5l16 19 2 3c0 0 1 1 1 2l1 2v1l5 10v1c1 0 1 1 1 2l1 2 3 12v1c0 1 0 2 0 3v2l1 13v1c0 1 0 2 0 3l-2 14v1 2l-1 2-6 25-1 1c0 1 0 2-1 3v1l-11 23-1 2-1 2h-1l-14 22v1c-1 0-1 1-2 2l-18 21-2 2-19 19-2 2-20 18h-1l-1 1-21 16-1 1-21 14-3 1-30 16h-1l-2 2h-2l-34 12h-1c-1 0-2 1-3 1h-1l-36 7h-2-2l-37 1h-1c-1 0-2 0-3 0h-1l-37-5h1-3c-1 0-1 0-2-1h-1l-33-11h-1l-2-1c-1 0-2-1-3-1l-1-1-30-19h-1c-1-1-2-1-3-2l-1-1-13-12-1-1-2-2-12-14c-1-1-1-2-2-2l-1-2v-1l-10-16v-1c-1-2-1-3-2-5v-1l-5-18-1-2c0-1 0-2 0-3v-2l-1-17v-1c0-1 0-2 0-3l1-2 3-18v-1c0-1 0-2 0-3l1-1 5-17 1-3h1l7-18 1-1 1-2 20-32v-1h1l17-25 1-1 19-25 1-1 1-1 21-23 1-1c1-1 1-1 2-2h1l23-19 2-1 1-1 3-1 4-3 4-2 2-1 2-1c4-2 8-2 12-2 1 0 2 0 3 0h1l18-8c2-1 4-1 6-2l23-4c1-1 2-1 3-1h2l45-2h1z" /><path stroke-width="0" fill="#2C3E50" d="M2147 2603l-18 7-24 13-22 16-20 19-17 21-12 23-9 25-3 19-3 22v23l1 22 4 21 7 19 9 16 12 14 9 7 11 6 14 3 15 2h35l33-4 30-6 29-10 27-14 23-16 20-19 15-22 11-25 6-30 1-12-2-12-3-11-4-10-14-19-19-16-24-12-26-9-28-5h-27l-9 1h-1-2c-17 0-30-13-30-30 0-6 2-11 5-16v-1zm46-67c17 0 30 14 30 30 0 9-4 17-11 23l-2 1h4 3l2 1 32 5h1c1 0 2 1 3 1l31 10v1h2l3 1v1l28 15c2 1 3 2 5 3l24 20 2 2c1 1 1 1 2 2l1 1 18 25 1 1c1 1 1 2 1 2l1 2 7 14v1c0 1 1 2 1 3v1l5 15v2 2h1l2 17c0 1 0 2 0 3v1l-1 18v2c0 1 0 2 0 3l-7 34v1c-1 2-1 3-2 5l-14 31-1 2c0 1-1 2-1 3h-1l-19 27-1 2c0 1-1 1-2 2l-24 23-1 2-2 1h-1l-27 19c-1 1-1 1-2 2h-1l-30 15-2 1-2 1-32 11h-1l-3 1-33 7h-1l-2 1-36 4h-3-39c-1 0-2 0-3 0h-1l-19-2-2-1h-2l-18-5h-1c-1-1-2-1-2-1l-1-1-17-8h-2c0-1-1-1-2-2l-1-1-15-11-1-1c0 0-1-1-2-1l-1-2-16-19c-1-2-2-3-3-5l-12-21c0-1-1-2-1-3l-1-2-8-23v-1c-1-1-1-2-1-3l-5-24v-1-2-1l-2-25v-3-26-2l3-24v-1-2l5-23c0-1 0-2 1-3v-1l10-29 1-2c0 0 0-1 1-2l15-27 1-3 2-1 19-25v-1c1 0 2-1 2-2h1l23-22 1-1 2-1 25-19 1-1c1 0 2-1 3-1l27-15 3-1 1-1 29-10 1-1c1 0 2 0 3 0l30-6 3-1c1 0 2 0 3 0h4 1 4 1 1c2 0 4-1 6-1z" /><path stroke-width="0" fill="#2C3E50" d="M3227 2551l-2 1c-2 1-5 2-8 3l-4 1-2 1-10 7-21 17-19 19-16 23-14 25-11 26-7 27-3 27 1 26 2 10 3 7 11 15 16 10 21 8 24 5 27 2 26-1 24-2 30-6 31-9 30-12 28-16 24-18 19-22 6-10 5-12 4-13 2-13-1-19-5-16-8-13-11-13-14-11-17-9-19-7-20-6-41-7-42-3h-11-2c-12-2-22-10-25-21l-1-1zm-16-54c13 0 25 8 28 20l1 2 2-2c4-2 9-3 14-3h1 11 2l44 4h2l44 7h2l1 1 23 6h1l3 1 22 9c1 0 2 1 3 1l20 12h1l2 1 1 1 18 14 1 1c1 0 2 1 2 2l1 1 15 17 1 1c1 0 1 1 2 2l1 2 11 19v1c1 1 2 3 3 5l6 22v1l1 2c0 1 0 2 0 3v2l2 25v1c0 1 0 2 0 3l-1 1h1l-3 18v2l-1 2-4 17h-1c0 1 0 2-1 3v1l-6 15h-1l-1 2v2l-9 14-1 1c0 1-1 2-2 2v1l-23 26-1 1c-1 1-1 2-2 2l-1 1-28 21-1 1-2 2h-1l-31 17v1c-1 0-2 0-3 1l-33 13v1h-1-2v1l-34 9-2 1h-1l-32 6-3 1-26 2h-2l-29 1h-1-2l-30-2h-1l-2-1h-1l-28-5h-1c-1-1-2-1-2-1l-2-1-27-10h-1c-1-1-3-2-5-3l-22-15v-1l-2-1c-2-1-3-3-4-4l-1-1-16-21-1-2c-1-1-2-3-3-5l-5-13-1-3-1-2v-1l-3-14v-1c-1 0-1-1-1-2v-2l-1-31v-1c0-1 0-2 0-3v-1l3-31 1-2v-2l8-31 1-1 1-2v-1l12-29c0-1 1-2 1-3l16-28 1-2 1-1 19-26 1-1 1-2 22-22v-1c1-1 2-1 2-2l24-19 2-1v-1l13-8c1-1 2-1 2-2h2v-1l7-3 1-1c2 0 4-1 6-1l7-2h1 2c1 0 2 0 3 0z" /><path stroke-width="0" fill="#2C3E50" d="M4142 2687c2 0 4 0 6 0l1 1 6 1 2 1h1l4 1 3 1c14 3 24 15 24 29 0 16-13 29-30 29-1 0-2 0-3 0h-2-1l-4-1c-1 0-2-1-3-1h-1l-5-2-5-1-2-1c-12-3-21-15-21-28 0-16 14-29 30-29z" /><path stroke-width="0" fill="#2C3E50" d="M4489 2663h6 3c16 0 30 13 30 29 0 17-14 30-30 30h-3-6c-16 0-29-13-29-30 0-16 13-29 29-29z" /><path stroke-width="0" fill="#2C3E50" d="M4754 2634c8 0 16 3 21 9l1 1h1l2 2c4 6 6 12 6 19 0 16-13 30-29 30-8 0-16-4-21-9l-1-1-1-1-2-2c-4-5-6-11-6-18 0-17 13-30 29-30z" /><path stroke-width="0" fill="#2C3E50" d="M5117 2655c17 0 30 13 30 30 0 16-13 29-30 29-16 0-29-13-29-29 0-17 13-30 29-30z" /><path stroke-width="0" fill="#2C3E50" d="M6439 2554c1 0 2 0 3 0h2l29 5h1c1 0 2 1 3 1h1l29 10 1 1c1 0 2 1 3 1l26 15h1l2 1 2 2 24 19c1 1 1 1 2 2l1 1 20 23h1c0 1 1 2 2 3l1 1 15 26v1c1 1 1 2 1 2l1 3 9 28v1c1 1 1 2 1 2l1 3 3 28c0 1 0 2 0 3v2l-1 26v2c0 1 0 2-1 3l-5 25c0 1 0 2-1 3v2l-9 24-1 1c0 1 0 2-1 3l-12 22-2 3v1l-16 21-1 1-1 1-18 20h-1l-1 2-21 17v1l-2 1-22 16h-1l-2 1-23 13-1 1-2 1-25 11-2 1-26 9h-1l-1 1-26 6h-2l-1 1-26 4h-2-1l-26 1h-2-1l-26-1h-1l-2-1v1l-21-4h-1c-1-1-1-1-2-1h-1l-19-6c-1 0-2-1-3-1l-1-1-18-8-1-1-2-1-17-11h-1c-1-1-1-1-2-2l-15-12-2-2-1-1-14-15-1-1c-1-1-1-2-2-2v-1l-23-34-1-2c-1-1-1-2-1-3l-8-19c-1-1-1-2-1-3l-1-1-5-20v-1c0-1 0-2-1-3l-1-20-1-3v-1l2-20v-1c0-1 0-2 0-3l4-19 1-2 1-2 7-19c0-1 1-2 1-3h1l10-18 1-2 1-1 13-17v-1l1-1 15-16h1l1-1 16-15 1-1 1-1 18-14 2-1v-1l20-12 2-1 1-1 21-10h1c1-1 2-1 3-1l21-7 3-1h3l22-2c1 0 2 0 3 0 1 0 2 0 3 0l22 2 2 1c14 3 24 14 24 29 0 16-13 29-29 29-1 0-2 0-3 0h-1l-19-2-15 1-17 5-17 9-17 10-16 13-15 14-13 13-10 14-8 14-6 14-3 14-1 15 2 15 4 15 6 15 20 30 11 11 12 11 14 8 14 7 16 5 18 3 21 1 23-1 24-3 23-6 23-8 23-10 21-13 20-13 18-16 16-17 13-18 10-19 8-20 4-21 1-22-3-22-7-23-12-20-16-19-20-16-22-12-24-8-25-4h-24l-7 1-5 2h-1-2c-2 1-4 1-6 1-17 0-30-13-30-29 0-14 9-25 21-29h1l6-2h1 2l1-1 11-1 2-1h3 29 1z" /><path stroke-width="0" fill="#2C3E50" d="M6994 2864h2 2c17 0 30 13 30 29 0 16-13 30-30 30h-2-2-3c-16 0-29-14-29-30 0-15 12-28 26-29h3 3z" /><path stroke-width="0" fill="#2C3E50" d="M7373 2861h7 2c17 0 30 13 30 30 0 16-13 29-30 29h-2-7c-16 0-29-13-29-29 0-17 13-30 29-30z" /><path stroke-width="0" fill="#2C3E50" d="M7596 2832c1 0 2 0 3 0 2 0 4 1 6 1 1 1 2 1 2 1 2 1 4 2 5 3 1 1 2 1 3 2 1 1 2 2 4 4 0 0 1 1 1 2 1 2 2 3 3 5 0 1 1 2 1 3 1 2 1 5 1 8 0 2 0 3 0 3 0 1 0 2 0 3 0 1-1 2-1 3 0 1-1 2-1 3 0 1-1 2-1 3-1 0-1 1-2 2 0 1-1 2-1 2-1 1-2 2-2 2-1 1-2 2-2 2-1 1-2 1-3 2 0 0-1 1-2 1-1 1-2 1-3 2 0 0-1 0-2 1-1 0-2 0-3 0-2 1-4 1-6 1-1 0-2 0-3 0-1 0-2 0-3-1-1 0-2 0-3 0-1-1-2-1-3-1 0-1-1-1-2-2-1 0-2-1-3-1 0-1-1-1-2-2-1 0-1-1-2-2-1 0-1-1-2-2 0 0-1-1-1-2-1-1-2-2-2-2 0-1-1-2-1-3-1-1-1-2-1-3 0-1-1-2-1-3 0-1 0-2 0-3 0 0-1-1-1-3 0-16 14-29 30-29z" /><path stroke-width="0" fill="#2C3E50" d="M8398 2716l-7 3-23 13-20 16-23 21-21 24-18 25-14 26-10 28-6 28-1 28 6 29 11 30 17 24 22 19 29 15 54 16 59 9 60 1 58-5 35-9 36-15 33-20 29-26 12-13 11-15 9-15 7-16 5-16 2-17v-17l-2-18-6-22-9-19-11-18-13-15-16-13-18-12-19-11-21-8-46-14-49-9-49-4-46-2h-14l-14 1v-1 1c-7 0-14-3-19-7zm36-69c11 0 21 7 26 16v1l34 1h2l51 5h2l52 9 3 1 50 15c1 0 2 0 3 1l23 10 3 1 22 12c1 0 1 1 2 1l20 14h1l2 2 19 16 1 1 1 2h1l16 18v1c1 1 1 1 2 2v1l14 20 1 2 1 2 10 24h1c0 1 0 2 1 3v1l7 26 1 2v2l3 22v1c0 1 0 2 0 3v22 3 1l-3 21-1 1v2 1l-6 19v1c-1 1-1 2-1 3l-8 18-1 1-1 2v1l-11 18-1 2v1l-13 17-1 1-1 1-14 16-1 1-2 2-32 28h-1c-1 1-1 1-2 2h-1v1l-37 22-2 1c-1 1-1 1-2 1l-40 17c-1 0-2 1-3 1l-1 1-40 10h-2c0 0-1 0-2 0h-1l-61 6h-3-1l-63-1h-2l-2-1-62-9h-2l-2-1h-1l-59-17c-1-1-2-1-3-1l-2-1-34-18h-1c-2-1-3-2-5-3v-1l-28-24-1-1c-1-1-2-1-2-2l-2-2v-1l-20-30c-1-1-2-3-3-5l-14-36-1-2c0-1-1-2-1-3v-1l-6-34v-3c0-1-1-2-1-3l1-34v-2l1-3 6-33c0-1 1-2 1-3l1-2 11-31 1-1c0-1 1-2 1-3l16-30c1-1 1-1 2-2v-1l20-28 1-1 1-1 23-26 1-1 1-1 25-23 1-2h1l23-18 1-1 2-1 25-15 2-1c0 0 1-1 2-1h1l27-11 2-1 3-1 14-3c1 0 2 0 3 0h1l14-2h3z" /></g><g stroke="#000000"><path stroke-width="0" fill="#000000" d="M1361 3091c15 0 28 12 29 26v3 2 69 2l-8 123-1 1-11 123v1l-13 122-10 123v1l-2 17-1 6 1 6v1c0 1 0 2 0 3 0 16-13 29-29 29-14 0-26-10-29-23v-2l-1-9v-1c-1-1-1-2-1-3v-2l1-9v-1-1l2-17 11-123 12-123 12-123 8-122v-68-1-1c0-16 14-29 30-29z" /><path stroke-width="0" fill="#000000" d="M1364 2998c1 0 2 0 3 0l12 2h3c3 1 6 2 8 3l2 1 10 7h1c1 1 3 2 4 4l2 1 9 11c1 1 1 2 2 3v1h1l6 10 1 2c2 4 3 9 3 14 0 16-13 29-29 29-10 0-19-5-25-13v-1l-6-9-4-5-3 1-9 7-10 9-21 24-19 27-17 27-18 34-17 36-12 36-4 18-2 17c1 3 2 6 2 9 0 16-14 29-30 29-9 0-17-4-23-11l-1-2-1-1c-3-4-4-7-5-11v-3l-1-3c0-1 0-2 0-3v-4-2-3-1l1-1 2-19v-3h1l4-19v-1l1-2v-1l13-39 1-3 17-38 1-2v-1l19-35 1-1 18-29 1-1v-1l21-29 1-2h1l23-27 1-1 2-1 12-12h1l2-2 13-9h1c1-2 3-2 5-3h1l13-6 2-1c3 0 6-1 9-1z" /><path stroke-width="0" fill="#000000" d="M2334 3091c16 0 29 13 29 29v1 1 113l2 55 4 57 11 94 11 96 9 96 1 1 4 96v2 45 1l-2 45-2 45v43l1 2v1c1 3 1 6 1 9 0 16-13 30-29 30-12 0-21-7-26-16l-1-1-1-1v-2c-1-2-2-4-2-6v-2l-1-3v-1-1-4-1-2-1l-1-45v-1l2-45 2-45v-44l-4-94-9-95-12-95-10-95v-1l-5-58v-1l-2-57v-1-115l1-2v-1-3c3-13 15-23 29-23z" /><path stroke-width="0" fill="#000000" d="M2345 3069c2 0 4 0 6 1l11 2 3 1c1 0 3 1 5 2l10 6h1l2 1c0 1 1 1 2 2l1 1 7 7 1 1 2 1 7 8 1 1 1 1 13 18v1l1 1 10 16v1l1 1c2 4 4 9 4 14 0 16-13 30-30 30-10 0-19-6-24-13l-1-1-9-16-12-16-5-6-4-3-4-2-2-1h-4l-5 2-15 8-15 11-16 15-16 18-29 42-11 21-10 23-7 23-4 20v7 3h-1v1l-1 8v2c-3 14-15 24-29 24-16 0-29-13-29-30 0-1 0-2 0-3l1-7v-8-3c0-1 0-2 1-3l5-25 1-3 8-25 1-3 10-24v-1l1-2 13-24c1-1 1-2 2-3l30-45 2-2 1-1 17-20 2-1v-1l19-17 1-2h1l18-14 1-1c1 0 2-1 3-1l20-11h1l2-1c1 0 2-1 3-1h1l10-3 2-1c1 0 2 0 3 0h2l10-1h2z" /><path stroke-width="0" fill="#000000" d="M3375 3037c12 0 23 8 27 18l1 1v1l1 2v2 1c1 1 1 3 1 5v1l5 47 5 50v1l7 115 10 114 12 114v1l10 114v1l4 61 2 61 6 120v4 2 1 2c0 16-13 29-29 29-16 0-28-11-30-26v-1-1-2-5l-6-121-2-60-4-60-10-114-11-114v-1l-11-114v-1l-7-114-5-50-5-51c0-1 0-2 0-3 0-2 0-4 0-6l1-2v-1c4-12 15-21 28-21z" /><path stroke-width="0" fill="#000000" d="M3379 2987c1 0 2 0 3 0h1l12 1 2 1c2 0 4 1 6 1l2 1 12 7h1c1 1 2 1 3 2l2 1 9 8 2 1 10 10 1 1 18 20 1 1 15 19 1 2c3 4 5 10 5 16 0 16-13 30-29 30-9 0-18-5-23-11l-14-18-17-19-8-7-6-5-5-3h-2l-3 1-5 2-7 6-7 7-15 18-14 19-14 22-23 47-10 24-7 25-6 24-4 24v3l1 2c0 2 0 4 0 6 0 16-13 30-29 30-15 0-26-11-29-24l-2-7c0-2 0-4 0-6 0-1 0-2 0-3l1-8v-1l4-26v-2l6-27h1v-2l8-26 1-2 10-26v-1l1-2 25-50 1-1 1-1 14-24h1v-1l16-22 1-1 16-20 2-2 9-9 2-2 1-1 10-8 2-1c1 0 2-1 2-1l1-1 10-5h1l2-1c1-1 2-1 3-1l2-1h1l11-3c2 0 4 0 6 0z" /><path stroke-width="0" fill="#000000" d="M6407 3208c16 0 29 13 29 30 0 1 0 2 0 3v1l8 55v1 2l3 57v1l2 102-1 102v1l-4 102v1l-8 101-1 2v3 2 1c0 17-13 30-29 30-4 0-8-1-12-2l-1-1h-1 1l-1-1c-9-4-15-13-16-23v-2-1-1-2-3-1l1-3v-1-2l8-100 4-101 1-101-2-100-3-56-8-55v-2c-1-2-1-4-1-6 0-2 0-4 1-6v-3l1-3c2-6 6-12 12-15l1-1 1-1h1c4-2 9-4 14-4z" /><path stroke-width="0" fill="#000000" d="M6413 3023l2 1v-1l16 1h1c1 1 2 1 3 1h1l16 4 2 1h1l13 4 2 1c11 5 18 15 18 27 0 17-13 30-29 30-4 0-6-1-9-2h-1l-12-4-12-3h-10l-8 1-8 5-8 7-8 9-16 26-13 28-11 28-11 35-4 16-2 17c-1 15-14 27-29 27-16 0-29-13-29-30v-2l1-20c1-1 1-2 1-3v-1l4-19 1-2v-1l12-36h1v-2l11-29 1-1v-1l15-31 1-2 1-1 18-29v-1c1 0 1-1 2-2l11-13 1-1 1-1 12-11 1-1c1-1 2-1 2-2l2-1h1l15-9c2-1 5-2 8-3l16-3c2 0 4-1 6-1z" /><path stroke-width="0" fill="#000000" d="M8497 3273c14 0 26 10 29 24v2 1c0 1 1 2 1 3 0 1-1 2-1 3v2 2l1 42 4 43 6 43 7 44 16 89v1l6 45v1l4 45v2l2 71v1 1l-2 73v2l-8 72v3l-14 69c0 1-1 2-1 3v1l-7 19-2 6-1 7v2c-3 14-15 24-29 24-16 0-30-13-30-30 0-1 1-2 1-3l1-10v-2c0-1 1-2 1-3l3-9v-2l6-17 14-66 7-69 2-71-2-70-3-43-6-43-16-89-7-44v-1l-7-45v-1l-4-44v-1-2l-1-45v-3-3l1-3c1-15 14-27 29-27z" /><path stroke-width="0" fill="#000000" d="M8546 3240c1 0 2 0 3 0h1l13 2 2 1h2l13 4h1l2 1h1l13 5c1 0 2 1 3 1l24 14h1c0 0 1 1 2 1l19 13 2 2c7 5 11 13 11 22 0 17-13 30-30 30-6 0-11-2-16-5l-18-12-22-12-10-4-9-3-9-1h-8l-17 4-16 9-16 13-16 16-14 19-13 19-10 20h-1l-5 10v1l-1 3v1c-3 13-15 24-29 24-16 0-29-14-29-30 0-1 0-2 0-3v-2l1-6v-1c0-1 1-2 1-3l1-2 2-6c1-1 1-2 1-3h1l6-11 11-21 1-2 14-21v-1l1-1 16-21 1-1 1-1 18-19 1-1c0-1 1-1 2-2l20-16 2-1c1-1 2-2 2-2h1l21-11 1-1 2-1c1 0 2 0 3-1h2l24-6h1c0 0 1 0 2 0h3v-1h13z" /></g><g stroke="#ED331F"><path stroke-width="0" fill="#ED331F" d="M2093 930h-13l-30 5-30 9-29 13-28 14-14 8-1 1c-4 2-9 3-14 3-11 0-20-5-25-13l-1-2-9 15-16 41-5 21-3 21-2 20 1 20 3 20 6 19 8 18 10 17 16 18 20 12 24 9 27 5 29 2 29-2 28-5 25-7 28-10 26-14 24-16 20-19 16-21 11-22 6-25v-12l-1-13-7-27-11-25-16-23-19-20-22-16-23-12-26-6-12-1zm-128-103c17 0 30 13 30 30 0 12-7 23-18 27h-1l-15 13-13 14-1 1 18-9 2-1 31-13h1c0-1 1-1 2-1h1l32-10 3-1h1l34-6h2 2l16-1h1 3l16 2h1c1 0 2 0 3 0h1l31 8 2 1c1 0 2 0 2 1h2l29 14 1 1c1 1 2 1 3 2h1l26 20 1 1c1 0 1 1 2 2h1l22 24 2 1c0 1 1 2 1 3l19 27c0 1 1 2 1 2l1 2 14 30v1c0 1 1 1 1 2v2l8 31 1 2c0 1 0 2 0 3l2 17v3 1l-1 17v2c0 1 0 2 0 3h-1l-6 31h-1v3c0 1-1 2-1 2l-1 2-14 28v1c-1 1-1 2-2 3l-1 1-19 25-1 1c0 1-1 2-2 2l-1 1-23 22-2 1-2 2-27 18c-1 1-2 1-2 2h-1l-29 15-2 1-1 1-31 11-1 1h-2l-28 8h-2-1v1l-31 5h-2-1l-32 2h-2-2l-32-1h-2l-2-1h-1l-31-6c-1 0-2 0-3-1h-1l-30-11h-1c-1-1-2-1-2-2l-2-1-26-16-1-1c-1-1-3-2-4-3l-1-1-21-23-1-1c0-1-1-1-2-2v-1l-13-21-1-2-1-2-10-22c0-1 0-2-1-3v-1l-6-22-1-2v-2l-4-23v-2-1l-1-24v-1-2l1-24v-1l1-1 3-24 1-1v-2l6-23v-2l1-1 17-46h1c0-1 1-2 1-3v-1l24-41 1-2 2-2 29-37 2-2 16-16v-1l2-1 16-14 1-1 1-1 4-3 2-1c2-2 5-3 7-4h1l2-1h1l2-1c2 0 4 0 6 0z" /><path stroke-width="0" fill="#ED331F" d="M3039 906l-48 4-47 8-18 4h-1c-2 0-4 1-6 1-10 0-19-6-24-14h-1l-1 1-12 14-11 19-9 22-6 23-3 22-2 27v28l3 26 5 25 8 22 12 20 15 17 20 14 22 11 25 8 26 5 27 4h28l28-1 27-3 25-5 28-9 25-12 22-15 19-19 15-21 11-22 5-25 1-13-1-13-6-24-8-23-11-22-14-19-16-17-19-15-21-12-23-9-21-6-23-3-23-2-22-1zm-107-69c1 0 2 0 3 0h2l15 3h1c2 0 4 1 6 2l2 1 2 1 4 2h1l3 1c2 1 5 3 7 4v1l4-1h2 1l50-4h3 25 2l25 2h1l2 1 25 4h1 1l25 7h1l2 1 27 10 1 1c1 0 2 0 3 1l25 14 2 1 1 2h1l22 17v1c1 0 2 1 2 2h1l19 20 1 2 2 2 16 22v1c1 1 1 2 2 2v1l13 24v1l1 2 1 2 9 27 1 1c0 1 0 2 0 3l6 28c1 1 1 2 1 3v1l1 17v2 1 16l-1 2c0 1 0 2 0 3l-7 31v3c-1 1-1 2-1 3l-1 1-13 28-1 2c0 1 0 1-1 2l-1 1-18 25-1 2c-1 1-1 1-2 2l-23 22-2 2-2 1v1l-26 18h-1c0 0-1 1-2 1l-1 1-29 14-2 1c-1 0-2 0-3 1l-30 9c-1 1-2 1-3 1h-1l-27 5h-1l-2 1-29 3h-1-1v1l-30 1h-2-1l-30-1h-2l-30-3v-1h-3l-29-6-3-1-28-9-2-1-2-1-26-12-1-1c-1 0-2-1-3-1v-1l-25-17-2-2c0 0-1-1-2-2l-1-1-19-21-1-1c-1-1-1-2-2-2l-1-2-14-25h-1c0-1-1-2-1-3v-1l-11-27v-2l-1-2v-1l-6-28c0-1 0-2-1-3l-2-30-1-3v-29-1-2l2-29v-1l1-1 4-26v-1-2l7-26v-1l1-2 10-26c1-1 1-2 2-3v-1l13-23 2-2c0-1 1-1 1-2l1-1 17-19 1-2c1-1 3-2 5-3l20-14c2-1 3-2 5-3l2-1 11-4h2c1-1 2-1 3-1l13-3h2 3 14z" /><path stroke-width="0" fill="#ED331F" d="M3964 799h1l41 1h3l30 3h2l30 5h2l31 7 2 1h1l30 10c1 0 2 0 3 1l29 12c1 0 2 1 2 1h1l27 15 2 2h1l25 19 1 1c1 0 2 1 2 2l22 21 1 2 2 2 12 17 1 1c0 1 1 1 1 2l1 1 9 18 1 2 1 2v1l6 18c0 1 0 2 0 3l1 1 3 19v2 2l1 19h-1l1 1c0 1-1 2-1 3l-2 19v3l-5 19v2l-1 1-6 19-1 1-1 3-19 35c0 1-1 2-1 3l-1 1-25 32-1 1c0 1-1 2-2 2v1l-29 27-1 2-2 1-31 23h-1c-1 1-2 1-3 2l-27 14-2 1h-1l-29 12h-1l-2 1h-1l-32 9-2 1h-1l-33 5h-2l-2 1-33 1h-1c-1 0-2 0-3 0l-1-1-32-3-2-1c-1 0-2 0-3-1l-30-9c-2-1-4-1-5-2l-1-1-28-16-1-1c-1 0-2-1-3-2l-1-1-29-28h-1c0-1-1-2-2-2l-1-2v-1l-23-33c-1-2-2-3-3-5l-16-38c0-1-1-2-1-3v-1l-6-20v-1-2 1l-3-20-1-2v-2l-1-20v-1-2l2-20v-1-2-1l4-18v-1c0-1 0-2 1-3l6-18v-1l1-2 1-2 8-17 1-1c0-1 1-2 1-3l12-16 1-2 2-2 14-15c1-1 2-2 2-2l1-1 17-13 2-1 8-6 2-1 10-6 1-1 2-1 11-5 1-1c2 0 4-1 6-1l10-3c2 0 4 0 6 0 17 0 30 13 30 30 0 14-10 26-24 29l-7 1-6 3-9 6-7 5-14 11-11 11-9 13-7 14-5 15-3 15-1 16 1 17 2 17 5 16 14 33 19 28 24 23 22 13 24 8 27 3 29-1 30-5 29-8 27-11 24-12 27-20 26-25 22-28 16-31 5-15 4-16 2-15v-15l-3-14-4-14-7-14-10-14-18-18-22-15-24-14-26-11-28-9-29-6-29-5-28-2-38-1-39 4-17 4-17 6-15 8-13 9-8 7-1 1c-5 4-12 6-19 6-16 0-30-13-30-29 0-9 4-16 9-21l1-2 9-7 1-1 2-2 17-12c1 0 2-1 3-1l1-1 18-9 2-1h2l19-7 1-1h2l21-5h1l2-1h1l42-4v-1c1 0 2 0 3 0z" /><path stroke-width="0" fill="#ED331F" d="M4663 1100c1 0 2 0 3 0 15 2 27 14 27 30 0 16-14 30-30 30-17 0-30-14-30-30 0-15 10-27 24-29 1-1 2-1 3-1 1 0 2 0 3 0z" /><path stroke-width="0" fill="#ED331F" d="M5111 1123c1 0 2 1 3 1 1 0 2 0 3 0 1 0 2 1 3 1 1 0 2 0 3 1 2 1 3 1 5 3 1 0 2 1 2 1 2 2 3 3 4 4 1 1 2 2 2 3 1 1 2 3 3 5 0 1 1 1 1 2 0 2 1 4 1 6 0 1 0 2 0 3 0 1 0 2 0 3 0 1 0 2 0 3-1 1-1 2-1 3 0 1-1 2-1 3-1 1-1 2-1 3-1 0-1 1-2 2 0 1-1 2-2 2 0 1-1 2-2 2 0 1-1 2-2 2 0 1-1 1-2 2-1 1-2 1-2 2-1 0-2 0-3 1-1 0-2 0-3 1h-1l-2 1c-1 0-2 0-3 0-1 0-2 0-3 0-16 0-29-13-29-30 0-1 0-2 0-3v-1-2l1-3c3-9 10-16 20-19l1-1h1c1 0 2 0 3 0 1 0 2-1 3-1z" /><path stroke-width="0" fill="#ED331F" d="M5436 1133c6 0 12 1 16 5l2 1h1l2 2c1 1 1 1 2 2l2 2 1 1 1 1 1 2c5 5 7 12 7 19 0 17-13 30-30 30-8 0-15-3-21-9l-1-2-2-1v-1c-7-5-11-13-11-23 0-16 13-29 30-29z" /><path stroke-width="0" fill="#ED331F" d="M5798 1153c17 0 30 13 30 30 0 14-10 26-24 29h-2-1c-1 1-2 1-3 1-16 0-29-14-29-30 0-15 10-27 23-29l3-1c1 0 2 0 3 0z" /><path stroke-width="0" fill="#ED331F" d="M6577 910l-35 1-33 6-12 4c-3 1-6 2-9 2-5 0-10-2-15-4l-1-1-6 2-9 3-25 13-20 17-18 22-14 26-10 29-7 30-3 30 2 27 6 26 11 20 16 15 24 11 31 8 33 4 35-2 36-5 35-9 34-13 32-15 30-18 19-15 19-17 17-20 14-21 10-22 5-22 1-22-2-9-3-9-6-12-10-10-12-10-16-8-37-14-19-5-17-4-36-6-35-3zm0-60l3 1 38 3h1 2l38 7h1l19 4 1 1 20 5h1l2 1 41 15h1c1 1 2 1 3 2l19 10c1 0 2 1 2 1l1 1 17 13h1c1 1 2 2 3 2v1l14 15 1 1c1 1 1 2 2 3l1 2 10 18c1 2 2 3 2 5l5 14c0 1 0 2 1 3v1l2 14v2c0 1 1 2 1 3l-1 1h1l-1 28v2c0 1-1 2-1 3v2l-7 27v2c-1 1-1 2-1 2l-1 1-12 27-1 1-1 3-17 24v1c0 0-1 1-1 2h-1l-19 23-2 1v1l-21 20-2 1-1 1-22 17v-1l-1 1-1 1-32 19-1 1-2 1-34 16-2 1-1 1-37 13-1 1h-1l-39 10h-1l-2 1-38 6v-1l-2 1h-2l-39 1h-1-2-1l-37-4h-1c-1 0-1 0-2 0h-2l-36-10h-2c-1 0-1-1-2-1l-2-1-30-15h-1c-2-1-3-2-5-3l-1-2-23-21-1-1c-1-1-2-2-3-4l-1-2-16-27v-1c-1-1-2-3-3-5v-2l-8-32v-1c-1-1-1-2-1-3v-2l-1-32v-2-2l3-34v-1c0-1 0-2 0-3l8-34v-3l1-1 12-33v-1c1-1 1-2 2-3l16-30c1-1 1-1 2-2l1-2 21-27c1-1 2-1 2-2l2-2 25-21h1c1-2 3-3 4-4h1l30-15 2-1 2-1 12-4h1 1l15-4h1c1-1 2-1 3-1l15-1 3-1c1 0 2 1 3 1h3l7 1 34-6h2 2l38-2v1l1-1z" /><path stroke-width="0" fill="#ED331F" d="M7520 832l-32 3-33 6-30 8-29 11-27 13-26 16-24 18-1 2-1 3 1 7 2 9 3 11 1 2v1l2 12 4 26 8 21 12 21 16 18 18 16 21 12 22 8 23 4h22l24-3 25-5 24-7 24-10 23-11 22-12 19-13 17-15 13-17 10-20 6-20 2-20-2-19-7-17-12-16-22-18-26-13-28-8-31-4h-33zm-1-60l36 1h3 1l35 4 2 1h2 1l33 10c1 0 2 1 3 1l2 1 30 15 1 1c1 0 2 1 3 1l2 2 27 22c2 1 3 2 4 4l1 1 17 22 1 1c1 2 2 4 3 6l10 24v1l1 2c0 1 0 2 0 3l1 2 3 26v1c0 1 0 2 0 3v3l-3 26c0 2 0 4-1 6l-8 26c0 1 0 2-1 2l-1 3-12 24h-1c0 1-1 2-1 3l-1 1-17 22c-1 1-2 2-2 3l-1 1-20 18-1 1-3 1-21 15-2 1-24 14-2 1-25 12h-1l-1 1-26 10h-2v1l-27 7v1h-3l-27 6h-3l-27 3c-1 0-2 0-3 0h-27-3-1l-29-5h-1c-1 0-2 0-3-1h-1l-27-10-1-1c-1 0-2-1-3-1l-1-1v1l-25-15-1-1c-1-1-2-1-3-2l-22-19-2-1-2-2-19-22v-1c-1 0-1-1-2-2l-1-1-15-25v-1c-1-1-1-2-2-3v-1l-10-27-1-2c0-1 0-2-1-3v-1l-4-29-2-10-2-10h-1l-3-12v-1-3l-2-12c0-1 0-2 0-3 0-1 0-2 0-3l1-1h-1l1-5v-1c-1-2-1-4-1-6 0-4 1-8 3-12l1-2v-2c2-11 12-21 23-23h3l21-17 2-1h1l28-18h1l2-1 30-15h1l2-1 31-11 2-1h1l32-9h2l34-6 1-1h2l36-3 3-1z" /><path stroke-width="0" fill="#ED331F" d="M2028 983c17 0 30 14 30 30v1 1 1l-3 78-1 31v2 1l-4 31-1 3v2l-1 1v1c-2 7-6 12-12 16l-1 1-1 1c-4 2-9 3-14 3-17 0-30-13-30-30 0-2 0-4 0-6l1-2 3-27 1-31 4-77v-1-3c1-15 14-27 29-27z" /><path stroke-width="0" fill="#ED331F" d="M2072 1048c16 0 29 14 29 30 0 15-10 27-23 29l-3 1-11 1-47 7-29 6h-1l-15 3h-2-1l-15 1h-2c-1 0-2 0-3 0h-2-1l-2-1c-14-3-24-15-24-29 0-17 13-30 30-30 1 0 2 0 3 0h11l13-2 29-6h1l49-8h1l11-1c1-1 2-1 4-1z" /><path stroke-width="0" fill="#ED331F" d="M4029 947c17 0 30 14 30 30 0 3-1 6-1 9l-1 1-5 24-3 25-1 26v27l1 21v1c0 1 0 2 0 3 0 17-13 30-30 30-14 0-26-10-29-24v-2-1-1l-1-2v-24-1-27-1l1-28v-2l3-28v-3l6-26v-1l1-2v-2c0-1 1-2 1-2v-1l1-1 1-2c5-9 15-16 26-16z" /><path stroke-width="0" fill="#ED331F" d="M4097 995c16 0 29 13 29 29 0 15-10 27-23 30h-2l-15 2h-1l-52 6-1 1-52 4h-1l-14 2-11 2-2 1c-2 1-5 1-9 1-16 0-29-13-29-30 0-11 6-21 15-26l2-1h1l1-1c1 0 2 0 3-1h2 1l15-4c1 0 2 0 3 0h1l16-2 52-5 51-6 15-2h2c1 0 2 0 3 0z" /><path stroke-width="0" fill="#ED331F" d="M6626 994c16 0 30 14 30 30 0 16-12 28-27 30h-1-3l-46 5-30 5-31 6h-1l-19 4h-2l-19 2h-3c-16 0-30-14-30-30 0-16 12-28 27-30h1l17-1 17-3 31-7h1l32-5 2-1 47-4h1 1 3l2-1z" /><path stroke-width="0" fill="#ED331F" d="M6538 941c15 0 28 12 30 27v1l2 29 3 28 8 61 2 9v2c0 1 0 2 0 3 0 17-13 30-29 30-15 0-27-10-30-24v-1l-1-9-1-1-8-62-4-30v-1l-2-30v-2c0-16 14-30 30-30z" /><path stroke-width="0" fill="#ED331F" d="M7467 916h1l50 2h2l43 5h4l3 1c13 2 24 14 24 29 0 16-14 30-30 30-1 0-2 0-3-1h-4l-42-4-48-2-46 3-5 1h-3c-1 0-2 0-3 0-17 0-30-13-30-30 0-14 10-26 24-29l7-1h1l2-1h1l50-3h2z" /><path stroke-width="0" fill="#ED331F" d="M7493 820c15 0 28 12 30 27v1 1 1 2 40 1l-2 40v40 39l1 17v1c0 16-13 30-30 30-15 0-28-12-29-27v-2h-1v-17l-1-41v-1l1-41 1-40v-38-1-1-1c0-17 13-30 30-30z" /><path stroke-width="0" fill="#ED331F" d="M3135 1017c16 0 30 13 30 30 0 15-12 28-27 29h-1l-3 1-69 6-44 5h-1l-44 3h-1-3-1-3c-2-1-4-1-6-2-1 0-2 0-3-1-1 0-3-1-5-2 0-1-1-1-2-2-1-1-3-3-4-4-1-1-1-2-2-2 0-1-1-2-1-3-1-1-1-1-1-2-1-1-1-2-1-3-1-1-1-2-1-3 0-1-1-2-1-3 0-1 0-2 0-3 0-16 14-30 30-30h1 1l43-3 43-4 69-7h1 3 3z" /><path stroke-width="0" fill="#ED331F" d="M3062 932c12 0 23 7 27 18l1 2v1l1 2v2 1l1 1 8 35v1 1l6 36h-1l1 1 6 72v6 2c0 17-13 30-29 30-16 0-28-11-30-27l-1-6-6-71-4-33-8-34-1-1c-1-3-1-6-1-9 0-17 13-30 30-30z" /><path stroke-width="0" fill="#ED331F" d="M1837 1400c16 0 29 13 29 30 0 8-3 15-8 21h-1l-29 29-28 31-54 67-28 40-26 40-49 86-31 53-1 2-33 51v1h-1l-70 100-1 1-72 99-70 100-35 54-36 54-32 55-28 53v1c-3 14-15 24-30 24-16 0-30-14-30-30l1-2v-2-2c0-2 0-4 1-5l1-2h-1l1-2 1-1v-1l2-3v-1-1l29-55 1-1 34-56v-1l36-55 36-54v-1l70-100v-1h1l72-99 70-100 33-50 30-53 50-86v-1l27-42v-1h1l29-41 1-1 55-69 1-1v-1l29-32 1-1h1l29-29h1v-1l2-1c5-4 11-7 19-7z" /><path stroke-width="0" fill="#ED331F" d="M1783 1347h1 9 3c1 1 2 1 3 1l2 1h1l9 2v1c2 0 4 1 5 2l2 1 9 6h1c2 1 3 3 4 4l2 1 18 21h-1 1c1 1 1 2 2 3l1 2 14 25c0 1 1 2 1 2v1l12 26 10 25 29 58 9 16c2 4 3 9 3 14 0 17-13 30-29 30-12 0-22-6-27-16l-8-15-1-1-30-61-1-1v-1l-10-25-11-25-11-21-13-14-3-2h-1-2-2l-13 6-13 10-23 21-23 24-20 24-15 26v1c-3 14-15 24-29 24-17 0-30-14-30-30 0-1 0-2 0-3v-2l1-4v-1c1-2 1-4 2-6l1-1h-1l3-5v-2l1-1 18-28v-1l2-2 22-28 1-2 25-25v-1l1-1 25-22 1-1 1-1 17-12 1-1c1-1 2-1 3-1l1-1 18-9 1-1c1 0 2 0 3-1h3l9-2c2-1 4-1 6-1z" /><path stroke-width="0" fill="#ED331F" d="M2110 1547c1 0 2 0 3 1h1 2c5 1 10 3 13 6l1 1 1 1c2 2 3 3 4 5h1l3 6 1 2c1 1 1 1 1 2l1 1 3 8v1l1 2 2 7v2l1 7 1 2v1l2 24 1 2v25 1 25 24l15 273 6 138 3 137v1l-1 72 1 35 2 32 1 6 1 1v1l1 7v1l1 2c0 1 0 2 0 3 0 17-14 30-30 30-14 0-27-10-29-23v-1l-2-8-2-7v-1c0-1 0-2 0-3v-1l-3-36v-2-36l1-72-4-136-6-137-14-273v-1l-1-25v-1l1-25-1-23-2-22-1-4-2-6-1-3-1-1-1-1c-3-5-5-11-5-17 0-16 14-30 30-30z" /><path stroke-width="0" fill="#ED331F" d="M2110 1438c2 0 3 0 4 0l16 2h2c2 1 4 1 6 2l2 1 16 8v1c1 0 2 0 3 1l2 2 21 17 2 2 19 19h1l1 1 36 40 12 14 1 1c5 6 7 12 7 19 0 17-13 30-30 30-8 0-15-3-21-9l-1-1-13-14-35-39-18-18-17-14-9-5h-4l-3 1-7 6-8 10-7 13-12 32-6 35-2 35v7 6l1 3 2 3 1 1c2 4 3 9 3 14 0 17-13 30-30 30-10 0-19-5-24-13l-1-1-5-7v-2c-1-1-2-3-3-5v-2l-2-9-1-1c0-1 0-2 0-3v-1l-1-10v-2-9-2l2-37v-2l1-2 7-39v-1c0-1 0-2 1-3v-1l14-37v-1c1-1 1-2 1-3l1-1 9-16 1-2 2-2 11-15v1l1-1c1-2 2-3 4-4l14-12 2-1c2-2 5-3 8-4l14-5h1c2-1 5-1 8-1z" /><path stroke-width="0" fill="#ED331F" d="M2396 1551c8 0 15 3 21 9l2 2 2 2 18 22 1 1 17 22 17 21 20 19 99 89h1l98 93 68 67 71 65 54 51 54 51 55 50 56 46 39 32 2 1 36 34 1 1v1l34 35 1 2 32 37 3 3 1 1 2 2 1 1c1 1 2 3 3 5l1 1v1l1 2c2 3 3 7 3 12 0 16-14 29-30 29-11 0-20-5-25-13v-1l-3-2-2-2-31-37-33-35-35-32-38-32-58-47-1-1-55-50h-1l-54-52-54-50-70-65-1-1-69-67-97-92-100-89-1-1-21-21-1-2-19-22v-1l-18-22-17-21h-1v-1c-2-2-4-4-5-7h-1l-1-3c-1-3-2-7-2-11 0-17 13-30 30-30z" /><path stroke-width="0" fill="#ED331F" d="M2361 1514h2l22 1h1 2l21 4h1 1l21 5 2 1 39 12v1h2l42 17 1 1h1l41 19h1l36 19h1c9 5 16 15 16 26 0 17-14 30-30 30-4 0-8-1-12-2l-2-1-36-18-40-19-40-16-37-12-19-4-19-4-18-1-16 1-15 3-12 6-5 4-2 4-1 6 2 11 9 26 15 27 18 25 21 22 2 2c4 5 7 12 7 19 0 16-14 30-30 30-8 0-16-3-21-9h-1l-23-24-1-2-2-2v1l-20-29c-1-1-1-2-2-3l-16-30-1-3-1-1-11-31-1-1c0-1 0-2 0-3v-1l-3-18-1-2c0-1 0-2 0-3v-3l2-16c0-3 1-6 2-8l1-2 7-14 1-1c1-2 3-5 5-7l2-2 13-11c2-1 3-2 5-3l2-1 1-1 18-7v-1c1 0 2 0 3-1h2 1l19-5h1c1 0 2 0 3 0h1l21-1h1z" /><path stroke-width="0" fill="#ED331F" d="M2663 1506c7 0 14 2 19 7l2 1v1l14 14 7 5 5 2 15 5 19 1h23 1 1l25 1h1l24 3 55 5h2l27 5h1 1l27 7h1v1h1l118 34 114 31 115 32h1l68 22h1l67 23h1l68 23 69 22 144 45v1h1l144 48 221 74 223 71 170 55h1l84 29h1l84 30 137 49 139 47 138 45h1l139 42v1l124 35 124 34 125 31 125 28 52 9 53 8 106 13 2 1 49 10 2 1h1l47 14 46 14 23 5 22 4h1 3l3 1h1 1 3c13 3 23 15 23 29 0 17-13 30-29 30-1 0-2 0-3 0h-1-1-2l-4-1h-2-2l-24-4h-1-1l-24-6-2-1-47-14h-1l-46-14-46-10-105-13h-1l-53-8h-1l-53-9v-1h-1-1l-125-28h-1l-126-31-125-34h-1v-1l-124-35v-1l-140-42-140-45-139-47h-1l-137-50-84-30-84-28-170-55-223-71-221-74h-1l-144-49-144-45-69-22-1-1v1l-68-24-68-22-68-22-114-32-114-30h-1-1l-117-35-26-7-24-4-54-5-23-2-23-2-23 1h-1l-1-1-23-1h-2c-1 0-2 0-3 0l-1-1-22-6h-1c-1 0-2-1-3-1l-2-1h-1l-10-6c-1 0-2-1-2-1l-2-2v1l-10-8-1-1-2-2-15-15c-6-6-9-13-9-21 0-17 13-30 30-30z" /><path stroke-width="0" fill="#ED331F" d="M2654 1445c17 0 30 13 30 29 0 15-10 27-24 30h-1v2l6 14 7 15h1l6 12c2 4 4 9 4 14 0 17-14 30-30 30-11 0-21-6-26-16l-7-12-8-16-2-2-7-18-1-3-1-2v-1l-2-9c0-1 0-2 0-3v-2l-1-9h1l-1-1c0-2 1-4 1-6v-1l3-9v-1c1-2 1-4 2-6l1-2 5-8h1c1-2 2-3 3-5l2-1 4-4 1-1c2-1 5-3 7-4h1l3-2h1l2-1c2 0 4-1 6-1h2 10 1z" /><path stroke-width="0" fill="#ED331F" d="M2517 1286c5 0 10 1 14 4h2l1 1 34 17 38 14 48 17 49 16 49 13 50 10 89 15h1l88 17 1 1 88 21h1l87 24 106 28 106 23h1l107 23 1 1 107 25h1l102 27 101 25 102 23 104 19 90 17h1v1l90 19h1 1l179 45 104 24 103 22h1l104 21h1l104 23h1l196 48 98 24 98 22h1l122 28 122 30 122 28 122 24 90 16h1v1l90 18 180 39v1l91 19 91 18h1l182 36h1l87 19h1l86 22h1l171 48h1l168 50h1l83 27 1 1 82 29 133 47 132 44 109 34 108 31 90 24 90 24 89 20 90 15 95 13h1l47 9h1 1l46 12h2l2 1h1l6 3 6 2h1c12 4 21 15 21 28 0 17-13 30-30 30-2 0-4 0-6 0l-2-1-8-2-1-1h-2l-1-1-6-2-43-11-45-8-94-12v-1h-1l-92-16h-1l-90-20h-1l-1-1-90-23h-1l-89-25h-1l-109-30-1-1-109-34-133-45h-1l-132-47h-1l-82-29-82-27-168-50-171-47-85-22-86-19-183-35h-1l-91-18-91-20-180-40-90-18-90-16v-1h-1l-122-24h-1l-123-28-122-30-122-28-98-22h-1l-98-24-196-48-104-23-104-21h-1l-104-22h-1l-104-24-179-45-90-19-90-17h-1l-104-20-102-23h-1-1l-102-25h1-1l-102-27-106-25-108-23-107-24h-1-1l-106-28v-1l-87-24-87-20-87-18-89-14h-1-1l-51-10-2-1-50-14h-1-1l-49-17h-1l-49-17h-1l-39-14-1-1-2-1-37-18-1-1h-1l-2-2-2-1c-7-5-13-14-13-24 0-17 14-30 30-30z" /><path stroke-width="0" fill="#ED331F" d="M2446 1218h1l19 1h2 1l37 5 2 1h1l34 7 1 1 32 8h1c12 4 21 15 21 29 0 16-13 30-30 30-2 0-4-1-6-1h-1l-31-8-33-8-35-5h-16l-15 1-14 2-11 4-10 6-5 7-4 8-1 11-1 13 2 15 6 32v1 1h1v3 2 1h1v1c0 2 0 4 0 6 0 16-13 29-30 29-14 0-26-10-29-23v-1-1-2l-1-1v-2-2l-7-34v-2-1l-2-17c0-1 0-2 0-3v-1-17-3-2l3-17v-1c1-2 1-3 2-5l7-15v-1c1-2 2-5 4-7l11-13 2-2c1-2 3-3 4-4h1l16-11 2-1c1 0 2-1 3-1l1-1 17-6h1c1 0 2-1 3-1h1l17-3 3-1h1l19-1h2z" /></g></g></svg>