<?xml version="1.0" encoding="utf-8"?>
<!-- Created with Majerus.net InkPaint (http://www.majerus.net/InkPaint/) -->
<!DOCTYPE svg PUBLIC "-//W3C//DTD SVG 1.1//EN" "http://www.w3.org/Graphics/SVG/1.1/DTD/svg11.dtd">
<svg xmlns="http://www.w3.org/2000/svg" version="1.1" width="250.05mm" height="96.1mm" viewBox="0 0 5001 1922" preserveAspectRatio="xMidYMid meet"><!-- Generator: Majerus.net InkPaint UWP 1.1.14.0 --><g fill="none" stroke-linecap="round" stroke-linejoin="round"><g stroke="#000000"><path stroke-width="0" fill="#000000" d="M501 528h1l52 2h2l52 4h1 1l50 7 2 1h1l47 11h3l7 2v1c1 0 2 0 3 1h1l3 1 1 1 2 1c2 1 3 2 5 3l1 1 4 4 1 1c6 6 10 14 10 22 0 18-15 32-32 32-8 0-15-3-20-7l-1-1-3-1-45-10-48-7-50-4-51-2-45 1-45 3-45 6-43 11-39 15-35 22-15 12-15 14-12 15-11 17-14 31-9 34-3 35 2 34 9 33 6 14 8 13 9 12 11 10 13 9 14 7 12 4 10 2 11 1 10-2 23-7 23-12 23-17 22-20 20-22 17-22 25-38 20-41 14-43 5-21 2-22v-3-1l1-2c1-16 15-29 31-29 15 0 28 11 31 25v2l1 2v5 1l10 84v2l5 85v1l2 86v87l1 159v160l4 160 5 79 7 78 6 43 6 43 9 41 10 39 9 23 3 6 4 4 3 1 2 2c8 5 14 15 14 26 0 17-15 32-32 32-5 0-11-2-15-4l-1-1-6-3-2-1c-2-2-3-3-5-4v-1l-10-9-1-2c-1-1-2-2-2-3l-1-1-7-12-1-1c0-1-1-2-1-3l-1-2-9-26-1-2v-1l-12-42v-1-1l-9-42v-2l-7-44v-1l-5-43-1-1-7-80v-1l-5-80v-1l-4-161-1-161v-159l-1-86-2-85v-16l-2 2v1l-27 40v1l-2 2-18 23h-1l-1 1-21 24-1 1-1 1-24 22-1 2-2 1h1l-27 19-1 1c-1 1-2 1-2 2h-1l-27 15c-2 1-4 1-6 2l-29 9-3 1h-3l-15 2c-1 0-3 0-4 0h-1l-15-1h-2-3l-15-3h-1c-1 0-2 0-3-1h-1l-15-5-2-1-2-1-19-10h-1c-1 0-1-1-2-2h-1l-16-12-2-1-2-2v1l-14-14v-1c-1 0-2-1-3-2l-12-15-1-2-1-2-10-16-1-2-1-2-8-17v-1c-1-1-1-2-1-3l-1-1-10-38v-2c0-1 0-2-1-3v-1l-3-40v-3-3h1l3-40c0-1 1-2 1-3v-2l10-39 1-1c0-1 0-2 1-3v-1l16-35 1-2 1-2 13-20 1-1 1-2 15-19c1-1 2-1 2-2h1l16-17 2-2h1l18-14 2-2 1-1 40-23 1-1c1 0 2-1 3-1l1-1 43-17h2l2-1 46-12v1l2-1h1l48-7h1 1l48-4h2 46z" /><path stroke-width="0" fill="#000000" d="M833 662c15 0 27 9 31 22v1l3 12 1 1v2l1 12 1 1v1l2 23 4 48v1l3 49v1l2 99 2 97 4 48 5 47 4 28 2 6 9-11 26-40 23-46 19-49 18-49 19-55 18-55v-1l19-55v-1-1l19-55 1-1 6-16v-1c0-1 1-2 1-2l1-1 7-13 1-2c1-2 3-4 4-5l3-3 2-2c3-2 5-3 8-5h1l3-1 2-1c3-1 6-1 9-1 5 0 9 1 13 2l1 1 5 2 1 1c5 2 8 6 11 10l4 6c1 1 1 2 2 3l1 2 3 6v1c0 1 1 2 1 3l10 33 1 3v1l7 35v1 2l5 36v1l4 36 8 72 9 71 7 34 8 33 11 32 14 30 4 9 5 8c3 5 4 10 4 16 0 17-14 31-32 31-10 0-20-5-26-14l-1-2-5-8v-1l-5-9v-1l-1-2-15-32v-1l-1-2-12-34v-1l-1-2-9-35v-1-1l-7-35v-1-2l-10-72v-1l-8-72-4-36-4-35-1-5-5 14-18 55v1l-19 56v1l-19 55-18 50-1 1v1l-20 50-1 2-24 48v1l-2 3-28 43-1 1c0 1-1 2-1 2l-1 1-11 14h-1l-1 2h-1l-7 7-2 1-1 1-7 6-2 1c0 0-1 1-2 1l-2 1-7 4h-2c-2 1-4 2-6 2l-2 1-8 1c-1 0-3 0-4 0-3 0-6-1-9-2h-2l-7-3h-1c-4-2-7-4-10-7l-1-1-7-7-1-2c-1-1-2-3-3-5h-1l-7-14-1-2c0-1 0-2-1-3l-4-14v-1l-1-2v-2l-5-31v-1l-5-49h-1v-1l-3-49v-1l-3-99-2-98-2-48-4-47v-1l-2-22-2-9-2-10-1-1c0-2 0-4 0-7 0-17 14-31 31-31z" /><path stroke-width="0" fill="#000000" d="M1550 817l-3 3-7 10-14 23-11 24-18 45-6 25 15-19 14-20 13-22 9-22 6-22 2-22v-3zm16-76c4 0 9 1 12 3l2 1 8 3h-1l1 1c5 2 8 5 11 10h1l4 8 1 2c1 1 2 3 3 5v1l3 10v2c0 1 1 2 1 3v1l2 27v2c0 1 0 3 0 4l-3 27-1 3v2l-8 26v2c0 0-1 1-1 2v1l-11 25c0 1-1 2-1 3l-14 25-1 2-1 1-16 23-1 2-18 21-2 2-18 19h-1l-1 1-9 9-9 8-3 4-2 7v1c-2 7-7 13-13 17l-1 1v7l4 18 6 15 8 13 9 11 12 9 14 6 15 5 19 1 17-1 19-3 20-4 20-4 38-12h1 2c3-1 5-1 7-1 17 0 32 14 32 32 0 14-10 26-23 30l-40 11v1h-2l-20 5h-1l-22 5h-2l-21 3h-2-1l-21 1-2 1-2-1-24-1v-1c-1 0-2 0-3 0h-2l-21-6h-2c-1-1-2-1-3-1l-1-1-19-9-1-1c-1 0-2-1-3-2h-1l-17-13-1-1c-1 0-2-1-2-2l-1-1-14-15-1-1c-1-1-2-2-2-3l-1-1-11-18-1-1c0-1-1-2-1-3v-1l-8-20-1-2c0-1-1-2-1-3v-1l-4-22c-1-1-1-2-1-3v-1l-2-26v-2-1l1-26v-2-1l2-26 1-2 4-27v-1l1-2 13-52 1-1v-2l19-49h1v-2l13-25v-2l1-1 16-26 1-2 1-1 9-12 1-1 1-2 10-11h1c1-1 1-2 2-2l1-1 11-8 1-2c1-1 2-1 3-2h1l11-6h1l2-1c2-1 4-1 6-2h2l10-2h1c1 0 2 0 3 0z" /><path stroke-width="0" fill="#000000" d="M1938 730c17 0 31 14 31 31 0 14-9 27-22 31h-3l-2 1h-1l-10 7-22 15-21 16-18 17-6 8-4 7-1 4v2l2 4 5 6 7 8 9 7 19 13 39 22v1l39 23 1 1 2 1 9 7c1 1 1 2 2 2l2 2v1l6 7c1 1 2 3 3 5l1 1 4 7v2c1 1 1 2 2 3v2 1l2 7v1c0 2 1 4 1 6v3l-2 17v1c0 2-1 4-1 6l-1 2-8 19v1c0 1-1 1-1 2l-1 1-12 22-2 2v1l-15 22-2 2-17 21-1 1-19 21h-1l-1 1-40 38-2 1v1l-42 32-1 1h-1l-10 7v1c-1 0-2 1-3 1l-1 1-7 3-2 1c-4 2-8 3-12 3-1 0-2 0-3 0l-1-1h-5-2c-11-3-20-11-24-22v-1l-1-5-1-2c0-2 0-4 0-6 0-1 0-2 0-3v-3l1-8h1c0-1 0-2 0-3l1-1 3-9v-1l1-2 9-22c5-11 16-19 29-19 10 0 19 4 25 11l1 1 4-3 39-36 18-19 16-20 13-19 11-19 5-13 1-7v-1l-2-2-4-3-36-22-40-23-1-1h-1l-21-15-2-1-11-10c-1 0-2-1-3-2l-10-10-2-2-1-2-8-11-1-1c-1-2-2-3-3-5l-5-12c-1-3-2-6-2-9v-1l-2-13v-2c0-3 1-5 1-7l1-2 3-14h1c0-2 1-4 2-6l1-1 6-12 1-1 2-2 8-11 1-1c0-1 1-1 2-2l21-21 2-2h1l23-18h1l1-1 23-15 11-8c1-1 2-1 3-2l7-3 2-2c1 0 2 0 3-1h3l6-2c2 0 5 0 7 0z" /><path stroke-width="0" fill="#000000" d="M2433 159c17 0 32 14 32 32 0 3-1 6-2 9v1l-2 5v1l-2 3-1 2-10 31-8 34-13 74-19 115-18 117-35 234-15 106-14 106-11 106-3 52-1 51v45l2 20 3 21 1 5 1 4v2c1 2 1 4 1 6 0 17-14 32-32 32-14 0-26-10-30-23v-2l-2-5v-1l-1-6v-2l-4-22v-2-1l-2-22v-2l-1-46v-1l1-1h-1l2-53v-1l3-53v-1l11-107v-1l14-106v-1l16-106 34-234 18-118 19-116 14-75v-1-1l9-36v-2l11-35h1l1-3 1-2 1-3 1-2 1-2c4-11 16-19 29-19z" /><path stroke-width="0" fill="#000000" d="M2546 658c18 0 32 14 32 31 0 17-12 30-28 32h-1l-23 2-24 2-27 2-28 3-81 7-78 7-79 10-80 14-3 1c-1 0-2 0-3 0-17 0-31-14-31-32 0-15 10-28 25-31h1l81-14h2v-1l79-10h1l79-7h1l80-7 29-3 27-2 24-2 23-2h2z" /><path stroke-width="0" fill="#000000" d="M2742 783c14 0 25 8 30 19v2l1 1v2l1 1 20 64v1l18 65 17 65 16 63 4 15 4 13v2c1 2 1 4 1 6 0 18-14 32-32 32-14 0-26-9-30-22v-2h-1l-3-13-4-15-16-63-17-65-18-64-20-62v-1-2l-1-1c-1-3-1-6-1-9 0-18 14-32 31-32z" /><path stroke-width="0" fill="#000000" d="M2829 431c18 0 32 15 32 32 0 4-1 9-3 12v1 1c-4 13-16 22-30 22-18 0-32-14-32-31v-2-2-2c1-3 1-6 3-9v-2h1l1-2c0-1 1-2 1-3l2-2 1-1c6-7 14-12 24-12z" /><path stroke-width="0" fill="#000000" d="M3219 744h-11l-13 1-12 3-11 5-11 6-9 8-6 6-4 7-3 8-2 7v21l5 21h1c8 6 14 16 14 27 0 6-2 12-6 17l-1 2-8 17-5 19-4 20-2 21 1 22 2 22 8 41 5 15 6 11 2 2 2 1 1 1h2l10-2 11-4 12-7 12-9 24-23 21-25 15-21 13-23 12-25 10-24 7-26 4-25 1-24-3-24-3-12-5-10-6-10-7-8-20-15-23-10-26-4zm3-64c1 0 2 0 3 0l2 1 32 5h2c2 1 4 1 5 2h1l29 13c2 1 4 2 6 3l1 1 26 19 1 1c1 1 2 1 2 2l2 2 10 12 1 1c1 0 1 1 2 2v1l9 13 1 2 1 3h1l6 15c1 1 1 2 1 3l1 2 4 16 1 2v3l3 29c0 1 0 2 0 3v1l-1 29v2 2l-5 29v1l-1 2-7 28h-1v1 2l-11 28-1 1v1l-13 27-1 1-1 1h1l-15 25-1 1-1 1-16 23-1 2-23 27c0 1-1 2-2 3l-27 26-2 2-1 1-15 11-2 1-2 1-15 9-1 1c-1 0-2 1-3 1h-1v1l-16 6h-2c-1 1-2 1-3 1h-1l-17 3h-2c-1 0-2 1-3 1l-3-1h-11v-1c-2 0-4 0-6-1h-2l-9-4h-2c-1-1-3-2-5-3l-8-6-2-1c-1-1-2-2-2-2l-1-1-7-7-1-2c-1 0-1-1-2-2l-1-2v-1l-10-17c-1-1-1-2-1-3l-1-2-7-19v-1c0-1-1-2-1-3l-9-45v-1-3l-3-24v-3-24-1-2l2-25 1-3h-1l5-23v-1l1-3 6-22v-1c1-1 1-2 1-2l1-1 2-6-4-13-1-1v-3l-6-27c0-1-1-2-1-4v-3-27c0-1 0-2 0-3v-3h1l2-13v-1c0-1 1-2 1-3l1-1 4-13 1-1c0-1 1-2 1-3l1-1 7-12 1-1c1-1 1-2 2-3l1-1 10-11 1-1c1-1 1-1 2-2h1l13-11 2-1 2-2 14-8h1c1-1 2-1 3-2l15-6 3-1h1l16-4 2-1h2l16-2h1l3-1h17z" /><path stroke-width="0" fill="#000000" d="M3549 708c18 0 32 14 32 32v1l-2 64v1l-4 64-2 23 18-28v-1l33-49 2-2 18-23h1l1-2 20-21 1-1 1-1 13-12 1-1c1 0 1-1 2-1l1-1 15-9 2-2c1 0 2-1 3-1l1-1 8-2 1-1c1 0 2 0 4-1h2 1l7-1h1c1 0 2 0 3 0 1 0 2 0 3 0h3v1l8 1c3 1 6 2 9 3l1 1 8 4 1 1c2 2 4 3 5 4l2 2 13 15 1 1c1 2 2 3 3 5l1 2 9 19 1 1c0 1 0 2 1 3v1l6 20v1 2h1l4 21v2l9 57v2l6 59 7 58 4 27 6 25 9 24 10 20 4 5 4 6 1 1c3 5 5 11 5 18 0 17-14 32-31 32-10 0-19-5-25-12l-1-1-4-6-1-1v-1l-5-7c-1-1-2-2-2-3l-12-24h-1l-1-2-1-2-9-28v-1l-1-2-6-28-1-1v-1l-5-29v-1-1l-7-58v-1l-5-58-9-56-4-19-5-17-7-13-5-7-9 6-10 9-18 20-17 21-32 47-31 50-1 1-33 48-1 2-5 6v1h-1l-6 7-2 2c0 1-1 1-2 2v1l-6 4-2 1c-5 4-11 6-18 6-1 0-2 0-3 0l-1-1h-2-2c-12-3-22-12-24-25l-1-2c0-2 0-5 0-7v-2l3-64h1l5-64 4-62 2-64v-3c1-16 15-28 31-28z" /><path stroke-width="0" fill="#000000" d="M4256 633c18 0 32 14 32 31 0 16-11 28-25 31h-1v1h-2v1h-1l-23 10-24 12-47 29-45 33-42 35-19 18-8 8-6 8-2 4 3 3 12 7 13 7 33 13 36 11h1l35 13h1l3 1 13 7h1c1 1 3 3 5 4l11 9 1 2c3 3 5 6 7 10l5 11v1l1 2c1 3 1 7 1 10v1 8 1c-1 2-1 4-2 6v1l-2 7v1c0 1-1 2-1 3l-1 2-7 13c-1 1-1 2-2 3l-8 12c-1 1-1 2-2 3l-1 1-20 23-2 1-1 1-23 21-1 1-24 19h-1l-37 29-1 1-39 28h-1-1l-40 27-2 1-42 23-1 1-6 2-1 1c-4 2-8 2-13 2-17 0-31-14-31-31 0-12 6-23 16-28l2-1 4-2 40-22 40-26 38-27 37-28 22-18 22-19 18-20 6-9 3-7-7-3-33-12-35-11h-1l-1-1-36-13-1-1-2-1-17-8-3-2-15-10c-1-1-2-1-2-2l-1-1-7-6-1-1c-1 0-2-1-2-2l-1-1-4-6-2-1c-1-2-2-4-3-6v-1l-5-12v-2c-1-3-2-6-2-9l1-3 1-12v-1c0-3 1-6 2-9v-1l6-12 1-2c0 0 1-1 1-2l1-1 9-12 1-1 1-2 10-11h1l1-2 22-19h1l43-36 1-1 47-35h1l1-1 49-30 2-1v-1l25-12v-1h2v-1h1l24-11 5-2h1c2-1 4-2 6-2h1l4-1h2c1 0 2 0 3 0z" /><path stroke-width="0" fill="#000000" d="M4900 119h1l22 1h1 3l16 3 1 1c2 0 4 1 6 1v1l15 6 2 1c3 2 6 3 8 6l1 1 10 11 1 1c2 3 4 7 6 11l2 7v1l1 2c0 3 0 5 0 7v10 3c0 1 0 2-1 3v2l-5 18v1c-1 1-1 2-1 3l-1 2-10 19v1l-1 2h-1l-11 18h-1l-1 2-13 17-1 1-26 32v1h-1v1l-28 31-1 1-60 61v1l-61 60-58 60-20 24-18 25-6 10-3 10v8l1 9 3 6 5 8 14 18 15 15c6 5 9 13 9 22 0 18-14 32-31 32-8 0-15-3-21-7l-2-2-16-17c-1 0-1-1-2-2l-17-21-1-2-1-2v1l-7-12-1-1-1-3-5-12c-1-2-2-4-2-6v-1l-3-16-1-2c0-1 0-2 0-3v-3l2-16c0-3 0-5 1-7l5-15c0-1 0-2 1-3l1-2 7-15 1-1c0-1 1-2 1-3h1l20-29 2-1v-1l22-25 1-1 59-61v-1l61-60 59-61 27-30 26-31 12-17 11-15 7-14 2-10-4-2-11-2-17-1-18 1-37 6-38 11-41 13h-1c-2 1-6 2-9 2-17 0-32-14-32-32 0-13 8-24 20-29l2-1h1l41-13v-1h1l40-11 3-1h1l41-7h2 1l21-1h2z" /><path stroke-width="0" fill="#000000" d="M4766 1028c16 0 30 13 32 29l1 20 1 10c1 1 1 2 1 3 0 18-15 32-32 32-15 0-28-11-31-26l-1-3-1-9v-1l-1-20-1-3c0-17 15-32 32-32z" /></g></g></svg>