<?xml version="1.0" encoding="utf-8"?>
<!-- Created with Majerus.net InkPaint (http://www.majerus.net/InkPaint/) -->
<!DOCTYPE svg PUBLIC "-//W3C//DTD SVG 1.1//EN" "http://www.w3.org/Graphics/SVG/1.1/DTD/svg11.dtd">
<svg xmlns="http://www.w3.org/2000/svg" version="1.1" width="294.7mm" height="84.55mm" viewBox="0 0 5894 1691" preserveAspectRatio="xMidYMid meet"><!-- Generator: Majerus.net InkPaint UWP 1.1.14.0 --><g fill="none" stroke-linecap="round" stroke-linejoin="round"><g stroke="#000000"><path stroke-width="0" fill="#000000" d="M775 784c17 0 30 13 30 30 0 11-6 21-16 27l-2 1-8 3-9 4-38 21-37 23-36 26-35 29-66 63-30 33-29 34-43 60-37 62-30 66-24 69-8 34-7 35-5 36-2 20 14 95v1l5 48 1 1v2l1 23v2 2l-2 23v1c-1 15-14 27-30 27-1 0-2 0-3 0l-3-1h-1c-8-1-16-7-20-15l-1-1-1-2v-2l-1-1-3-8v-2l-4-10v-2l-2-9-1-1v-1l-6-38v-2l-4-38v-2l-1-37v-2l1-38v-2-10l-2-20-22-123-24-121-13-58-13-56-2-8-2-4-1-2-1-4c-1-2-1-4-1-6v-1l-1-5v-3c0-17 14-30 30-30 16 0 29 12 31 27v3l2 5v2l1 1 2 9 1 2 13 56v1l13 58v1l22 108 17-48v-2l1-1 31-68 1-2 1-1 38-65 1-2 1-1 45-62 1-1 29-35 1-1 32-34 1-1v-1l68-65 2-1 36-30 1-1 38-28h1l1-1 39-24 1-1 40-21v-1h2l10-5h1l8-4c4-2 8-2 12-2z" /><path stroke-width="0" fill="#000000" d="M1590 956c6 0 12 2 17 5l5 3v1l2 1 2 2 8 8 1 1 32 34 1 2h1l29 37 1 2 26 39 1 1 23 41 1 1v1l21 42 1 1 19 43 1 2 33 88 16 45 9 19 10 17 5 7 1 1c3 5 5 11 5 17 0 17-13 30-30 30-9 0-18-4-23-11l-1-1-7-8h1l-1-1-1-2-12-20-1-1-1-2-10-21v-1-2l-17-45-33-87-18-42-20-40-23-39-25-37-19-25v2 1 2l-6 67v3l-12 65v1 2l-18 64v1l-1 1-12 34v2h-1l-14 35h-1l-1 2v1l-18 33v1l-1 2-21 32v1l-2 2-24 30c-1 1-2 1-2 2l-1 1-27 25h-1l-1 2c-1 0-1 1-2 1l-31 21-3 1c0 1-1 1-2 1l-1 1-34 13v1h-2l-3 1-20 4-1 1c-1 0-2 0-3 0h-1l-19 1h-2-2l-19-1c-1-1-2-1-3-1h-1l-17-4-2-1-2-1h-1l-15-6-1-1c-1 0-1 0-2-1h-1l-15-9-2-1c-1-1-1-1-2-2l-27-23-2-2c-1 0-2-1-2-2l-23-29-2-2-1-1-19-32-1-1-1-2-15-34-1-1v-2l-12-34-1-1v-1l-18-68-1-2v-1l-13-70v-2l-9-72-1-2-4-70v-2-2l2-20v-1l2-19c1-15 14-27 30-27 17 0 30 13 30 30v3l-2 19-1 17 4 68 9 69 13 69 17 66 11 32 15 31 17 29 20 25 23 19 11 6 12 5 12 3 14 2 14-1 16-4 29-11 26-18 24-22 22-27 19-30 17-32 14-33 12-32 17-62 11-62 5-64-2-64v-5-2-2-4-1c1-6 3-12 7-16l2-3 2-2c6-6 13-9 22-9z" /><path stroke-width="0" fill="#000000" d="M2086 834c13 0 23 8 28 19l1 1v2l1 1 1 4v1l25 93 1 2 20 95v1l17 96v1l16 95 10 64v1l9 65v1l4 39 26-53 26-61 25-62 47-127 24-63h1v-1l25-60v-1l14-32 1-1 15-32 1-1 1-2 19-29c0-1 1-2 2-2l1-1 11-13 1-1 2-2 13-10c1-2 3-3 5-4l11-6 2-1c2-1 4-1 6-2h1l11-2h1c1 0 2 0 3 0 1 0 2 0 4 0l2 1h1l9 2c3 0 6 1 8 3h1l8 4v1l3 1c0 1 1 1 2 2l1 1 8 7 1 1c1 1 1 1 2 2l7 9 2 2 1 2 12 21c1 1 1 2 1 3l14 33 1 3 12 35v1l9 37 1 1 7 37v2l12 75 12 72 15 77 10 38 11 37 13 36 16 34 18 32 22 29 8 11 10 9h-1l2 2c4 5 7 12 7 19 0 17-14 30-31 30-8 0-16-3-21-9h-1l-9-11h-1l-10-12-1-1-1-1-23-32-1-1-1-2-19-34-1-1-1-2-16-36-1-1v-1l-14-38-1-1v-1l-11-38-1-2-10-39v-1l-16-78v-1l-12-73-12-75-7-36-9-35-10-33-13-30-9-17-5-5-3-3-1-1-4 2-9 8-8 9-16 25-15 29-13 31-25 61-24 62-47 126-1 1-24 62-1 1-26 62-1 1-29 60v2l-32 57h-1v2l-5 7-1 1v1l-6 8-1 2c-1 0-1 1-2 2l-1 1-5 4-1 1c-5 5-12 7-19 7-3 0-5 0-7 0l-1-1h-1-2c-10-4-18-12-21-23v-1-2l-1-3v-2l-2-64-7-64-9-64-10-63-16-95-17-96-20-94-24-92-1-2-1-2h1l-1-1c-1-2-1-5-1-9 0-16 13-30 30-30z" /><path stroke-width="0" fill="#000000" d="M3756 988c17 0 30 13 30 30v1 2 5l1 61v1l-1 61-1 63v61l3 62 5 60 9 58 14 57 6 18 7 17 9 15 10 13 9 8v1c6 5 9 13 9 21 0 17-13 31-30 31-7 0-14-3-19-7l-2-2-10-9-1-1c0-1-1-1-2-2v-1l-13-16-2-2-1-2-10-18v-1c-1-1-1-1-2-2l-8-20-1-2v-1l-7-20v-1l-1-1-14-60-1-1v-1l-9-61-1-2-5-62v-2l-2-62v-1-62-1-62l1-62-1-60v-5-3-1l1-3c1-12 9-22 21-26h1l2-1c2 0 4 0 6 0z" /><path stroke-width="0" fill="#000000" d="M3711 437c17 0 30 14 30 31 0 14-10 27-24 29l-3 1h-4l-9 2h-1l-2 1c-1 0-2 0-3 0-17 0-31-14-31-31 0-14 11-27 25-29v-1l10-1 1-1v1l2-1h6c1-1 2-1 3-1z" /><path stroke-width="0" fill="#000000" d="M4306 398c11 0 22 7 27 16v1l1 2 1 2c0 0 1 1 1 2v1l1 4v1l2 5v4l26 110v1l22 110v1l18 111v1l15 112v1l12 112v1l10 112v1l16 226 6 100 9 99v5l1 4v1c0 1 0 2 0 3 0 17-13 31-30 31-15 0-27-11-30-25v-2l-1-5-1-6v-1l-9-99v-1l-6-100-15-226-10-112-12-111-15-111-18-111-21-109-26-109v-4l-1-4-1-1v-1c-2-3-2-7-2-11 0-17 13-31 30-31z" /><path stroke-width="0" fill="#000000" d="M4818 963c17 0 31 14 31 31 0 11-7 21-16 26l-2 1-18 9h-1l-20 9h-1l-26 11h-1-1l-28 11-2 1-58 19h-1-1l-67 17h-1-1l-67 13h-2l-68 9h-1l-68 7v1l-137 13-66 8-66 11-15 2-14 3-9 3-1 2c-6 8-15 13-25 13-17 0-31-13-31-30v-2l1-3c0-4 1-6 2-9v-1l2-3 1-2c2-4 5-8 9-11h1l12-8 1-1c1 0 2-1 3-1l3-1 15-5c1 0 2 0 3 0v-1l16-3h1l15-2 67-11h1l67-8 1-1 137-13 67-7 67-9 66-12 65-16 57-19 28-10 26-11 20-9 18-8h1c3-2 7-3 11-3z" /><path stroke-width="0" fill="#000000" d="M5097 196c17 0 30 14 30 31v3 4l1 109 1 109 3 109 3 108 4 67 6 67 7 67 10 64 3 14 2 13v2c1 1 1 2 1 3 0 17-14 30-31 30-14 0-27-10-29-24h-1l-2-13-2-14-1-1-10-66v-1l-8-67v-1l-5-68v-1h-1l-3-68-4-109-3-110-1-110v-108-1-4-3-3c1-16 14-28 30-28z" /><path stroke-width="0" fill="#000000" d="M5329 1366c17 0 31 13 31 30 0 7-3 14-7 19l-1 1-1 2c-3 13-15 22-29 22-14 0-26-11-29-25l-1-2v-1-2-2l-1-2c0-1 0-2 0-3 0-4 1-8 3-12v-1l1-2 1-2c2-3 4-6 7-9h1l4-3 1-1 1-1 3-2 2-1c4-2 9-3 14-3z" /><path stroke-width="0" fill="#000000" d="M5692 193c16 0 29 12 30 27l1 3v1 1 2 173l3 173 4 173 7 171 2 32 1 30v2c0 17-13 30-30 30-16 0-29-12-30-27v-1l-2-31-2-32h1-1l-6-172-5-173v-1l-2-174-1-173v-2-1-1c0-16 13-30 30-30z" /><path stroke-width="0" fill="#000000" d="M5859 1398c9 0 16 3 22 9l1 1 1 1 2 2c4 5 7 12 7 19 0 17-14 31-31 31-8 0-16-4-21-9l-1-1-1-1-2-2c-4-6-7-12-7-20 0-16 14-30 30-30z" /></g></g></svg>